/* XPM */
static char *COBLE[] = {
/* columns rows colors chars-per-pixel */
"64 64 72 1 ",
"  c gray47",
". c #7A7A7A",
"X c #7C7C7C",
"o c #7D7D7D",
"O c #7E7E7E",
"+ c #7F7F7F",
"@ c #808080",
"# c #818181",
"$ c #828282",
"% c #838383",
"& c #848484",
"* c #858585",
"= c #868686",
"- c #878787",
"; c #888888",
": c #898989",
"> c #8A8A8A",
", c #8B8B8B",
"< c #8C8C8C",
"1 c #8D8D8D",
"2 c #8E8E8E",
"3 c #8F8F8F",
"4 c #909090",
"5 c #919191",
"6 c #929292",
"7 c #939393",
"8 c #949494",
"9 c #959595",
"0 c #969696",
"q c #979797",
"w c #989898",
"e c #999999",
"r c #9A9A9A",
"t c #9B9B9B",
"y c #9C9C9C",
"u c #9D9D9D",
"i c #9E9E9E",
"p c #9F9F9F",
"a c #A0A0A0",
"s c #A1A1A1",
"d c #A2A2A2",
"f c #A3A3A3",
"g c #A4A4A4",
"h c #A5A5A5",
"j c #A6A6A6",
"k c #A7A7A7",
"l c #A8A8A8",
"z c #A9A9A9",
"x c #AAAAAA",
"c c #ABABAB",
"v c #ACACAC",
"b c #ADADAD",
"n c #AEAEAE",
"m c #AFAFAF",
"M c #B0B0B0",
"N c #B1B1B1",
"B c #B2B2B2",
"V c gray70",
"C c #B4B4B4",
"Z c #B5B5B5",
"A c #B6B6B6",
"S c #B7B7B7",
"D c #B8B8B8",
"F c #B9B9B9",
"G c #BABABA",
"H c #BBBBBB",
"J c #BCBCBC",
"K c #BDBDBD",
"L c #BEBEBE",
"P c #BFBFBF",
"I c #C1C1C1",
"U c #C2C2C2",
/* pixels */
"zMbMMCCCMMMMbMMMMCMMqkCMCMCGCGCCCCCCKCCCMCqzCbbbzbMMMMMCCCCCMMCe",
"CMzbbbbMMMMMMCCMbbbM6MGbMCMCCMCMGCCCbMMCCG2bCbMMMMMMMMCCbMMMMMbq",
"bbbMbMbbzzzzzzzkkzkz>bMMMCMbMbMMbbMzbbMMbM6zMzbbbzzzkkkkzzzzzzk>",
"CMbzzkkkzbbzzzMMMMbb2bCbbMbbbzbbbMMMMMMMMM6zMkzkzbzbbzzzzbbbMbb6",
"Cbzzbbbbzkzzbzbzzzzz2MCMCMCCCMbbMMMMCMCCCMqzMzbbzbzzbbbMbbbbbzb6",
"MMbMbbbbzbbbbbzbbbMb2bCbbbMMMMMMCMMMzzbMMb2zbbbzzzzbbbzzzkbzzbz>",
"Mbzzbbbzzbbbbzbzzbbb>bCMCMMMCMCCCCMCCMMCMC6bMbzbbbbzbzkkkkzzbbb6",
"q22>2>>>>2>>222622>2&q666662622>2222226q66>q>>>2>>222>226622>>2&",
"bzzzbbbzbp&ppssssppepepepppspsq>bbzzzzzzbbMMbbzbbbbbp>Mbzbzbbbbb",
"MbbbbbbbMs2bsspkskkkkssssspppsq6IMMCMbMbbbzbMbMbbbbMpqKMCMbbbbMb",
"zzkkkzzzbp>zepspppepssspppppps22CzzbzzbzMbbbbbbbbbzbeqCkzzzbzbbz",
"bbbbMbbzze>zspepppkkpsppspssps22GzzzbzbzzzzbzzzzzzzbeqCzzzzbbbbb",
"zzbbzzzzbe2zssssspeepessssssssq6GzbzzzbbMMbbbzbbbbzbe6bzzzbbbzzz",
"bzkzzbbzbp>keepeppsspppppppsps22GzbbbbzzzzzzzbzzbbbCseKbzzkzbbMb",
"bbMbbzbbbs2zppssspsppspspppppk62GzMbbzzzzbzzzbbzzzzzqqCbbbbbbbbb",
">>2266222>@&O@OO@&&&&@@&@&@&@@ @q>>>>>222>>222>66262&>2&>&>>>2>2",
"MGCGGGCCMMCCCGCMCCCCqpbzzzbbzzbbbbzzzzzzzz2pzkkzzzzzzkzbzkkskzk2",
"GGGGCKKKIKGGGGGCCGCGqzCbbbzbbMMCCCMMMMMMMb2zbzbzzzzzzzzzzzzbzzz>",
"GCCCGCCCCCCMMCGGGCGCqzbzbbbbzzzkzzzbzzzzbb2zzkksksksskkskskkkkk>",
"GGCGGCGCCCGGCGMCCCCGqbbzbbbbbzzbbbbzzzzbbb2zzkkkzkzzkkzzzkkkkkk>",
"KKMCMCCCCCMGCCCMCCCCebMbzzzkzzbzbbzzbzbzzz&kzskkzkzkzkskkkkkssz>",
"GGCCCCCGGCCCCCGGGGGCqzMbbzbbbMbMbzbbbMbbbb>kbkzzkksskzkkkskkkzk>",
"KCMCCCGGCMCMCMMCCCCGebbzbbzzbbzzkzzzzbzbbb2zzsskskkkkkkzkzkkkkk>",
"kepepqqqqqqqeeqqqq6q2222>222>>>>6222>2>>2>O>>>>2>>&2>>2&>&>>>&>O",
"bzbbbzbzzs>kpppesssssskssspssp6>CMbbbbbbbMMMMMMMbMbCs>bzzkzbbbbb",
"bMMMMbMMCs2zskkksksskzkkkkkkkzq6ICGGGCGGGGCCCCCCCCCCp6GbbbMMbbbb",
"zbzbzkzzbp2zskksskkspppepsssss26KzbbbbbbbbbbbbMMMMMMe2Mzzbzbbbbb",
"zkzzzbbzbp2zssssppssskssssppps62GbMMGCMMCMCCCMMbMMbMp6Gbbzzzbbbz",
"bbbbbbzbMp2zsssskssspppspssssk66KbMMbbMzMbbbbMMMMMMMe>Czzzzzzzbb",
"bzzkzzzbMe>zppppspsspspppspsss22KMCMMMMMMMCMCMMbMMMCp6Czbzbbzzkz",
"bzbbbMMzbp>bpkkskskzkzkkssskkzeqIbMMMMMMMMbbbMbMMMMCp2CzMbbbbbbb",
"262>&&>22>&&O@@@@&@&&@&&&>&@OO @e62626qq666q6qq6qqqq2&q2>2>2>>>>",
"szksskskkkkkkssszzkbqpbzzzkkkkkzzbbbzzkzzzqzKCMCCCCGCCMCCGCCMbbs",
"bzzbbMbbkzzzzbzzzzzb>MMbMMMMbCMMbMCCMMMbbM2CKKKIKKCGKKKCCCGKKKKp",
"zzskzsssskksksskkssk&bbzzzzkkkkzbzbbbMMbbM2GGCGCCCCCCCCCGCCCMCCq",
"Mzkkkkkkkkzzkzkkkzkk>kbzzbzbbbbbbzzzzzbzzz>CGCMCCCGCCCCCCCGGCCM6",
"zkskksszskkskskkkkkz2bMbbzbzzbbzbbMbMbbbbz2MGMCCCCCCCCMCMCCMGGGe",
"Mbzzzkzzskkkkkkkkzks&zMbzbzzzzzbzzzkzzbzzb2CGCCCGCGCCCGGGGCCCCCq",
"zkkkkkkzzzzzkkkszzzb2zMbbbbbzzzzbbbbbbzbzb6CGCCCMMMMCCCCGCGGCGCq",
"62>>>>&&>>>&&>&>>>&&O2>>>>222>2>>2>>2>>22>@eeeeepppeeeqeqpeqeqe6",
"bzzkkkzzbp2bbzzbzbzzzzbzzzzbbbp>zkksssssssksksssksskkqzzzzzzzzbb",
"CMMMbMMMMs6GbzbbbbCMMMMbMMMMbMp2bkkkzkkzzkzzzzzzskkkspCbbMbbbzMM",
"bzzbbzbzbpqMzbbbMbzzzzzzzkzzzbp2MsssssskkkkkkskkkkkkspCbbbzzkzzz",
"kkzzzbbbbp6CzzzzzzzbzbzkbzbbbMp6zskskkssssssppppspskseCzzbbbbbbz",
"bbbzzbzkbp6Gbbzbbbbbzbbbbbbzzbp2bsskskksskpsssskksksspCbzzbzbbbM",
"bzzzbzbzbp6Czzzzzbzkzzzbzbbzbzp6bkkksksksskkkkskszkkseMkzzzbzzbz",
"bbbbbzzbbp6CkzzbbbzbMMMbbbzzzbp2bsskssssssppskkkssssspGbbbzzzkzz",
">>2>2>>>2>>e2>>>>>>>>&>&>>2222&>2&&&>&&&>&>>>&&&&>&&226>>>>2262>",
"pkskkzzzzbbbbzkssskk2qksssksssspepspsppsek6sbzzbbzzzbbbzbzbbbzbq",
"Mbzzzzzkzzzzzzzbzbzz>szkkkskkkkkkkkkkkkzzz6MCbbbMMCMMbbbMMMMMbb6",
"zkkzkkkkkzkssskkssks&skpppssssksppppssssss>zbzzbzbzzbzzzzbbbzzk2",
"zzskkkskkzzzbzkskkzz>pksssppssssssksksssps>zMzbbbbbbbbbbbzzzzbb6",
"bkszzzzzkkpkkkkzzzkk>psspsssppppspssppppps>kMzzbzzbzzzzbbzbzbbb2",
"bbkkskskkkkkskkssszz>skpsspsssksksskskksps2bMbzzbzzzkzzzzzzkzzz2",
"zkskzbkkkskkkzkkkkkz&szskskksssssppppsspss>zbzzzzzbbbMzzbbbbbbb6",
"6>>&&&&>&&>@&&&&>2&>O&&&@@@@@&@@@&@&&>&>&&&e62226622222222262>2@",
"pepeeeeep6&MzbzzbzkzbbMbbzzkkzs6bbzzzzzzkzbbbzbbzbzbs>eeeeeeeppp",
"ppppsppps22GbbbMMMCMCCMMMMMbbbpqKMCCCMMCCCMbMMbMMbbMp2zssssssssp",
"eeepeepps22Czzzbzzkzzkzzzzzzbzq6Ckkkzzbzzzzzkkzzbzzbp2kppeeepepp",
"eppsppepp2>CzbzzzzzzbzbbbbbbbMp6CzzbMbbbbbbMMbzzzbkbp>spppspeqqq",
"speeeppes22Gzbzbbzbzzzzbzbzkkze6Gbzbzkzkzzkzzzbbbbzze>seqeeeppps",
"pepseppes>&Gbbbbbbbzzbbbbbzzzbp2Mzbbbbzbzbbbbbzzbzzbp2seppeppqee",
"peeepeeps>>CzbbbMbMbbzzkzbMbbMpqGzzbzzzzbzzzzzzzbbbbp>kpppppsepe",
"OOO@O@@@@ Oq22>2>>>>2222222>2>@&62>226622>22222266666&&O O OO OO"
};
