/* XPM */
static char *gun_reload3[] = {
/* columns rows colors chars-per-pixel */
"60 64 178 2 ",
"   c #030302",
".  c #080605",
"X  c #060B04",
"o  c #0B0A05",
"O  c #0C0C0B",
"+  c #160F07",
"@  c #110F0B",
"#  c #0B1607",
"$  c #0E120A",
"%  c #0E1808",
"&  c #141107",
"*  c #181007",
"=  c #14120C",
"-  c #1B150C",
";  c #131909",
":  c #1C1C0C",
">  c #141413",
",  c #191612",
"<  c #161915",
"1  c #1C1915",
"2  c #1C1B1A",
"3  c #221D0D",
"4  c #2B1E0F",
"5  c #211C15",
"6  c #211F1B",
"7  c #1F201F",
"8  c #25210E",
"9  c #2A210F",
"0  c #272013",
"q  c #2B2511",
"w  c #2E2812",
"e  c #23211D",
"r  c #29241D",
"t  c #2B281F",
"y  c #312612",
"u  c #342A14",
"i  c #3B2E16",
"p  c #3A2D18",
"a  c #3C3017",
"s  c #37321E",
"d  c #3F3118",
"f  c #1F1F20",
"g  c #1F2020",
"h  c #242323",
"j  c #292623",
"k  c #272B25",
"l  c #2B2925",
"z  c #282728",
"x  c #272828",
"c  c #2C2B2B",
"v  c #312C24",
"b  c #302E2B",
"n  c #373026",
"m  c #3A3420",
"M  c #33312E",
"N  c #3A372E",
"B  c #343433",
"V  c #383735",
"C  c #3A3935",
"Z  c #3C3C3C",
"A  c #412E17",
"S  c #403017",
"D  c #44331A",
"F  c #4A361B",
"G  c #4D391D",
"H  c #523B1F",
"J  c #473A26",
"K  c #563E20",
"L  c #5A3F22",
"P  c #403A30",
"I  c #4B402B",
"U  c #5B4123",
"Y  c #43423F",
"T  c #4C4330",
"R  c #644525",
"E  c #684726",
"W  c #664826",
"Q  c #6A4827",
"!  c #624528",
"~  c #65492B",
"^  c #6D4B2A",
"/  c #724D2B",
"(  c #75512F",
")  c #7C522E",
"_  c #634E34",
"`  c #7C5532",
"'  c #775432",
"]  c #434343",
"[  c #484644",
"{  c #474847",
"}  c #4B4843",
"|  c #4C4B4B",
" . c #504E4B",
".. c #51504E",
"X. c #59534D",
"o. c #525252",
"O. c #585653",
"+. c #5B5B5B",
"@. c #615746",
"#. c #625A49",
"$. c #6B5E4B",
"%. c #775C40",
"&. c #5F605F",
"*. c #6F614D",
"=. c #71624B",
"-. c #686359",
";. c #766A59",
":. c #626262",
">. c #6A6964",
",. c #6C6C6C",
"<. c #756F67",
"1. c #71706F",
"2. c #797268",
"3. c #737373",
"4. c #7F7D77",
"5. c #7C7C7C",
"6. c #815531",
"7. c #865934",
"8. c #8B5B35",
"9. c #8C5F39",
"0. c #935F38",
"q. c #95623B",
"w. c #9C663D",
"e. c #A2683F",
"r. c #8E6442",
"t. c #976640",
"y. c #9C6740",
"u. c #9B6A44",
"i. c #9A6D49",
"p. c #967050",
"a. c #A46C43",
"s. c #A96E43",
"d. c #A26F48",
"f. c #AE7146",
"g. c #AB734B",
"h. c #B07346",
"j. c #B3754A",
"k. c #B8774A",
"l. c #B7794D",
"z. c #BA794C",
"x. c #B37A52",
"c. c #BC7D51",
"v. c #BD8057",
"b. c #80807F",
"n. c #91897C",
"m. c #C58154",
"M. c #C98355",
"N. c #CA8659",
"B. c #CB895D",
"V. c #C58458",
"C. c #D18A5C",
"Z. c #DB8F5F",
"A. c #CB8C61",
"S. c #D98F60",
"D. c #CE936C",
"F. c #D09167",
"G. c #DD9466",
"H. c #D4966F",
"J. c #DA976C",
"K. c #E89B6B",
"L. c #858584",
"P. c #888681",
"I. c #888887",
"U. c #8A8A8A",
"Y. c #918D88",
"T. c #959493",
"R. c #9E9E9E",
"E. c #9C9590",
"W. c #A5A5A5",
"Q. c #A7A7A8",
"!. c #A9A9A9",
"~. c #B2B3B2",
"^. c #BDBCBC",
"/. c #C3C3C3",
"(. c #CACACA",
"). c #D3D3D3",
"_. c #DEDEDE",
"`. c None",
/* pixels */
"`.`.`.`.`.`.`.`.`.`.`.`.`.`.`.`.`.`.`.`.`.`.`.`.`.`.`.`.`.`.`.`.`.`.`.`.`.`.`.`.`.`.`.`.`.`.`.`.`.`.`.`.`.`.`.`.`.`.`.`.",
"`.`.`.`.`.`.`.`.`.`.`.`.`.`.`.`.`.`.`.`.`.`.`.`.`.`.`.`.`.`.`.`.`.`.`.`.`.`.`.`.`.`.`.`.`.`.`.`.`.`.`.`.`.`.`.`.`.`.`.`.",
"`.`.`.`.`.`.`.`.`.`.`.`.`.`.`.`.`.`.`.`.`.`.`.`.`.`.`.`.`.`.`.`.`.`.`.`.`.`.`.`.`.`.`.`.`.`.`.`.`.`.`.`.`.`.`.`.`.`.`.`.",
"`.`.`.`.`.`.`.`.`.`.`.`.`.`.`.`.`.`.`.`.`.`.`.`.`.`.`.`.`.`.`.`.`.`.`.`.`.`.`.`.`.`.`.`.`.`.`.`.`.`.`.`.`.`.`.`.`.`.`.`.",
"`.`.`.`.`.`.`.`.,.,.:.|  .`.`.`.`.`.`.`.`.`.`.`.`.`.`.`.`.`.`.`.`.`.`.`.`.`.`.`.`.`.`.`.`.`.`.`.`.`.`.`.`.`.`.`.`.`.`.`.",
"`.`.`.`.`.`.`.{ | o.] B Z o.`.`.`.`.`.`.`.`.`.`.`.`.`.`.`.`.`.`.`.`.`.`.`.`.`.`.`.`.`.`.`.`.`.`.`.`.`.`.`.`.`.`.`.`.`.`.",
"`.`.`.`.`.`.[ B Z ] V B V ] `.`.`.`.`.`.`.`.`.`.`.`.`.`.`.`.`.`.`.`.`.`.`.`.`.`.`.`.`.`.`.`.`.`.`.`.`.`.`.`.`.`.`.`.`.`.",
"`.`.`.`.`.`.B c c B c c V Z | `.`.`.`.`.`.`.`.`.`.`.`.`.`.`.`.`.`.`.`.`.`.`.`.`.`.`.`.`.`.`.`.`.`.`.`.`.`.`.`.`.`.`.`.`.",
"`.`.`.`.`.`.P c h f h x V ] o.,.`.`.`.`.`.`.`.`.`.`.`.`.`.`.`.`.`.`.`.`.`.`.`.`.`.`.`.`.`.`.`.`.`.`.`.`.`.`.`.`.`.`.`.`.",
"`.`.`.`.`.x Z c 2 2 h x B Z { +.`.`.`.`.`.`.`.`.`.`.`.`.`.`.`.`.`.`.`.`.`.`.`.`.`.`.`.`.`.`.`.`.`.`.`.`.`.`.`.`.`.`.`.`.",
"`.`.`.`.k < c x 1 2 6 x B ] { o.`.`.`.`.`.`.`.`.`.`.`.`.`.`.`.`.`.`.`.`.`.`.`.`.`.`.`.`.`.`.`.`.`.`.`.`.`.`.`.`.`.`.`.`.",
"`.`.`.`.Z x h h 5 2 f x V ] { ] b 6 6 5 C `.`.`.`.`.`.`.`.`.`.`.`.`.`.`.`.`.`.`.`.`.`.`.`.`.`.`.`.`.`.`.`.`.`.`.`.`.`.`.",
"`.`.`.`.Z c c f 2 2 f x B ] | { < , l , > b `.`.`.`.`.`.`.`.`.`.`.`.`.`.`.`.`.`.`.`.`.`.`.`.`.`.`.`.`.`.`.`.`.`.`.`.`.`.",
"`.`.`.`.] j f f > > f x V Z | { < $ : 3 h c >.`.`.`.`.`.`.`.`.`.`.`.`.`.`.`.`.`.`.`.`.`.`.`.`.`.`.`.`.`.`.`.`.`.`.`.`.`.",
"`.`.`.`.| j 6 2 2 > f x B Z { | 2 o & * r P ] `.`.`.`.`.`.`.`.`.`.`.`.`.`.`.`.`.`.`.`.`.`.`.`.`.`.`.`.`.`.`.`.`.`.`.`.`.",
"`.`.`.`.{ h 5 2 , 2 f x B Z { o.b @ & & 1 V Z `.`.`.`.`.`.`.`.`.`.`.`.`.`.`.`.`.`.`.`.`.`.`.`.`.`.`.`.`.`.`.`.`.`.`.`.`.",
"`.`.`.`.| h 1 1 - 5 1 h c ] { o.Z O o * 5 c X.`.`.`.`.`.`.`.`.`.`.`.`.`.`.`.`.`.`.`.`.`.`.`.`.`.`.`.`.`.`.`.`.`.`.`.`.`.",
"`.`.`.`.B h 1 1 - - 5 g c Z ] | [ > + * * 5  .`.`.`.`.`.`.`.`.`.`.`.`.`.`.`.`.`.`.`.`.`.`.`.`.`.`.`.`.`.`.`.`.`.`.`.`.`.",
"`.`.`.`.V h < 2 - 3 5 f z Z Z { | h , h b B B ..`.`.`.`.`.`.`.`.`.`.`.`.`.`.`.`.`.`.`.`.`.`.`.`.`.`.`.`.`.`.`.`.`.`.`.`.",
"`.`.`.`.| x , < - - 5 f h V Z Z | z h h M 3.I.,.`.`.`.`.`.`.`.`.`.`.`.`.`.`.`.`.`.`.`.`.`.`.`.`.`.`.`.`.`.`.`.`.`.`.`.`.",
"`.`.`.`.`.l , , , - 3 6 h b V V | c h h j 1.).(.W.L.`.`.`.`.`.`.`.`.`.`.`.`.`.`.`.`.`.`.`.`.`.`.`.`.`.`.`.`.`.`.`.`.`.`.",
"`.`.`.`.`.c - 3 , , - > 6 j b b | c f x c ] ^._.!.X.r.B.B.M.M.C.G.K.G.D.`.`.`.`.`.`.`.`.`.`.`.`.`.`.`.`.`.`.`.`.`.`.`.`.",
"`.`.`.`.`.[ 3 , > 1 , , 1 5 j j ] c f c B B L.(.3.n E / 6.8.8.w.z.B.m.a.A.A.`.`.`.`.`.`.`.`.`.`.`.`.`.`.`.`.`.`.`.`.`.`.",
"`.`.`.`.`.| - 3 , 1 - - , 5 5 5 B x f c B B | 1.C 5 u y i F H R 8.e.8.R 6.j.p.`.`.`.`.`.`.`.`.`.`.`.`.`.`.`.`.`.`.`.`.`.",
"`.`.`.`.`. .5 - , 1 , - - - 1 , h x 1 c B B B c f 5 J E / ^ / ) 0.w.f.j.q.( _ `.`.`.`.`.`.`.`.`.`.`.`.`.`.`.`.`.`.`.`.`.",
"`.`.`.`.`.[ 5 - , 2 1 * * - - - 5 j > h B B B f 2 ! 0.j.z.e.6.6.q.^ / f.m.l.x.D.`.`.`.`.`.`.`.`.`.`.`.`.`.`.`.`.`.`.`.`.",
"`.`.`.`.`.`.h - > 2 < * = = = - 5 6 > 2 B B B < u E ` ) / / R H Q / D G / ) l.Z.m.N.J.`.`.`.`.`.`.`.`.`.`.`.`.`.`.`.`.`.",
"`.`.`.`.`.`.h 1 @ 2 2 - & & - - * 1 @ > c B V g y D H K H H H F D K H i u u U w.q.0.j.M.Z.`.`.`.`.`.`.`.`.`.`.`.`.`.`.`.",
"`.`.`.`.`.`.l 1 = 2 g > + + * * * * , = x B B c 5 q u a H ^ / / 6.w.a.^ S y y D U K ^ 8.a.z.c.`.`.`.`.`.`.`.`.`.`.`.`.`.",
"`.`.`.`.`.`.c 6 , 2 6 > & + + + * * 1 > 2 c V c h - : 0 U / ^ ^ / ) 8.8.R H U D i i F K ^ 9.0.` `.`.`.`.`.`.`.`.`.`.`.`.",
"`.`.`.`.`.`.b 6 = > 6 2 & & + + + * r , > c B c x > . - D S S D D D a u D K 9.y.t.x.g.g.c.M.B.N.c.H.`.`.`.`.`.`.`.`.`.`.",
"`.`.`.`.`.`.2 6 > > g 2 = & * * * * , 5 $ f c x l 2 O - y 3 - * 3 y w i G U / 7.( a.j.s.s.a.s.k.m.V.V.d.`.`.`.`.`.`.`.`.",
"`.`.`.`.`.`.2 h 1 > 2 2 & # * + * & * 6 > > > > > > O % ; * & 4 A F U U G G G F a D U W W U W ^ / / / U U =.`.`.`.`.`.`.",
"`.`.`.`.`.`.e h 2 > 6 6 , & * + * & * 1 O > O > > f 2 > $ # 5 U Q ( w.j.9.K a i a u u u u a d F G G H G w w `.`.`.`.`.`.",
"`.`.`.`.`.`.O.z g > 2 h > & * + * & & - $ $ > < g x < > = . y K H G U ^ 6.8.) 8.e.w.' ~ ~ ~ ~ ( e.e.e.d.i.q.`.`.`.`.`.`.",
"`.`.`.`.`.`.3.x h 2 2 2 , # & + * & & - $ O < h B x x 2 > $ : q 9 9 9 q u F H ( q.w.e.f.j.v.v.v.v.h.e.v.N.G.F.`.`.`.`.`.",
"`.`.`.`.`.`.3.h h 2 2 h 2 @ + * * & & - , $ 2 x B x c g f 2 $ # # # ; 8 w i D G K U / ) ) 6.6.) ) ) 6.8.8.w.e.u.`.`.`.`.",
"`.`.`.`.`.`.`.B h 1 2 6 2 + + * + + $ & - & 2 x c x c c h f 2 $ # # % 3 y i i D d u d G K K U H K U U R W W R K =.`.`.`.",
"`.`.`.`.`.`.`.P h g 2 6 2 = & + * & * & & O > x B c B B c h f 2 O X X # ; : : 8 3 % ; 3 9 u a a a a D D S i y q #.`.`.`.",
"`.`.`.`.`.`.`.[ h g 2 g h > & + * * & & @ $ O x B c c | 3.] h f 2 > O X # # # % % # # # % % ; : 8 q q 8 8 8 ; : #.`.`.`.",
"`.`.`.`.`.`.`.} h g 2 g g , + + * & & ; + +   7 B c c ] R.I.] x h h 2 > O . X O # # # # # # # # ; ; ; % ; % # 7 *.`.`.`.",
"`.`.`.`.`.`.`.P x h 2 g 6 > = + * & & & + + # , c B B B 5.(.Q.b.o.c x g f > O . X X X # # # # # # # # # # # % u `.`.`.`.",
"`.`.`.`.`.`.`.`.x h 2 2 h 2 + & * @ & & * * o # h c B Z +.^.).(.!.:.Z x g g f >         X # # # # # # # # # ; F `.`.`.`.",
"`.`.`.`.`.`.`.] B x 2 2 g 1 + & & * + & # & v > 2 x B | | R.).(./.L.&.| Z c g f .         X # # # # # # % # ; I `.`.`.`.",
"`.`.`.`.`.`.`.`.B h f 2 h 2 = * + + & & # & P. .> h B Z B ,.(.(.^.T.,.:.o.] B x <         X # # # # # # # # 8 a `.`.`.`.",
"`.`.`.`.`.`.`.`.B x 2 1 g g = + * & & & @ @ T.Y.> f x B c ] R.^.~.T.3.,.+.| Z B B > X   X # # # # # # # # % w D `.`.`.`.",
"`.`.`.`.`.`.`.`.B x 6 2 2 g - & & & + + + o ,.^.l 2 x B Z { | :.I.T.5.,.&.o.] ] | B X # # # # # # # # # ; q J ;.`.`.`.`.",
"`.`.`.`.`.`.`.`.V x h , 2 g = & & + + + + o c ~.o.2 h f f f O > f ] &.,.:.+.{ Z { o.> # # # # % % % % ; ; 9 J n.`.`.`.`.",
"`.`.`.`.`.`.`.`.+.x h > 2 h > @ * * * * * + . I.I.= x Z = O     . . f V | +.| ] ] o.c # # % # # : w q 8 8 8 d n.`.`.`.`.",
"`.`.`.`.`.`.`.`.2.v x , > h 1 @ o o o o + + . | ~.j r E...O           O < B Z Z Z | o.7 ; 8 9 : 8 u F D u y s 4.`.`.`.`.",
"`.`.`.`.`.`.`.`.2.b h 2 , < r 7 $ . . O $ 1 < x W.| . Y -.h > > .         O > 2 B Z +.C u F H H F y w F H A T `.`.`.`.`.",
"`.`.`.`.`.`.`.`.`.C h , & $ Y &.e - 2 6 1 1 - . >.3.  # t j e h f > O         O $ 2 c { I K U U / Q i q H H -.`.`.`.`.`.",
"`.`.`.`.`.`.`.`.>.0 - * & @ , 5 & & > & @ + * . e L. .l C j 2 e h h h 2 O .         O f s D H D H R H 9 y G *.`.`.`.`.`.",
"`.`.`.`.`.`.`.`.>.> @ * & & @ o . .   o @ + * @ $ B +.>.4.N 2 e f 6 g h h 6 > O         - S F D i S D i 8 u @.`.`.`.`.`.",
"`.`.`.`.`.`.`.`.,.< o + @ C b o   o o & & & > = 2 x t e b e 2 2 2 1 2 5 4 l j 6 < O     - S i D S u u u 8 N `.`.`.`.`.`.",
"`.`.`.`.`.`.`.`.,.e . + o ] Y X . o O = % $ O > 2 h h , , < 2 7 2 2 2 5 : 6 c 2 2 h 2 > 5 p i u i i w 8 3 -.`.`.`.`.`.`.",
"`.`.`.`.`.`.`.`.:.h . o + e M o     . O < > > O > h c > > > > f 2 2 2 > 1 O 6 > & t e e e e e w 9 5 < = 7 `.`.`.`.`.`.`.",
"`.`.`.`.`.`.`.`.C h X @ = 2 ] h       O > > > > > f c 2 > f > > 2 , 2 > 2 > - = @ 2 e e h e e e 5 < > = `.`.`.`.`.`.`.`.",
"`.`.`.`.`.`.`.`.B g , > = O Y b .     O > > O > > 2 c 2 > > > f < < 2 > > , O , @ = 2 6 e e e e h e 2 C `.`.`.`.`.`.`.`.",
"`.`.`.`.`.`.`.] x 2 > O O > > > .     . > > > > > , h h > 2 > > < > > 2 > > O > > o + < 2 h 2 e g h 7 h `.`.`.`.`.`.`.`.",
"`.`.`.`.`.`.`.`.f O O O > < 2 > O O     O O > > + + 1 6 f > > > > f > > > > > > , @ + , 2 f f f 7 < > 2 c `.`.`.`.`.`.`.",
"`.`.`.`.`.`.`.`.f > > > > 2 2 < > .     O O > > > > @ . O O > > > > > f 2 2 > > = @ @ , > f > 2 2 2 > 2 e o.`.`.`.`.`.`.",
"`.`.`.`.`.`.`.`.`.c > f > < 2 < > O     O > > > > = .     . > > > > > > f > > > O =   O > f 2 2 2 f 2 < < j ..`.`.`.`.`.",
"`.`.`.`.`.`.`.`.`.B 2 2 2 2 2 2 f O     O O > > > > > o O > O > > > > > 2 2 > > O > O O 2 > > > < < < > < 2 | `.`.`.`.`."
};
