/* XPM */
static char *gun_reload1[] = {
/* columns rows colors chars-per-pixel */
"57 64 182 2 ",
"   c #010100",
".  c #0A0603",
"X  c #050A03",
"o  c #0D0B05",
"O  c #070809",
"+  c #0B0C0B",
"@  c #120D06",
"#  c #180F07",
"$  c #140F09",
"%  c #0C1507",
"&  c #0E130A",
"*  c #131107",
"=  c #181007",
"-  c #15130A",
";  c #1B150C",
":  c #1D190B",
">  c #151412",
",  c #1A1611",
"<  c #161B14",
"1  c #1C1A14",
"2  c #1D1C1A",
"3  c #241C0D",
"4  c #211B13",
"5  c #201E1A",
"6  c #2C1E15",
"7  c #1E2016",
"8  c #1E211B",
"9  c #26200E",
"0  c #2B220F",
"q  c #232017",
"w  c #2D2411",
"e  c #23221D",
"r  c #2B231A",
"t  c #2D281C",
"y  c #332712",
"u  c #352914",
"i  c #3B2D15",
"p  c #312818",
"a  c #3A2F1C",
"s  c #362519",
"d  c #242422",
"f  c #292725",
"g  c #272826",
"h  c #2B2925",
"j  c #2C2B2B",
"k  c #332E23",
"l  c #322F2A",
"z  c #32322D",
"x  c #3E3A27",
"c  c #343433",
"v  c #383736",
"b  c #353831",
"n  c #3B3A35",
"m  c #3D3C3C",
"M  c #413017",
"N  c #44331A",
"B  c #4A351C",
"V  c #4E381D",
"C  c #523B1E",
"Z  c #433620",
"A  c #4D3C24",
"S  c #473D2A",
"D  c #563E20",
"F  c #593E21",
"G  c #593E2B",
"H  c #433F36",
"J  c #413E3B",
"K  c #3D4137",
"L  c #5C4224",
"P  c #54442D",
"I  c #5D452C",
"U  c #424036",
"Y  c #41423E",
"T  c #494233",
"R  c #534737",
"E  c #5A4934",
"W  c #504639",
"Q  c #5B4A37",
"!  c #644525",
"~  c #6B4927",
"^  c #6C4B2A",
"/  c #65482A",
"(  c #734E2B",
")  c #784F2E",
"_  c #76502E",
"`  c #7A512E",
"'  c #634A32",
"]  c #6B4B31",
"[  c #654631",
"{  c #6D5031",
"}  c #62513B",
"|  c #655036",
" . c #735334",
".. c #7B5433",
"X. c #74593C",
"o. c #715439",
"O. c #444443",
"+. c #484744",
"@. c #484947",
"#. c #474748",
"$. c #4C4C4C",
"%. c #504E4B",
"&. c #53534E",
"*. c #5A544C",
"=. c #535353",
"-. c #575956",
";. c #595957",
":. c #5C5C5B",
">. c #5A5752",
",. c #645646",
"<. c #6A5945",
"1. c #645B4D",
"2. c #795D42",
"3. c #605F5C",
"4. c #61615E",
"5. c #7B6C56",
"6. c #646463",
"7. c #686560",
"8. c #696966",
"9. c #686768",
"0. c #6B6C6B",
"q. c #6F706E",
"w. c #72716F",
"e. c #747474",
"r. c #787876",
"t. c #7B7B7A",
"y. c #767873",
"u. c #825632",
"i. c #855934",
"p. c #825B39",
"a. c #935F37",
"s. c #925F39",
"d. c #94623A",
"f. c #9C663D",
"g. c #8B6341",
"h. c #9E6A43",
"j. c #996B4C",
"k. c #836A52",
"l. c #80705A",
"z. c #A76B41",
"x. c #AA6E43",
"c. c #A77047",
"v. c #AE7044",
"b. c #B87649",
"n. c #BC794B",
"m. c #B47448",
"M. c #AD7853",
"N. c #BB7E55",
"B. c #C37D4F",
"V. c #C37F51",
"C. c #7F807D",
"Z. c #84827F",
"A. c #A08065",
"S. c #CD8556",
"D. c #C88457",
"F. c #D38A5A",
"G. c #D98E5E",
"H. c #CF9067",
"J. c #DD9263",
"K. c #D6956B",
"L. c #DD986D",
"P. c #E19565",
"I. c #E29768",
"U. c #E59969",
"Y. c #E99D6D",
"T. c #EB9F70",
"R. c #EDA172",
"E. c #F2A676",
"W. c #F1A778",
"Q. c #F5A97A",
"!. c #FAAE7E",
"~. c #838383",
"^. c #878887",
"/. c #8D8D8D",
"(. c #8D908D",
"). c #929292",
"_. c #9B9B9B",
"`. c #A4A4A4",
"'. c #ADADAD",
"]. c #BBBBBB",
"[. c #FCB182",
"{. c None",
/* pixels */
"{.{.{.{.{.{.{.{.{.{.{.{.{.{.{.{.{.{.{.{.{.{.{.{.{.{.{.{.{.{.{.{.{.{.{.{.{.{.{.{.{.{.{.{.{.{.{.{.{.{.{.{.{.{.{.{.{.",
"{.{.{.{.{.{.{.{.{.{.{.{.{.{.{.{.{.{.{.{.{.{.{.{.{.{.{.{.{.e.{.{.{.{.{.{.{.{.{.{.{.{.{.{.{.{.{.{.{.{.{.{.{.{.{.{.{.",
"{.{.{.{.{.{.{.{.{.{.{.{.{.{.{.{.{.{.{.{.{.{.{.{.{.@.J z v #.m #.{.{.{.{.{.{.{.{.{.{.{.{.{.{.{.{.{.{.{.{.{.{.{.{.{.",
"{.{.{.{.{.{.{.{.{.{.{.{.{.{.{.{.{.{.{.{.{.{.{.{.O.f 1 c j g j m 6.{.{.{.{.{.{.{.{.{.{.{.{.{.{.{.{.{.{.{.{.{.{.{.{.",
"{.{.{.{.{.{.{.{.{.{.{.{.{.{.{.{.{.{.{.{.{.{.{.#.f , 4 m f 2 g v 9.{.{.{.{.{.{.{.{.{.{.{.{.{.{.{.{.{.{.{.{.{.{.{.{.",
"{.{.{.{.{.{.{.{.{.{.{.{.{.{.{.{.{.{.{.{.{.{.{.m f 4 1 c d 2 j m 9.{.{.{.{.{.{.{.{.{.{.{.{.{.{.{.{.{.{.{.{.{.{.{.{.",
"{.{.{.{.{.{.{.{.{.{.{.{.{.{.{.{.{.{.{.{.{.{.{.m f ; , c 5 2 j m =.{.{.{.{.{.{.{.{.{.{.{.{.{.{.{.{.{.{.{.{.{.{.{.{.",
"{.{.{.{.{.{.{.{.{.{.{.{.{.{.{.{.{.{.{.{.{.{.{.m f 1 4 z 2 2 j m $.{.{.{.{.{.{.{.{.{.{.{.{.{.{.{.{.{.{.{.{.{.{.{.{.",
"{.{.{.{.{.{.{.{.{.{.{.{.{.{.{.{.{.{.{.{.{.{.{.v d > 2 g , 2 j m =.:.{.{.{.{.{.{.{.{.{.{.{.{.{.{.{.{.{.{.{.{.{.{.{.",
"{.{.{.{.{.{.{.{.{.{.{.{.{.{.{.{.{.{.{.{.{.{.{.j 5 2 , d 4 2 g m #.$.{.{.{.{.{.{.{.{.{.{.{.{.{.{.{.{.{.{.{.{.{.{.{.",
"{.{.{.{.{.{.{.{.{.{.{.{.{.{.{.{.{.{.{.{.{.{.{.j 5 , , d 4 4 d v O.:.{.{.{.{.{.{.{.{.{.{.{.{.{.{.{.{.{.{.{.{.{.{.{.",
"{.{.{.{.{.{.{.{.{.{.{.{.{.{.{.{.{.{.{.{.{.{.{.d 4 , > 5 4 , d v O.:.{.{.{.{.{.{.{.{.{.{.{.{.{.{.{.{.{.{.{.{.{.{.{.",
"{.{.{.{.{.{.{.{.{.{.{.{.{.{.{.{.{.{.{.{.{.{.{.5 4 4 $ 5 4 , 5 c O.$.=.{.{.{.{.{.{.{.{.{.{.{.{.{.{.{.{.{.{.{.{.{.{.",
"{.{.{.{.{.{.{.{.{.{.{.{.{.{.{.{.{.{.{.{.{.{.{.2 4 , # 5 1 ; 5 c m O.#.m j {.{.{.{.{.{.{.{.{.{.{.{.{.{.{.{.{.{.{.{.",
"{.{.{.{.{.{.{.{.{.{.{.{.{.{.{.{.{.{.{.{.{.{.{.5 4 , > 2 1 4 5 g v m $.O.j {.{.{.{.{.{.{.{.{.{.{.{.{.{.{.{.{.{.{.{.",
"{.{.{.{.{.{.{.{.{.{.{.{.{.{.{.{.{.{.{.{.{.{.{.4 5 , ; , 4 4 4 d c O.m j c 4.{.{.{.{.{.{.{.{.{.{.{.{.{.{.{.{.{.{.{.",
"{.{.{.{.{.{.{.{.{.{.{.{.{.{.{.{.{.{.{.{.{.{.{.1 5 ; ; 2 1 3 4 5 O.@.;.:.t.^.{.{.{.{.{.{.{.{.{.{.{.{.{.{.{.{.{.{.{.",
"{.{.{.{.{.{.{.{.{.{.{.{.{.{.{.{.{.{.{.{.{.{.{.1 2 3 = - 1 ; 4 5 @.=.=.=.t.C.=.*.{.{.{.{.{.{.{.{.{.{.{.{.{.{.{.{.{.",
"{.{.{.{.{.{.{.{.{.{.{.{.{.{.{.{.{.{.{.{.{.{.{., 2 ; = + , ; 3 4 $.=.:.=.9.~.n A  .{ } {.{.{.{.{.{.{.{.{.{.{.{.{.{.",
"{.{.{.{.{.{.{.{.{.{.{.{.{.{.{.{.{.{.{.{.{.{.{.+ 1 3 = + ; ; ; ; $.=.6.=.:.^.R ^ ` i.L Q {.{.{.{.{.{.{.{.{.{.{.{.{.",
"{.{.{.{.{.{.{.{.{.{.{.{.{.{.{.{.{.{.{.{.{.{.{.o , ; = @ ; $ ; ; &.6.0.-.-.^.*.C F ! ^ _ g.{.{.{.{.{.{.{.{.{.{.{.{.",
"{.{.{.{.{.{.{.{.{.{.{.{.{.{.{.{.{.{.{.{.{.{.{.o , # @ @ $ @ = # :.t.8.:.=.t.4.y C ^ i.d.^  .{.{.{.{.{.{.{.{.{.{.{.",
"{.{.{.{.{.{.{.{.{.{.{.{.{.{.{.{.{.{.{.{.{.{.{.* # $ @ @ $ @ ; > 6.).:.8.@.0.r.a V F D C B V P {.{.{.{.{.{.{.{.{.{.",
"{.{.{.{.{.{.{.{.{.{.{.{.{.{.{.{.{.{.{.{.{.{.{.= @ o @ @ ; $ ; , ;._.6.t.O.-.^.U B ` ` F y B u x {.{.{.{.{.{.{.{.{.",
"{.{.{.{.{.{.{.{.{.{.{.{.{.{.{.{.{.{.{.{.{.{.{.$ $ o @ o , ; , ; O.`.9.).O.$.).=.C ( ( ! M u C u Q {.{.{.{.{.{.{.{.",
"{.{.{.{.{.{.{.{.{.{.{.{.{.{.{.{.{.{.{.{.{.{.{.- $ # @ o 1 , ; $ l '.9._.=.m ~.9.a M M i B C N i A <.{.{.{.{.{.{.{.",
"{.{.{.{.{.{.{.{.{.{.{.{.{.{.{.{.{.{.{.{.{.{.{.- # # * o 2 , ; ; d '.:._.6.v e.~.z : ; : y C C M V / k.{.{.{.{.{.{.",
"{.{.{.{.{.{.{.{.{.{.{.{.{.{.{.{.{.{.{.{.{.{.{.& * * # @ 2 2 $ * 2 '.w._.e.c 6._.=.; * ; 9 y M ! D C / {.{.{.{.{.{.",
"{.{.{.{.{.{.{.{.{.{.{.{.{.{.{.{.{.{.{.{.{.{.{.; 1 , @ @ 5 8 * ; , _.^.)._.m :.`.C.m - % % - 3 i C ( C L {.{.{.{.{.",
"{.{.{.{.{.{.{.{.{.{.{.{.{.{.{.{.{.{.{.{.{.{.E , , , # & 1 1 4 1 > ^.`.(.].6.-.r.C.e.v & % % * 3 0 N L ( g.{.{.{.{.",
"{.{.{.{.{.{.{.{.{.{.{.{.{.{.{.{.{.{.{.{.5.{ I , o $ = - $ - e h 2 e.].).e.c < 8 c e.C.c % % % % : 3 u C / ] {.{.{.",
"{.{.{.{.{.{.{.{.{.{.{.{.{.{.{.{.{.{.{.{.P ! I ; @ @ = - - $ 1 $.O.m ).q.v X X X X j t.r.d X % % % % ; i D A {.{.{.",
"{.{.{.{.{.{.{.{.{.{.{.{.{.{.{.{.{.{.{.A V / [ , @ o * & , * e @., d y.Y $.Y b &   + v q.:.O X % % % & p a B {.{.{.",
"{.{.{.{.{.{.{.{.{.{.{.{.{.{.{.{.{.{.{.S B L ' 2 . o o - z 5 1 n 8 2 1 * O.'.~.m   O < m 9.d X % % % % : 3 T {.{.{.",
"{.{.{.{.{.{.{.{.{.{.{.{.{.{.{.{.{.{.{.Z B C D , - O * , m f 2 0.Z.z = = 1 ).'.8.O   X 8 #.v + % % % : : w S {.{.{.",
"{.{.{.{.{.{.{.{.{.{.{.{.{.{.{.{.{.{.{.N C C a j 2 O o o l %.-.y./.K * : o =.].0.8 & & + 8 c & % : : 0 i u {.{.{.{.",
"{.{.{.{.{.{.{.{.{.{.{.{.{.{.{.{.{.{.{.L C C r 2     o @ =.8.w.e.^.O.# : * b ].0.d 8 j g & 8 : : - : 0 y a {.{.{.{.",
"{.{.{.{.{.{.{.{.{.{.{.{.{.{.{.{.{.{.5.I C N 5 +   . @ $ -.6.q.6.t.:.h ; 4 -./.6.j 8 j Y 8 * % : 9 : 9 0 n {.{.{.{.",
"{.{.{.{.{.{.{.{.{.{.{.{.{.{.{.{.{.{.{.' ! ! r O     @ $ =.q.0.-.t.t.$.# e y.j O.#.d j $.v o * * : = : p {.{.{.{.{.",
"{.{.{.{.{.{.{.{.{.{.{.{.{.{.{.{.{.{.{...( ( r O     @ , Y Z.6.$.t.w.4.- q t.2 1 :.=.v ;.$., ; = : : : 7 {.{.{.{.{.",
"{.{.{.{.{.{.{.{.{.{.{.{.{.{.{.{.{.{.X.~ ! ^ r X   . @ - n t.@.j w.8.6., 1 t.k . Y 0.6.e.e.f 3 y 0 y ; {.{.{.{.{.{.",
"{.{.{.{.{.{.{.{.{.{.{.{.{.{.{.{.{.{.} C ! ` r O     @ @ #.l.g < =.;.:., - 0.n   2 6.8.~.t.H w i B i h {.{.{.{.{.{.",
"{.{.{.{.{.{.{.{.{.{.{.{.{.{.{.{.{.{.| B V F 4 O     @ @ =.:.+ < +.m Y , @ m m o + -.:.0.6.=.t 0 u p >.{.{.{.{.{.{.",
"{.{.{.{.{.{.{.{.{.{.{.{.{.{.{.{.A.p._ ` ~ C ; O     # @ ;.$.1 d m 8 h < @ r O.< + @.:.9.$.Y =.q t T {.{.{.{.{.{.{.",
"{.{.{.{.{.{.{.{.{.{.{.{.{.{.{.{...! D F ! C 4 . O > h e 8 d j m $.d d d @ ; $.=.e m :.9.$.e 4.8.{.{.{.{.{.{.{.{.{.",
"{.{.{.{.{.{.{.{.{.{.{.{.{.{.{.{.D ! i.p.( / 4     O > d < X   . & d z q * * b 0.$.$.:.:.%.5 O.~.~.{.{.{.{.{.{.{.{.",
"{.{.{.{.{.{.{.{.{.{.{.{.{.{.{.{./ x.G.P.L.S.s         X + O       O d 8 1 ; - 1 v $.-.-.:.r h 0.t.t.{.{.{.{.{.{.{.",
"{.{.{.{.{.{.{.{.{.{.{.{.{.{.{.X.x.G.P.U.Y.T.[                       + v $.h @ * 2 #.=.%.:.n , -.e.e.{.{.{.{.{.{.{.",
"{.{.{.{.{.{.{.{.{.{.{.{.{.{.{.h.P.P.P.Y.U.E.j.                      o 7 m 5 o # - n $.@.:.#.o O.q.e.{.{.{.{.{.{.{.",
"{.{.{.{.{.{.{.{.{.{.{.{.{.{...V.P.P.U.Y.E.!.j.                      o o 4 , @ # * j @.#.=.:.+ j 0.0.~.{.{.{.{.{.{.",
"{.{.{.{.{.{.{.{.{.{.{.{.{.2.d.S.J.Y.Y.Y.Q.!.N.=                       . o $ @ # * 7 O.#.#.:.c 2 6.0.8.{.{.{.{.{.{.",
"{.{.{.{.{.{.{.{.{.{.{.{.,...b.G.P.Y.Y.Y.T.E.K.6                           . o @ o - m #.#.$.=.c -.9.6.{.{.{.{.{.{.",
"{.{.{.{.{.{.{.{.{.{.{.,. .x.B.J.Y.U.Y.Y.E.Q.I.s                             o @ . . j @.#.$.=.:.4.:.:.4.{.{.{.{.{.",
"{.{.{.{.{.{.{.{.{.{.{./ f.B.F.P.Y.U.U.R.Q.[.Q.[                               . . X e @.$.$.$.=.=.:.:.4.{.{.{.{.{.",
"{.{.{.{.{.{.{.{.{.{.I ..x.S.J.U.T.T.Y.E.Q.Q.[.j.                              .   . , Y $.=.=.=.=.-.:.6.{.{.{.{.{.",
"{.{.{.{.{.{.{.{.{.<.i.d.v.S.P.U.Y.Y.T.E.E.!.[.K.3                                   + v $.$.$.=.=.=.=.:.{.{.{.{.{.",
"{.{.{.{.{.{.{.{.1.o.d.x.V.G.P.Y.Y.T.E.E.Q.!.[.Q.G                                   . f $.$.$.=.=.=.=.:.:.{.{.{.{.",
"{.{.{.{.{.{.{.{.E h.v.x.S.P.U.R.T.T.R.E.Q.!.!.[.j..                                 . , O.@.$.=.$.=.=.:.:.{.{.{.{.",
"{.{.{.{.{.{.{.Q ..z.n.n.S.P.Y.R.Y.Y.E.R.Q.!.[.!.H.4                                 o & c @.$.=.=.$.=.=.:.0.{.{.{.",
"{.{.{.{.{.{.{.A u.z.V.F.S.P.T.T.Y.E.E.T.T.[.!.Q.E.G                                   . d @.@.=.=.=.=.=.-.0.{.{.{.",
"{.{.{.{.{.{.} F d.m.V.Y.J.P.Y.Y.Q.E.R.U.Q.[.E.R.E.M.$                                   > O.$.$.=.=.=.=.:.:.{.{.{.",
"{.{.{.{.{.<.^ d.x.D.S.U.U.Y.U.Y.R.R.U.Y.[.Q.Q.E.R.J.N                                 O & c $.$.$.=.=.$.=.:.=.{.{.",
"{.{.{.{.R I i.b.S.F.P.P.Y.Y.P.Y.E.T.Y.T.Q.Q.Q.E.U.J.)                                 @ + d #.#.$.=.$.=.=.:.6.{.{.",
"{.{.{.{.P u.a.V.J.P.G.U.U.P.U.Y.T.T.T.T.R.Q.Q.R.U.F.s.#                                   > O.#.$.=.=.=.=.-.:.{.{."
};
