/* XPM */
static char *gun_fire1[] = {
/* columns rows colors chars-per-pixel */
"64 64 212 2 ",
"   c #030303",
".  c #0B0A05",
"X  c #0D0C0C",
"o  c #070B06",
"O  c #110D08",
"+  c #0E1209",
"@  c #14120E",
"#  c #171708",
"$  c #141414",
"%  c #191613",
"&  c #171817",
"*  c #1A1916",
"=  c #1B1A1A",
"-  c #231D15",
";  c #211E1A",
":  c #2C1D14",
">  c #22190E",
",  c #1F200D",
"<  c #23220D",
"1  c #2C240F",
"2  c #242316",
"3  c #2D2411",
"4  c #24221D",
"5  c #2C281D",
"6  c #332B14",
"7  c #3A2B15",
"8  c #342D1B",
"9  c #3B2B19",
"0  c #342316",
"q  c #3A311C",
"w  c #232322",
"e  c #282722",
"r  c #2C2A23",
"t  c #2D2D2D",
"y  c #272825",
"u  c #322F23",
"i  c #312E28",
"p  c #2E302C",
"a  c #35332D",
"s  c #3B392E",
"d  c #383229",
"f  c #343433",
"g  c #3A3935",
"h  c #3C3C3B",
"j  c #433319",
"k  c #4A371C",
"l  c #533C1F",
"z  c #472F1A",
"x  c #423523",
"c  c #443A24",
"v  c #4B3A21",
"b  c #463C29",
"n  c #573E23",
"m  c #563C27",
"M  c #463B38",
"N  c #673C3C",
"B  c #5C4123",
"V  c #55442C",
"C  c #55472A",
"Z  c #46423D",
"A  c #4C443A",
"S  c #584C33",
"D  c #5B5437",
"F  c #644526",
"G  c #694726",
"H  c #6B4827",
"J  c #6C4A29",
"K  c #66462A",
"L  c #734D2B",
"P  c #784F2D",
"I  c #7C522E",
"U  c #76512F",
"Y  c #7B5332",
"T  c #7C5B3B",
"R  c #785636",
"E  c #644C34",
"W  c #7E6E2E",
"Q  c #434342",
"!  c #4C4945",
"~  c #4C4B4A",
"^  c #4A4540",
"/  c #514E4C",
"(  c #53504E",
")  c #5A554E",
"_  c #545353",
"`  c #5D5955",
"'  c #7B4745",
"]  c #6B5B46",
"[  c #755E45",
"{  c #6E5B56",
"}  c #7D6145",
"|  c #7F6F5B",
" . c #6D6554",
".. c #646464",
"X. c #6A6A6A",
"o. c #686866",
"O. c #6F6F70",
"+. c #7D7D7D",
"@. c #BB2C27",
"#. c #B63232",
"$. c #D70B0B",
"%. c #C31B1B",
"&. c #DE1917",
"*. c #E30909",
"=. c #EE0A0A",
"-. c #E2100E",
";. c #E91818",
":. c #F61A1A",
">. c #FA1919",
",. c #F4231B",
"<. c #DF3432",
"1. c #C93030",
"2. c #FC2C2B",
"3. c #FA2A28",
"4. c #FB3825",
"5. c #E73434",
"6. c #FD3C3B",
"7. c #F13131",
"8. c #E2312D",
"9. c #835631",
"0. c #8B5A35",
"q. c #835E3D",
"w. c #8A5A37",
"e. c #915E37",
"r. c #935F38",
"t. c #82702D",
"y. c #957E27",
"u. c #94613A",
"i. c #9C653C",
"p. c #9D683F",
"a. c #917F32",
"s. c #8A613E",
"d. c #A1693F",
"f. c #A0673E",
"g. c #DB4916",
"h. c #D0442F",
"j. c #DA493C",
"k. c #DD5337",
"l. c #E04D39",
"z. c #FE413E",
"x. c #EE4C2D",
"c. c #88544B",
"v. c #B44949",
"b. c #BC4747",
"n. c #BB5656",
"m. c #856446",
"M. c #956747",
"N. c #886D53",
"B. c #A46C42",
"V. c #AA6E42",
"C. c #AC7146",
"Z. c #B37346",
"A. c #B67548",
"S. c #B97749",
"D. c #BD7A4C",
"F. c #B07853",
"G. c #BE6E6E",
"H. c #C8534D",
"J. c #CD4847",
"K. c #FE4545",
"L. c #FF4B47",
"P. c #FE554F",
"I. c #FD5654",
"U. c #C37D4E",
"Y. c #C76554",
"T. c #CA674A",
"R. c #CF6161",
"E. c #C9706F",
"W. c #C47676",
"Q. c #FD7C7B",
"!. c #FE7674",
"~. c #FB6565",
"^. c #948139",
"/. c #B1962D",
"(. c #EAC329",
"). c #F6CF32",
"_. c #F6D034",
"`. c #988857",
"'. c #CB8354",
"]. c #CD8A5F",
"[. c #D38A5B",
"{. c #D98E5E",
"}. c #D28656",
"|. c #D68F61",
" X c #DD9262",
".X c #DE9668",
"XX c #CE8B61",
"oX c #E19667",
"OX c #E69A6A",
"+X c #EA9D6D",
"@X c #FE837E",
"#X c #EDA06F",
"$X c #EDA171",
"%X c #F0A474",
"&X c #F3D969",
"*X c #F7DB76",
"=X c #FFE561",
"-X c #FC8483",
";X c #FF998F",
":X c #D6A98E",
">X c #E5AB93",
",X c #FDA7A4",
"<X c #FDB6AE",
"1X c #FFEB8C",
"2X c #FDD2B8",
"3X c #FDCFC1",
"4X c #FED8C6",
"5X c #FEE6C4",
"6X c #FFFACD",
"7X c #FFEED0",
"8X c #FCF2DE",
"9X c None",
/* pixels */
"9X9X9X9X9X9X9X9X9X9X9X9X9X9X9X9X9X9X9X9X9X9X9X9X9X9X9X9X9X9X9X9X9X9X9X9X9X9X9X9X9X9X9X9X9X9X9X9X9X9X9X9X9X9X9X9X9X9X9X9X9X9X9X9X",
"9X9X9X9X9X9X9X9X9X9X9X9X9X9X9X9X9X9X9X9X9X9X9X9X9X9X9X9X9X9X9X9X9X9X9X9X9X9X9X9X9X9X9X9X9X9X9X9X9X9X9X9X9X9X9X9X9X9X9X9X9X9X9X9X",
"9X9X9X9X9X9X9X9X9X9X9X9X9X9X9X9X9X9X9X9X9X9X9X9X9X9X9X9X9X9X9X9X9X9X9X9X9X9X9X9X9X9X9X9X9X9X9X9X9X9X9X9X9X9X9X9X9X9X9X9X9X9X9X9X",
"9X9X9X9X9X9X9X9X9X9X9X9X9X9X9X9X9X9X9X9X9X9X9X9X9X9X9X9X9X9X9X9X9X9X9X9X9X9X9X9X9X9X9X9X9X9X9X9X9X9X9X9X9X9X9X9X9X9X9X9X9X9X9X9X",
"9X9X9X9X9X9X9X9X9X9X9X9X9X9X9X9X9X9X9X9X9X9X9X9X9X9X9X9X9X9X9X9X9X9X9X9X9X9X9X9X9X9X9X9X9X9X9X9X9X9X9X9X9X9X9X9X9X9X9X9X9X9X9X9X",
"9X9X9X9X9X9X9X9X9X9X9X9X9X9X9X9X9X9X9X9X9X9X9X9X9X9X9X9X9X9X9X9X9X9X9X9X9X9X9X9X9X9X9X9X9X9X9X9X9X9X9X9X9X9X9X9X9X9X9X9X9X9X9X9X",
"9X9X9X9X9X9X9X9X9X9X9X9X9X9X9X9X9X9X9X9X9X9X9X9X9X9X9X9X9X9X9X9X9X9X9X9X9X9X9X9X9X9X9X9X9X9X9X9X9X9X9X9X9X9X9X9X9X9X9X9X9X9X9X9X",
"9X9X9X9X9X9X9X9X9X9X9X9X9X9X9X9X9X9X9X9X9X9X9X9X9X9X9X9X9X9X9X9X9X9X9X9X9X9X9X9X9X9X9X9X9X9X9X9X9X9X9X9X9X9X9X9X9X9X9X9X9X9X9X9X",
"9X9X9X9X9X9X9X9X9X9X9X9X9X9X9X9X9X9X9X9X9X9X9X9X9X9X9X9X9X9X9X9X9X9X9X9X9X9X9X9X9X9X9X9X9X9X9X9X9X9X9X9X9X9X9X9X9X9X9X9X9X9X9X9X",
"9X9X9X9X9X9X9X9X9X9X9X9X9X9X9X9X9X9X9X9X9X9X9X9X9X9X9X9X9X9X9X9X9X9X9X9X9X9X9X9X9X9X9X9X9X9X9X9X9X9X9X9X9X9X9X9X9X9X9X9X9X9X9X9X",
"9X9X9X9X9X9X9X9X9X9X9X9X9X9X9X9X9X9X9X9X9X9X9X9X9X9X9X9X9X9X9X9X9X9X9X9X9X9X9X9X9X9X9X9X9X9X9X9X9X9X9X9X9X9X9X9X9X9X9X9X9X9X9X9X",
"9X9X9X9X9X9X9X9X9X9X9X9X9X9X9X9X9X9X9X9X9X9X9X9X9X9X9X9X9X9X9X9X9X9X9X9X9X9X9X9X9X9X9X9X9X9X9X9X9X9X9X9X9X9X9X9X9X9X9X9X9X9X9X9X",
"9X9X9X9X9X9X9X9X9X9X9X9X9X9X9X9X9X9X9X9X9X9X9X9X9X9X9X9X9X9X9X9X9X9X9X9X9X9X9X9X9X9X9X9X9X9X9X9X9X9X9X9X9X9X9X9X9X9X9X9X9X9X9X9X",
"9X9X9X9X9X9X9X9X9X9X9X9X9X9X9X9X9X9X9X9X9X9X9X9X9X9X9X9X9X9X9X9X9X9X9X9X9X9X9X9X9X9X9X9X9X9X9X9X9X9X9X9X9X9X9X9X9X9X9X9X9X9X9X9X",
"9X9X9X9X9X9X9X9X9X9X9X9X9X9X9X9X9X9X9X9X9X9X9X9X9X9X9X9X9X9X9X9X9X9X9X9X9X9X9X9X9X9X9X9X9X9X9X9X9X9X9X9X9X9X9X9X9X9X9X9X9X9X9X9X",
"9X9X9X9X9X9X9X9X9X9X9X9X9X9X9X9X9X9X9X9X9X9X9X9X9X9X9X9X9X9X9X9X9X9X9X9X9X9X9X9X9X9X9X9X9X9X9X9X9X9X9X9X9X9X9X9X9X9X9X9X9X9X9X9X",
"9X9X9X9X9X9X9X9X9X9X9X9X9X9X9X9X9X9X9X9X9X9X9X9X9X9X9X9X9X9X9X9X9X9X9X9X9X9X9X9X9X9X9X9X9X9X9X9X9X9X9X9X9X9X9X9X9X9X9X9X9X9X9X9X",
"9X9X9X9X9X9X9X9X9X9X9X9X9X9X9X9X9X9X9X9X9X9X9X9X9X9X9X9X9X9X9X9X9X9X9X9X9X9X9X9X9X9X9X9X9X9X9X9X9X9X9X9X9X9X9X9X9X9X9X9X9X9X9X9X",
"9X9X9X9X9X9X9X9X9X9X9X9X9X9X9X9X9X9X9X9X9X9X9X9X9X9X9X9X9X9X9X9X9X9X9X9X9X9X9X9X9X9X9X9X9X9X9X9X9X9X9X9X9X9X9X9X9X9X9X9X9X9X9X9X",
"9X9X9X9X9X9X9X9X9X9X9X9X9X9X9X9X9X9X9X9X9X9X9X9X9X9X9X9X9X9X9X9X9X9X9X9X9X9X9X9X9X9X9X9X9X9X9X9X9X9X9X9X9X9X9X9X9X9X9X9X9X9X9X9X",
"9X9X9X9X9X9X9X9X9X9X9X9X9X9X9X9X9X9X9X9X9X9X9X9X9X9X9X9X9X9X9X9X9X9X9X9X9X9X9X9X9X9X9X9X9X9X9X9X9X9X9X9X9X9X9X9X9X9X9X9X9X9X9X9X",
"9X9X9X9X9X9X9X9X9X9X9X9X9X9X9X9X9X9X9X9X9X9X9X9X9X9X9X9X9X9X9X9X9X9X9X9X9X9X9X9X9X9X9X9X9X9X9X9X9X9X9X9X9X9X9X9X9X9X9X9X9X9X9X9X",
"9X9X9X9X9X9X9X9X9X9X9X9X9X9X9X9X9X9X9X9X9X9X9X9X9X9X9X9X9X9X9X9X9X9X9X9X9X9X9X9X9X9X9X9X9X9X9X9X9X9X9X9X9X9X9X9X9X9X9X9X9X9X9X9X",
"9X9X9X9X9X9X9X9X9X9X9X9X9X9X9X9X9X9X9X9X9X9X9X9X9X9X9X9X9Xb.#.n.9X9Xb.#.v.9X9X9X9X9X9X9X9X9X9X9X9X9X9X9X9X9X9X9X9X9X9X9X9X9X9X9X",
"9X9X9X9X9X9X9X9X9X9X9X9X9X9X9X9X9X9X9X9X9X9X9X9X9X9XR.l.k.8.;.8.l.l.8.;.5.k.h.H.9X9X9X9X9X9X9X9X9X9X9X9X9X9X9X9X9X9X9X9X9X9X9X9X",
"9X9X9X9X9X9X9X9X9X9X9X9X9X9X9X9X9X9X9X9X9X9X9X9X9Xn.J.3.4.z.L.K.4.x.z.K.z.2.4.H.v.9X9X9X9X9X9X9X9X9X9X9X9X9X9X9X9X9X9X9X9X9X9X9X",
"9X9X9X9X9X9X9X9X9X9X9X9X9X9X9X9X9X9X9X9X9X9X9X9X9X%.$.;.z.Q.,X-XP.P.-X,X-XK.:.$.%.v.9X9X9X9X9X9X9X9X9X9X9X9X9X9X9X9X9X9X9X9X9X9X",
"9X9X9X9X9X9X9X9X9X9X9X9X9X9X9X9X9X9X9X9X9X9X9Xn.1.$.=.3.~.3X8X4XQ.!.4X8X3X!.6.=.$.%.b.9X9X9X9X9X9X9X9X9X9X9X9X9X9X9X9X9X9X9X9X9X",
"9X9X9X9X9X9X9X9X9X9X9X9X9X9X9X9X9X9X9X9X9X9X9X#.=.>.2.!.<X5X6X6X>X:X5X6X7X<XQ.6.3.*.@.E.9X9X9X9X9X9X9X9X9X9X9X9X9X9X9X9X9X9X9X9X",
"9X9X9X9X9X9X9X9X9X9X9X9X9X9X9X9X9X9X9X9X9X9X9Xj.>.>.L.,X4X1X=X=X`.`.&X=X1X5X<XI.2.>.J.E.9X9X9X9X9X9X9X9X9X9X9X9X9X9X9X9X9X9X9X9X",
"9X9X9X9X9X9X9X9X9X9X9X9X9X9X9X9X9X9X9X9X9X9X9Xk.3.K.@X2X*X).(./.C c /.(._.&X5X;XI.2.x.Y.9X9X9X9X9X9X9X9X9X9X9X9X9X9X9X9X9X9X9X9X",
"9X9X9X9X9X9X9X9X9X9X9X9X9X9X9X9X9X9X9X9X9X9XY.g.:.z.!.:X^.^.t.D f t S W y.^.:X@XK.,.g.T.9X9X9X9X9X9X9X9X9X9X9X9X9X9X9X9X9X9X9X9X",
"9X9X9X9X9X9X9X9X9X9X9X9X9X9X9X9X9X9X9X9X9X9X9X@.&.:.3.c.s g f h f p f f g g ' 5.:.*.@.9X9X9X9X9X9X9X9X9X9X9X9X9X9X9X9X9X9X9X9X9X",
"9X9X9X9X9X9X9X9X9X9X9X9X9X9X9X9X9X9X9X9X9X9X9X9X9X5.1.M t f t f f y h p p p M @.5.9X9X9X9X9X9X9X9X9X9X9X9X9X9X9X9X9X9X9X9X9X9X9X",
"9X9X9X9X9X9X9X9X9X9X9X9X9X9X9X9X9X9X9X9X9X9X9X9X9XE.' f t t f f h t h f p p h N R.9X9X9X9X9X9X9X9X9X9X9X9X9X9X9X9X9X9X9X9X9X9X9X",
"9X9X9X9X9X9X9X9X9X9X9X9X9X9X9X9X9X9X9X9X9X9X9X9X9Xc.M t t f t h f t h p p t Q ( { 9X9X9X9X9X9X9X9X9X9X9X9X9X9X9X9X9X9X9X9X9X9X9X",
"9X9X9X9X9X9X9X9X9X9X9X9X9X9X9X9X9X9X9X9X9X9XB.C.q.V h y w w w f f t h w w w f Q ] 9X9X9X9X9X9X9X9X9X9X9X9X9X9X9X9X9X9X9X9X9X9X9X",
"9X9X9X9X9X9X9X9X9X9X9X9X9X9X9X9X9X9X9X9Xq.e.B.p.F 7 4 X o     $ = w w & X o X ; q ] 9X9X9X9X9X9X9X9X9X9X9X9X9X9X9X9X9X9X9X9X9X9X",
"9X9X9X9X9X9X9X9X9X9X9X9X9X9X9X9X9X9X9XV G i.'.'.F #       $ X $ & X w Q y X X = y c N.9X9X9X9X9X9X9X9X9X9X9X9X9X9X9X9X9X9X9X9X9X",
"9X9X9X9X9X9X9X9X9X9X9X9X9X9X9X9X9X9X9Xb G i.U.Z.:       + % * w w X a y = & X   w g b 9X9X9X9X9X9X9X9X9X9X9X9X9X9X9X9X9X9X9X9X9X",
"9X9X9X9X9X9X9X9X9X9X9X9X9X9X9X9X9X9X9Xj P i.A.P o                               X r 8 9X9X9X9X9X9X9X9X9X9X9X9X9X9X9X9X9X9X9X9X9X",
"9X9X9X9X9X9X9X9X9X9X9X9X9X9X9X9X9X9Xc 7 L i.i.6 + o     X                 X $ $ w 8 k 9X9X9X9X9X9X9X9X9X9X9X9X9X9X9X9X9X9X9X9X9X",
"9X9X9X9X9X9X9X9X9X9X9X9X9X9X9X9X9X9Xv F e.p.J , < +   = _ t             y X.~ t Q ! b F 9X9X9X9X9X9X9X9X9X9X9X9X9X9X9X9X9X9X9X9X",
"9X9X9X9X9X9X9X9X9X9X9X9X9X9X9X9X9X9XB L 0.I 6 1 4 =   X = $ X @ $ X X $ w t y w ! O._ x S 9X9X9X9X9X9X9X9X9X9X9X9X9X9X9X9X9X9X9X",
"9X9X9X9X9X9X9X9X9X9X9X9X9X9X9X9X9XN.I u.Y l 1 2 = X X   X X $ $ $ $ $ $ @ $ $ & t ..+.^ s 9X9X9X9X9X9X9X9X9X9X9X9X9X9X9X9X9X9X9X",
"9X9X9X9X9X9X9X9X9X9X9X9X9X9X9X9X9Xm.I U B 6 # +       X X X $ $ $ $ $ $ $ $ $ $ $ t X.X.M 9X9X9X9X9X9X9X9X9X9X9X9X9X9X9X9X9X9X9X",
"9X9X9X9X9X9X9X9X9X9X9X9X9X9X9X9XT U H B j , o       X X X $ $ & & & $ $ $ $ $ $ $ & Q X.) 9X9X9X9X9X9X9X9X9X9X9X9X9X9X9X9X9X9X9X",
"9X9X9X9X9X9X9X9X9X9X9X9X9X9X9X9XT I L l j #   o X X X X X $ $ & & & & $ $ $ $ $ $ $ y ` 9X9X9X9X9X9X9X9X9X9X9X9X9X9X9X9X9X9X9X9X",
"9X9X9X9X9X9X9X9X9X9X9X9X9X9X9Xm.9.L F F k O . X $ X X $ X $ $ & = = $ $ $ $ $ $ & X = ! o.9X9X9X9X9X9X9X9X9X9X9X9X9X9X9X9X9X9X9X",
"9X9X9X9X9X9X9X9X9X9X9X9X9X9X9XR N 9.d.d.9.O X $ $ $ $ $ $ $ $ & = = & $ X $ $ $ $ $ $ t ` 9X9X9X9X9X9X9X9X9X9X9X9X9X9X9X9X9X9X9X",
"9X9X9X9X9X9X9X9X9X9X9X9X9X9X9XJ B.[.{.|.0.. O $ $ $ $ $ $ & & & = = = $ $ $ $ $ $ $ % = g E [ 9X9X9X9X9X9X9X9X9X9X9X9X9X9X9X9X9X",
"9X9X9X9X9X9X9X9X9X9X9X9X9X9X9Xm.U. XOXoX0.O @ $ X $ $ $ $ & & & = = $ & & $ $ $ $ $ $ $ e V I Y R [ 9X9X9X9X9X9X9X9X9X9X9X9X9X9X",
"9X9X9X9X9X9X9X9X9X9X9X9X9X9XN.d.U.OX#XOXP . $ $ $ % $ $ & = = & w = $ = $ & $ % $ $ $ X = m 9.Y I Y m.9X9X9X9X9X9X9X9X9X9X9X9X9X",
"9X9X9X9X9X9X9X9X9X9X9X9X9X9Xm.S.|.OX+XoXm X $ $ $ = = & & = $ = w = & = = = = = % $ & X $ x K K G J L T M.9X9X9X9X9X9X9X9X9X9X9X",
"9X9X9X9X9X9X9X9X9X9X9X9X9Xq.d.}. X+X+X|.0 X $ $ & & = = = = = = w = & = w = $ = = $ $ $ X : k n F L P P Y s.T 9X9X9X9X9X9X9X9X9X",
"9X9X9X9X9X9X9X9X9X9X9X9Xm.u.S.[.oX+X+XXX: X $ & = = = = = = w w f t w = = = = = = = $ X . % k H I 9.9.9.P G J C 9X9X9X9X9X9X9X9X",
"9X9X9X9X9X9X9X9X9X9X9X9XT i.D.{.+X+X+XXX: X $ $ = = ; ; y y t f Q Q f t w w = = = & $ X   - F 9.0.e.i.f.0.L B k  .9X9X9X9X9X9X9X",
"9X9X9X9X9X9X9X9X9X9X9X[ i.V.U.{.+X+X%XF.@ X $ = = w t g g g h h t f M f h Q f y = = $ .   > J 0.e.f.f.d.u.9.B 7 x 9X9X9X9X9X9X9X",
"9X9X9X9X9X9X9X9X9X9X9XR V.S.U. X+X$X+XM.. $ % ; w w 8 i Z / ~ f f f f ~ / ! f r y w w X   O H r.d.d.d.d.f.0.H 7 1 9X9X9X9X9X9X9X",
"9X9X9X9X9X9X9X9X9X9XV w.A.{.}. X$X+X%XM.. @ % ; ; w i s ^ ` / f f f h _ ` Q a r w - w ; $ . H f.d.S.'.d.d.u.L j 3 9X9X9X9X9X9X9X",
"9X9X9X9X9X9X9X9X9XV F M.D.oXoXoX+X+X%XR X @ & ; - 4 i g ( ( ( f f p h _ _ / a i ; - ; % # O L d.S.'.'.d.d.0.H j 8 9X9X9X9X9X9X9X",
"9X9X9X9X9X9X9X9Xv F i.Z.'.|.OXOXOX+XOXm . % * ; ; e u s ^ ( ( f f f h _ ) Q a 8 w ; = % @ . F d.'.{.{.d.e.9.I B 7 9X9X9X9X9X9X9X",
"9X9X9X9X9X9X9Xk B 9.D.[.[. XoXoXoX$X|.z . @ * ; ; e r a Q ` ( f f f h / ) M i e w ; ; % O . z f.U.}.U.f.d.V.d.Y J 9X9X9X9X9X9X9X",
"9X9X9X9X9X9XV v I M.'.{.oX XOXoXOXOXS.: . @ & ; - 4 u s ( _ ( f f f h _ / ! i 8 ; - ; % @   z d.U.}.d.S.Z.0.B k B } 9X9X9X9X9X9X"
};
