/* XPM */
static char *gun_reload10[] = {
/* columns rows colors chars-per-pixel */
"64 32 122 2 ",
"   c #030303",
".  c #0A0703",
"X  c #060B01",
"o  c #0C0A05",
"O  c #0C0C0B",
"+  c #130F0B",
"@  c #0F1208",
"#  c #121707",
"$  c #11100E",
"%  c #151908",
"&  c #0F0F10",
"*  c #141414",
"=  c #181613",
"-  c #171814",
";  c #191817",
":  c #1A1A1A",
">  c #1F200B",
",  c #252212",
"<  c #2A2511",
"1  c #21201C",
"2  c #2A261C",
"3  c #332415",
"4  c #332B14",
"5  c #3A2C15",
"6  c #3E2A1D",
"7  c #3D311A",
"8  c #242424",
"9  c #2D2D2D",
"0  c #332D23",
"q  c #373124",
"w  c #3D3220",
"e  c #35332D",
"r  c #333333",
"t  c #383734",
"y  c #3B3B3B",
"u  c #43341C",
"i  c #4A371D",
"p  c #4C391C",
"a  c #543D1F",
"s  c #583D1F",
"d  c #493121",
"f  c #453822",
"g  c #4C3B23",
"h  c #4B3D29",
"j  c #543C24",
"k  c #593E24",
"l  c #623F26",
"z  c #4F402B",
"x  c #5E4223",
"c  c #54432C",
"v  c #47413D",
"b  c #4D473F",
"n  c #554933",
"m  c #5A4A37",
"M  c #574D39",
"N  c #5B4D38",
"B  c #674526",
"V  c #6B4927",
"C  c #674B2D",
"Z  c #6D4A2A",
"A  c #744D2B",
"S  c #79512E",
"D  c #624932",
"F  c #6B4E33",
"G  c #604E38",
"H  c #6D5134",
"J  c #60523D",
"K  c #6D553F",
"L  c #7D5431",
"P  c #75583B",
"I  c #7B593A",
"U  c #444443",
"Y  c #4C4C4C",
"T  c #565656",
"R  c #5A5A5A",
"E  c #755A40",
"W  c #726756",
"Q  c #656565",
"!  c #717171",
"~  c #825531",
"^  c #865833",
"/  c #8C5B35",
"(  c #855C3A",
")  c #905D36",
"_  c #936039",
"`  c #9C653D",
"'  c #A1673D",
"]  c #A36A3F",
"[  c #866042",
"{  c #956542",
"}  c #9B6640",
"|  c #9E6841",
" . c #966C49",
".. c #AA6E43",
"X. c #AF7246",
"o. c #B27246",
"O. c #B57549",
"+. c #B97749",
"@. c #BD7A4D",
"#. c #A27553",
"$. c #AC7953",
"%. c #BB7D55",
"&. c #C27D4E",
"*. c #C67F51",
"=. c #C58052",
"-. c #CB8354",
";. c #C5855C",
":. c #CE8759",
">. c #CF8859",
",. c #D48A5B",
"<. c #D88D5D",
"1. c #CF8B60",
"2. c #DE9363",
"3. c #DF9568",
"4. c #E19565",
"5. c #E29669",
"6. c #E5996A",
"7. c #E99D6D",
"8. c #E99E70",
"9. c #ECA06F",
"0. c #EDA171",
"q. c None",
/* pixels */
"q.q.q.q.q.q.q.q.q.q.q.q.q.q.q.q.q.q.q.q.q.q.q.q.q.q.q.q.q.q.q.q.q.q.q.q.q.q.q.q.q.q.q.q.q.q.q.q.q.q.q.q.q.q.q.q.q.q.q.q.q.q.q.q.",
"q.q.q.q.q.q.q.q.q.q.q.q.q.q.q.q.q.q.q.q.q.q.q.q.q.q.q.q.q.q.q.q.q.q.q.q.q.q.q.q.q.q.q.q.q.q.q.q.q.q.q.q.q.q.q.q.q.q.q.q.q.q.q.q.",
"q.q.q.q.q.q.q.q.q.q.q.q.q.q.q.q.q.q.q.q.q.q.q.q.q.q.q.q.q.q.q.q.q.q.q.q.q.q.q.q.q.q.q.q.q.q.q.q.q.q.q.q.q.q.q.q.q.q.q.q.q.q.q.q.",
"q.q.q.q.q.q.q.q.q.q.q.q.q.q.q.q.q.q.q.q.q.q.q.q.q.q.q.q.q.q.q.q.q.q.q.q.q.q.q.q.q.q.q.q.q.q.q.q.q.q.q.q.q.q.q.q.q.q.q.q.q.q.q.q.",
"q.q.q.q.q.q.q.q.q.q.q.q.q.q.q.q.q.q.q.q.q.q.q.q.q.q.q.q.q.q.q.q.q.q.q.q.q.q.q.q.q.q.q.q.q.q.q.q.q.q.q.q.q.q.q.q.q.q.q.q.q.q.q.q.",
"q.q.q.q.q.q.q.q.q.q.q.q.q.q.q.q.q.q.q.q.q.q.q.q.q.q.q.q.q.q.q.q.q.q.q.q.q.q.q.q.q.q.q.q.q.q.q.q.q.q.q.q.q.q.q.q.q.q.q.q.q.q.q.q.",
"q.q.q.q.q.q.q.q.q.q.q.q.q.q.q.q.q.q.q.q.q.q.q.q.q.q.q.q.q.q.q.q.q.q.q.q.q.q.q.q.q.q.q.q.q.q.q.q.q.q.q.q.q.q.q.q.q.q.q.q.q.q.q.q.",
"q.q.q.q.q.q.q.q.q.q.q.q.q.q.q.q.q.q.q.q.q.q.q.q.q.q.q.q.q.q.q.q.q.q.q.q.q.q.q.q.q.q.q.q.q.q.q.q.q.q.q.q.q.q.q.q.q.q.q.q.q.q.q.q.",
"q.q.q.q.q.q.q.q.q.q.q.q.q.q.q.q.q.q.q.q.q.q.q.q.q.q.q.q.q.q.q.q.q.q.q.q.q.q.q.q.q.q.q.q.q.q.q.q.q.q.q.q.q.q.q.q.q.q.q.q.q.q.q.q.",
"q.q.q.q.q.q.q.q.q.q.q.q.q.q.q.q.q.q.q.q.q.q.q.q.q.q.q.q.q.q.q.q.q.q.q.q.q.q.q.q.q.q.q.q.q.q.q.q.q.q.q.q.q.q.q.q.q.q.q.q.q.q.q.q.",
"q.q.q.q.q.q.q.q.q.q.q.q.q.q.q.q.q.q.q.q.q.q.q.q.q.q.q.q.q.q.q.q.q.q.q.q.q.q.q.q.q.q.q.q.q.q.q.q.q.q.q.q.q.q.q.q.q.q.q.q.q.q.q.q.",
"q.q.q.q.q.q.q.q.q.q.q.q.q.q.q.q.q.q.q.q.q.q.q.q.q.q.q.q.q.q.q.q.q.q.q.q.q.q.q.q.q.q.q.q.q.q.q.q.q.q.q.q.q.q.q.q.q.q.q.q.q.q.q.q.",
"q.q.q.q.q.q.q.q.q.q.q.q.q.q.q.q.q.q.q.q.q.q.q.q.q.q.q.q.q.q.q.q.q.q.q.q.q.q.q.q.q.q.q.q.q.q.q.q.q.q.q.q.q.q.q.q.q.q.q.q.q.q.q.q.",
"q.q.q.q.q.q.q.q.q.q.q.q.q.q.q.q.q.q.q.q.q.q.q.q.q.q.q.q.q.q.q.q.q.q.q.q.q.q.q.q.q.q.q.q.q.q.q.q.q.q.q.q.q.q.q.q.q.q.q.q.q.q.q.q.",
"q.q.q.q.q.q.q.q.q.q.q.q.q.q.q.q.q.q.q.q.q.q.q.q.q.q.q.q.q.q.q.q.q.q.q.q.q.q.q.q.q.q.q.q.q.q.q.q.q.q.q.q.q.q.q.q.q.q.q.q.q.q.q.q.",
"q.q.q.q.q.q.q.q.q.q.q.q.q.q.q.q.q.q.q.q.q.q.q.q.q.q.q.q.q.q.q.q.q.q.q.q.q.q.q.q.q.q.q.q.q.q.c I  .q.q.q.q.q.q.q.Y R Q q.q.q.q.q.",
"q.q.q.q.q.q.q.q.q.q.q.q.q.q.q.q.q.q.q.q.q.q.q.q.q.q.q.q.q.q.q.q.q.q.q.q.q.q.q.q.q.q.q.q.M u s ^ ` ` $.#.q.Q T y r y Y R q.q.q.q.",
"q.q.q.q.q.q.q.q.q.q.q.q.q.q.q.q.q.q.q.q.q.q.q.q.q.q.q.q.q.q.q.q.q.q.q.q.q.q.q.q.q.q.q.c 5 s ^ ..-...Z D v y r 9 9 y U r 9 Q q.q.",
"q.q.q.q.q.q.q.q.q.q.q.q.q.q.q.q.q.q.q.q.q.q.q.q.q.q.q.q.q.q.q.q.q.q.q.q.q.q.q.q.q.H C x Z ^ ` +.O.A 5 0 t 9 9 r 9 r y 8 r T ! q.",
"q.q.q.q.q.q.q.q.q.q.q.q.q.q.q.q.q.q.q.q.q.q.q.q.q.q.q.q.q.q.q.q.q.q.q.q.q.q.P C Z A ~ ~ / ` _ Z 3 o . o $ : 9 9 r y 9 9 y Y Y q.",
"q.q.q.q.q.q.q.q.q.q.q.q.q.q.q.q.q.q.q.q.q.q.q.q.q.q.q.q.q.q.q.q.q.q.q.q.q.P S S Z A A A V a 4 % X           : r y 9 9 r r y y q.",
"q.q.q.q.q.q.q.q.q.q.q.q.q.q.q.q.q.q.q.q.q.q.q.q.q.q.q.q.q.q.q.q.q.q.q.q.H A A V V a p 5 < , < > X     O * O   r r 9 y r r 9 r q.",
"q.q.q.q.q.q.q.q.q.q.q.q.q.q.q.q.q.q.q.q.q.q.q.q.q.q.q.q.q.q.q.q.q.q.F ( ` @.+.` B i < % @ * : * X O O . o : * - 8 y r r r r Y q.",
"q.q.q.q.q.q.q.q.q.q.q.q.q.q.q.q.q.q.q.q.q.q.q.q.q.q.q.q.q.q.q.P [ / ` +.>.2.4.,.` 5 .         O   8 y     O 9 O : 8 8 9 9 y R q.",
"q.q.q.q.q.q.q.q.q.q.q.q.q.q.q.q.q.q.q.q.q.q.q.q.q.q.q.W N C L ` ' +.>.<.4.6.6.,.l o . O O       O & ; O       ; r 8 O 8 y Y q.q.",
"q.q.q.q.q.q.q.q.q.q.q.q.q.q.q.q.q.q.q.q.q.q.q.q.m c D C Z ` o.o.&.,.4.7.6.7.>.A O & * * & O & O O O O O       O 8 9 O & r b q.q.",
"q.q.q.q.q.q.q.q.q.q.q.q.q.q.q.q.q.q.q.q.m E K F F I { ..O.@.,.=.,.4.7.7.6.;.k + & * * * & & & & & & * * O         $ $ & 2 z q.q.",
"q.q.q.q.q.q.q.q.q.q.q.q.q.q.q.q.q.n z x C ^ ` ` | @.>.1.,.,.4.,.4.7.7.0.1.d . & * * * * * & & & * * * * * &   &     o & 2 c q.q.",
"q.q.q.q.q.q.q.q.q.q.q.q.q.q.J h c j i k ) ..o.&.*.-.,.2.2.2.5.6.8.7.7.;.j + & * * * * * * * * * * ; * ; * & * y Y &   & e c q.q.",
"q.q.q.q.q.q.q.q.q.q.q.7 f g i j C L ^ A ] -.o.>.7.>.-.2.5.7.6.6.7.0.;.6 O $ * * : * : * * * * * * ; ; * * * * 8 y 9 1 , q n q.q.",
"q.q.q.q.q.q.q.q.J c p u g x B A ) ' o...o.-.&.&.5.5.<.4.5.8.6.7.7.%.d + * ; ; ; : : : : * : * : : : * * * * & * 1 r U w h q.q.q.",
"q.q.q.q.q.q.N i p a x H I S A / ..&.+.&.-.&.-.<.,.4.5.6.5.6.8.6.*.3 O $ = : : : : : : : * : * : : : * * * * * * : Y Q h H q.q.q."
};
