/* XPM */
static char *gun_reload7[] = {
/* columns rows colors chars-per-pixel */
"64 53 90 1 ",
"  c #020101",
". c #090603",
"X c #0D0905",
"o c #0B0B0B",
"O c #150E06",
"+ c #180F07",
"@ c #110E0B",
"# c #151107",
"$ c #181007",
"% c #161209",
"& c #1B140A",
"* c #141414",
"= c #191715",
"- c #1D1A17",
"; c #1B1B1B",
": c #21150B",
"> c #231B0C",
", c #291D0E",
"< c #2A1D10",
"1 c #2A210F",
"2 c #272013",
"3 c #2E2411",
"4 c #24211D",
"5 c #2A271F",
"6 c #2E281C",
"7 c #322514",
"8 c #352A14",
"9 c #3B2C16",
"0 c #352B19",
"q c #3D2D1D",
"w c #252525",
"e c #2C2B2B",
"r c #312B24",
"t c #302F2D",
"y c #343026",
"u c #3C3321",
"i c #32312E",
"p c #39342A",
"a c #2F3030",
"s c #333232",
"d c #3C3831",
"f c #3C3C3C",
"g c #42321C",
"h c #403425",
"j c #4E3620",
"k c #4B3825",
"l c #413629",
"z c #453C2C",
"x c #493D2A",
"c c #513A22",
"v c #503F2C",
"b c #403C32",
"n c #4A3E30",
"m c #4B4133",
"M c #44403A",
"N c #4B4439",
"B c #514332",
"V c #544B3C",
"C c #444444",
"Z c #4B4947",
"A c #4C4C4C",
"S c #534B42",
"D c #5B5247",
"F c #55504A",
"G c #5B5349",
"H c #5F594E",
"J c #535353",
"K c #5B5956",
"L c #5B5B5B",
"P c #635D56",
"I c #625E59",
"U c #6E6153",
"Y c #726050",
"T c #7A6B5C",
"R c #646464",
"E c #6A6763",
"W c #6C6965",
"Q c #6A6B6B",
"! c #716B64",
"~ c #706F6E",
"^ c #73706D",
"/ c #7C756A",
"( c #757575",
") c #787775",
"_ c #7D7A76",
"` c #7D7C7C",
"' c #838383",
"] c #8D8D8D",
"[ c #969696",
"{ c None",
/* pixels */
"{{{{{{{{{{{{{{{{{{{{{{{{{{{{{{{{{{{{{{{{{{{{{{{{{{{{{{{{{{{{{{{{",
"{{{{{{{{{{{{{{{{{{{{{{{{{{{{{{{{{{{{{{{{{{{{{{{{{{{{{{{{{{{{{{{{",
"{{{{{{{{{{{{{{{{{{{{{{{{{{{{{{{{{{{{{{{{{{{{{{{{{{{{{{{{{{{{{{{{",
"{{{{{{{{{{{{{{{{{{{{{{{{{{{{{{{{{{{{{{{{{{{{{{{{{{{{{{{{{{{{{{{{",
"{{{{{{{{{{{{{{{{{{{{{{{{{{{{{{{{{{{{{{{{{{{{{{{{{{{{{{{{{{{{{{{{",
"{{{{{{{{{{{{{{{{{{{{{{{{{{{{{{{{{{{{{{{{{{{{{{{{{{{{{{{{{{{{{{{{",
"{{{{{{{{{{{{{{{{{{{{{{{{{{{{{{{{{{{{{{{{{{{{{{{{{{{{{{{{{{{{{{{{",
"{{{{{{{{{{{{{{{{{{{{{{{{{{{{{{{{{{{{{{{{{{{{{{{{{{{{{{{{{{{{{{{{",
"{{{{{{{{{{{{{{{{{{{{{{{{{{{{{{{{{{{{{{{{{{{{{{{{{{{{{{{{{{{{{{{{",
"{{{{{{{{{{{{{{{{{{{{{{{{{{{{{{{{{{{{{{{{{{{{{{{{{{{{{{{{{{{{{{{{",
"{{{{{{{{{{{{{{{{{{{{{{{{{{{{{{{{{{{{{{{{{{{{{{{{{{{{{{{{{{{{{{{{",
"{{{{{{{{{{{{{{{{{{{{{{{{{{{{{{{{{{{{{{{{{{{{{{{{{{{{{{{{{{{{{{{{",
"{{{{{{{{{{{{{{{{{{{{{{{{{{{{{{{{{{{{{{{{{{{{{{{{{{{{{{{{{{{{{{{{",
"{{{{{{{{{{{{{{{{{{{{{{{{{{{{{{{{{{{{{{{{{{{{{{{{{{{{{{{{{{{{{{{{",
"{{{{{{{{{{{{{{{{{{{{{{{{{{{{{{{{{{{{{{{{{{{{{{{{{{{{{{{{{{{{{{{{",
"{{{{{{{{{{{{{{{{{{{{{{{{{{{{{{{{{{{{{{{{{{{{{{{{{{{{{{{{{{{{{{{{",
"{{{{{{{{{{{{{{{{{{{{{{{{{{{{{{{{{{{{{{{{{{{{{{{{{{{{{{{{{{{{{{{{",
"{{{{{{{{{{{{{{{{{{{{{{{{{{{{{{{{{{{{{{{{{{{{{{{{{{{{{{{{{{{{{{{{",
"{{{{{{{{{{{{{{{{{{{{{{{{{{{{{{{{{{{{{{{{{{{{{{{{{{{{{{{{{{{{{{{{",
"{{{{{{{{{{{{{{{{{{{{{{{{{{{{{{{{{{{{{{{{{{{{{{{{{{{{{{{{{{{{{{{{",
"{{{{{{{{{{{{{{{{{{{{{{{{{{{{{{{{{{{{{{{{{{{{{{{{{{{{{{{{{{{{{{{{",
"{{{{{{{{{{{{{{{{{{{{{{{{{{{{{{{{{{{{{{{{{{{{{{{{{{{{{{{{{{{{{{{{",
"{{{{{{{{{{{{{{{{{{{{{{{{{{{{{{{{{{{{{{{{{{{{{{{{{{{{{{{{{{{{{{{{",
"{{{{{{{{{{{{{{{{{{{{{{{{{{{{{{{{{{{{{{{{{{{{{{{{{{{{{{{{{{{{{{{{",
"{{{{{{{{{{{{{{{{{{{{{{{{{{{{{{{{{{{{{{{{{{{{{{{{{{{{{{{{{{{{{{{{",
"{{{{{{{{{{{{{{{{{{{{{{{{{{{{{{{{{{{{{{{{{{{{{{{{{{{{{{{{{{{{{{{{",
"{{{{{{{{{{{{{{{{{{{{{{{{{{{{{{{{{{{{{{{{{{{{{{{{{{{{{{{{{{{{{{{{",
"{{{{{{{{{{{{{{{{{{{{{{{{{{{{{{{{{{{{{{{{{{{{{{{{{{{{{{{{{{{{{{{{",
"{{{{{{{{{{{{{{{{{{{{{{{{{{{{{{{{{{{{{{{{{{{{{{{{{{{{{{{{{{{{{{{{",
"{{{{{{{{{{{{{{{{{{{{{{{{{{JfCAR{{{{{{{{{{{{{{{{{{{{{{{{{{{{{{{{{",
"{{{{{{{{{{{{{{{{{{{{{{{{Ai=Xo;AJJ{{{{{{{{{{{{{{{{{{{{{{{{{{{{{{{",
"{{{{{{{{{{{{{{{{RJALRRRLs=    sJJJ{{{{{{{{{{{{{{{{{{{{{{{{{{{{{{",
"{{{{{{{{{{{{{{{Ke*=CRJAs*     *LQRJ{{{{{{{{{{{{{{{{{{{{{{{{{{{{{",
"{{{{{{{{{{{{{{Lw   wRLf;      *Q]'RL{{{{{{{{{{{{{{{{{{{{{{{{{{{{",
"{{{{{{{{{{{{{Leo   oRLa;o     e'[{'QJ{{{{{{{{{{{{{{{{{{{{{{{{{{{",
"{{{{{{{{{{{{{C*    oLJaw;o   .C'`]{]QL{{{{{{{{{{{{{{{{{{{{{{{{{{",
"{{{{{{{{{{{{Ja*    oAAfaw;o  *KJnP`{]QR{{{{{{{{{{{{{{{{{{{{{{{{{",
"{{{{{{{{{{{{Aw;o   *AJAfsw=oofKr<gFR{{QL{{{{{{{{{{{{{{{{{{{{{{{{",
"{{{{{{{{{{{{Caw;o. wKLJZfsw;sJiX.:qVW{{)R{{{{{{{{{{{{{{{{{{{{{{{",
"{{{{{{{{{{{{ffaw;o;CLRLJCfsfCi&   &gB({{)R{{{{{{{{{{{{{{{{{{{{{{",
"{{{{{{{{{{{{ACfswwfJJRQRKZfi68&.   @7xW{{`({{{{{{{{{{{{{{{{{{{{{",
"{{{{{{{{{{{{LZACfsi6yMFLZi4>391O@O. X,lI{{{{{{{{{{{{{{{{{{{{{{{{",
"{{{{{{{{{{{{{dbpi4&>83gg1&&&&,31+OX. .&hG~{{{{{{{{{{{{{{{{{{{{{{",
"{{{{{{{{{{{{{{Nu13&#>13g9,&&&#&1:+OO+  +9D){{{{{{{{{{{{{{{{{{{{{",
"{{{{{{{{{{{{{{{Hz81&&&:199>&&##$>:%$$O  .7S){{{{{{{{{{{{{{{{{{{{",
"{{{{{{{{{{{{{{{{{V91&#O$>881&&#+$>:%#OX  .<NW{{`{{{{{{{{{{{{{{{{",
"{{{{{{{{{{{{{{{{{{B91&.X$&331>&%+&::OOOX  .<xP{{{{{{{{{{{{{{{{{{",
"{{{{{{{{{{{{{{{{{{{{u1$#$#&>11:&$+%&$$+OOX  &kT{{{{{{{{{{{{{{{{{",
"{{{{{{{{{{{{{{{{{{{{{V3>#$O#>11&&##O&&+++@.  Oc!{{{{{{{{{{{{{{{{",
"{{{{{{{{{{{{{{{{{{{{{{08:%OO$&11>&##+&++&&@.  ,xI{{{{{{{{{{{{{{{",
"{{{{{{{{{{{{{{{{{{{{{{{mm>#+++&>1>&&O#+o;w&@X X,kY{{]{{{{{{{{{{{",
"{{{{{{{{{{{{{{{{{{{{{{{{/z:&#O.%11>&##O=efe;;@..>cY{{{{{{{{{{{{{",
"{{{{{{{{{{{{{{{{{{{{{{{{{_u&&XX&#>1>:=-wee;;;;oXX&jY`{`{{{{{{{{{"
};
