/* XPM */
static char *gun_reload6[] = {
/* columns rows colors chars-per-pixel */
"64 36 51 1 ",
"  c #040200",
". c #0A0702",
"X c #0D0B05",
"o c #0E0D0A",
"O c #120D05",
"+ c #150F09",
"@ c #0D100A",
"# c #151007",
"$ c #181007",
"% c #15120B",
"& c #1C150C",
"* c #1E180F",
"= c #151411",
"- c #1A1712",
"; c #1D1A14",
": c #1D1C19",
"> c #211C14",
", c #211E1B",
"< c #252016",
"1 c #292013",
"2 c #24221E",
"3 c #29251E",
"4 c #252423",
"5 c #292724",
"6 c #2C2A25",
"7 c #272828",
"8 c #2C2B2B",
"9 c #312F2E",
"0 c #34322E",
"q c #3A332A",
"w c #343433",
"e c #393734",
"r c #3C3833",
"t c #3C3B3B",
"y c #45311F",
"u c #403E3A",
"i c #5E4123",
"p c #48433B",
"a c #504435",
"s c #6C5336",
"d c #434343",
"f c #4C4B4B",
"g c #58544C",
"h c #555554",
"j c #5C5B5A",
"k c #62605E",
"l c #676767",
"z c #6B6660",
"x c #6E6E6E",
"c c #7A7978",
"v c None",
/* pixels */
"vvvvvvvvvvvvvvvvvvvvvvvvvvvvvvvvvvvvvvvvvvvvvvvvvvvvvvvvvvvvvvvv",
"vvvvvvvvvvvvvvvvvvvvvvvvvvvvvvvvvvvvvvvvvvvvvvvvvvvvvvvvvvvvvvvv",
"vvvvvvvvvvvvvvvvvvvvvvvvvvvvvvvvvvvvvvvvvvvvvvvvvvvvvvvvvvvvvvvv",
"vvvvvvvvvvvvvvvvvvvvvvvvvvvvvvvvvvvvvvvvvvvvvvvvvvvvvvvvvvvvvvvv",
"vvvvvvvvvvvvvvvvvvvvvvvvvvvvvvvvvvvvvvvvvvvvvvvvvvvvvvvvvvvvvvvv",
"vvvvvvvvvvvvvvvvvvvvvvvvvvvvvvvvvvvvvvvvvvvvvvvvvvvvvvvvvvvvvvvv",
"vvvvvvvvvvvvvvvvvvvvvvvvvvvvvvvvvvvvvvvvvvvvvvvvvvvvvvvvvvvvvvvv",
"vvvvvvvvvvvvvvvvvvvvvvvvvvvvvvvvvvvvvvvvvvvvvvvvvvvvvvvvvvvvvvvv",
"vvvvvvvvvvvvvvvvvvvvvvvvvvvvvvvvvvvvvvvvvvvvvvvvvvvvvvvvvvvvvvvv",
"vvvvvvvvvvvvvvvvvvvvvvvvvvvvvvvvvvvvvvvvvvvvvvvvvvvvvvvvvvvvvvvv",
"vvvvvvvvvvvvvvvvvvvvvvvvvvvvvvvvvvvvvvvvvvvvvvvvvvvvvvvvvvvvvvvv",
"vvvvvvvvvvvvvvvvvvvvvvvvvvvvvvvvvvvvvvvvvvvvvvvvvvvvvvvvvvvvvvvv",
"vvvvvvvvvvvvvvvvvvvvvvvvvvvvvvvvvvvvvvvvvvvvvvvvvvvvvvvvvvvvvvvv",
"vvvvvvvvvvvvvvvvvvvvvvvvvvvvvvvvvvvvvvvvvvvvvvvvvvvvvvvvvvvvvvvv",
"vvvvvvvvvvvvvvvvvvvvvvvvvvvvvvvvvvvvvvvvvvvvvvvvvvvvvvvvvvvvvvvv",
"vvvvvvvvvvvvvvvvvvvvvvvvvvvvvvvvvvvvvvvvvvvvvvvvvvvvvvvvvvvvvvvv",
"vvvvvvvvvvvvvvvvvvvvvvvvvvvvvvvvvvvvvvvvvvvvvvvvvvvvvvvvvvvvvvvv",
"vvvvvvvvvvvvvvvvvvvvvvvvvvvvvvvvvvvvvvvvvvvvvvvvvvvvvvvvvvvvvvvv",
"vvvvvvvvvvvvvvvvvvvvvvvvvvvvvvvvvvvvvvvvvvvvvvvvvvvvvvvvvvvvvvvv",
"vvvvvvvvvvvvvvvvvvvvvvvvvvvvvvvvvvvvvvvvvvvvvvvvvvvvvvvvvvvvvvvv",
"vvvvvvvvvvvvvvvvvvvvvvvvvvvvvvvvvvvvvvvvvvvvvvvvvvvvvvvvvvvvvvvv",
"vvvvvvvvvvvvvvvvvvvvvvvvvvvvvvvvvvvvvvvvvvvvvvvvvvvvvvvvvvvvvvvv",
"vvvvvvvvvvvvvvvvvvvvvvvvvvvvvvvvvvvvvvvvvvvvvvvvvvvvvvvvvvvvvvvv",
"vvvvvvvvvvvvvvvvvvvvvvvvvvvvvvvvvvvvvvvvvvvvvvvvvvvvvvetfvvvvvvv",
"vvvvvvvvvvvvvvvvvvvvvvvvvvvvvvvvvvvvvvvvvvvvvvvvvvlhde742wvvvvvv",
"vvvvvvvvvvvvvvvvvvvvvvvvvvvvvvvvvvvvvvvvvvvvvvkd9ww7,>-&;56ejvvv",
"vvvvvvvvvvvvvvvvvvvvvvvvvvvvvvvvvvvvvvvvvvw9064,::;;--:5w078pvvv",
"vvvvvvvvvvvvvvvvvvvvvvvvvvvvvvvvvvvvvvvu9:-,>;&;;=;:,7742::77vvv",
"vvvvvvvvvvvvvvvvvvvvvvvvvvvvvvvvvvkq,3,,:--&&&%=::,,::::479eevvv",
"vvvvvvvvvvvvvvvvvvvvvvvvvvvvvv0-66<;>;>;--&-&==;:,*>::48wtdfvvvv",
"vvvvvvvvvvvvvvvvvvvvvvvvvve06%X@%;>>**&&$%&-:::-&&>,48tddhxvvvvv",
"vvvvvvvvvvvvvvvvvvvvvvg3%XXXXo=--*&&*$$%-;::>--=:,7wttdfjvvvvvvv",
"vvvvvvvvvvvvvvvvvcu5r<#OXo%$&$$&&&&#Xo%:;>****:27wtdddhvvvvvvvvv",
"vvvvvvvvvvvvjfjhw2;#OOO+%%O+%$&$##XXO=--*&&*;24wetdddjvvvvvvvvvv",
"vvvvvvvvhdp1<4=@o.XXXOXOOOO+OOXOX%%%&&&&*;;<38weedteavvvvvvvvvvv",
"vvvvvv79w862;o   ....X.O++OO.O++%%###&&*-:30ueede6yisvvvvvvvvvvv"
};
