/* XPM */
static char *gun_reload9[] = {
/* columns rows colors chars-per-pixel */
"64 35 166 2 ",
"   c #040301",
".  c #0A0703",
"X  c #0D0905",
"o  c #070808",
"O  c #0B0A09",
"+  c #140D06",
"@  c #120E09",
"#  c #161007",
"$  c #15110A",
"%  c #1B140A",
"&  c #1F180C",
"*  c #1D1915",
"=  c #171313",
"-  c #2F0201",
";  c #340A05",
":  c #24160C",
">  c #241B0D",
",  c #211C15",
"<  c #291E10",
"1  c #211E1C",
"2  c #28200E",
"3  c #2C2212",
"4  c #29241C",
"5  c #312513",
"6  c #342814",
"7  c #3A2914",
"8  c #3D2D18",
"9  c #232323",
"0  c #2B2B2B",
"q  c #332C22",
"w  c #3F2B2A",
"e  c #3E3323",
"r  c #3C352B",
"t  c #3F392E",
"y  c #420707",
"u  c #4C0101",
"i  c #4F0A0A",
"p  c #412F18",
"a  c #453119",
"s  c #48331D",
"d  c #4E381D",
"f  c #523B1E",
"g  c #442D2D",
"h  c #443620",
"j  c #493927",
"k  c #423628",
"l  c #403929",
"z  c #573C21",
"x  c #593E21",
"c  c #493D31",
"v  c #443A3A",
"b  c #4A412E",
"n  c #5D4122",
"m  c #4C4334",
"M  c #48433C",
"N  c #524434",
"B  c #5D4A37",
"V  c #50473D",
"C  c #56493B",
"Z  c #614324",
"A  c #6A4727",
"S  c #644823",
"D  c #61482C",
"F  c #6D4A29",
"G  c #734E2B",
"H  c #7C522E",
"J  c #7C582C",
"K  c #62533F",
"L  c #745233",
"P  c #7F5431",
"I  c #70573E",
"U  c #7D5C3B",
"Y  c #4E4E4E",
"T  c #524B43",
"R  c #5C554E",
"E  c #535353",
"W  c #5C5451",
"Q  c #5B5B5A",
"!  c #695645",
"~  c #6F5A45",
"^  c #725D46",
"/  c #705F4E",
"(  c #79634A",
")  c #68645E",
"_  c #77695B",
"`  c #7B6B51",
"'  c #646464",
"]  c #686764",
"[  c #6C6965",
"{  c #6B6A69",
"}  c #717171",
"|  c #787876",
" . c #777879",
".. c #797979",
"X. c #8C5216",
"o. c #86521B",
"O. c #8C5319",
"+. c #8D5A1E",
"@. c #945511",
"#. c #945814",
"$. c #9B5B12",
"%. c #945A19",
"&. c #805020",
"*. c #885421",
"=. c #835B25",
"-. c #825531",
";. c #855832",
":. c #8C5C35",
">. c #8A5E38",
",. c #905F37",
"<. c #925F38",
"1. c #936024",
"2. c #9A6320",
"3. c #91632E",
"4. c #85643A",
"5. c #916633",
"6. c #956139",
"7. c #9C653C",
"8. c #A2693F",
"9. c #816044",
"0. c #8F6645",
"q. c #856842",
"w. c #876B4F",
"e. c #8A6A4E",
"r. c #8D6C43",
"t. c #9E6740",
"y. c #956F42",
"u. c #9D6B45",
"i. c #9D6D48",
"p. c #A56B40",
"a. c #AA6E42",
"s. c #AD7044",
"d. c #AE7349",
"f. c #B27246",
"g. c #B47549",
"h. c #B8774A",
"j. c #B6784C",
"k. c #BC7A4C",
"l. c #BE7E52",
"z. c #857B6F",
"x. c #817E7B",
"c. c #C17C4D",
"v. c #C27E51",
"b. c #B2815C",
"n. c #B88058",
"m. c #8C816C",
"M. c #B88B69",
"N. c #CC8454",
"B. c #CE8759",
"V. c #D18758",
"C. c #D58B5C",
"Z. c #D88E5E",
"A. c #C18860",
"S. c #D68E60",
"D. c #CF936B",
"F. c #DC9263",
"G. c #D5966D",
"H. c #DC996E",
"J. c #DB9B73",
"K. c #E29666",
"L. c #E99E6E",
"P. c #F5AA7B",
"I. c #808080",
"U. c #8B8C8C",
"Y. c #A4A4A4",
"T. c None",
/* pixels */
"T.T.T.T.T.T.T.T.T.T.T.T.T.T.T.T.T.T.T.T.T.T.T.T.T.T.T.T.T.T.T.T.T.T.T.T.T.T.T.T.T.T.T.T.T.T.T.T.T.T.T.T.T.T.T.T.T.T.T.T.T.T.T.T.",
"T.T.T.T.T.T.T.T.T.T.T.T.T.T.T.T.T.T.T.T.T.T.T.T.T.T.T.T.T.T.T.T.T.T.T.T.T.T.T.T.T.T.T.T.T.T.T.T.T.T.T.T.T.T.T.T.T.T.T.T.T.T.T.T.",
"T.T.T.T.T.T.T.T.T.T.T.T.T.T.T.T.T.T.T.T.T.T.T.T.T.T.T.T.T.T.T.T.T.T.T.T.T.T.T.T.T.T.T.T.T.T.T.T.T.T.T.T.T.T.T.T.T.T.T.T.T.T.T.T.",
"T.T.T.T.T.T.T.T.T.T.T.T.T.T.T.T.T.T.T.T.T.T.T.T.T.T.T.T.T.T.T.T.T.T.T.T.T.T.T.T.T.T.T.T.T.T.T.T.T.T.T.T.T.T.T.T.T.T.T.T.T.T.T.T.",
"T.T.T.T.T.T.T.T.T.T.T.T.T.T.T.T.T.T.T.T.T.T.T.T.T.T.T.T.T.T.T.T.T.T.T.T.T.T.T.T.T.T.T.T.T.T.T.T.T.T.T.T.T.T.T.T.T.T.T.T.T.T.T.T.",
"T.T.T.T.T.T.T.T.T.T.T.T.T.T.T.T.T.T.T.T.T.T.T.T.T.T.T.T.T.T.T.T.T.T.T.T.T.T.T.T.T.T.T.T.T.T.T.T.T.T.T.T.T.T.T.T.T.T.T.T.T.T.T.T.",
"T.T.T.T.T.T.T.T.T.T.T.T.T.T.T.T.T.T.T.T.T.T.T.T.T.T.T.T.T.T.T.T.T.T.T.T.T.T.T.T.T.T.T.T.T.T.T.T.T.T.T.T.T.T.T.T.T.T.T.T.T.T.T.T.",
"T.T.T.T.T.T.T.T.T.T.T.T.T.T.T.T.T.T.T.T.T.T.T.T.T.T.T.T.T.T.T.T.T.T.T.T.T.T.T.T.T.T.T.T.T.T.T.T.T.T.T.T.T.T.T.T.T.T.T.T.T.T.T.T.",
"T.T.T.T.T.T.T.T.T.T.T.T.T.T.T.T.T.T.T.T.T.T.T.T.T.T.T.T.T.T.T.T.T.T.T.T.T.T.T.T.T.T.T.T.T.T.T.T.T.T.T.T.T.T.T.T.T.T.T.T.T.T.T.T.",
"T.T.T.T.T.T.T.T.T.T.T.T.T.T.T.T.T.T.T.T.T.T.T.T.T.T.T.T.T.T.T.T.T.T.T.T.T.T.T.T.T.T.T.T.T.T.T.T.T.T.T.T.T.T.T.T.T.T.T.T.T.T.T.T.",
"T.T.T.T.T.T.T.T.T.T.T.T.T.T.T.T.T.T.T.T.T.T.T.T.T.T.T.T.T.T.T.T.T.T.T.T.T.T.T.T.T.T.T.T.T.T.T.T.T.T.T.T.T.T.T.T.T.T.T.T.T.T.T.T.",
"T.T.T.T.T.T.T.T.T.T.T.T.T.T.T.T.T.T.T.T.T.T.T.T.T.T.T.T.T.T.T.T.T.T.T.T.T.T.T.T.T.T.T.T.T.T.T.T.T.T.T.T.T.T.T.T.T.T.T.T.T.T.T.T.",
"T.T.T.T.T.T.T.T.T.T.T.T.T.T.T.T.T.T.T.T.T.T.T.T.T.T.T.T.T.T.T.T.T.T.T.T.T.T.T.T.T.T.T.T.T.T.T.T.T.T.T.T.T.T.T.T.T.T.T.T.T.T.T.T.",
"T.T.T.T.T.T.T.T.T.T.T.T.T.T.T.T.T.T.T.T.T.T.T.T.T.T.T.T.T.T.T.T.T.T.T.T.T.T.T.T.T.T.T.T.T.T.T.T.T.T.T.T.T.T.T.T.T.T.T.T.T.T.T.T.",
"T.T.T.T.T.T.T.T.T.T.T.T.T.T.T.T.T.T.T.T.T.T.T.T.T.T.T.T.T.T.T.T.T.T.T.T.T.T.T.T.T.T.T.T.T.T.T.T.T.T.T.T.T.T.T.T.T.T.T.T.T.T.T.T.",
"T.T.T.T.T.T.T.T.T.T.T.T.T.T.T.T.T.T.T.T.T.T.T.T.T.T.T.T.T.T.T.T.T.T.T.T.T.T.T.T.T.T.T.T.T.T.T.T.T.T.T.T.T.T.T.T.T.T.T.T.T.T.T.T.",
"T.T.T.T.T.T.T.T.T.T.T.T.T.T.T.T.T.T.T.T.T.T.T.T.T.T.T.T.T.T.T.T.T.T.T.T.T.T.T.T.T.T.T.T.T.T.T.T.T.T.T.T.T.T.T.T.T.T.T.T.T.T.T.T.",
"T.T.T.T.T.T.T.T.T.T.T.T.T.T.T.T.T.T.T.T.T.T.T.T.T.T.T.T.T.T.T.T.T.T.T.T.T.T.T.T.T.T.T.T.T.T.T.T.T.T.T.T.T.T.T.T.T.T.T.T.T.T.T.T.",
"T.T.T.T.T.T.T.T.T.T.T.T.T.A.J.G.T.T.T.T.T.T.T.T.T.T.T.T.T.T.T.T.T.T.T.T.T.T.T.T.T.T.T.T.T.T.T.T.T.T.T.T.T.T.T.T.T.T.T.T.T.T.T.T.",
"T.T.T.T.T.T.T.T.T.T.T.T.j.N.Z.Z.F.H.T.T.T.T.T.T.T.T.T.T.T.T.T.T.T.T.T.T.T.T.T.T.T.T.T.T.T.T.T.T.T.T.T.T.T.T.T.T.T.T.T.T.T.T.T.T.",
"T.T.T.T.T.T.T.T.T.T.T.d.C.S.a.7.h.C.S.G.T.T.T.T.T.T.T.T.T.T.T.T.T.T.T.T.T.T.T.T.T.T.T.T.T.T.T.T.T.T.T.T.T.T.T.T.T.T.T.T.T.T.T.T.",
"T.T.T.T.T.T.T.T.T.T.v.v.V.B.-.x F ;.6.f.l.n.T.T.T.T.T.T.T.T.T.T.T.T.T.T.T.T.T.T.T.T.T.T.T.+.5.( ' T.T.T.T.T.T.T.T.T.T.T.T.T.T.T.",
"T.T.T.T.T.T.T.T.T.k.k.a.a.g.-.8 < 3 6 x P 7.0.T.T.T.T.T.T.T.T.T.T.T.T.T.T.T.T.T.U ( Q ^ o.#.$.o.R ' T.T.T.T.T.T.T.T.T.T.T.T.T.T.",
"T.T.T.T.T.T.T.M.u.f.a.p.a.h.>.5 X X > < 6 D >.T.T.T.T.T.T.T.T.T.T.T.T.T.T.T.e.o.@.#.L H 7.r.$.%._  .{ T.T.T.T.T.T.T.T.T.T.T.T.T.",
"T.T.T.T.T.T.T.i.:.f.s.a.g.N.k.s     & x F n i.H.b.T.T.T.T.T.T.T.T.T.T.T.T.T.*.5.1.$.O.O.m.` #.2.z.U...] T.T.T.T.T.T.T.T.T.T.T.T.",
"T.T.T.T.T.T.w.>.;.f.a.a.g.c.N.8.z 5 < z P g.F.L.l.9.T.T.T.T.T.T.T.T.T.T.T.4.%.m.q.$.O.@.=.o.$.4.T C { T.} T.T.T.T.T.T.T.T.T.T.T.",
"T.T.T.T.T.b.L :.-.s.8.8.8.8.f.c.h.6.P 7.k.k.f.h.7.L T.T.T.T.T.T.T.T.T.T.T.;.#.=.O.1.~ o.$.$.J M $ % c [ T...T.T.T.T.T.T.T.T.T.T.",
"T.T.T.T.T.7.G :.H 8.8.s.8.7.8.a.p.<.p.S.K.h.6.:.n j { T.T.T.T.T.T.T.T.T.T.! X.$.+.K Q ( U n t 3 X   # k ) T.I.T.T.T.T.T.T.T.T.T.",
"T.T.T.T.T.;.G :.A 7.6.a.s.6.<.7.a.h.F.P.L.v.<.Z 6 : g { T.T.T.T.T.T.T.T.T.T.D S e 4 q m t , > 2 % + X X q W T.T.T.T.T.T.T.T.T.T.",
"T.T.T.T.T.G F H x 5.:.6.p.p.a.h.h.V.K.K.F.v.:.d 3 ; u v Y T.T.T.T.T.T.T.T.T.T.l 3 % > 5 6 > % % & # + X   < W T.T.T.T.T.T.T.T.T.",
"T.T.T.T.T.x x F d H :.7.a.f.h.f.f.h.h.v.c.p.G 7 ; u i W Q T.T.T.T.T.T.T.T.T.T.T.m 5 % # > 5 > % # : # + .   , T T.T.T.T.T.T.T.T.",
"T.T.T.T.T.6 a Z n :.p.a.7.7.g.h.f.7.G x Z Z p : - y w | Y.E T.T.T.T.T.T.T.T.T.T.T.m 5 # + : 2 > # + % % + +   % N T.T.T.T.T.T.T.",
"T.T.T.T.T.: s F -.7.f.f.h.f.f.a.a.6.z > > < > $ O = * q x...E T.T.T.T.T.T.T.T.T.T.T.T.6 & + % > > % # # $ % @   $ C T.T.T.T.T.T.",
"T.T.T.T.T.s d A ;.<.p.a.a.g.g.h.p.:.A > > 5 > @ O   X O 4 ] ' E T.T.T.T.T.T.T.T.T.T.T.T.e : # $ > > % # $ * 1 @ X : N T.T.T.T.T.",
"T.T.T.T.b 3 p H <.7.a.f.c.c.a.8.a.-.x 3 % # @ X O O O O + q { E T.T.T.T.T.T.T.T.T.T.T.T.T.t % X + > 2 & * 9 0 9 = o & B x.U.T.T."
};
