/* XPM */
static char *gun_reload8[] = {
/* columns rows colors chars-per-pixel */
"64 34 146 2 ",
"   c #040302",
".  c #0A0603",
"X  c #0D0905",
"o  c #0A0A0A",
"O  c #140E06",
"+  c #140F09",
"@  c #171007",
"#  c #181007",
"$  c #16120B",
"%  c #1B140A",
"&  c #1F180C",
"*  c #121212",
"=  c #1D1C1C",
"-  c #20170A",
";  c #231A0D",
":  c #261E14",
">  c #2C1E11",
",  c #211E1B",
"<  c #361B12",
"1  c #2A200F",
"2  c #2D2113",
"3  c #2B251B",
"4  c #2D281D",
"5  c #322513",
"6  c #322815",
"7  c #3C2B16",
"8  c #352C1D",
"9  c #3D2F19",
"0  c #3F301D",
"q  c #232323",
"w  c #292725",
"e  c #2B2B2B",
"r  c #342E25",
"t  c #3E3322",
"y  c #3B372C",
"u  c #333333",
"i  c #3A3836",
"p  c #3E3E3E",
"a  c #5A0403",
"s  c #5D0905",
"d  c #45190D",
"f  c #680000",
"g  c #760B05",
"h  c #432D1A",
"j  c #45321B",
"k  c #4C351D",
"l  c #51371E",
"z  c #533B1F",
"x  c #6F2717",
"c  c #423522",
"v  c #413827",
"b  c #41372C",
"n  c #463D2D",
"m  c #553D22",
"M  c #593E21",
"N  c #403F3E",
"B  c #613E22",
"V  c #5E4123",
"C  c #4D4236",
"Z  c #42413E",
"A  c #5C4B34",
"S  c #644425",
"D  c #684727",
"F  c #6A4927",
"G  c #694628",
"H  c #644B2D",
"J  c #6B4A29",
"K  c #734D2B",
"L  c #77502D",
"P  c #7C522E",
"I  c #6F5336",
"U  c #735231",
"Y  c #7E5633",
"T  c #7E5938",
"R  c #434343",
"E  c #4F4A45",
"W  c #4D4D4D",
"Q  c #524A40",
"!  c #514E48",
"~  c #5F554A",
"^  c #545454",
"/  c #5C5955",
"(  c #5B5A5A",
")  c #605447",
"_  c #69594A",
"`  c #68625B",
"'  c #676460",
"]  c #6C6C6C",
"[  c #716D67",
"{  c #727272",
"}  c #79797A",
"|  c #860403",
" . c #850C09",
".. c #8E1616",
"X. c #921B17",
"o. c #8F281F",
"O. c #972B22",
"+. c #824A33",
"@. c #825631",
"#. c #865933",
"$. c #8C5C35",
"%. c #8B5F3B",
"&. c #905E37",
"*. c #925F38",
"=. c #95613A",
"-. c #9C653C",
";. c #9F683E",
":. c #A2693F",
">. c #8F6543",
",. c #84674C",
"<. c #9C6A43",
"1. c #926C4C",
"2. c #A56B41",
"3. c #AA6E43",
"4. c #AD7044",
"5. c #AD7349",
"6. c #B27346",
"7. c #B57549",
"8. c #B9774A",
"9. c #B7794E",
"0. c #BC7A4D",
"q. c #AA7650",
"w. c #A87955",
"e. c #BF7D50",
"r. c #C27D4F",
"t. c #C37E51",
"y. c #B4815E",
"u. c #C48053",
"i. c #CD8556",
"p. c #CE8758",
"a. c #CD885B",
"s. c #D18758",
"d. c #D48A5B",
"f. c #C58961",
"g. c #CA926D",
"h. c #DC9263",
"j. c #DB9669",
"k. c #E19666",
"l. c #E2996B",
"z. c #E29C70",
"x. c #DFA078",
"c. c #ECA273",
"v. c #EAA579",
"b. c #F3A97B",
"n. c #8E8B88",
"m. c None",
/* pixels */
"m.m.m.m.m.m.m.m.m.m.m.m.m.m.m.m.m.m.m.m.m.m.m.m.m.m.m.m.m.m.m.m.m.m.m.m.m.m.m.m.m.m.m.m.m.m.m.m.m.m.m.m.m.m.m.m.m.m.m.m.m.m.m.m.",
"m.m.m.m.m.m.m.m.m.m.m.m.m.m.m.m.m.m.m.m.m.m.m.m.m.m.m.m.m.m.m.m.m.m.m.m.m.m.m.m.m.m.m.m.m.m.m.m.m.m.m.m.m.m.m.m.m.m.m.m.m.m.m.m.",
"m.m.m.m.m.m.m.m.m.m.m.m.m.m.m.m.m.m.m.m.m.m.m.m.m.m.m.m.m.m.m.m.m.m.m.m.m.m.m.m.m.m.m.m.m.m.m.m.m.m.m.m.m.m.m.m.m.m.m.m.m.m.m.m.",
"m.m.m.m.m.m.m.m.m.m.m.m.m.m.m.m.m.m.m.m.m.m.m.m.m.m.m.m.m.m.m.m.m.m.m.m.m.m.m.m.m.m.m.m.m.m.m.m.m.m.m.m.m.m.m.m.m.m.m.m.m.m.m.m.",
"m.m.m.m.m.m.m.m.m.m.m.m.m.m.m.m.m.m.m.m.m.m.m.m.m.m.m.m.m.m.m.m.m.m.m.m.m.m.m.m.m.m.m.m.m.m.m.m.m.m.m.m.m.m.m.m.m.m.m.m.m.m.m.m.",
"m.m.m.m.m.m.m.m.m.m.m.m.m.m.m.m.m.m.m.m.m.m.m.m.m.m.m.m.m.m.m.m.m.m.m.m.m.m.m.m.m.m.m.m.m.m.m.m.m.m.m.m.m.m.m.m.m.m.m.m.m.m.m.m.",
"m.m.m.m.m.m.m.m.m.m.m.m.m.m.m.m.m.m.m.m.m.m.m.m.m.m.m.m.m.m.m.m.m.m.m.m.m.m.m.m.m.m.m.m.m.m.m.m.m.m.m.m.m.m.m.m.m.m.m.m.m.m.m.m.",
"m.m.m.m.m.m.m.m.m.m.m.m.m.m.m.m.m.m.m.m.m.m.m.m.m.m.m.m.m.m.m.m.m.m.m.m.m.m.m.m.m.m.m.m.m.m.m.m.m.m.m.m.m.m.m.m.m.m.m.m.m.m.m.m.",
"m.m.m.m.m.m.m.m.m.m.m.m.m.m.m.m.m.m.m.m.m.m.m.m.m.m.m.m.m.m.m.m.m.m.m.m.m.m.m.m.m.m.m.m.m.m.m.m.m.m.m.m.m.m.m.m.m.m.m.m.m.m.m.m.",
"m.m.m.m.m.m.m.m.m.m.m.m.m.m.m.m.m.m.m.m.m.m.m.m.m.m.m.m.m.m.m.m.m.m.m.m.m.m.m.m.m.m.m.m.m.m.m.m.m.m.m.m.m.m.m.m.m.m.m.m.m.m.m.m.",
"m.m.m.m.m.m.m.m.m.m.m.m.m.m.m.m.m.m.m.m.m.m.m.m.m.m.m.m.m.m.m.m.m.m.m.m.m.m.m.m.m.m.m.m.m.m.m.m.m.m.m.m.m.m.m.m.m.m.m.m.m.m.m.m.",
"m.m.m.m.m.m.m.m.m.m.m.m.m.m.m.m.m.m.m.m.m.m.m.m.m.m.m.m.m.m.m.m.m.m.m.m.m.m.m.m.m.m.m.m.m.m.m.m.m.m.m.m.m.m.m.m.m.m.m.m.m.m.m.m.",
"m.m.m.m.m.m.m.m.m.m.m.m.m.m.m.m.m.m.m.m.m.m.m.m.m.m.m.m.m.m.m.m.m.m.m.m.m.m.m.m.m.m.m.m.m.m.m.m.m.m.m.m.m.m.m.m.m.m.m.m.m.m.m.m.",
"m.m.m.m.m.m.m.m.m.m.m.m.m.m.m.m.m.m.m.m.m.m.m.m.m.m.m.m.m.m.m.m.m.m.m.m.m.m.m.m.m.m.m.m.m.m.m.m.m.m.m.m.m.m.m.m.m.m.m.m.m.m.m.m.",
"m.m.m.m.m.m.m.m.m.m.m.m.m.m.m.m.m.m.m.m.m.m.m.m.m.m.m.m.m.m.m.m.m.m.m.m.m.m.m.m.m.m.m.m.m.m.m.m.m.m.m.m.m.m.m.m.m.m.m.m.m.m.m.m.",
"m.m.m.m.m.m.m.m.m.m.m.m.m.m.m.m.m.m.m.m.m.m.m.m.m.m.m.m.m.m.m.m.m.m.m.m.m.m.m.m.m.m.m.m.m.m.m.m.m.m.m.m.m.m.m.m.m.m.m.m.m.m.m.m.",
"m.m.m.m.m.m.m.m.m.m.m.m.m.m.m.m.m.m.m.m.m.m.y.9.0.a.j.m.m.m.m.m.m.m.m.m.m.m.m.m.m.m.m.m.m.m.m.m.m.m.m.m.m.m.m.m.m.m.m.m.m.m.m.m.",
"m.m.m.m.m.m.m.m.m.m.m.m.m.m.m.m.m.m.<.5.u.9.r.d.t.t.l.z.m.m.m.m.m.m.m.m.m.m.m.m.m.m.m.m.m.m.m.m.m.m.m.m.m.m.m.m.m.m.m.m.m.m.m.m.",
"m.m.m.m.m.m.m.m.m.m.m.m.m.m.m.m.@.%.$.8.7.:.6.u.6.*.0.l.v.m.m.m.m.m.m.m.m.m.m.m.m.m.m.m.m.m.m.m.m.m.m.m.m.m.m.m.m.m.m.m.m.m.m.m.",
"m.m.m.m.m.m.m.m.m.m.m.m.m.m.<.U Y P -.0.4.3.:.3.$.B 2.t.h.m.m.m.m.m.m.m.m.m.m.m.m.m.m.m.m.m.m.m.m.m.m.m.m.m.m.m.m.m.m.m.m.m.m.m.",
"m.m.m.m.m.m.m.m.m.m.m.m.m.m.@.K $.@.8.6.4.:.8.3.S 5 c *.t.j.m.m.m.m.m.m.m.m.m.m.m.m.m.m.m.m.m.m.m.m.m.m.m.m.m.m.m.m.m.m.m.m.m.m.",
"m.m.m.m.m.m.m.m.m.m.m.m.m.T F &.P -.6.:.4.4.r.5.2 . ; 7 J u.f.m.m.m.m.m.m.m.m.m.m.m.m.m.m.m.m.m.m.^ ( m.m.m.m.m.m.m.m.m.m.m.m.m.",
"m.m.m.m.m.m.m.m.m.m.m.m.m.U K @.L :.6.6.:.:.0.9.>     & m G <.m.m.m.m.m.m.m.m.m.m.m.m.m.( ] m.W w o = W m.m.m.m.m.m.m.m.m.m.m.m.",
"m.m.m.m.m.m.m.m.m.m.m.m.,.J @.K =.:.:.r.:.-.4.r.=.h O j B k @.m.m.m.m.m.m.m.m.m.m.m.m.e * N ^ e     o ^ { m.m.m.m.m.m.m.m.m.m.m.",
"m.m.m.m.m.m.m.m.m.m.m.m.H K @.L $.@.=.:.:.:.:.8.:.:.B z J K 1.m.m.m.m.m.m.m.m.m.m.m.p o   q W =     * ] m.{ m.m.m.m.m.m.m.m.m.m.",
"m.m.m.m.m.m.m.m.m.m.m.I G Y P @.#.$.-.:.8.:.:.:.:.:.6.:.2.u.v.g.m.m.m.m.m.m.m.m.m.m.e .   q W u =   e Q Q m.} m.m.m.m.m.m.m.m.m.",
"m.m.m.m.m.m.m.m.m.m.>.=.#.#.&.*.:.:.:.:.:.8.8.r.s.l.c.d.6.0.k.p.+.m.m.m.m.m.m.m.m.R u =   u ( E u e i * % C [ m.m.m.m.m.m.m.m.m.",
"m.m.m.m.m.m.m.m.m.T 2.3.2.2.&.#.:.8.u.8.8.8.:.8.h.c.b.s.;.-.3.-.x ..m.m.m.m.m.m.m.W R u e R ( ( N e 5 X . + b ` m.m.m.m.m.m.m.m.",
"m.m.m.m.m.m.m.n m K $.&.<.5.5.3.:.*.:.r.8.s.:.*.:.d.h.0.=.P F S s | X.m.m.m.m.m.m.m.! y 3 ; 8 t : % > - # . X r ` m.m.m.m.m.m.m.",
"m.m.m.m.m.m.m.9 J 2.2.0.9.#.S K :.:.@.:.-.8.:.F B ;.4.=.L j h d f g O.m.m.m.m.m.m.m.m.t 6 & & 1 5 - % % % # X . 4 / m.m.m.m.m.m.",
"m.m.m.m.m.m.1.-.6.0.0.d.i.t.$.m z :.#.&.$.=.&.z 1 z S V j 4 5 a  .O.m.m.m.m.m.m.m.m.m.m.m.0 % @ ; 1 & @ % % O X   > ~ n.m.m.m.m.",
"m.m.m.m.w.5.7.7.0.e.0.i.s.d.6.=.l z $.D D F F h & ; 6 j m.m.m.m.m.m.m.m.m.m.m.m.m.m.m.m.m.m.t - @ % 1 - # # # + O   : ) m.m.m.m.",
"m.m.1.<.6.7.i.d.t.r.t.h.s.i.:.$.G 5 K j ; 9 H 9 5 t m.m.m.m.m.m.m.m.m.m.m.m.m.m.m.m.m.m.m.m.m.v ; O @ ; ; % @ $ 3 o X 2 ~ m.m.m.",
"m.1.3.0.0.t.k.k.t.d.i.d.r.7.-.@.S 5 z > c A m.m.m.m.m.m.m.m.m.m.m.m.m.m.m.m.m.m.m.m.m.m.m.m.m.m.r ; O @ ; - % , e q * o > _ m.m."
};
