/* XPM */
static char *gun_reload11[] = {
/* columns rows colors chars-per-pixel */
"64 54 164 2 ",
"   c #030302",
".  c #080605",
"X  c #030802",
"o  c #0B0A06",
"O  c #0C0C0C",
"+  c #100B07",
"@  c #140E09",
"#  c #0D1205",
"$  c #0E100C",
"%  c #111705",
"&  c #111805",
"*  c #14110E",
"=  c #1B150B",
"-  c #151A09",
";  c #1D1F0C",
":  c #141414",
">  c #191713",
",  c #161914",
"<  c #1A1916",
"1  c #1A1A1A",
"2  c #2B1F0E",
"3  c #231B13",
"4  c #201E1C",
"5  c #1E210D",
"6  c #23220D",
"7  c #2C2613",
"8  c #23231B",
"9  c #322014",
"0  c #342A13",
"q  c #3A2D15",
"w  c #322B1A",
"e  c #3C2C1A",
"r  c #3D3117",
"t  c #3E321B",
"y  c #242423",
"u  c #262922",
"i  c #2B2A25",
"p  c #2D2D2D",
"a  c #342E20",
"s  c #322F28",
"d  c #2F302E",
"f  c #3D3422",
"g  c #37332E",
"h  c #3E3829",
"j  c #333333",
"k  c #373837",
"l  c #3A3935",
"z  c #3C3C3C",
"x  c #402E1A",
"c  c #45331A",
"v  c #4B371C",
"b  c #4F391C",
"n  c #533C1E",
"m  c #4A3A23",
"M  c #443A2D",
"N  c #503420",
"B  c #553D22",
"V  c #593E20",
"C  c #403E38",
"Z  c #443D32",
"A  c #3F413C",
"S  c #5C4124",
"D  c #5C4529",
"F  c #41403F",
"G  c #4C4532",
"H  c #574630",
"J  c #534834",
"K  c #594A34",
"L  c #5C4E3A",
"P  c #58513F",
"I  c #634424",
"U  c #694725",
"Y  c #6C4927",
"T  c #6C4B2A",
"R  c #734D2B",
"E  c #784F2D",
"W  c #7C512E",
"Q  c #614D34",
"!  c #6D4B30",
"~  c #664E38",
"^  c #6E5437",
"/  c #67513B",
"(  c #6D553B",
")  c #755436",
"_  c #7D5735",
"`  c #735439",
"'  c #7B5238",
"]  c #7B593A",
"[  c #444444",
"{  c #4D4A44",
"}  c #4B4B4B",
"|  c #544B45",
" . c #5D5746",
".. c #535352",
"X. c #5B5B5A",
"o. c #695A46",
"O. c #675C49",
"+. c #6C5E4A",
"@. c #775D41",
"#. c #6C604E",
"$. c #7F6043",
"%. c #7E674D",
"&. c #6F6553",
"*. c #776650",
"=. c #746857",
"-. c #776E5B",
";. c #7C6D59",
":. c #646363",
">. c #6C6C6C",
",. c #746C63",
"<. c #7A7A7A",
"1. c #727272",
"2. c #81552F",
"3. c #845631",
"4. c #865834",
"5. c #8B5B34",
"6. c #8F5E38",
"7. c #915E36",
"8. c #96623A",
"9. c #9B643B",
"0. c #A0663E",
"q. c #A3693E",
"w. c #82684D",
"e. c #816850",
"r. c #83715C",
"t. c #95785E",
"y. c #A66B41",
"u. c #AC6E43",
"i. c #AE7044",
"p. c #AF754F",
"a. c #B37346",
"s. c #B67548",
"d. c #B97649",
"f. c #BC7A4C",
"g. c #AC7552",
"h. c #B67B51",
"j. c #BF7E51",
"k. c #937F6A",
"l. c #C47D4E",
"z. c #C57F50",
"x. c #998878",
"c. c #958572",
"v. c #A18164",
"b. c #A78568",
"n. c #A8876C",
"m. c #AD886A",
"M. c #B38A6A",
"N. c #CB8354",
"B. c #CB8658",
"V. c #CB895E",
"C. c #D18657",
"Z. c #D48A5B",
"A. c #DA8E5E",
"S. c #DA8F60",
"D. c #DD9262",
"F. c #DF976A",
"G. c #E19565",
"H. c #E69A6A",
"J. c #EA9D6D",
"K. c #EDA171",
"L. c #8C8C8C",
"P. c #9D9486",
"I. c #A59888",
"U. c None",
/* pixels */
"U.U.U.U.U.U.U.U.U.U.U.U.U.U.U.U.U.U.U.U.U.U.U.U.U.U.U.U.U.U.U.U.U.U.U.U.U.U.U.U.U.U.U.U.U.U.U.U.U.U.U.U.U.U.U.U.U.U.U.U.U.U.U.U.",
"U.U.U.U.U.U.U.U.U.U.U.U.U.U.U.U.U.U.U.U.U.U.U.U.U.U.U.U.U.U.U.U.U.U.U.U.U.U.U.U.U.U.U.U.U.U.U.U.U.U.U.U.U.U.U.U.U.U.U.U.U.U.U.U.",
"U.U.U.U.U.U.U.U.U.U.U.U.U.U.U.U.U.U.U.U.U.U.U.U.U.U.U.U.U.U.U.U.U.U.U.U.U.U.U.U.U.U.U.U.U.U.U.U.U.U.U.U.U.U.U.U.U.U.U.U.U.U.U.U.",
"U.U.U.U.U.U.U.U.U.U.U.U.U.U.U.U.U.U.U.U.U.U.U.U.U.U.U.U.U.U.U.U.U.U.U.U.U.U.U.U.U.U.U.U.U.U.U.U.U.U.U.U.U.U.U.U.U.U.U.U.U.U.U.U.",
"U.U.U.U.U.U.U.U.U.U.U.U.U.U.U.U.U.U.U.U.U.U.U.U.U.U.U.U.U.U.U.U.U.U.U.U.U.U.U.U.U.U.U.U.U.U.U.U.U.U.U.U.U.U.U.U.U.U.U.U.U.U.U.U.",
"U.U.U.U.U.U.U.U.U.U.U.U.U.U.U.U.U.U.U.U.U.U.U.U.U.U.U.U.U.U.U.U.U.U.U.U.U.U.U.U.U.U.U.U.U.U.U.U.U.U.U.U.U.U.U.U.U.U.U.U.U.U.U.U.",
"U.U.U.U.U.U.U.U.U.U.U.U.U.U.U.U.U.U.U.U.U.U.U.U.U.U.U.U.U.U.U.U.U.U.U.U.U.U.U.U.U.U.U.U.U.U.U.U.U.U.U.U.U.U.U.U.U.U.U.U.U.U.U.U.",
"U.U.U.U.U.U.U.U.U.U.U.U.U.U.U.U.U.U.U.U.U.U.U.U.U.U.U.U.U.U.U.U.U.U.U.U.U.U.U.U.U.U.U.U.U.U.U.U.U.U.U.U.U.U.U.U.U.U.U.U.U.U.U.U.",
"U.U.U.U.U.U.U.U.U.U.U.U.U.U.U.U.U.U.U.U.U.U.U.U.U.U.U.U.U.U.U.U.U.U.U.U.U.U.U.U.U.U.U.U.U.U.U.U.U.U.U.U.U.U.U.U.U.U.U.U.U.U.U.U.",
"U.U.U.U.U.U.U.U.U.U.U.U.U.U.U.U.U.U.U.U.U.U.U.U.U.U.U.U.U.U.U.U.U.U.U.U.U.U.U.U.U.U.U.U.U.U.U.U.U.U.U.U.U.U.U.U.U.U.U.U.U.U.U.U.",
"U.U.U.U.U.U.U.U.U.U.U.U.U.U.U.U.U.U.U.U.U.U.U.U.U.U.U.U.U.U.U.U.U.U.U.U.U.U.U.U.U.U.U.U.U.U.U.U.U.U.U.U.U.U.U.U.U.U.U.U.U.U.U.U.",
"U.U.U.U.U.U.U.U.U.U.U.U.U.U.U.U.U.U.U.U.U.U.U.U.U.U.U.U.U.U.U.U.U.U.U.U.U.U.U.U.U.U.U.U.U.U.U.U.U.U.U.U.U.U.U.U.U.U.U.U.U.U.U.U.",
"U.U.U.U.U.U.U.U.U.U.U.U.U.U.U.U.U.U.U.U.U.U.U.U.U.U.U.U.U.U.U.U.U.U.U.U.U.U.U.U.U.U.U.U.U.U.U.U.U.U.U.U.U.U.U.U.U.U.U.U.U.U.U.U.",
"U.U.U.U.U.U.U.U.U.U.U.U.U.U.U.U.U.U.U.U.U.U.U.U.U.U.U.U.U.U.U.U.U.U.U.U.U.U.U.U.U.U.U.U.U.U.U.U.U.U.U.U.U.U.U.U.U.U.U.U.U.U.U.U.",
"U.U.U.U.U.U.U.U.U.U.U.U.U.U.U.U.U.U.U.U.U.U.U.U.U.U.U.U.U.U.U.U.U.U.U.U.U.U.U.U.U.U.U.U.U.U.U.U.U.U.U.U.U.U.U.U.U.U.U.U.U.U.U.U.",
"U.U.U.U.U.U.U.U.U.U.U.U.U.U.U.U.U.U.U.U.U.U.U.U.U.U.U.U.U.U.U.U.U.U.U.U.U.U.U.U.U.U.U.U.U.U.U.U.U.U.U.U.U.U.U.U.U.U.U.U.U.U.U.U.",
"U.U.U.U.U.U.U.U.U.U.U.U.U.U.U.U.U.U.U.U.U.U.U.U.U.U.U.U.U.U.U.U.U.U.U.U.U.U.U.U.U.U.U.U.U.U.U.U.U.U.U.U.U.U.U.U.U.U.U.U.U.U.U.U.",
"U.U.U.U.U.U.U.U.U.U.U.U.U.U.U.U.U.U.U.U.U.U.U.U.U.U.U.U.U.U.U.U.U.U.U.U.U.U.U.U.U.U.U.U.U.U.U.U.U.U.U.U.U.U.U.U.U.U.U.U.U.U.U.U.",
"U.U.U.U.U.U.U.U.U.U.U.U.U.U.U.U.U.U.U.U.U.U.U.U.U.U.U.U.U.U.U.U.U.U.U.U.U.U.U.U.U.U.U.U.U.U.U.U.U.U.U.U.U.U.U.U.U.U.U.U.U.U.U.U.",
"U.U.U.U.U.U.U.U.U.U.U.U.U.U.U.U.U.U.U.U.U.U.U.U.U.U.U.U.U.U.U.U.U.U.U.U.U.U.U.U.U.U.U.U.U.U.U.<.U.U.U.U.U.U.U.U.U.U.U.U.U.U.U.U.",
"U.U.U.U.U.U.U.U.U.U.U.U.U.U.U.U.U.U.U.U.U.U.U.U.U.U.U.U.U.U.U.U.U.U.U.U.U.U.U.U.U.U.U.U.U.X.} :.:.U.U.>.L.U.U.U.U.U.U.U.U.U.U.U.",
"U.U.U.U.U.U.U.U.U.U.U.U.U.U.U.U.U.U.U.U.U.U.U.U.U.U.U.U.U.U.U.U.U.U.U.U.U.U.U.U.U.U.U.U...[ } } ....} j :.U.U.U.U.U.U.U.U.U.U.U.",
"U.U.U.U.U.U.U.U.U.U.U.U.U.U.U.U.U.U.U.U.U.U.U.U.U.U.U.U.U.U.U.U.U.U.U.U.U.U.U.U.U.U.U.[ j j F [ } [ y 1 [ :.:.U.U.U.U.U.U.U.U.U.",
"U.U.U.U.U.U.U.U.U.U.U.U.U.U.U.U.U.U.U.U.U.U.U.U.U.U.U.U.U.U.U.U.U.U.U.U.U.U.U.U.U.U...j p j j z z [ 4 i [ } ..>.U.U.U.U.U.U.U.U.",
"U.U.U.U.U.U.U.U.U.U.U.U.U.U.U.U.U.U.U.U.U.U.U.U.U.U.U.U.U.U.U.U.U.U.U.U.U.U.U.U.U.} j p d p p j z z y j z } [ } >.U.U.U.U.U.U.U.",
"U.U.U.U.U.U.U.U.U.U.U.U.U.U.U.U.U.U.U.U.U.U.U.U.U.U.U.U.U.U.;.t.v.b.m.M.M.m.n.,.} z j p p j j j F p y j j z z z :.U.U.U.U.U.U.U.",
"U.U.U.U.U.U.U.U.U.U.U.U.U.U.U.U.U.U.U.U.U.U.U.U.U.U.U.U.U.-.Q _ 3.7.9.q.0.5.) | F p p p p p p j F y p j j j j j [ U.U.U.U.U.U.U.",
"U.U.U.U.U.U.U.U.U.U.U.U.U.U.U.U.U.U.U.U.U.U.U.U.U.U.U.U. .c b E 8.q.q.9.R B Z C z y p p p j j z j y j j j j p p j >.U.U.U.U.U.U.",
"U.U.U.U.U.U.U.U.U.U.U.U.U.U.U.U.U.U.U.U.U.U.U.U.U.U.U.U.w q S 2.y.z.C.a.Y q a g i 1 p p d d k F d y z k p p p j z >.U.U.U.U.U.U.",
"U.U.U.U.U.U.U.U.U.U.U.U.U.U.U.U.U.U.U.U.U.U.U.U.U.U.U.O.0 v E 7.u.N.B.9.b 2 = @ O O * 1 y d z z y j F j j p j p z >.U.U.U.U.U.U.",
"U.U.U.U.U.U.U.U.U.U.U.U.U.U.U.U.U.U.U.U.U.U.U.U.U.U.U.t 0 I 3.9.i.l.q.v @               O y z k y k z j p p p j z <.U.U.U.U.U.U.",
"U.U.U.U.U.U.U.U.U.U.U.U.U.U.U.U.U.U.U.U.U.U.U.U.U.U.+.c n Y 5.0.a.y.c o           O O     O y y p F k p j p p z [ X.U.U.U.U.U.U.",
"U.U.U.U.U.U.U.U.U.U.U.U.U.U.U.U.U.U.U.U.U.U.U.U.U.;.S I W 5.9.y.9.c #           X < 1 < o . O : y y 1 1 y p d [ } k U.U.U.U.U.U.",
"U.U.U.U.U.U.U.U.U.U.U.U.U.U.U.U.U.U.U.U.U.U.U.U.e.I S Y 3.9.9.5.c % & #         o O O 8 y z 1 . : 1 1 O . : y [ } Z U.U.U.U.U.U.",
"U.U.U.U.U.U.U.U.U.U.U.U.U.U.U.U.U.U.U.U.U.U.U.r.T W 5.3.3.3.T r 6 6 6 &                 O u 4 O y z z y   . O 1 M m U.U.U.U.U.U.",
"U.U.U.U.U.U.U.U.U.U.U.U.U.U.U.U.U.U.U.U.U.U.T _ R W 5.5.W I r 6 0 6 6 % X   O y o             : p A k p o O : 1 7 e ~ U.U.U.U.U.",
"U.U.U.U.U.U.U.U.U.U.U.U.U.U.U.U.U.U.U.U.U.%.U Y R W Y I n q 6 6 8 y y : X . p :.k O           . X . O < = : . 1 u 7 ( U.U.U.U.U.",
"U.U.U.U.U.U.U.U.U.U.U.U.U.U.U.U.U.U.U.U.) _ R E I n n v w 5 - , , : O O .   : p y :                     $ o   : p i Q I.U.U.U.U.",
"U.U.U.U.U.U.U.U.U.U.U.U.U.U.U.U.U.U.U.w.W 2.3.2.R n v r 5 # . .         . . . O O O   .                 .     . p l K P.U.U.U.U.",
"U.U.U.U.U.U.U.U.U.U.U.U.U.U.U.U.U.U.c.T R U I I n n v 7 # X           . . . O O O : : : $ O       O : $   .   X 1 s J P.U.U.U.U.",
"U.U.U.U.U.U.U.U.U.U.U.U.U.U.U.U.U.U.^ I R _ 5.7.E I x 3           X . O O O O O O : : : : : O O : y X.>.p 1 1 < 7 w G U.U.U.U.U.",
"U.U.U.U.U.U.U.U.U.U.U.U.U.U.U.U.U.c.U 5.f.B.B.C.f.8.N +   . O O O O O $ O O : : : : : : : : : : 1 4 z X.F p j j f r H U.U.U.U.U.",
"U.U.U.U.U.U.U.U.U.U.U.U.U.U.U.U.x.@.7.f.A.G.A.G.z.0.9 . O * : : : O $ $ : O O : : : : : : O O : : : 1 1 y p z ..C c I K U.U.U.U.",
"U.U.U.U.U.U.U.U.U.U.U.U.U.U.U./ ) 6.s.C.A.G.H.H.S.3.+ . : : : : : O : O O O : : : 1 1 : 1 : : : : : : : 1 p } >...m I D U.U.U.U.",
"U.U.U.U.U.U.U.U.U.U.U.U.U.U.@.R 6.u.N.A.G.H.H.H.z.N . O : * : : : : : O O : : : 1 : 1 : 1 : : : : : : : : y } <.>.Z b v U.U.U.U.",
"U.U.U.U.U.U.U.U.U.U.U.U.U.] 4.7.d.N.C.G.G.H.J.D.4.= O : : : : : : : : : : : : : : 1 1 : : : : : : : : : : 1 j >.<.{ q c U.U.U.U.",
"U.U.U.U.U.U.U.U.U.U.U.r.` _ 9.a.N.Z.D.J.H.J.J.h.x . O : : : : : : : : : : : : 1 : 1 1 : : : : : : : : : : : y X.<.X.w 0 U.U.U.U.",
"U.U.U.U.U.U.U.U.U.U.=.^ 3.9.u.z.C.G.H.J.H.H.D.T + O : : : : = > : : O : : 1 1 : 1 1 : 1 : : : : : : : : : : 1 [ 1.&.w  .U.U.U.U.",
"U.U.U.U.U.U.U.U.U.*.S 7.u.q.s.N.S.J.J.J.H.G.p.3 . O : : : : > : : : : 1 1 : : : 1 1 : : : : : : : : : : : : 1 F >.X.h U.U.U.U.U.",
"U.U.U.U.U.U.U.&.o.T 4.u.s.a.l.Z.S.H.J.J.J.H.' . + * : : : : 1 1 : 1 : : 1 : 1 1 1 1 1 1 : : : : : : : : : : : j >.:.U.U.U.U.U.U.",
"U.U.U.U.U.#.m m v W y.d.f.l.N.S.G.J.K.J.K.V.a . * : : : 1 : 1 1 1 1 : 1 1 : 1 1 y 1 1 : : : : : : : : : : : 1 z :.U.U.U.U.U.U.U.",
"U.U.U.U.=.m B U T q.u.B.D.N.B.G.H.K.K.J.G.' = + : : : 1 1 1 : 1 1 1 1 1 1 : : 1 4 : : : 1 : : : O : : : : : : j X.U.U.U.U.U.U.U.",
"U.U.#.m v S _ 9.9.z.f.Z.H.Z.A.H.K.K.H.J.g.1 . : : : : 1 1 1 1 1 1 1 1 1 1 : 1 y 4 1 : 1 : : : : : : $ : : : 1 p ..,.U.U.U.U.U.U.",
"U.K m B T E 9.a.a.z.N.D.H.D.D.J.K.H.J.J.'   O : : : 1 1 1 1 1 1 1 4 1 1 1 1 y y 4 : 1 1 1 < : : 1 : : : : * : y [ L U.U.U.U.U.U."
};
