/* XPM */
static char *gun_reload5[] = {
/* columns rows colors chars-per-pixel */
"57 64 149 2 ",
"   c #050502",
".  c #0B0703",
"X  c #070805",
"o  c #0C0B05",
"O  c #0D0D0C",
"+  c #130E06",
"@  c #180F07",
"#  c #120E09",
"$  c #0F1207",
"%  c #0E120A",
"&  c #151007",
"*  c #181007",
"=  c #16110A",
"-  c #1C150B",
";  c #161909",
":  c #1E190D",
">  c #141413",
",  c #1A1612",
"<  c #141812",
"1  c #1D1914",
"2  c #1D1C1A",
"3  c #21170C",
"4  c #231C0D",
"5  c #281E0F",
"6  c #211C14",
"7  c #291E10",
"8  c #211F1B",
"9  c #1F201E",
"0  c #24210E",
"q  c #29220F",
"w  c #2D2310",
"e  c #22201E",
"r  c #2B251C",
"t  c #2E281F",
"y  c #322512",
"u  c #352914",
"i  c #3A2B16",
"p  c #32271B",
"a  c #3C2C19",
"s  c #3E3017",
"d  c #3D311F",
"f  c #242323",
"g  c #292622",
"h  c #2B2925",
"j  c #282728",
"k  c #2C2C2B",
"l  c #322C25",
"z  c #312F2C",
"x  c #343024",
"c  c #33312E",
"v  c #39352E",
"b  c #343434",
"n  c #383735",
"m  c #353833",
"M  c #3B3936",
"N  c #373738",
"B  c #3C3C3B",
"V  c #442D19",
"C  c #443319",
"Z  c #4A351C",
"A  c #4E381D",
"S  c #50371E",
"D  c #523A1E",
"F  c #4E3622",
"G  c #453B26",
"H  c #563C20",
"J  c #5B3E22",
"K  c #423D33",
"L  c #413F3C",
"P  c #5D4123",
"I  c #55452E",
"U  c #43413E",
"Y  c #4D493E",
"T  c #544530",
"R  c #634425",
"E  c #684727",
"W  c #6A4827",
"Q  c #6B4629",
"!  c #6D4B2A",
"~  c #734D2B",
"^  c #77512D",
"/  c #7B512E",
"(  c #674A34",
")  c #724F30",
"_  c #6C5032",
"`  c #6B553A",
"'  c #7E5431",
"]  c #3F3F40",
"[  c #434343",
"{  c #464943",
"}  c #4B4944",
"|  c #4C4B4B",
" . c #534C41",
".. c #514E48",
"X. c #4F514E",
"o. c #50504F",
"O. c #5E574D",
"+. c #545453",
"@. c #575A57",
"#. c #5A5956",
"$. c #5D5C5C",
"%. c #705E43",
"&. c #615D59",
"*. c #706048",
"=. c #62605F",
"-. c #636362",
";. c #696763",
":. c #6A6967",
">. c #6A6A69",
",. c #726F6A",
"<. c #727372",
"1. c #7E7973",
"2. c #825631",
"3. c #865833",
"4. c #8B5C35",
"5. c #895E3A",
"6. c #915E37",
"7. c #905F39",
"8. c #8A613D",
"9. c #94613A",
"0. c #9B653D",
"q. c #9E683D",
"w. c #A0683E",
"e. c #8E6340",
"r. c #8F6945",
"t. c #936240",
"y. c #9C704D",
"u. c #A36A40",
"i. c #AA6E43",
"p. c #AC7248",
"a. c #B17246",
"s. c #B9794D",
"d. c #BD7E52",
"f. c #907E68",
"g. c #817C70",
"h. c #87837E",
"j. c #938573",
"k. c #C58153",
"l. c #C9885D",
"z. c #D08F64",
"x. c #DF9B6F",
"c. c #E5A075",
"v. c #868686",
"b. c #8A8A8A",
"n. c #9D978D",
"m. c #939393",
"M. c #9B9B9B",
"N. c #BFA089",
"B. c None",
/* pixels */
"B.B.B.B.B.B.B.B.B.B.B.B.B.B.B.B.B.B.B.B.B.B.B.B.B.B.B.B.B.B.B.B.B.B.B.B.B.B.B.B.B.B.B.B.B.B.B.B.B.B.B.B.B.B.B.B.B.",
"B.B.B.B.B.B.B.B.B.B.B.B.B.B.B.B.B.B.B.B.B.B.B.B.B.B.B.B.B.B.B.B.B.B.B.B.B.B.B.B.B.B.B.B.B.B.B.B.B.B.B.B.B.B.B.B.B.",
"B.B.B.B.B.B.B.B.B.B.B.B.B.B.B.B.B.B.B.B.B.B.B.B.B.B.B.B.B.B.B.B.B.B.B.B.B.B.B.B.B.B.B.B.B.B.B.B.B.B.B.B.B.B.B.B.B.",
"B.B.B.B.B.B.B.B.B.B.B.B.B.B.B.B.B.B.B.B.B.B.B.B.B.B.B.B.B.B.B.B.B.B.B.B.B.B.B.B.B.B.B.B.B.B.B.B.B.B.B.B.B.B.B.B.B.",
"B.B.B.B.B.B.B.B.B.B.B.B.B.B.B.B.B.B.B.B.B.B.B.B.B.B.B.B.B.B.B.B.B.B.B.B.B.B.B.B.B.B.B.B.B.B.B.B.B.B.B.B.B.B.B.B.B.",
"B.B.B.B.B.B.B.B.B.B.B.B.B.B.B.B.B.B.B.B.B.B.B.B.B.B.B.B.B.B.B.B.B.B.B.B.B.B.B.B.B.B.B.B.B.B.B.B.B.B.B.B.B.B.B.B.B.",
"B.B.B.B.B.B.B.B.B.B.B.B.B.B.B.B.B.B.B.B.B.B.B.B.B.B.B.B.B.B.B.B.B.B.B.B.B.B.B.B.B.B.B.B.B.B.B.B.B.B.B.B.B.B.B.B.B.",
"B.B.B.B.B.B.B.B.B.B.B.B.B.B.B.B.B.B.B.B.B.B.B.B.B.B.B.B.B.B.B.B.B.B.B.B.B.B.B.B.B.B.B.B.B.B.B.B.B.B.B.B.B.B.B.B.B.",
"B.B.B.B.B.B.B.B.B.B.B.B.B.B.B.B.B.B.B.B.B.B.B.B.B.B.B.B.B.B.B.B.B.B.B.B.B.B.B.B.B.B.B.B.B.B.B.B.B.B.B.B.B.B.B.B.B.",
"B.B.B.B.B.B.B.B.B.B.B.B.B.B.B.B.B.B.B.B.B.B.B.B.B.B.B.B.B.B.B.B.B.B.B.B.B.B.B.B.B.B.B.B.B.B.B.B.B.B.B.B.B.B.B.B.B.",
"B.B.B.B.B.B.B.B.B.B.B.B.B.B.B.B.B.B.B.B.B.B.B.B.B.B.B.B.B.B.B.B.B.B.B.B.B.B.B.B.B.B.B.B.B.B.B.B.B.B.B.B.B.B.B.B.B.",
"B.B.B.B.B.B.B.B.B.B.B.B.B.B.B.B.B.B.B.B.B.B.B.B.B.B.B.B.B.B.B.B.B.B.B.B.B.B.B.B.B.B.B.B.B.B.B.B.B.B.B.B.B.B.B.B.B.",
"B.B.B.B.B.B.B.B.B.B.B.B.B.B.B.B.B.B.B.B.B.B.B.B.B.B.B.B.B.B.B.B.B.B.B.B.B.B.B.B.B.B.B.B.B.B.B.B.B.B.B.B.B.B.B.B.B.",
"B.B.B.B.B.B.B.B.B.B.B.B.B.B.B.B.B.B.B.B.B.B.B.B.B.B.B.B.B.B.B.B.B.B.B.B.B.B.B.B.B.B.B.B.B.B.B.B.B.B.B.B.B.B.B.B.B.",
"B.B.B.B.B.B.B.B.B.B.B.B.B.B.B.B.B.B.B.B.B.B.B.B.B.B.B.B.B.B.B.B.B.B.B.B.B.B.B.B.B.B.B.B.B.B.B.B.B.B.B.B.B.B.B.B.B.",
"B.B.B.B.B.B.B.B.B.B.B.B.B.B.B.B.B.B.B.B.B.B.B.B.B.B.B.B.B.B.B.B.B.B.B.B.B.B.B.B.B.B.B.B.B.[ | #.+.B.B.B.B.B.B.B.B.",
"B.B.B.B.B.B.B.B.B.B.B.B.B.B.B.B.B.B.B.B.B.B.B.B.B.B.B.B.B.B.B.B.B.B.B.B.B.B.B.B.B.B.B.} b k b N k U B.B.B.B.B.B.B.",
"B.B.B.B.B.B.B.B.B.B.B.B.B.B.B.B.B.B.B.B.B.B.B.B.B.B.B.B.B.B.B.B.B.B.B.B.B.B.N j g 8 M M z k k k k B B.B.B.B.B.B.B.",
"B.B.B.B.B.B.B.B.B.B.B.B.B.B.B.B.B.B.B.B.B.B.B.B.B.B.B.B.B.B.B.B.B.B.B.B.B.] k f 6 : 8 B k e 9 j b n B.B.B.B.B.B.B.",
"B.B.B.B.B.B.B.B.B.B.B.B.B.B.B.B.B.B.B.B.B.B.B.B.B.B.B.B.B.B.B.B.B.B.B.B.+.B k 8 - - n B e 2 9 k N | B.B.B.B.B.B.B.",
"B.B.B.B.B.B.B.B.B.B.B.B.B.B.B.B.B.B.B.B.B.B.B.B.B.B.B.B.B.B.B.B.B.B.B.B.+.z e 3 - f B h 2 2 f N B -.B.B.B.B.B.B.B.",
"B.B.B.B.B.B.B.B.B.B.B.B.B.B.B.B.B.B.B.B.B.B.B.B.B.B.B.B.B.B.B.B.B.B.B.+.n f 6 = 1 c j 8 2 f k ] [ $.B.B.B.B.B.B.B.",
"B.B.B.B.B.B.B.B.B.B.B.B.B.B.B.B.B.B.B.B.B.B.B.B.B.B.B.B.B.B.B.B.B.B.>.[ j 6 , = f z 8 1 2 j N [ | | B.B.B.B.B.B.B.",
"B.B.B.B.B.B.B.B.B.B.B.B.B.B.B.B.B.B.B.B.B.B.B.B.B.B.B.B.B.B.B.B.B.B.| b 8 1 , 8 b f 2 2 f b ] | | B.B.B.B.B.B.B.B.",
"B.B.B.B.B.B.B.B.B.B.B.B.B.B.B.B.B.B.B.B.B.B.B.B.B.B.B.B.B.B.B.B.B.+.n f , 2 , j j 2 2 9 j N ] o.U B.B.B.B.B.B.B.B.",
"B.B.B.B.B.B.B.B.B.B.B.B.B.B.B.B.B.B.B.B.B.B.B.B.B.B.B.B.B.B.B.B.| N j 2 2 > 8 j 8 , 2 f b ] [ | m.B.B.B.B.B.B.B.B.",
"B.B.B.B.B.B.B.B.B.B.B.B.B.B.B.B.B.B.B.B.B.B.B.B.B.B.B.B.B.B.B.-.B j 2 > 1 , g f : 1 f k B [ o.+.B.B.B.B.B.B.B.B.B.",
"B.B.B.B.B.B.B.B.B.B.B.B.B.B.B.B.B.B.B.B.B.B.B.B.B.B.B.B.B.B.B.b j 2 > 2 , 8 f 6 , 2 f k ] | +.:.B.B.B.B.B.B.B.B.B.",
"B.B.B.B.B.B.B.B.B.B.B.B.B.B.B.B.B.B.B.B.B.B.B.B.B.B.B.B.B.B.M j 8 , 2 , , f 8 3 1 e j b ] | { B.B.B.B.B.B.B.B.B.B.",
"B.B.B.B.B.B.B.B.B.B.B.B.B.B.B.B.B.B.B.B.B.B.B.B.B.B.B.B.B.>.z e 3 1 , , e f : 3 2 f k ] ] } n B.B.B.B.B.B.B.B.B.B.",
"B.B.B.B.B.B.B.B.B.B.B.B.B.B.B.B.B.B.B.B.B.B.B.B.B.B.B.B.,.h f 6 - 1 , 8 f 6 : 3 f j B ] [ [ #.B.B.B.B.B.B.B.B.B.B.",
"B.B.B.B.B.B.B.B.B.B.B.B.B.B.B.B.B.B.B.B.B.B.B.B.B.B.B.B.L f 6 : , , > e 8 : : 8 f k [ ] | ] B.B.B.B.B.B.B.B.B.B.B.",
"B.B.B.B.B.B.B.B.B.B.B.B.B.B.B.B.B.B.B.B.B.B.B.B.B.B.B.L f e 3 3 , O > e 6 : , 8 j ] [ ] [ $.B.B.B.B.B.B.B.B.B.B.B.",
"B.B.B.B.B.B.B.B.B.B.B.B.B.B.B.B.B.B.B.B.B.B.B.B.B.B.| k 9 3 : , > # 2 2 : - 2 e k [ ] | [ | B.B.B.B.B.B.B.B.B.B.B.",
"B.B.B.B.B.B.B.B.B.B.B.B.B.B.B.B.B.B.B.B.B.B.B.B.B.B.2 f 8 - 3 , O , 9 , - > 2 j b [ B +.B a ` B.B.B.B.B.B.B.B.B.B.",
"B.B.B.B.B.B.B.B.B.B.B.B.B.B.B.B.B.B.B.B.B.B.B.B.B.m 2 8 3 - 3 = - e 2 , > 2 f k ] N [ | z H _ B.B.B.B.B.B.B.B.B.B.",
"B.B.B.B.B.B.B.B.B.B.B.B.B.B.B.B.B.B.B.B.B.B.B.B.U 1 9 1 * , , - 8 8 , : , e f b ] b | B p ! ~ j.B.B.B.B.B.B.B.B.B.",
"B.B.B.B.B.B.B.B.B.B.B.B.B.B.B.B.B.B.B.B.B.B.B.;.1 8 2 , , , = , e 8 3 - 1 e j ] B b [ f Z 3.! %.B.B.B.B.B.B.B.B.B.",
"B.B.B.B.B.B.B.B.B.B.B.B.B.B.B.B.B.B.B.B.B.B.h.K 8 9 1 - , > # 2 2 , - : 2 f k ] b ] ] 7 Q 4.R I n.B.B.B.B.B.B.B.B.",
"B.B.B.B.B.B.B.B.B.B.B.B.B.B.B.B.B.B.B.B.B.B. .f e 2 : - , = 2 e 6 3 - 2 9 f b N b | f a 3.' Z G n.B.B.B.B.B.B.B.B.",
"B.B.B.B.B.B.B.B.B.B.B.B.B.B.B.B.B.B.B.B.B. .h e e : - : - = 8 8 , - 3 2 f j n c [ ] , P 2.J C _ N.B.B.B.B.B.B.B.B.",
"B.B.B.B.B.B.B.B.B.B.B.B.B.B.B.B.B.B.B.B.B.t 1 e 1 : 3 * = 2 8 , 3 3 6 8 e b n v } k y 2.P u Z 4.z.B.B.B.B.B.B.B.B.",
"B.B.B.B.B.B.B.B.B.B.B.B.B.B.B.B.B.B.B.B.t 1 e 2 : : - & , 9 2 : 3 : 6 8 r B M [ | > H 2.Z y C P p.x.B.B.B.B.B.B.B.",
"B.B.B.B.B.B.B.B.B.B.B.B.B.B.B.B.B.B.B.,.6 8 8 1 3 : * = 2 8 : : - : 8 8 b } n +.N , J J S R 2.S ! k.c.B.B.B.B.B.B.",
"B.B.B.B.B.B.B.B.B.B.B.B.B.B.B.B.B.B.1.t 1 e 1 : - - + % 9 1 - 3 3 1 8 r | } [ +.8 y J y 5 R w.4.J ' d.l.B.B.B.B.B.",
"B.B.B.B.B.B.B.B.B.B.B.B.B.B.B.B.B.B.l , e 8 : : : & o < 1 : 3 3 , 2 8 M $.[ @.] - S D i u S ~ w.3.R ^ i.y.B.B.B.B.",
"B.B.B.B.B.B.B.B.B.B.B.B.B.B.B.B.B.O.e 2 8 1 - 3 - o $ 2 1 : : - 1 2 g o.@.o.$.e 7 D C C D Q i J w.8.E ! R B.B.B.B.",
"B.B.B.B.B.B.B.B.B.B.B.B.B.B.B.B.B.6 , 8 1 - 3 - +   < 1 - - : : 1 6 M -.| $.[ = Z S q i Z 2.J 3 ~ p.0.Z r B.B.B.B.",
"B.B.B.B.B.B.B.B.B.B.B.B.B.B.B.B.e o 2 2 : ; : &   o , - * 3 3 : , g +.$.U -.j - E D & + q R ! i i 6.k.) } B.B.B.B.",
"B.B.B.B.B.B.B.B.B.B.B.B.B.B.B.l % ; 2 : : : - o X = , - - - - - 3 B -.[ +.+.O V ^ A : o q Z R D 4 H s.p.f.B.B.B.B.",
"B.B.B.B.B.B.B.B.B.B.B.B.B.B.&.# % 2 1 - - 3 & o # , - - - 3 3 - e #.-.[ <.z + H ~ C q u E D J E V u 2.i.r.B.B.B.B.",
"B.B.B.B.B.B.B.B.B.B.B.B.B.B.= X > 1 - 3 3 * o + = = @ = - 3 - 6 n -...#.-.> 3 ! W i 0 i 3.^ A ! 2.H Z ~ ! B.B.B.B.",
"B.B.B.B.B.B.B.B.B.B.B.B.B.b X o 1 , * - : o o @ , - * - 3 3 * e +.-.[ ;.N   i ~ J w 0 u ! 2.J W u.t.V 7 p B.B.B.B.",
"B.B.B.B.B.B.B.B.B.B.B.B...= X # 1 * - 3 = o % > = @ * * - - 1 M :.} { $.> + J ~ C q q y D ^ ^ J 9.k.t.3 , B.B.B.B.",
"B.B.B.B.B.B.B.B.B.B.B.l # o # , : - 3 * o o = , # @ - 3 3 - e +.<.[ @.N   4 ~ ~ q 4 q y C P 2.R E 0.s.Q f m.B.B.B.",
"B.B.B.B.B.B.B.B.B.B.B.l o # = , * * * + o = = # . @ @ * - - M <.<.{ +.>   C 2.W q o 0 q s D / 4.P E 9.i.( B.B.B.B.",
"B.B.B.B.B.B.B.B.B.B.x o o - > - * * + . + @ @ . o @ @ - - e $.m.+.{ b   - R 2.R q o ; 0 4 u R 0.9.R ! 6.e.B.B.B.B.",
"B.B.B.B.B.B.B.B.B.l o o = > = @ * @ . + @ @ + o @ @ - - , [ b.v.[ [ > o i ~ / J q $   ; ; : i ' a.0.E R P T B.B.B.",
"B.B.B.B.B.B.B.B.U 6 o % > = + & @ . . @ * @ # + @ # @ - k $.M.$.N j O , Z ^ ~ P s ;   & 4 - y R 4.a.0.J w : B.B.B.",
"B.B.B.B.B.B.B.B.h o o = > & + & + . + @ @ . + @ = # - , | b.B.[ c > O 1 i D J R C q o   ; 0 q C E 4.u.9.V @ B.B.B.",
"B.B.B.B.B.B.B.K @ o = = # o + @ . . @ @ o X # @ , - = j >.B.} h f O > > 4 7 i A D s ;   & : ; q C R 2.k.t.F B.B.B.",
"B.B.B.B.B.B.g.x . @ @ + . + @ o . + @ + . o @ - , - 6 [ B.B.] 2 1 O > > 8 6 3 q Z D y $ $ 4 : u V Z ! w.s.e.B.B.B.",
"B.B.B.B.B.B.Y o + @ @ + + @ + . o @ - o o $ - 6 - , j :.B.-.e f > > > e j k 8 # q C s : X & 0 w u C D ^ u.5.%.B.B.",
"B.B.B.B.B.O.7 + + @ + o + @ . . @ - = % o @ , 1 = , [ B.B.] 9 e O O > j b N b 2 & q C q $ $ $ ; : y i D ' ' %.B.B."
};
