/* XPM */
static char *gun_reload4[] = {
/* columns rows colors chars-per-pixel */
"64 60 162 2 ",
"   c #020201",
".  c #090703",
"X  c #060B04",
"o  c #0D0B05",
"O  c #0C0D0B",
"+  c #130E06",
"@  c #130E09",
"#  c #0C1507",
"$  c #0E130B",
"%  c #131207",
"&  c #181007",
"*  c #15130A",
"=  c #1B150B",
"-  c #151809",
";  c #1D190D",
":  c #151513",
">  c #1A1712",
",  c #151914",
"<  c #1C1A15",
"1  c #171718",
"2  c #1D1C1B",
"3  c #20170B",
"4  c #221C0C",
"5  c #281F0E",
"6  c #211C14",
"7  c #211E1A",
"8  c #1D2016",
"9  c #1D221B",
"0  c #26210E",
"q  c #2A210F",
"w  c #262316",
"e  c #2D2310",
"r  c #2D2914",
"t  c #23221E",
"y  c #2C241A",
"u  c #2E291F",
"i  c #312612",
"p  c #352914",
"a  c #3C2D16",
"s  c #342B1A",
"d  c #3D2F19",
"f  c #3F3017",
"g  c #3A331F",
"h  c #242423",
"j  c #292623",
"k  c #272826",
"l  c #2B2926",
"z  c #2C2C2C",
"x  c #312D24",
"c  c #312F2A",
"v  c #2E3027",
"b  c #33332D",
"n  c #3E372A",
"m  c #343333",
"M  c #393732",
"N  c #353A34",
"B  c #3B3935",
"V  c #3C3C3B",
"C  c #412D17",
"Z  c #443116",
"A  c #44331A",
"S  c #49361B",
"D  c #4E391D",
"F  c #523B1E",
"G  c #593E1F",
"H  c #413522",
"J  c #443820",
"K  c #4B3B23",
"L  c #453D2B",
"P  c #543E22",
"I  c #593F21",
"U  c #403E39",
"Y  c #3E403A",
"T  c #49412E",
"R  c #554024",
"E  c #5D4223",
"W  c #544129",
"Q  c #434135",
"!  c #43413F",
"~  c #4C4639",
"^  c #4E493E",
"/  c #594A32",
"(  c #554B39",
")  c #5C4E3C",
"_  c #644525",
"`  c #6A4927",
"'  c #644629",
"]  c #63492C",
"[  c #6C4A29",
"{  c #724D2A",
"}  c #76502D",
"|  c #7D522F",
" . c #634A31",
".. c #6C4E31",
"X. c #714D30",
"o. c #60523D",
"O. c #6C563C",
"+. c #735233",
"@. c #7E5633",
"#. c #7B5A3B",
"$. c #434343",
"%. c #494946",
"&. c #4B4B4B",
"*. c #504D49",
"=. c #4E504C",
"-. c #51514D",
";. c #4F4F50",
":. c #535352",
">. c #585757",
",. c #555855",
"<. c #595855",
"1. c #5C5C5B",
"2. c #6F5C44",
"3. c #665E4D",
"4. c #685D4A",
"5. c #725D44",
"6. c #645D53",
"7. c #5C6159",
"8. c #746148",
"9. c #6F6758",
"0. c #7D6E5C",
"q. c #646463",
"w. c #696767",
"e. c #686C67",
"r. c #6C6C6B",
"t. c #746F65",
"y. c #706F6F",
"u. c #72716D",
"i. c #6F6F70",
"p. c #747474",
"a. c #7A7977",
"s. c #7B7B7B",
"d. c #835731",
"f. c #835935",
"g. c #8A5B35",
"h. c #875C39",
"j. c #83674C",
"k. c #9A6841",
"l. c #866D54",
"z. c #8B735F",
"x. c #967152",
"c. c #997456",
"v. c #7F817E",
"b. c #96816B",
"n. c #A6927F",
"m. c #A9937E",
"M. c #848484",
"N. c #8C8C8C",
"B. c #8F918E",
"V. c #939393",
"C. c #959895",
"Z. c #9A9A9A",
"A. c #9FA0A0",
"S. c #A3A3A3",
"D. c #A7A8A7",
"F. c #ACACAC",
"G. c #AFB0AF",
"H. c #B5B5B5",
"J. c #BCBCBC",
"K. c #C4C4C4",
"L. c #CACACA",
"P. c None",
/* pixels */
"P.P.P.P.P.P.P.P.P.P.P.P.P.P.P.P.P.P.P.P.P.P.P.P.P.P.P.P.P.P.P.P.P.P.P.P.P.P.P.P.P.P.P.P.P.P.P.P.P.P.P.P.P.P.P.P.P.P.P.P.P.P.P.P.",
"P.P.P.P.P.P.P.P.P.P.P.P.P.P.P.P.P.P.P.P.P.P.P.P.P.P.P.P.P.P.P.P.P.P.P.P.P.P.P.P.P.P.P.P.P.P.P.P.P.P.P.P.P.P.P.P.P.P.P.P.P.P.P.P.",
"P.P.P.P.P.P.P.P.P.P.P.P.P.P.P.P.P.P.P.P.P.P.P.P.P.P.P.P.P.P.P.P.P.P.P.P.P.P.P.P.P.P.P.P.P.P.P.P.P.P.P.P.P.P.P.P.P.P.P.P.P.P.P.P.",
"P.P.P.P.P.P.P.P.P.P.P.P.P.P.P.P.P.P.P.P.P.P.P.P.P.P.P.P.P.P.P.P.P.P.P.P.P.P.P.P.P.P.P.P.P.P.P.P.P.P.P.P.P.P.P.P.P.P.P.P.P.P.P.P.",
"P.P.P.P.P.P.P.P.P.P.P.P.P.P.P.P.P.P.P.P.P.P.P.P.P.P.P.P.P.P.P.P.P.P.P.P.P.P.P.P.P.P.P.P.P.P.P.P.P.P.P.P.P.P.P.P.P.P.P.P.P.P.P.P.",
"P.P.P.P.P.P.P.P.P.P.P.P.P.P.P.P.P.P.P.P.P.P.P.P.P.P.P.P.P.P.P.P.P.P.P.P.P.P.P.P.P.P.P.P.P.P.P.P.P.P.P.P.P.P.P.P.P.P.P.P.P.P.P.P.",
"P.P.P.P.P.P.P.P.P.P.P.P.P.P.P.P.P.P.P.P.P.P.P.P.P.P.P.P.P.P.P.P.P.P.P.P.P.P.P.P.P.P.P.P.P.P.P.P.P.P.P.P.P.P.P.P.P.P.P.P.P.P.P.P.",
"P.P.P.P.P.P.P.P.P.P.P.P.P.P.P.P.P.P.P.P.P.P.w.q.r.1.P.P.P.P.P.P.P.P.P.P.P.P.P.P.P.P.P.P.P.P.P.P.P.P.P.P.P.P.P.P.P.P.P.P.P.P.P.P.",
"P.P.P.P.P.P.P.P.P.P.P.P.P.P.P.P.P.P.P.P.t.B m $.;.V V p.P.P.P.P.P.P.P.P.P.P.P.P.P.P.P.P.P.P.P.P.P.P.P.P.P.P.P.P.P.P.P.P.P.P.P.P.",
"P.P.P.P.P.P.P.P.P.P.P.P.P.P.P.P.P.P.U h x c z m m z m :.P.P.P.P.P.P.P.P.P.P.P.P.P.P.P.P.P.P.P.P.P.P.P.P.P.P.P.P.P.P.P.P.P.P.P.P.",
"P.P.P.P.P.P.P.P.P.P.P.P.P.P.P.P.$.m 7 & 7 V m h 2 k m $.p.P.P.P.P.P.P.P.P.P.P.P.P.P.P.P.P.P.P.P.P.P.P.P.P.P.P.P.P.P.P.P.P.P.P.P.",
"P.P.P.P.P.P.P.P.P.P.P.P.P.P.P.r.m h 7 = 7 %.c < 2 k m V p.P.P.P.P.P.P.P.P.P.P.P.P.P.P.P.P.P.P.P.P.P.P.P.P.P.P.P.P.P.P.P.P.P.P.P.",
"P.P.P.P.P.P.P.P.P.P.P.P.P.P.P.V m h 7 = 7 $.z 2 2 h m $.i.P.P.P.P.P.P.P.P.P.P.P.P.P.P.P.P.P.P.P.P.P.P.P.P.P.P.P.P.P.P.P.P.P.P.P.",
"P.P.P.P.P.P.P.P.P.P.P.P.P.P.P.V V h 6 & 2 m k 2 h h m $.q.P.P.P.P.P.P.P.P.P.P.P.P.P.P.P.P.P.P.P.P.P.P.P.P.P.P.P.P.P.P.P.P.P.P.P.",
"P.P.P.P.P.P.P.P.P.P.P.P.P.P.P.V V h 6 & 1 m k 1 2 k m $.:.P.P.P.P.P.P.P.P.P.P.P.P.P.P.P.P.P.P.P.P.P.P.P.P.P.P.P.P.P.P.P.P.P.P.P.",
"P.P.P.P.P.P.P.P.P.P.P.P.P.P.P.V U h > > 7 m h 1 2 k m V ;.P.P.P.P.P.P.P.P.P.P.P.P.P.P.P.P.P.P.P.P.P.P.P.P.P.P.P.P.P.P.P.P.P.P.P.",
"P.P.P.P.P.P.P.P.P.P.P.P.P.P.P.V B h < 1 7 c t 1 2 h m $.&.1.P.P.P.P.P.P.P.P.P.P.P.P.P.P.P.P.P.P.P.P.P.P.P.P.P.P.P.P.P.P.P.P.P.P.",
"P.P.P.P.P.P.P.P.P.P.P.P.P.P.P.m m 2 2 1 1 j 7 3 2 h m $.&.:.P.P.P.P.P.P.P.P.P.P.P.P.P.P.P.P.P.P.P.P.P.P.P.P.P.P.P.P.P.P.P.P.P.P.",
"P.P.P.P.P.P.P.P.P.P.P.P.P.P.P.z k 2 1 < > j 7 3 7 h z $.&.&.P.P.P.P.P.P.P.P.P.P.P.P.P.P.P.P.P.P.P.P.P.P.P.P.P.P.P.P.P.P.P.P.P.P.",
"P.P.P.P.P.P.P.P.P.P.P.P.P.P.P.l k 6 > < 1 h 7 3 < h z V $.&.P.P.P.P.P.P.P.P.P.P.P.P.P.P.P.P.P.P.P.P.P.P.P.P.P.P.P.P.P.P.P.P.P.P.",
"P.P.P.P.P.P.P.P.P.P.P.P.P.P.P.h h 6 3 1 > h 7 3 6 t z $.V ;.w.P.P.P.P.P.P.P.P.P.P.P.P.P.P.P.P.P.P.P.P.P.P.P.P.P.P.P.P.P.P.P.P.P.",
"P.P.P.P.P.P.P.P.P.P.P.P.P.P.P.6 h 6 3 1 @ h 6 3 > t z $.$.:.1.P.P.P.P.P.P.P.P.P.P.P.P.P.P.P.P.P.P.P.P.P.P.P.P.P.P.P.P.P.P.P.P.P.",
"P.P.P.P.P.P.P.P.P.P.P.P.P.P.P.< h 6 3 = O 2 7 > 1 t k V V ;.&.1.M.P.P.P.P.P.P.P.P.P.P.P.P.P.P.P.P.P.P.P.P.P.P.P.P.P.P.P.P.P.P.P.",
"P.P.P.P.P.P.P.P.P.P.P.P.P.P.P.: 7 6 3 > @ 2 t = 1 2 k V V ;.$.&.*.:.P.P.P.P.P.P.P.P.P.P.P.P.P.P.P.P.P.P.P.P.P.P.P.P.P.P.P.P.P.P.",
"P.P.P.P.P.P.P.P.P.P.P.P.P.P.P.O t 7 = > : 7 t 6 = 7 h m V V &.%.$.h $.P.P.P.P.P.P.P.P.P.P.P.P.P.P.P.P.P.P.P.P.P.P.P.P.P.P.P.P.P.",
"P.P.P.P.P.P.P.P.P.P.P.P.P.P.P.* t 1 > = = < 2 > 3 < h z V z :.&.:.z 1 P.P.P.P.P.P.P.P.P.P.P.P.P.P.P.P.P.P.P.P.P.P.P.P.P.P.P.P.P.",
"P.P.P.P.P.P.P.P.P.P.P.P.P.P.P.3 7 7 = > = < t = 3 > h k B m >.h t t z P.P.P.P.P.P.P.P.P.P.P.P.P.P.P.P.P.P.P.P.P.P.P.P.P.P.P.P.P.",
"P.P.P.P.P.P.P.P.P.P.P.P.P.P.P.6 7 7 3 = * 2 7 6 3 6 t j $.m 1.$.%.&.>.p.P.P.P.P.P.P.P.P.P.P.P.P.P.P.P.P.P.P.P.P.P.P.P.P.P.P.P.P.",
"P.P.P.P.P.P.P.P.P.P.P.P.P.P.P.= t 7 3 3 & 1 9 = 3 > 7 t *.V q.:.1.s.S.V.p.P.P.P.P.P.P.P.P.P.P.P.P.P.P.P.P.P.P.P.P.P.P.P.P.P.P.P.",
"P.P.P.P.P.P.P.P.P.P.P.P.P.P.P.= 2 7 = 3 @ @ 2 ; 3 3 7 7 :.&.q.&.:.w.M.v.>.;.P.P.P.P.P.P.P.P.P.P.P.P.P.P.P.P.P.P.P.P.P.P.P.P.P.P.",
"P.P.P.P.P.P.P.P.P.P.P.P.P.P.P.* 2 7 = 3 + O 1 ; = 3 > 7 :.*.6.:.;.1.a.M.$.z K [ [ ] 5.P.P.P.P.P.P.P.P.P.P.P.P.P.P.P.P.P.P.P.P.P.",
"P.P.P.P.P.P.P.P.P.P.P.P.P.P.P.+ 1 7 6 3 + . > = = 3 3 6 :.:.>.q.;.1.r.N.%.s E [ [ ' K ( P.P.P.P.P.P.P.P.P.P.P.P.P.P.P.P.P.P.P.P.",
"P.P.P.P.P.P.P.P.P.P.P.P.P.P.P.o * < 3 3 + o 1 = = 3 = 3 *.>.:.i.&.>.w.V.;.P @.d.g.g.G J ) P.P.P.P.P.P.P.P.P.P.P.P.P.P.P.P.P.P.P.",
"P.P.P.P.P.P.P.P.P.P.P.P.P.P.P.o X > = 3 + o > & & = 3 > &.r.=.s.;.>.1.V.6.E I _ ` [ _ _ @.c.P.P.P.P.P.P.P.P.P.P.P.P.P.P.P.P.P.P.",
"P.P.P.P.P.P.P.P.P.P.P.P.P.P.P.o @ 1 = = + + & @ + & = > ;.V.&.M.>.:.1.N.u.n p A E { @.h.@.@.x.P.P.P.P.P.P.P.P.P.P.P.P.P.P.P.P.P.",
"P.P.P.P.P.P.P.P.P.P.P.P.P.P.P.o + > * & . + & + + & * = >.D.$.a.1.;.:.v.M.n 5 P [ { g.k.| E ..j.P.P.P.P.P.P.P.P.P.P.P.P.P.P.P.P.",
"P.P.P.P.P.P.P.P.P.P.P.P.P.P.P.+ + = O + + + + + . * > = >.J.%.i.i.&.%.i.V.%.i F F F F G D D P S / n.P.P.P.P.P.P.P.P.P.P.P.P.P.P.",
"P.P.P.P.P.P.P.P.P.P.P.P.P.P.P.= + & o & . + & @ + * < = ;.L.;.p.M.%.$.1.V.<.s a _ { ` F p f D p r 4.P.P.P.P.P.P.P.P.P.P.P.P.P.P.",
"P.P.P.P.P.P.P.P.P.P.P.P.P.P.P.= + * . + . + & 2 @ & 6 + $.K.1.r.V.&.! :.N.a.b F | d.g.| a e f D r w P.P.P.P.P.P.P.P.P.P.P.P.P.P.",
"P.P.P.P.P.P.P.P.P.P.P.P.P.P.P.% + + o & + O = 6 & & 6 @ m J.M.q.F.>.V $.N.N.Q I ` { [ _ I a q D E 0 g P.P.P.P.P.P.P.P.P.P.P.P.P.",
"P.P.P.P.P.P.P.P.P.P.P.P.P.P.P.: + & + * + o - 2 > + 6 + h F.Z.1.F.w.V $.s.V.%.d S S S A A E S p A d p W P.P.P.P.P.P.P.P.P.P.P.P.",
"P.P.P.P.P.P.P.P.P.P.P.P.P.P.P.> + & & & + . & h : & 6 @ 1 A.F.$.S.s.V V q.Z.q.h 5 i 5 5 i Z E ` a p E E P P.P.P.P.P.P.P.P.P.P.P.",
"P.P.P.P.P.P.P.P.P.P.P.P.P.P.P.1 + & & + + . * k @ & < + : Z.H.V Z.V.$.V :.Z.v.N & * & * 5 i Z F E d p _ [ l.P.P.P.P.P.P.P.P.P.P.",
"P.P.P.P.P.P.P.P.P.P.P.P.P.P.P.2 o = * % & @ * k * + > + O V.J.&.Z.D.&.m &.V.Z.1.7 # & & 4 q p a S [ I S I / b.P.P.P.P.P.P.P.P.P.",
"P.P.P.P.P.P.P.P.P.P.P.P.P.P.P.9 % < > o * o @ z , + = * @ v.K.1.N.K.1.m $.N.D.p.U ; # $ - - ; q i F _ ` { Z W b.P.P.P.P.P.P.P.P.",
"P.P.P.P.P.P.P.P.P.P.P.P.P.P.P.h & < 7 o = + @ m 2 % = < O q.L.a.s.L.M.$.;.M.A.B.r.M * # # # % - 5 q i D { _ F [ m.P.P.P.P.P.P.P.",
"P.P.P.P.P.P.P.P.P.P.P.P.P.P.z.l o > > + = % $ t > < 3 6 X ;.L.N.s.L.G.w.;.q.p.s.M.r.M * # # # # - ; q p A E } f.c.P.P.P.P.P.P.P.",
"P.P.P.P.P.P.P.P.P.P.P.P.5.#.[ y o + & & = o + + * j 7 t : $.L.G.M.A.p.V 9 9 z V w.V.p.m O X # # # & = 5 q a D _ } j.P.P.P.P.P.P.",
"P.P.P.P.P.P.P.P.P.P.P.o.R _ ' j % o & & ; + + * @ < z 9.Y k C.F.N.1.9 X # X X O z r.S.i.k X # # # # # - % 4 p S E E 0.P.P.P.P.P.",
"P.P.P.P.P.P.P.P.P.P.P.J F [ { u o @ o o = o - > o & k 1.Y * r.M.,.1.1 X $ X X   O z i.B.1.1 X X # # # % % - p Z F Z 9.P.P.P.P.P.",
"P.P.P.P.P.P.P.P.P.P.A A F { +.x @ + o + % $ - 6 & @ &.V : O 1.B.Y 1.$.B Y 9 X     1 m w.M.$.X X # # # # # - q C Z Z 3.P.P.P.P.P.",
"P.P.P.P.P.P.P.P.P.P.A A F ` ..M . . o o o o - 7 * o &.m o * t v , 9 v.S.a.:.1     $ 2 N p.q.1 X X # # % % % 3 5 i L P.P.P.P.P.P.",
"P.P.P.P.P.P.P.P.P.P.H A F E  .b     . o + * z 6.1 o m $.$.z ; + % o ;.K.A.V.V     X $ h %.q.k X # # # # # # % - 4 ~ P.P.P.P.P.P.",
"P.P.P.P.P.P.P.P.P.L H A S F R y : 1 O o ; 1 j $.< $ ;.N.A.=.; & * * < Z.J.Z.>.O       $ z ;.Y $ # # # # - - = 0 e g P.P.P.P.P.P.",
"P.P.P.P.P.P.P.P.P.T S S F F A l m k :   O + @ $.B &.:.M.C.7.$ = = 3 X 1.L.Z.1.2 O : O X , b B , # # - = 5 q p p s ^ P.P.P.P.P.P.",
"P.P.P.P.P.P.P.P.P./ I G E E y m 2       o + h r.-.s.:.b.B.e.$ - = * . m J.A.;.k 1 2 z 2 X - z > # # - - 4 q p Z p P.P.P.P.P.P.P.",
"P.P.P.P.P.P.P.P.P.O.' I A f > t         + + m s.&.M.;.s.N.r.1 > = 3 - b H.G.:.k 8 9 z m 9 O 2 > % 0 - % ; i i i n P.P.P.P.P.P.P.",
"P.P.P.P.P.P.P.P.P.8.I I D S < 2       . & + m r.%.N.V a.a.a.V l & 3 t 1.N.N.:.z 2 h z $.V $ $ * % 4 i 4 % q i w p.P.P.P.P.P.P.P.",
"P.P.P.P.P.P.P.P.P.8.E D F F 6 1       . + + V q.m N.m p.r.M.7.B + & 2 r.%.B :.$.9 9 z %.&.2 X % # - 3 4 - - q M P.P.P.P.P.P.P.P.",
"P.P.P.P.P.P.P.P.P.P.O.[ | d.y ,       . & + ! >.P.s.k a.w.s.u.,.+ +   P.h : Y q.Y h z %.:.z X @ % & 3 3 & = = 7.P.P.P.P.P.P.P.P."
};
