/* XPM */
static char *gun_fire2[] = {
/* columns rows colors chars-per-pixel */
"64 64 218 2 ",
"   c #030303",
".  c #0B0A06",
"X  c #0C0C0C",
"o  c #080805",
"O  c #110E0B",
"+  c #150F06",
"@  c #0D1302",
"#  c #13120E",
"$  c #1A130B",
"%  c #181C0B",
"&  c #141414",
"*  c #191613",
"=  c #191816",
"-  c #1A1A1A",
";  c #171817",
":  c #211C0D",
">  c #22160E",
",  c #211F1A",
"<  c #221E16",
"1  c #21210C",
"2  c #23211D",
"3  c #292617",
"4  c #322B1C",
"5  c #382C19",
"6  c #362915",
"7  c #232323",
"8  c #292721",
"9  c #2B2A23",
"0  c #2D2E2E",
"q  c #322E25",
"w  c #312E29",
"e  c #35332B",
"r  c #393528",
"t  c #333333",
"y  c #3D3B35",
"u  c #3D3C3B",
"i  c #3A3733",
"p  c #2F2F30",
"a  c #45341A",
"s  c #48361B",
"d  c #533B1F",
"f  c #402F18",
"g  c #433D2A",
"h  c #4A3B26",
"j  c #563D22",
"k  c #5A3F21",
"l  c #423E35",
"z  c #413E3B",
"x  c #46402B",
"c  c #5A4124",
"v  c #554229",
"b  c #44413E",
"n  c #4B4333",
"m  c #594E3A",
"M  c #5E503B",
"N  c #644425",
"B  c #694726",
"V  c #6A4827",
"C  c #6E4B29",
"Z  c #66472B",
"A  c #744E2C",
"S  c #7A4F2D",
"D  c #7B522E",
"F  c #6A4935",
"G  c #69543B",
"H  c #735233",
"J  c #7C5331",
"K  c #76573B",
"L  c #685A21",
"P  c #7B6B2E",
"I  c #434342",
"U  c #4C4945",
"Y  c #4D4C4C",
"T  c #484745",
"R  c #524D47",
"E  c #55524E",
"W  c #5C5347",
"Q  c #545352",
"!  c #5C5854",
"~  c #6A5649",
"^  c #716557",
"/  c #6C6C6C",
"(  c #737373",
")  c #726F6A",
"_  c #BA1F1F",
"`  c #BA3A38",
"'  c #D70707",
"]  c #D71814",
"[  c #C7100E",
"{  c #E30C0C",
"}  c #EC0909",
"|  c #F30707",
" . c #E51313",
".. c #FA1B1B",
"X. c #F51615",
"o. c #E91C0E",
"O. c #D02919",
"+. c #E8261A",
"@. c #FB2D1F",
"#. c #C92525",
"$. c #D42727",
"%. c #C43B37",
"&. c #D53231",
"*. c #CD3725",
"=. c #E22626",
"-. c #FB2425",
";. c #FC2C2C",
":. c #F72727",
">. c #FC3434",
",. c #FD3C3C",
"<. c #FB2F30",
"1. c #8A731A",
"2. c #8D4336",
"3. c #825631",
"4. c #865934",
"5. c #8B5B35",
"6. c #885E3B",
"7. c #925E38",
"8. c #8D7828",
"9. c #95613A",
"0. c #9C653C",
"q. c #8F603B",
"w. c #A2693E",
"e. c #A6623D",
"r. c #D15330",
"t. c #E7403F",
"y. c #925445",
"u. c #B94645",
"i. c #BA5858",
"p. c #B65149",
"a. c #886445",
"s. c #8C6C50",
"d. c #877058",
"f. c #A56B41",
"g. c #AB6F43",
"h. c #AE7145",
"j. c #B27346",
"k. c #BA7749",
"l. c #BC794C",
"z. c #B47954",
"x. c #B36D54",
"c. c #8F7865",
"v. c #BB6363",
"b. c #CA4848",
"n. c #D75855",
"m. c #CC544E",
"M. c #FC4645",
"N. c #FE5B5A",
"B. c #FB5753",
"V. c #C27C4E",
"C. c #C96958",
"Z. c #C37E50",
"A. c #CD795A",
"S. c #FC635B",
"D. c #D66966",
"F. c #C67B7B",
"G. c #D16961",
"H. c #FE6765",
"J. c #FE706E",
"K. c #FD7A77",
"L. c #BA991D",
"P. c #AF901D",
"I. c #9E8422",
"U. c #D1AC23",
"Y. c #E1B820",
"T. c #F8CD28",
"R. c #FDD32D",
"E. c #FED638",
"W. c #F4CE3C",
"Q. c #8E825B",
"!. c #A89954",
"~. c #AD8E7A",
"^. c #CB8253",
"/. c #CC875A",
"(. c #D58B5B",
"). c #D58A5A",
"_. c #DD9262",
"`. c #D69064",
"'. c #D9827B",
"]. c #E19666",
"[. c #E69A6B",
"{. c #E99D6D",
"}. c #FF8178",
"|. c #FA9378",
" X c #F5926E",
".X c #C7B66E",
"XX c #EDA171",
"oX c #FFDD55",
"OX c #F7D449",
"+X c #FFE67B",
"@X c #818181",
"#X c #FD8886",
"$X c #FC9B98",
"%X c #FF9289",
"&X c #FFA397",
"*X c #FEBE9D",
"=X c #FDA9A2",
"-X c #FDB6A5",
";X c #FEBBB4",
":X c #EEDF96",
">X c #FFE782",
",X c #FFEF9D",
"<X c #DED3B7",
"1X c #FEC8BD",
"2X c #EBC0AC",
"3X c #FBEEB5",
"4X c #FED8CD",
"5X c #FEDCD1",
"6X c #FEC9C1",
"7X c #FFE5C5",
"8X c #FEE9D8",
"9X c #FFF5D9",
"0X c #EBE5D0",
"qX c #FFF6EA",
"wX c #FFFAE6",
"eX c #FFFDF4",
"rX c #FFFBF6",
"tX c None",
/* pixels */
"tXtXtXtXtXtXtXtXtXtXtXtXtXtXtXtXtXtXtXtXtXtXtXtXtXtXtXtXtXtXtXtXtXtXtXtXtXtXtXtXtXtXtXtXtXtXtXtXtXtXtXtXtXtXtXtXtXtXtXtXtXtXtXtX",
"tXtXtXtXtXtXtXtXtXtXtXtXtXtXtXtXtXtXtXtXtXtXtXtXtXtXtXtXtXtXtXtXtXtXtXtXtXtXtXtXtXtXtXtXtXtXtXtXtXtXtXtXtXtXtXtXtXtXtXtXtXtXtXtX",
"tXtXtXtXtXtXtXtXtXtXtXtXtXtXtXtXtXtXtXtXtXtXtXtXtXtXtXtXtXtXtXtXtXtXtXtXtXtXtXtXtXtXtXtXtXtXtXtXtXtXtXtXtXtXtXtXtXtXtXtXtXtXtXtX",
"tXtXtXtXtXtXtXtXtXtXtXtXtXtXtXtXtXtXtXtXtXtXtXtXtXtXtXtXtXtXtXtXtXtXtXtXtXtXtXtXtXtXtXtXtXtXtXtXtXtXtXtXtXtXtXtXtXtXtXtXtXtXtXtX",
"tXtXtXtXtXtXtXtXtXtXtXtXtXtXtXtXtXtXtXtXtXtXtXtXtXtXtXtXtXtXtXtXtXtXtXtXtXtXtXtXtXtXtXtXtXtXtXtXtXtXtXtXtXtXtXtXtXtXtXtXtXtXtXtX",
"tXtXtXtXtXtXtXtXtXtXtXtXtXtXtXtXtXtXtXtXtXtXtXtXtXtXtXtXtXtXtXtXtXtXtXtXtXtXtXtXtXtXtXtXtXtXtXtXtXtXtXtXtXtXtXtXtXtXtXtXtXtXtXtX",
"tXtXtXtXtXtXtXtXtXtXtXtXtXtXtXtXtXtXtXtXtXtXtXtXtXtXtXtXtXtXtXtXtXtXtXtXtXtXtXtXtXtXtXtXtXtXtXtXtXtXtXtXtXtXtXtXtXtXtXtXtXtXtXtX",
"tXtXtXtXtXtXtXtXtXtXtXtXtXtXtXtXtXtXtXtXtXtXtXtXtXtXtXtXtXtXtXtXtXtXtXtXtXtXtXtXtXtXtXtXtXtXtXtXtXtXtXtXtXtXtXtXtXtXtXtXtXtXtXtX",
"tXtXtXtXtXtXtXtXtXtXtXtXtXtXtXtXtXtXtXtXtXtXtXtXtXtXtXtXtXtXtXtXtXtXtXtXtXtXtXtXtXtXtXtXtXtXtXtXtXtXtXtXtXtXtXtXtXtXtXtXtXtXtXtX",
"tXtXtXtXtXtXtXtXtXtXtXtXtXtXtXtXtXtXtXtXtXtXtXtXtXtXtXtXtXtXtXtXtXtXtXtXtXtXtXtXtXtXtXtXtXtXtXtXtXtXtXtXtXtXtXtXtXtXtXtXtXtXtXtX",
"tXtXtXtXtXtXtXtXtXtXtXtXtXtXtXtXtXtXtXtXtXtXtXtXtXtXtXtXtXtXtXtXtXtXtXtXtXtXtXtXtXtXtXtXtXtXtXtXtXtXtXtXtXtXtXtXtXtXtXtXtXtXtXtX",
"tXtXtXtXtXtXtXtXtXtXtXtXtXtXtXtXtXtXtXtXtXtXtXtXtXtXtXtXtXtXtXtXtXtXtXtXtXtXtXtXtXtXtXtXtXtXtXtXtXtXtXtXtXtXtXtXtXtXtXtXtXtXtXtX",
"tXtXtXtXtXtXtXtXtXtXtXtXtXtXtXtXtXtXtXtXtXtXtXtXtXtXtXtXtXtXtXtXtXtXtXtXtXtXtXtXtXtXtXtXtXtXtXtXtXtXtXtXtXtXtXtXtXtXtXtXtXtXtXtX",
"tXtXtXtXtXtXtXtXtXtXtXtXtXtXtXtXtXtXtXtXtXtXtXtXtXtXtXtXtXtXtXtXtXtXtXtXtXtXtXtXtXtXtXtXtXtXtXtXtXtXtXtXtXtXtXtXtXtXtXtXtXtXtXtX",
"tXtXtXtXtXtXtXtXtXtXtXtXtXtXtXtXtXtXtXtXtXtXtXtXtXtXtXtXtXtXtXtXtXtXtXtXtXtXtXtXtXtXtXtXtXtXtXtXtXtXtXtXtXtXtXtXtXtXtXtXtXtXtXtX",
"tXtXtXtXtXtXtXtXtXtXtXtXtXtXtXtXtXtXtXtXtXtXtXtXtXtXtXtXtXtXtXtXtXtXtXtXtXtXtXtXtXtXtXtXtXtXtXtXtXtXtXtXtXtXtXtXtXtXtXtXtXtXtXtX",
"tXtXtXtXtXtXtXtXtXtXtXtXtXtXtXtXtXtXtXtXtXtXtXtXtXtXtXtXtXtXtXtXtXtXtXtXtXtXtXtXtXtXtXtXtXtXtXtXtXtXtXtXtXtXtXtXtXtXtXtXtXtXtXtX",
"tXtXtXtXtXtXtXtXtXtXtXtXtXtXtXtXtXtXtXtXtXtXtXtXtXtXtXtXtXtXtXtXtXtXtXtXtXtXtXtXtXtXtXtXtXtXtXtXtXtXtXtXtXtXtXtXtXtXtXtXtXtXtXtX",
"tXtXtXtXtXtXtXtXtXtXtXtXtXtXtXtXtXtXtXtXtXtXtXtXtXtXtXtXtXtXtXtXtXtXtXtXtXtXtXtXtXtXtXtXtXtXtXtXtXtXtXtXtXtXtXtXtXtXtXtXtXtXtXtX",
"tXtXtXtXtXtXtXtXtXtXtXtXtXtXtXtXtXtXtXtXtXtXtXtXtXtXtXtXtXtXtXtXtXtXtXtXtXtXtXtXtXtXtXtXtXtXtXtXtXtXtXtXtXtXtXtXtXtXtXtXtXtXtXtX",
"tXtXtXtXtXtXtXtXtXtXtXtXtXtXtXtXtXtXtXtXtXtXtXtXtXtXtXtXtXtXx.tXtXtXtXx.tXtXtXtXtXtXtXtXtXtXtXtXtXtXtXtXtXtXtXtXtXtXtXtXtXtXtXtX",
"tXtXtXtXtXtXtXtXtXtXtXtXtXtXtXtXtXtXtXtXtXtXtXtXtXtXtXtXD.D.^.S.tXD.D.A.n.tXtXtXtXtXtXtXtXtXtXtXtXtXtXtXtXtXtXtXtXtXtXtXtXtXtXtX",
"tXtXtXtXtXtXtXtXtXtXtXtXtXtXtXtXtXtXtXtXtXtXtXtXtXtXtX` $.B. Xt.=.=.S. X,.&.tXtXtXtXtXtXtXtXtXtXtXtXtXtXtXtXtXtXtXtXtXtXtXtXtXtX",
"tXtXtXtXtXtXtXtXtXtXtXtXtXtXtXtXtXtXtXtXtXtXtXtXtXtXb.] :.}.2XH...<.|.*XN.X.&.m.tXtXtXtXtXtXtXtXtXtXtXtXtXtXtXtXtXtXtXtXtXtXtXtX",
"tXtXtXtXtXtXtXtXtXtXtXtXtXtXtXtXtXtXtXtXtXtXtXtXtX%.' | >.&X7X%X;.M.-X7X}...| ] tXtXtXtXtXtXtXtXtXtXtXtXtXtXtXtXtXtXtXtXtXtXtXtX",
"tXtXtXtXtXtXtXtXtXtXtXtXtXtXtXtXtXtXtXtXtXtXtXtXtXb.{ -.B.;XwX=XM.N.6X8X$X,... .tXtXtXtXtXtXtXtXtXtXtXtXtXtXtXtXtXtXtXtXtXtXtXtX",
"tXtXtXtXtXtXtXtXtXtXtXtXtXtXtXtXtXtXtXtXtXtXtXtXi.$.:.N.$X5XqX4X$X=X5XrX6X#XM.X.#.tXtXtXtXtXtXtXtXtXtXtXtXtXtXtXtXtXtXtXtXtXtXtX",
"tXtXtXtXtXtXtXtXtXtXtXtXtXtXtXtXtXtXtXtXtXtXtXv.$. .>.#X4XqXrXwX4X8XqXrXqX6XH.:.] %.tXtXtXtXtXtXtXtXtXtXtXtXtXtXtXtXtXtXtXtXtXtX",
"tXtXtXtXtXtXtXtXtXtXtXtXtXtXtXtXtXtXtXtXtXi.p.#.} -.S.;XqXeXwXeX<X0XeXwXrX8X$XB...{ b.i.tXtXtXtXtXtXtXtXtXtXtXtXtXtXtXtXtXtXtXtX",
"tXtXtXtXtXtXtXtXtXtXtXtXtXtXtXtXtXtXtXtXtX` [ } X.,.$X9XwX,X+X>X!..X>X>X3XwX4XK.;.X.{ #.u.tXtXtXtXtXtXtXtXtXtXtXtXtXtXtXtXtXtXtX",
"tXtXtXtXtXtXtXtXtXtXtXtXtXtXtXtXtXtXtXtXr.[ o.-.,.J.1X9X+XoXE.T.1.L.R.OXoX,X9X=XN.<...o.O.C.tXtXtXtXtXtXtXtXtXtXtXtXtXtXtXtXtXtX",
"tXtXtXtXtXtXtXtXtXtXtXtXtXtXtXtXtXtXtXtXC.+.-.M.J.-X8X:XW.E.T.U.L 1.Y.R.W.OX3X7X&XS.@.@.r.C.tXtXtXtXtXtXtXtXtXtXtXtXtXtXtXtXtXtX",
"tXtXtXtXtXtXtXtXtXtXtXtXtXtXtXtXtXtXtXtXtX%...;.,.K.2Xd.I.L.P.P r x 8.L.L.8.~.-XN.,.-.+.b.tXtXtXtXtXtXtXtXtXtXtXtXtXtXtXtXtXtXtX",
"tXtXtXtXtXtXtXtXtXtXtXtXtXtXtXtXtXtXtXtXv.m.X.X...B.~.y r x l u 0 0 y x x i Q '.,...X.=.i.tXtXtXtXtXtXtXtXtXtXtXtXtXtXtXtXtXtXtX",
"tXtXtXtXtXtXtXtXtXtXtXtXtXtXtXtXtXtXtXtXF.G.' | ..t.~ 0 t 0 p u 0 p u 0 p p I y.;.X.| $.F.tXtXtXtXtXtXtXtXtXtXtXtXtXtXtXtXtXtXtX",
"tXtXtXtXtXtXtXtXtXtXtXtXtXtXtXtXtXtXtXtXtXu.&.+.*.2.z 0 0 p p u p t u p p p I m ] | ' _ i.tXtXtXtXtXtXtXtXtXtXtXtXtXtXtXtXtXtXtX",
"tXtXtXtXtXtXtXtXtXtXtXtXtXtXtXtXtXtXtXtXtXz.z.e.S l z 2 7 7 7 u p t i 7 7 7 u z 2.b.%.tXtXtXtXtXtXtXtXtXtXtXtXtXtXtXtXtXtXtXtXtX",
"tXtXtXtXtXtXtXtXtXtXtXtXtXtXtXtXtXtXtX^ a.9.f.a.k 4 < . o   o ; - 7 - & o X & < h c.tXtXtXtXtXtXtXtXtXtXtXtXtXtXtXtXtXtXtXtXtXtX",
"tXtXtXtXtXtXtXtXtXtXtXtXtXtXtXtXtXtXtXv A w./.k.d +     o & X ; & X 0 I , X O - 9 g tXtXtXtXtXtXtXtXtXtXtXtXtXtXtXtXtXtXtXtXtXtX",
"tXtXtXtXtXtXtXtXtXtXtXtXtXtXtXtXtXtXtXs S w.^.0.+       # * - 8 7 & e 7 = & X . 9 y M tXtXtXtXtXtXtXtXtXtXtXtXtXtXtXtXtXtXtXtXtX",
"tXtXtXtXtXtXtXtXtXtXtXtXtXtXtXtXtXtXW a 3.w.k.d         o                       & q n tXtXtXtXtXtXtXtXtXtXtXtXtXtXtXtXtXtXtXtXtX",
"tXtXtXtXtXtXtXtXtXtXtXtXtXtXtXtXtXtXn a D w.q.: @       X                 X & ; 2 5 v tXtXtXtXtXtXtXtXtXtXtXtXtXtXtXtXtXtXtXtXtX",
"tXtXtXtXtXtXtXtXtXtXtXtXtXtXtXtXtXtXv A 9.0.d 1 1 @   7 Q 7           . t / I 0 T T h C tXtXtXtXtXtXtXtXtXtXtXtXtXtXtXtXtXtXtXtX",
"tXtXtXtXtXtXtXtXtXtXtXtXtXtXtXtXtXtXZ A 5.C 3 6 2 &   & - & X X & X X & 7 0 7 0 Y ( U h G tXtXtXtXtXtXtXtXtXtXtXtXtXtXtXtXtXtXtX",
"tXtXtXtXtXtXtXtXtXtXtXtXtXtXtXtXtXH 3.9.D s 1 3 - X     X X O & & & & & & X & - i / ( b 5 tXtXtXtXtXtXtXtXtXtXtXtXtXtXtXtXtXtXtX",
"tXtXtXtXtXtXtXtXtXtXtXtXtXtXtXtXtXD D A d 3 % @     o X X & & ; & & & & & & & & ; u ( ! R tXtXtXtXtXtXtXtXtXtXtXtXtXtXtXtXtXtXtX",
"tXtXtXtXtXtXtXtXtXtXtXtXtXtXtXtXH C V k 5 % o       X & X & & ; ; ; & & & & & & & - Q / ) tXtXtXtXtXtXtXtXtXtXtXtXtXtXtXtXtXtXtX",
"tXtXtXtXtXtXtXtXtXtXtXtXtXtXtXtXD D V k 5 @     X X X X X & & ; ; ; & & & & ; & & & p / tXtXtXtXtXtXtXtXtXtXtXtXtXtXtXtXtXtXtXtX",
"tXtXtXtXtXtXtXtXtXtXtXtXtXtXtXs.J A c k 5 . X O & X X & X & & ; - ; & & & & & & & & 7 Q @XtXtXtXtXtXtXtXtXtXtXtXtXtXtXtXtXtXtXtX",
"tXtXtXtXtXtXtXtXtXtXtXtXtXtXtXD V 4.h.f.N . O & & & & & & & ; ; - ; & & & & & & & & & i ! tXtXtXtXtXtXtXtXtXtXtXtXtXtXtXtXtXtXtX",
"tXtXtXtXtXtXtXtXtXtXtXtXtXtXtXC h.(._.(.V   & & & & & & & ; - ; - - - & & & & & & & & , b K d.tXtXtXtXtXtXtXtXtXtXtXtXtXtXtXtXtX",
"tXtXtXtXtXtXtXtXtXtXtXtXtXtXtXa.(._.{._.C o & & & & & & & ; ; ; 7 ; & & & & & & & & & & 0 C J S ^ c.tXtXtXtXtXtXtXtXtXtXtXtXtXtX",
"tXtXtXtXtXtXtXtXtXtXtXtXtXtXa.j.).].{._.j . & & O ; & ; ; ; ; - - - ; - ; ; & * & & & X 7 Z 3.J 3.J d.tXtXtXtXtXtXtXtXtXtXtXtXtX",
"tXtXtXtXtXtXtXtXtXtXtXtXtXtX9.V._.[.{.(.4 X & & & ; - - ; - ; - 7 - ; - ; ; - ; & & ; X ; h B B V V A D tXtXtXtXtXtXtXtXtXtXtXtX",
"tXtXtXtXtXtXtXtXtXtXtXtXtX6.h./.].{. X!.* O & & ; - ; - - ; - - 7 7 - - - - - ; ; ; & X X 6 s d B A A S 3.a.a.tXtXtXtXtXtXtXtXtX",
"tXtXtXtXtXtXtXtXtXtXtXtXs.q.V.).[.{. Xx.$ O & * - ; - - - 7 7 7 t 7 7 - 7 - - ; - ; ; X . 3 d A 3.4.3.3.A B B v tXtXtXtXtXtXtXtX",
"tXtXtXtXtXtXtXtXtXtXtXtX6.f.Z._.XX{.{.z.$ # & & - - - 7 7 8 p u I u p 0 7 7 7 ; - ; & X   4 V 3.5.9.9.9.4.C d a tXtXtXtXtXtXtXtX",
"tXtXtXtXtXtXtXtXtXtXtXH f.f.Z._.{.XXXXy.O # & - - 7 t i z i z y 0 u y i u u t 7 - - &     6 D 5.9.w.w.w.9.3.d 6 m tXtXtXtXtXtXtX",
"tXtXtXtXtXtXtXtXtXtXG 3.j.l.^._.{.XX{.F o & * 2 7 3 4 e T E I p t p u Y Q b w 9 8 7 - X   > A 9.w.w.w.w.0.4.B 6 g tXtXtXtXtXtXtX",
"tXtXtXtXtXtXtXtXtXtXc 0.l.(./.[.XX{.{.F . * = 2 , 8 q i R ! Y p t p I ! ! z w 9 2 2 2 , O $ D w.w.V.^.w.w.5.V 6 g tXtXtXtXtXtXtX",
"tXtXtXtXtXtXtXtXtXv N h.Z.[._.].{.{.{.j O & - < , 8 e y Q Q Y p t p I ! Q U e 4 , < - * $ $ 7.w.V.^.^.w.0.3.B 6 r tXtXtXtXtXtXtX",
"tXtXtXtXtXtXtXtXM A 0.l./._.[.[.[.XX`.3 X * = , , 9 q t R Y Y p t p I Q E z q 9 7 , - * @ + 3.w.^._.^.e.5.3.D d g tXtXtXtXtXtXtX",
"tXtXtXtXtXtXtXM c 7.V.).(.(.[.].[.XXA.> . & - , , 9 q i R ! Y t i p b Q W i q 9 , , - * # . k w.^.).w.w.w.h.9.D H tXtXtXtXtXtXtX",
"tXtXtXtXtXtXW j 3.f./.].].].[.].{._.f.$ . # ; < , 3 q y Q Q T p i p b Q Q b e 3 , < < # O o d e.^.^.w.^.g.3.c s Z tXtXtXtXtXtXtX"
};
