/* XPM */
static char *gun_reload2[] = {
/* columns rows colors chars-per-pixel */
"48 64 131 2 ",
"   c #020202",
".  c #0B0703",
"X  c #060A04",
"o  c #0D0B05",
"O  c #0C0C0B",
"+  c #140E06",
"@  c #120E0A",
"#  c #0B1406",
"$  c #0E120C",
"%  c #0F1808",
"&  c #141107",
"*  c #181007",
"=  c #14130B",
"-  c #1A140C",
";  c #13190B",
":  c #1C1B0C",
">  c #141413",
",  c #191613",
"<  c #171815",
"1  c #1B1915",
"2  c #1C1C1B",
"3  c #221B0D",
"4  c #291F0E",
"5  c #221D16",
"6  c #211F1C",
"7  c #1A2115",
"8  c #1F211E",
"9  c #24210E",
"0  c #2B210F",
"q  c #252115",
"w  c #2C2311",
"e  c #23221E",
"r  c #2A221B",
"t  c #2E291C",
"y  c #322612",
"u  c #382714",
"i  c #342914",
"p  c #3A2D16",
"a  c #3F2F18",
"s  c #3F3018",
"d  c #222222",
"f  c #292624",
"g  c #262825",
"h  c #2B2925",
"j  c #2B2B2B",
"k  c #302E2D",
"l  c #2F3124",
"z  c #2F322E",
"x  c #3E3527",
"c  c #34322F",
"v  c #3C392F",
"b  c #302F30",
"n  c #343433",
"m  c #383635",
"M  c #3A3936",
"N  c #3B3B3A",
"B  c #44331A",
"V  c #4A361B",
"C  c #4D391D",
"Z  c #533B1F",
"A  c #4B3620",
"S  c #553D21",
"D  c #583E21",
"F  c #403D37",
"G  c #5D4122",
"H  c #5B442A",
"J  c #4E463B",
"K  c #624425",
"L  c #694727",
"P  c #6B4927",
"I  c #664728",
"U  c #694728",
"Y  c #62492F",
"T  c #6C4A29",
"R  c #724D2B",
"E  c #79512E",
"W  c #6D563E",
"Q  c #745030",
"!  c #7C5431",
"~  c #71593E",
"^  c #7C5A3A",
"/  c #444443",
"(  c #464845",
")  c #4A4847",
"_  c #4B4B4B",
"`  c #504F4A",
"'  c #4E504D",
"]  c #56534D",
"[  c #535453",
"{  c #5A5755",
"}  c #5A5957",
"|  c #5B5B5B",
" . c #765C41",
".. c #5F625E",
"X. c #60635F",
"o. c #636363",
"O. c #6B6B6B",
"+. c #767676",
"@. c #7B7B7B",
"#. c #825632",
"$. c #8B5C36",
"%. c #865F3C",
"&. c #8D5F38",
"*. c #925F39",
"=. c #94613A",
"-. c #9C663D",
";. c #A1693F",
":. c #956542",
">. c #9B6841",
",. c #A66D43",
"<. c #AB6F44",
"1. c #AA7046",
"2. c #AC7248",
"3. c #B17145",
"4. c #B5754A",
"5. c #B7794D",
"6. c #BC7A4E",
"7. c #A87953",
"8. c #BB7D52",
"9. c #BF8359",
"0. c #C58255",
"q. c #C6865B",
"w. c #D29167",
"e. c #868787",
"r. c #939393",
"t. c #9B9B9B",
"y. c #A4A4A4",
"u. c #ABABAB",
"i. c #BDBCBD",
"p. c #C2C2C2",
"a. c None",
/* pixels */
"a.a.a.a.a.a.a.a.a.a.a.a.a.a.a.a.a.a.a.a.a.a.a.a.a.a.a.a.a.a.a.a.a.a.a.a.a.a.a.a.a.a.a.a.a.a.a.a.",
"a.a.a.a.a.a.a.a.a.a.a.a.a.a.a.a.a.a.a.a.a.a.a.a.a.a.a.a.a.a.a.a.a.a.a.a.a.a.a.a.a.a.a.a.a.a.a.a.",
"a.a.a.a.a.a.a.a.a.a.a.a.a.a.a.a.a.a.a.a.a.a.a.a.a.a.a.a.a.a.a.a.a.a.a.a.a.a.a.a.a.a.a.a.a.a.a.a.",
"a.a.a.a.a.a.a.a.a.a.a.a.a.a.a.a.a.a.a.a.a.a.a.a.a.a.a.a.a.a.a.a.a.a.a.a.a.a.a.a.a.a.a.a.a.a.a.a.",
"a.a.a.a.a.a.a.a.a.a.a.a.a.a.a.N / [ N N ' a.a.a.a.a.a.a.a.a.a.a.a.a.a.a.a.a.a.a.a.a.a.a.a.a.a.a.",
"a.a.a.a.a.a.a.a.a.a.a.a.a.a.a.c b N b N _ | a.a.a.a.a.a.a.a.a.a.a.a.a.a.a.a.a.a.a.a.a.a.a.a.a.a.",
"a.a.a.a.a.a.a.a.a.a.a.a.a.a.M m g d j m ( } a.a.a.a.a.a.a.a.a.a.a.a.a.a.a.a.a.a.a.a.a.a.a.a.a.a.",
"a.a.a.a.a.a.a.a.a.a.a.a.a.f r N 6 2 j N / ' a.a.a.a.a.a.a.a.a.a.a.a.a.a.a.a.a.a.a.a.a.a.a.a.a.a.",
"a.a.a.a.a.a.a.a.a.a.a.a.h j h n 5 2 h N / _ a.a.a.a.a.a.a.a.a.a.a.a.a.a.a.a.a.a.a.a.a.a.a.a.a.a.",
"a.a.a.a.a.a.a.a.a.a.a.a.M j d f 1 2 f N / [ a.a.a.a.a.a.a.a.a.a.a.a.a.a.a.a.a.a.a.a.a.a.a.a.a.a.",
"a.a.a.a.a.a.a.a.a.a.a.{ / f e d 2 2 g N _ / ' } a.a.a.a.a.a.a.a.a.a.a.a.a.a.a.a.a.a.a.a.a.a.a.a.",
"a.a.a.a.a.a.a.a.a.a.a.| N 6 d f 1 2 j N _ d , f M a.a.a.a.a.a.a.a.a.a.a.a.a.a.a.a.a.a.a.a.a.a.a.",
"a.a.a.a.a.a.a.a.a.a.a.| m 5 d d , d j N _ d > 5 j / a.a.a.a.a.a.a.a.a.a.a.a.a.a.a.a.a.a.a.a.a.a.",
"a.a.a.a.a.a.a.a.a.a.a.o.n 2 d 5 1 2 j / _ j + - 8 n | a.a.a.a.a.a.a.a.a.a.a.a.a.a.a.a.a.a.a.a.a.",
"a.a.a.a.a.a.a.a.a.a.a.o.n 2 2 5 : d j / _ j @ & e M _ a.a.a.a.a.a.a.a.a.a.a.a.a.a.a.a.a.a.a.a.a.",
"a.a.a.a.a.a.a.a.a.a.a.{ j , 2 , - 2 j N ) j = - 6 / a.a.a.a.a.a.a.a.a.a.a.a.a.a.a.a.a.a.a.a.a.a.",
"a.a.a.a.a.a.a.a.a.a.a.m d , 2 - - 2 h M ( N b n n n a.a.a.a.a.a.a.a.a.a.a.a.a.a.a.a.a.a.a.a.a.a.",
"a.a.a.a.a.a.a.a.a.a.a.N 6 , 2 - - 1 r n ( M g N e.o.a.a.a.a.a.a.a.a.a.a.a.a.a.a.a.a.a.a.a.a.a.a.",
"a.a.a.a.a.a.a.a.a.a.a.N 5 - , , * , 5 k ( n d N y.t.J ~  .~ W ^ 7.a.a.a.a.a.a.a.a.a.a.a.a.a.a.a.",
"a.a.a.a.a.a.a.a.a.a.a.b 5 - , = * : 2 f / j d b o.} , 4 i u 0 C ! ! a.a.a.a.a.a.a.a.a.a.a.a.a.a.",
"a.a.a.a.a.a.a.a.a.a.a.d 5 - > - * * 1 d N h d d 2 2 4 u B V D G B y A ~ a.a.a.a.a.a.a.a.a.a.a.a.",
"a.a.a.a.a.a.a.a.a.a.a.8 , , 2 - * - - 5 b h d d 2 V E #.=.*.=.3.,.S 3 t a.a.a.a.a.a.a.a.a.a.a.a.",
"a.a.a.a.a.a.a.a.a.a.a.1 , > , > * * * - 2 5 g d 2 V V C G G L =.6.4.*.Y a.a.a.a.a.a.a.a.a.a.a.a.",
"a.a.a.a.a.a.a.a.a.a.a.5 , * 2 - & = & & % > d g , - 3 u V Z K Z V G $.3.q.a.a.a.a.a.a.a.a.a.a.a.",
"a.a.a.a.a.a.a.a.a.a.a.d , - 2 > & & & * ; ; g g < O i K #.-.4.;.S 4 u D $.5.w.a.a.a.a.a.a.a.a.a.",
"a.a.a.a.a.a.a.a.a.a.b 6 > - , - & & = * ; = g g 2 > B V V V K =.8.:.S u u U >.6.a.a.a.a.a.a.a.a.",
"a.a.a.a.a.a.a.a.a.a.j 2 1 > , - & & & & # = g g 2 > 1 4 0 u p V U *.,.>.#.E ! &.%.a.a.a.a.a.a.a.",
"a.a.a.a.a.a.a.a.a.a.h 2 1 > 2 = = * = & o = 2 8 2 O w Z P -.-.! S B S T =.3.<.,.4.q.a.a.a.a.a.a.",
"a.a.a.a.a.a.a.a.a.a.h 2 , > 2 = & * & & # & < 2 1 $ 5 B C L $.;.2.=.R C B K R K R >.8.8.a.a.a.a.",
"a.a.a.a.a.a.a.a.a.a.j 2 , > 2 = & & & & # * d j d > - - - 3 i C R *.,.<.$.U G S V V Z S a.a.a.a.",
"a.a.a.a.a.a.a.a.a.a.M 2 - = 2 = & & = & & = 7 j 8 > $ O & & : w p V G #.-.;.-.<.1.:.Q p a.a.a.a.",
"a.a.a.a.a.a.a.a.a.a.m 2 , = 2 @ & & # & o = 2 g d > > $ # # # % ; : w B G U L ! -.5.0.7.a.a.a.a.",
"a.a.a.a.a.a.a.a.a.a.b 2 > > 2 = & & $ % % $ 2 b j j < > O X X O % % & ; : y V C G R #.R H a.a.a.",
"a.a.a.a.a.a.a.a.a.a.c 2 2 2 , . + + & * 7 $ 2 b b +._ 2 > O     X # # # # : 9 i p V D B 4 a.a.a.",
"a.a.a.a.a.a.a.a.a.a.b 6 , > 2 . & & # h [ ; 8 b b y.t.| d > >         X # # % : : 0 w w : a.a.a.",
"a.a.a.a.a.a.a.a.a.a.k 2 = 1 2 . & & # N r.2 8 b b y.u.r._ d > > X       X X # # # ; q i : a.a.a.",
"a.a.a.a.a.a.a.a.a.a.d 2 @ , 2 O & & + M i.b 8 N j t.u.t.O./ d < $           X # # : i i : a.a.a.",
"a.a.a.a.a.a.a.a.a.a.6 2 > 2 , . + & o n i.N d N b @.y.y.+.| _ j 2 X         : # = 4 p i 2 a.a.a.",
"a.a.a.a.a.a.a.a.a.a.2 2 > 2 2 + + + + n i.( d n j N O.r.+.o.| / j O       # % ; 4 y B y h a.a.a.",
"a.a.a.a.a.a.a.a.a.a.2 1 , 2 , . & & + n p.[ $   O O > / o.o.| _ m d   # * 0 9 3 : 4 a w a.a.a.a.",
"a.a.a.a.a.a.a.a.a.a.2 2 > d 1 . & & o M p...O       X > g / [ _ N j   $ : w i i w 9 : : a.a.a.a.",
"a.a.a.a.a.a.a.a.a.j 8 2 > 2 2 . + * . n p.X.o         X > > j / N j X # % % ; 9 p s y ; a.a.a.a.",
"a.a.a.a.a.a.a.a.a.8 2 2 > 2 2 . + * + n p...X               $ 2 n m O # % 9 i i i V C y a.a.a.a.",
"a.a.a.a.a.a.a.a.a.6 8 2 $ 6 > O + o + c p...d g O             O $ g > # % 9 i p i p V x a.a.a.a.",
"a.a.a.a.a.a.a.a.a.d 2 1 > 2 = @ o X . c p...z } g ; #             O : : w s B B i y s v a.a.a.a.",
"a.a.a.a.a.a.a.a.a.h d 1 @ 6 > + & * + 2 r...% g j 8 ; #             q B B C Z C s 0 w a.a.a.a.a.",
"a.a.a.a.a.a.a.a.a.d 6 2 1 e 2 , - , @ = N ( 2 e g d 2 , =         o i B G G Z V s 0 9 a.a.a.a.a.",
"a.a.a.a.a.a.a.a.a.h d j f d d e e 1 = * 6 z j j f e d 5 1 O       - B C G A V s i : l a.a.a.a.a.",
"a.a.a.a.a.a.a.a.a.n e 1 , 2 d 6 1 N e + 2 b d d d d d 2 2 2 O   + 0 B B B B p 4 3 q a.a.a.a.a.a.",
"a.a.a.a.a.a.a.a.' 5 * + @ 2 j 2   > O . > d g d d d d d d d 6 , + * 3 4 w 4 3 & @ e a.a.a.a.a.a.",
"a.a.a.a.a.a.a.a.j - * + + 2 n e       O > 2 d 6 2 d d 2 d d d d 5 - * * * * + = q a.a.a.a.a.a.a.",
"a.a.a.a.a.a.a.a.6 - * o @ e / g       O > , d d d d d d d d 2 2 f q 3 - + + % t a.a.a.a.a.a.a.a.",
"a.a.a.a.a.a.a.a.- - - $ 2 j _ F $     O > 2 d d d 2 2 d d d d d d d 5 3 - & e a.a.a.a.a.a.a.a.a.",
"a.a.a.a.a.a.a.F , > > 1 1 n +.O.d   X O > 2 2 2 2 d d 2 d 2 d d d d e d 1 r a.a.a.a.a.a.a.a.a.a.",
"a.a.a.a.a.a.a.h - . . * @ m @.O.j     O $     O 2 2 2 2 2 d 2 2 2 2 d d e d ] a.a.a.a.a.a.a.a.a.",
"a.a.a.a.a.a.a.h + . + - - n o.@.j   O > O O   O > 2 2 2 2 2 2 2 2 2 d d d e h ] a.a.a.a.a.a.a.a.",
"a.a.a.a.a.a.a.h + . @ - * n [ @.j     O > 2 2 > > < > d 2 2 2 > > 2 6 d d d 8 f a.a.a.a.a.a.a.a.",
"a.a.a.a.a.a.a.5 * . + - @ N [ O.2   O O > 2 d > > > > > > < 2 > , + 1 d 2 2 d 6 a.a.a.a.a.a.a.a.",
"a.a.a.a.a.a.a.6 + . + 1 , h ` [ O   O O O 2 2 O O < > > < < < > , O , 2 6 8 2 d N a.a.a.a.a.a.a.",
"a.a.a.a.a.a.a.5     @ = 6 f { ` O     O > 2 d O O > > > < > < > = $ 1 > 2 d 2 d f a.a.a.a.a.a.a.",
"a.a.a.a.a.a.a.3 .   . O n j +.`     O O > > d < > > > > < < > O O   > > 2 2 2 2 h a.a.a.a.a.a.a.",
"a.a.a.a.a.a.r * + + + @ ) k O._       O > 2 d 2 > > > > 2 2 > O O O > > < 2 2 2 2 a.a.a.a.a.a.a.",
"a.a.a.a.a.a.r + .     X 8 d | /       O O 2 d 2 > > > 2 2 > > > > O > > > 2 2 2 2 n a.a.a.a.a.a.",
"a.a.a.a.a.a.r *         2 2 _ N     O O > < 2 2 > > > < 2 < < > > > > > > < > > = r a.a.a.a.a.a."
};
