/* XPM */
static char *NETHER[] = {
/* columns rows colors chars-per-pixel */
"64 64 37 1 ",
"  c #040102",
". c #0C0304",
"X c #0E0709",
"o c #0F080A",
"O c #110507",
"+ c #130609",
"@ c #12090B",
"# c #1B0C0E",
"$ c #1C0E11",
"% c #1F1013",
"& c #270B0F",
"* c #280A0F",
"= c #2A0D12",
"- c #201114",
"; c #2E1216",
": c #2E1519",
"> c #2F191C",
", c #301217",
"< c #35161C",
"1 c #37181E",
"2 c #39191F",
"3 c #3B1A20",
"4 c #3D2025",
"5 c #431E25",
"6 c #481F27",
"7 c #442026",
"8 c #482027",
"9 c #45242A",
"0 c #4B242A",
"q c #4C282E",
"w c #50272E",
"e c #50282F",
"r c #4E2B31",
"t c #532B32",
"y c #593037",
"u c #573339",
"i c #5A3239",
/* pixels */
"$$%%-----$%$----#@##%%%%%$%%--$$$%--%-$#$-%%%%%--%#%-%%%%%%%%%%$",
"$4iuttq88868850e<:49q9988888ww:#%qe88t9:9y0780eqeq3908878ew880:#",
"-tq533335255522579772232332332#+%q9224797333534533733532233553$o",
"-q3223222222222212122222222221#o%84222<<1312323333332221122211#O",
"%03323323333222222222222222221#o#4912222332233331333133112222<Oo",
"-q5322323332222222222222222221#+@<q12272231233331132133112223:.o",
"$q522222223223332432222222232<Oo$4712222321134331133112212222<+o",
"-q322222223233223233223222232<Oo$97222423312323311321121222221$o",
"-e322322223223222222222322222<+o-e2222222222333212222222122222#+",
"-q522333223233222225222322222<#o-q2212322222332112331221122221+o",
"%0522223223233222222222222222<OX-8222222222252221222222211111<.o",
"-0322222323233222222222222222<.o-e52212<122233221222122112221,.o",
"-e3222323232332222222232212222oo%r5111212212331121221211112211+o",
"-82222222222<::21121212,<<11<;+o%q11<<1<12<1321<<,<1<<11<,<:1<#o",
"%:-##+O@####...+$#####O..O++O. o%:$$+O+$##++$$OO....+###O..O##Oo",
"$#o@@Xooooo@oooo+oooooXXXXXo@oo#$#oo@oooooOXooooooooooXXXoooooo#",
"%%-%#--%%-%%-%%%$%--##%%%%--%-----%-#$--%---%%%$$-%%%%---$%%-$--",
"80tq4t088etrq9:#-0wt73qrq0q00000888e90w888qe08:#-w800q088880w00w",
"35335335347752#@%85237333333733333257423333752%o-t53522422352225",
"2322122233222<#@%0212323323322232222<<<2222232#X-y32222322222<22",
"3322222233332<+@@37<23333333332322232212332342$o%092223322222222",
"2232223223323<.@$<3223332233332322222212322332#@@:q2223322252223",
"3232233233322= o%r322333234332322232221252233<.o$q02224222222224",
"2322233222232*.o%9222333<23333222223221223232<OX-y42222222232222",
"2322223222223=.o-q322223323333322222322222233<.X-q32223222332223",
"3322223222222<.o-02223232234333222233322222222#X-e52223222223223",
"232<<33222223<.o-052223322332332222222222<242<$@%822223222222223",
"332<233222223,.o-e22223323332332<222222<2<2322+@-8522221<2222223",
"332<223222222<.o-832232222332322122223222<222<@o-w32122221222222",
"22<<<,<<<2222;.o-6222222<2222222<<1222:;*,2<2<+o-821<<11111<2<<2",
"###@...O.+$##@ o$:#####O@#######+O###o. .O#$@. @%<&+O.+#++O+oOo#",
"ooooooooo@@oo@@###@@oo@Xoo@ooo@ooooo@XX@@ooooo@@$@@XoooooooooXXo",
"----%%%%%#--%#%-%%$$-%$%$&-%-%%--#-&%%%$-%%-----------%%%%-%---%",
"088e07:##508940800q089-#%y88qre0886858:#-te080yte06588<+-tt0te08",
"522222#@%t525355439522&o%iq22992223322$@%0925252352232#@%0555235",
"32<22<.o%0222232221222#+%uq11122222222#o%8222222222<2<Oo%0221221",
"32222<.o%q322322223222#o-i52222322<22,OX-e2<324322222,.o-8522223",
"422222+o%9423222222221+o%q22222222222<.X-y5<222323222<.o-8322233",
"322222#o-032332222222<.o%832222223222<#.-i323232252222#o-6323322",
"322322#@-052222222322,.X-0522422232222#@-y72223322<222#O-6523323",
"322322$o-q322222232232oX%q42222222222<#X-0522232232222#o-6223333",
"323332#o$9512222233232+@#17<2222232222+@%82<2232<22222#X&6523233",
"223322#o-q522522223222+@#<512322222221oo-w222232222222$@%0223223",
"222332#o-0222222222232oX-w22333222222,.o-e222232222222#o%q322222",
"222232#o%7223332222242OX%922223222222,.o%07<2222222232#o$9522222",
"22<<2=oo%52<2<,<22222,.o%72<2<<<<2<<<<@o%02<<<,<<22,,:.o-q2<2<22",
"##OO+. @%:#$+...+#++@@ @%:##&@.O#+@OO#.o%>##@..X##o..  o-<##O##$",
"oo@oooo#%#@ooooooooX@o@#%#@ooooXooooXo@#$#o@@@ooo@oXooo@%#@XXX@@",
"%%#%-%%----$---#%#%#--$%%--%-&%%%---%%%--%%##$%$#$%%--*--%%--#$-",
"804qq8880ew888:#$4098e70qq988698880qq00080q<<9:@%30tw88888880970",
"27343553525272#X-q822553322332253322232542777<&o%072353325253335",
"2222222222212,.X-e522222222222232222222222211:+o%722233223222222",
"2234223232222<+@-t522222<2222<233322222222322<Oo%732222223232223",
"32332223322222#o-e222232222222222252<2<2223211#o-522233223232223",
"32332222323222#@%8222222<2222<252322<222223221#o%822232223232223",
"2233223222222<#@%03<222222<22<2322222223223221#o%832222222232323",
"22252252232222#o&922<2222<<2223323222223223221#o-022222232222323",
"32222222332222#o%85<222<2222223322322222222221#o-t2222<222222323",
"22222<22233222#@%92<2222<22222332222222322212<Oo-t52222222222322",
"22222122232222#o%7522222<22222322223223222212,Oo#q72222222222323",
"22232122222222#o%9522232222222222232222211222<.o%032222222222334",
"2<,<<<1111<<<<#o%922<222<<<22<<<<2<<222211212:.o%922<<<222<2<2<<",
"$+..####++o.@#Xo%:%+X+#######+OO+#Oo######$#@X o$<%###@+#####+..",
"@oo@ooo@oooo@oo#%#@oo@@o@ooo@Xooo@oo@o@@ooooooo#$#@@o@Xoooo@oXoo"
};
