/* XPM */
static char *new[] = {
/* columns rows colors chars-per-pixel */
"63 64 68 1 ",
"  c #424642",
". c #464A46",
"X c #484B47",
"o c #494D49",
"O c #4E524D",
"+ c #50544F",
"@ c #515651",
"# c #555955",
"$ c #585C57",
"% c #575C58",
"& c #5A5E5A",
"* c #5D625D",
"= c #60645F",
"- c #5F6460",
"; c #616661",
": c #656A65",
"> c #686C67",
", c #676C68",
"< c #696E6A",
"1 c #6D726D",
"2 c #6F7470",
"3 c #717672",
"4 c #747A75",
"5 c #777C79",
"6 c #797E7A",
"7 c #7B817D",
"8 c #7E8481",
"9 c #818683",
"0 c #838986",
"q c #868C89",
"w c #898E8B",
"e c #8B918E",
"r c #8D9492",
"t c #919592",
"y c #949996",
"u c #949B99",
"i c #9A9D9B",
"p c #9DA09E",
"a c #9CA3A2",
"s c #A2A5A3",
"d c #A5A9A6",
"f c #A7ABA8",
"g c #AAADAA",
"h c #AEB0AE",
"j c #AFB2B0",
"k c #B2B5B3",
"l c #B6B8B6",
"z c #B6BAB8",
"x c #BBBCBB",
"c c #BFC1BF",
"v c #C2C4C3",
"b c #C7C8C7",
"n c #CBCDCC",
"m c #CED0CF",
"M c #CFD1D0",
"N c #D3D5D4",
"B c #D6D8D7",
"V c #D7D9D8",
"C c #DADCDB",
"Z c #DFE0DF",
"A c #E0E0DF",
"S c #DFE0E0",
"D c #E3E3E3",
"F c #E7E8E7",
"G c #E7E8E8",
"H c #ECEDEC",
"J c none",
"K c #F9F9F9",
/* pixels */
"$* &788errrruuufauqeuruuaaaaaur8788ruraarerqrurre42333235688251",
"=*.$178rrrr8e8raareruuuaaauur8854458rruaureqrrrr851257523366383",
":;X#,38eru83732ruqerruuuar857574,2,288uuuur888884,,;2683<233883",
">;o=48qwee878248reurruaau8,585552,,148ruuuure874,552;4856655885",
">=o:59wr888884774quuiass8488885421,,248rruuuy92:18574;348655588",
"=$o>8eru888r882753eupaut588888,@@-,22458rrure7<3775785<78845586",
"=$o10eeq88888282553quat48r888-:,;&#252758uuq8249854784218u8888,",
"1:o>80738838-O,75942ey77err5&-unz3#%47784qq4,49971@25,<48u8868,",
"1:O>73,6u81%-8-<557,5639797&45bJJu6-#390935:279q3<<%13-348r8884",
">:O<7<7y87%OrG8O2464,27777=&63hJG85-@&6ww6<17694-vb-@3348388882",
"1;@11<er82O#pJ8-@444<5w99;$=6xZJHna:$@,99934768-%cS4O#844488884",
"1;O>,7t97%--8M3-*;2237002$66lJJHJJHq7;@4875776;;*pb<*#<7<2<5584",
":=O:1qq4*;gc878vs*,13776*=ksiFFdxHNwb0@-7535724kr3quk7#73338881",
"*#o=2731+6HJr*hKA<#1589<16nM2964385wHp1$26435-iKF8:mKz*<818322-",
"#+ *364:$4kl4:0vs;@,570*67ci<=#3:%,2kp9:;7432%3vx4;iMp-#3342,-,",
"**o:665&8s;>sBi$;k3;675:4;>wmh;$&8nx3:14-744:uw&<xx4-8a--227188",
"==o4771@11$:mKc$&w9$59>39*$kKD3*$iJJw$:w*676>s6$3GKi*=7$=434107",
">=o777<O*>>wtk71:w:@36*=7<90hi9366gs95<1@294$67=<pzw7==#$646396",
"=*+777=@54=d4$4w=pw#24@4p>iw@3g39i$:h61t$;73=g91w=&pe=9$#666476",
"=*@773$$>wxw3$19xw6$24$39xt7*39lt6=<whp3*&4>:wsp3&=wpp1$$644344",
"*##751O*iAKN9=wNJCw$>2$9BJAt:4bJFp;1xJFg;#3=>kHHg::dFHx1#322234",
"#@@=>;#:NJJJh>nKJJg&#$$kHKJZ4kJJJF9iJJJG9@&@4nJJJy6ZJJHp#*>=;<>",
"=*O*:1;O9HJJs=xJJHl>*&*wJJKB>iJJJD20HJHm:=$&4NJJHw:BKJc=*>1==2>",
"1=O=<<*OxJJJByAJHKb<=;=vHKHHgBJJJHkbKHKF9=;=7AJJJxgHJJC6==<>>61",
"3:+=**@OlKJJJJJJKHn:=;=cKHKHJJJJJJJJHJHJ0==*6FJJJJJJJJG6*$==273",
"1:O+#=$eAJJJJJJJHKGw$=7AHKJJJJJJJJJHJJJHl:*:cHJJJJJJJJGk=@=>776",
">*oO=24AJJJJJHKHKHKb22vJJJJJJJJJJJJJJJJJHy<wGJJJJJJJJJJJg>37896",
">*.o@*7FJJJJJJJJHKHC>*bKJJJJJJHJJJJJJJJJJi#eJJJJJJJJJJJJk*;0776",
"=*.o#=0JJJJJJHJJKHKC3>CHJJJJJJJJJJJJJJJJJf*iHJJJJJJJJJJJb<<6451",
"*#  *3tHJJJJJJJJHKHD76NKHJJJJJJJJJJHJJJJKk3pJJJJJJJJJJJJv442>31",
"=*oo=4yHJJJJJJJJKJKZ97CJKHJJJJJJJJJJJJJJJl3fJJJJHJJJJJJJm654264",
"=*oo=4pHJJJJJJJJHJJD06BJJJJJJJJJJJJJJJJJJk3fJJJJJJJJJJJKn949805",
"<-oo;6uJJJJHJJJJJJJAw6VJJJJJJJJJJJJJHJJJJk6fJJJJJJJJJJJJN8788q7",
"<-Xo;7yHJJJJJJJJJJJDw9CKJJJJJJJJJJJJJJJJJl7dJJJJJJJJJJJJM088qe7",
";*oo:5uJJJJJJJJJJJJD07CJJJJJJJJJJJJJJJJJJz6sJJJJJJJJJJJJM8788q7",
"=$XX;5uJJJJJJJJJJJJAw7VJJJJHJJJJJJJJJJJJJj6dJJJJJJJHJJJJM878888",
"*$  *6uHJJJJJJHJJJJAq7VJJJJJJJJJJJJJJJJJJl6dJJJJJJJJJJJJm876864",
"*$  -4yJJJJJJJJJJJJZ86CJJJJHJJJJJJJJJJJJJk4sHJJJJJJJJHJJm758863",
";-. &<yHJJJJJJJJJJJA62VJJJJJJJJJJJJJJJJHJh,pJJJJJJJJJJJJn338886",
"<;Xo&,eJHJJJJJJJJJJC61VJJJJJJJJJJJJJJJJJJg:iJJJJJJJJJJJJm338886",
"1=Xo$:eHJJJJJJJJJJJZ3>MKJJJJJJJJJJJHKHKHKd;yJJJJJJJJJJJKv,<8587",
";*.o*&<CJJJJJJJJJJKc:&lHJJJJJJJJJJJJHJHKDe&7AKJJJJJJJJJGf--2254",
";$X*=*=<MJJJJJJKJKB6*&<NJKJJJJJJJJJJKJKHf,*-yGKJJJKJJJFa4---222",
"*#X**==XrNBBVBVVCBf;**&yVBCNNNVNNCNBMVmv5-&*<vNVMNNNNMc4,----,:",
"##,21<1<6qeyrrreee631227wrrreeewetteew0842234qeeeqeeqe87422342%",
":*,55532445676754547664444444456676644322467646547744574244754-",
":*@:,<&288866688773><>-36666646776776543<:<,;36688745777,:<:<51",
"=*@$**-:-8,-::;:<5>;;&;;46::,<>><<,;;1011<;-*<5:-----55-3,-*,74",
";*@=<<::;i43t27-102>1>::aree5w436384y9a8121<:49>388r>09;513:>64",
";$+;<<;;&tykv6v87<>1<1<-7zMyhiy5tiptfNa;121>1>74jjwMwy<*64<><84",
"*$+:35:;&97ht1pt1><3441:0d04059549351wp1<3722>27fr2a04,&5353>52",
"&++:33:,*:,w22wq<11233<-50;1<>4664>1>1q:<2432>22u81w8,,-5333><:",
"#XO:34;:%<3di5mfp9>2331*5vg4i8w3wtw9qck114442-pwnf7nr82-6353<4<",
"&#+>44::-4:5i9l6q81277>=eege6t5499w7dau73474<3e4qp9a556:6353383",
">*+>55:::7;:,,2;4q<473>:t8:<=;;::>:=1<r7144714q*-,,1:26-5655<73",
"2=#145;:;<,::::,<>>274:*=<:;:::><>::-,,--4441*::,,1:,<1:2545<84",
"<=+>1<$28977667777<:<<*27888887796798787<:<>:27788887777:<<1,64",
">&$331=166555455372772>3747777776665666522442<77778777772546363",
"&#25462:565445667279372<477777776466664577777247474347522668752",
"#$*&=;*#&-&&*--;==>==>=::-::<>;:;==;;:::>>:<22-*-:::1<::<222111",
">>><211322<12111<2<<21>>>>1475111137676787127777777476633373666",
"1233333341>112433222471<32280046668eq87888777744777436467462576",
"4342>112<>1222<<<<=>>>4777478736767q776888874774788787778336663",
"9994233312564335777777087778q00eqqqqqq07qqqq7780qerrrq78q877800"
};
