/* XPM */
static char *new_2[] = {
/* columns rows colors chars-per-pixel */
"46 64 249 2 ",
"   c #0D0D0C",
".  c #0A0A08",
"X  c #0E100F",
"o  c #11110E",
"O  c #18160F",
"+  c #0F1110",
"@  c #141412",
"#  c #191712",
"$  c #161915",
"%  c #1A1A15",
"&  c #161519",
"*  c #1C1D19",
"=  c #171A19",
"-  c #0F0E0D",
";  c #211C15",
":  c #201F1A",
">  c #291B0F",
",  c #1E211C",
"<  c #1F2B1F",
"1  c #23231D",
"2  c #29261D",
"3  c #2D291E",
"4  c #232117",
"5  c #31311C",
"6  c #1A1E20",
"7  c #1C2322",
"8  c #1B2B2B",
"9  c #1E3232",
"0  c #252521",
"q  c #282722",
"w  c #252A23",
"e  c #2B2B24",
"r  c #242C2B",
"t  c #2D2E29",
"y  c #312E24",
"u  c #312E29",
"i  c #2C3125",
"p  c #2D312A",
"a  c #2C3B2C",
"s  c #263228",
"d  c #333126",
"f  c #33322B",
"g  c #3A362B",
"h  c #3D392C",
"j  c #373927",
"k  c #272D33",
"l  c #2F3432",
"z  c #283936",
"x  c #343532",
"c  c #353C35",
"v  c #3B3B33",
"b  c #373A3A",
"n  c #413A2C",
"m  c #423D32",
"M  c #573F2C",
"N  c #48361D",
"B  c #39472C",
"V  c #2C423C",
"C  c #2C4234",
"Z  c #33443B",
"A  c #384738",
"S  c #3B533B",
"D  c #2F402A",
"F  c #474929",
"G  c #564A29",
"H  c #49542D",
"J  c #54552C",
"K  c #5B582A",
"L  c #444234",
"P  c #42423A",
"I  c #494939",
"U  c #554937",
"Y  c #495938",
"T  c #585A37",
"R  c #635A2A",
"E  c #75562C",
"W  c #644833",
"Q  c #625B3C",
"!  c #675A35",
"~  c #785C35",
"^  c #6B482B",
"/  c #59632B",
"(  c #586538",
")  c #58703B",
"_  c #4A653B",
"`  c #67652B",
"'  c #76792C",
"]  c #636532",
"[  c #6C6C3B",
"{  c #696936",
"}  c #766838",
"|  c #6A733A",
" . c #73733A",
".. c #787736",
"X. c #736C2A",
"o. c #565B1A",
"O. c #383C44",
"+. c #2D3745",
"@. c #403F43",
"#. c #384944",
"$. c #354F46",
"%. c #454747",
"&. c #514D45",
"*. c #475749",
"=. c #525845",
"-. c #485956",
";. c #585C55",
":. c #464C53",
">. c #675946",
",. c #735C46",
"<. c #635E55",
"1. c #674B42",
"2. c #4B6445",
"3. c #5A6745",
"4. c #476357",
"5. c #547251",
"6. c #676543",
"7. c #786646",
"8. c #687644",
"9. c #797743",
"0. c #666658",
"q. c #796956",
"w. c #63755A",
"e. c #777A52",
"r. c #555C72",
"t. c #585B64",
"y. c #577667",
"u. c #516B6D",
"i. c #6C726D",
"p. c #84542F",
"a. c #85732E",
"s. c #866936",
"d. c #976938",
"f. c #887639",
"g. c #977A39",
"h. c #936B2E",
"j. c #A67B3B",
"k. c #825E46",
"l. c #856A47",
"z. c #847A48",
"x. c #937A44",
"c. c #896C58",
"v. c #877A5A",
"b. c #987759",
"n. c #926156",
"m. c #B66D5D",
"M. c #AB7349",
"N. c #8E7E64",
"B. c #A75F40",
"V. c #CB7763",
"C. c #D97655",
"Z. c #758434",
"A. c #7A8547",
"S. c #718C52",
"D. c #788A67",
"F. c #768A6E",
"G. c #5D804C",
"H. c #88873A",
"J. c #96883D",
"K. c #929837",
"L. c #AA883C",
"P. c #B38C3C",
"I. c #8FA53D",
"U. c #CA8C3B",
"Y. c #898745",
"T. c #978848",
"R. c #9A9749",
"E. c #888856",
"W. c #9A8B52",
"Q. c #9A9955",
"!. c #8F9740",
"~. c #A48748",
"^. c #B58648",
"/. c #A8964A",
"(. c #B3974B",
"). c #A78C56",
"_. c #A89655",
"`. c #B2995B",
"'. c #B69657",
"]. c #A8A657",
"[. c #B8A35B",
"{. c #B7B557",
"}. c #9A9C68",
"|. c #91926E",
" X c #AB8A6A",
".X c #A69867",
"XX c #B79D63",
"oX c #A58F72",
"OX c #AAA668",
"+X c #B7A867",
"@X c #B5B467",
"#X c #A8A474",
"$X c #B3A975",
"%X c #BAB475",
"&X c #A7B47F",
"*X c #94A55F",
"=X c #C7944D",
"-X c #CAA858",
";X c #D4A757",
":X c #C9916B",
">X c #EB8164",
",X c #C6A769",
"<X c #C7B568",
"1X c #C2A775",
"2X c #C6B878",
"3X c #D7B56F",
"4X c #BCC168",
"5X c #CBC674",
"6X c #767A8B",
"7X c #5A7A81",
"8X c #807B82",
"9X c #769190",
"0X c #8B9493",
"qX c #A79789",
"wX c #99AD89",
"eX c #B6A587",
"rX c #A6B194",
"tX c #8A92A9",
"yX c #ACB3AD",
"uX c #8BACB4",
"iX c #C5B987",
"pX c #CCB794",
"aX c #E5BE8A",
"sX c #C6B9AD",
"dX c #AAC1B2",
"fX c #C9C487",
"gX c #D7C88C",
"hX c #D8CB95",
"jX c #DAD69A",
"kX c #D1CE8C",
"lX c #E5D59A",
"zX c #E4D38E",
"xX c #DBD7A7",
"cX c #D1CCB4",
"vX c #E3DAA6",
"bX c #E3D6B6",
"nX c #DFE0A2",
"mX c #EBE6AC",
"MX c #E5E19C",
"NX c #A4B3C7",
"BX c #B5C4C2",
"VX c #CACCD3",
"CX c #D2D3D2",
"ZX c #EBE9CD",
"AX c #CBD3E2",
"SX c #E8E9EA",
"DX c #FEFEFE",
"FX c #F5F7F8",
"GX c #F1EFEA",
/* pixels */
"@ o @ # @ #     o % # @ @   o     o   o & * * @ o @ @ o - o @ @ @ @ o       .               ",
"@ o $ $ # & - - o @ @ O @ o o + o & & : * % : : & @ o @ & @ @ o @ o   -       .   @     -   ",
"o @ % = & # # - @ @ = & @ & @ & & & & k r.tXr.x 0 : % @ @ % % & - - -     . .   o       @   ",
"@ @ % * = @ @ @ @ @ & % & & 1 u 0 @ & yXDXGXbX:Xb @ * % : # & % - @   .     .   o o   o @   ",
"- @ % * = % @ @ o o & & = t x k l t 6 b eXaX-XG & 1 = + * q & & 6 + .           o -   - @ - ",
"@ o $ = * % @ o o & o 6 t l r.NXr.b x * o q.M   0 1 & q.c.r 0 6 & &   .             - -   - ",
": * * & % : = # # o 6 u k O.SXDXAX+.m m 7   = 1 %   O.sXCXtX. q q & & . .   . .   - - -     ",
"* : 1 * = % = & o & u x 7XtXDXDXDXNX6X%.f 0 1 = O.6XqXoXSXVXi.@.q 0 X X   .   + @ - o @ @ @ ",
"* * * 1 = % % - & : & tXDXDXDXDXDXDXDX6X0 t w $ qXcXeXyXeXcXeXyX:.; 1 o @   - @ @ - @ @ # @ ",
"= * * * * * - o ; 0 6 <.GXDXDXDXDXDXCX%.e 0 d & 5 (.M.L.(.eXv.N.k : = 1   $ - @ @ @ @ - @ - ",
"* * : * % $   = = 0 t = i.FXDXDXDXSXt.u 0 * q e . >.,XoX'.J.9.; # & . 0 % @ % @ # @ $ @ # - ",
"1 2 : : =   @ o m &.0 q , %.cXGXVX%.f w 7 8X&.r q @ y (.(.R * , : o i.r q @ $ % @ @ $ % @ o ",
"1 1 , , @ + % u +X}.d e 2 * 9.&X0Xt t 6 t.GXrXb f * % P.(.Y 2 4 - ;.dX=.% * @ % % @ @ o o   ",
"* e q =   * # -.yXiX6.0 2 O F.dXr.q e k VXDXFXtXx 0 @ 7.`.U * % q yXF.F.x e * $ % - @ o     ",
"= 1 e % + % 7 9XrX5X_.p e # z 0Xq 1 : 6XDXDXDXSX-.t X f v.= , o <.D.w.|.e.e q @ @   o o @ @ ",
"* 1 d - = @ $.NXyXfX*XB 2 w $ D # y & yXDXFXDXDX6Xe * @ q + 2 . q.rXw.[ [ d 2 $ @ o @ $ = & ",
"* 0 q   * % f yX9XNXF.s s i $ o , e # i.FXFXDXSX-.g 2   - ; 2 @ 0 e.0X|.L = 1 % @ % @ $ @ @ ",
"4 0 = X 4 & + i.9Xu.S.9 d j 2 # 2 q , f BXFXDXAX+.x d % o 0 , 4 j 9.!.].K 2 2 1 @ % @ @ o @ ",
"* 1 o % % j u.4.4.u.G.u.I g w @ 2 , Z 3.wXCXDXZXiX1.h :   1 1 v.'.-XJ.( | K.n e @ @ @ @ o @ ",
"1 1 @ 0 * y.y.$.-.7X4.u.4.v u * 1 , $.0.E.wXAXeX3X).n e * % F 9.W.;XL.8.T ( ( 3 % @ % @ @ @ ",
"1 % % * t u.-.4.4.$.4.G.4.v d 3 : a &X&XQ.D.6XoX;X~.F y 4 $ F 7.x.;XL.g.P.) ( d : @ % % %   ",
"* $ * # :.9X$.S.8.G.S.S.y.A g e = ) fX*X8.5.|.,X-XL.Q q 4 O K d.! } Z.{ ` ) ) j q & y = % @ ",
": * : * 5.wX5.S.G.5.5.4.y.*.d 3 : Y }.}.S 2.z.'.=X-X} y 1 $ E s.[ Q / / Z.' Z.U e % y * % @ ",
"t * 1 * Y S.5.3._ C $.$.5.0.3 d $ I 8.3.V z Y.'.'.-XK e 4   ^ ` ! X.Q | ' X...U h % e : = o ",
"y * * * 0 *.$.V z C Z $.A 5 0 e , # S $.c v.-XL.3XM.2 2 ; @ > ' | ! ! T B ] H g n % q * $ @ ",
"e % : :   , #.9 z C 9 V w : y e 4 . s V x ,X(.h.;XN O , ; % . j 8.[ T Q ( Y.d 1 q % 4 * @   ",
"e % : * 1 +.k O.l r 9 V $.v n 3 % s S z *.2XL.X.} (.j 3 ; @ R J.] T.{ [ 6.( 9.m 0 % * % % @ ",
"e * * 1 #.#.O.V.m.m.>.z z b g 3 % S V V =.3X..o.z.-XX.4 % O a.J.s.f.] T Y 3.( >.f 2 * * * = ",
"e * 0 e #.%.V.C.C.C.m.x k b y 3 % V #.9 8 W.h.p.'.).} 2 ; ; s.s.f.s.{ ( T Y [ >.m e e : * % ",
"q $ q q z n.C.V.B.p.p.M k r 3 y ; z z 8 I '.j.d.x.,Xp.4 : ; d.a./ ] ` Y Y I 6.T n q y : * * ",
"1 @ 0 , I V.>XB.^ W W W U r y q % s z 7 7.U.M.d.h.(.s.; * % E ] J _ F Y Y a T 1.n e g 1 % $ ",
"= @ e , 1.V.:X~ M ~ M N &.v y y % w 9 8 e ^.J.j.a.f.G ; ; O ` X.` T R R ] a p I m y m 1 % @ ",
"= @ e 1 %.:X:Xk.^ l.b.k. X<.3 3 * 6 6 r 6 ).g.d.f.f.R ; ; O ! W E } G T X.K m m n e m 1 % % ",
"* @ t * >. Xq.t M b.b. X X,.y 2 % v k 7 6 n } ~ f.g.G 4 % O U t u G E e h d 7 b n e n q $ % ",
": = t = 1.c.&.f k.n.k.N.<.,.y 2 # ,.&.z b k z L b ,.j 4 # O Z %.@.%.1.%.@.A O.b h q d 1 % $ ",
"* = u & >.W.7.s.l.9.l.N.b.k.3 2 @ ,.c.#.z #.Z S S *.a 4 # O 2.4.4.-.-.4.-.-.4.P d q u * @ % ",
"* = e $ 7.<XXX,XT.R.2X$X1X X2 2 # N.$XoX|.oX#X}.OX$Xe.# ; O =.|.|.D.D.F.E.S.D.=.y q q $ @ @ ",
"# % e * 7.,X:XgX/.W.,XXX,X%X3 : @  XhX3XgXvXlXvXgXlXoX# % O OX2X@X%X%XOX#X|.|.&.y 0 2 % @ % ",
"% @ t 0 7.3X3X$X`.J.f.f.W.'.2 1 @ ~.,X).'.[._.'.'.<Xz.o # % +X[.[.R.J.9.*.T *.Z y : e 1 : * ",
"q % e 6 ! (.J.o...} { l.T.z.2 2 @ f./.M.x.s...x.~.{.l.O # # ~._.).R.R.R. ._ | F e : e q 0 4 ",
"% % e 6 ! (.R.X.F K ..H.K.` 2 4 o } g.s.} f.~.)._.'.7.# # O x.T.f.x.~.g.Y.Y.9.H q 1 e q 0 : ",
"0 * e * G [.].J.J...Z.' <X{ , 2 @ _.<X+XXXXX<X`.'.XXz.# % O x.x.T.(.'.[ I { 6.L e 0 t e 1 1 ",
"e * e = [ x.Y./  .{ ` H.<X..2 2 @ X.5XzXzXzXgXhXlXMXoXO % ; iXlXgXpXhXiX}. X.XU e q d q 0 0 ",
"t 2 w & 7./.f.{ B 5 H | / ..i 4 - J T.Y.z.W.Y.Y.Q..X9.; % ; +XkXlXvXjXjXMXlXmX0.e q q 1 1 * ",
"q 1 0 & ! ..x.[.K J J K z.[ 3 2 & 8.A.8.[ 8.9.E.Y.z.Q 2 % % Y.Q.@XhXxXxXvXjXzX{ e e 0 : @ @ ",
"* @ 0 &  .K.H.5X].( 9._./.H g e % A.kXmXxXvXxXxXiX2XN.: : 1 &XhXjXxXxXZXxXeXXX! e e 2 *   @ ",
"0 @ q @ ' K.J.J./.9.Y.K.].' h u ; $XnXxX%X%X%XiX2X2Xz.q : 2  .OXxXxXkXkX_.XX%X0.q e , = @ - ",
"@ @ 0 = [ R.J.H./.T.).<X{.A.L d 0 ].@XfXeXkXiX2X@XfXb.2 2 : o.#XZXxX%X_.%X%X5X>.q e * % $ @ ",
"% % 0 = / H./ ..H.6.x.].{.R.I g 0 T.+X.XXX%X+X%X2X1Xb.2 1 , ` iXZXmXjX2XOXY.+X{ e q : * @ o ",
"= * q = >.| Y...Y v 7.Y.K.9.L v q g.(.T.z.W.XX`.XX$Xv.2 1 o  .iXcXbXxXjXOX{ R.T u e q 0 = @ ",
"= $ q & 8.8.9.Y D a Z.I...Y m h q h.a.}  .H.T.<XOXW.} 2 , O Y.R.4XjXkXkXOX/ T.U u e q : + o ",
"% & e & 3.S.Y a 3 B S.A.H i m v q a.M.L.' a.Y.].@X].{ : , @ ' I.Y.!.].@XOXQ.R.T u q 2 = o @ ",
"= % e 6 =.3.Y B $ w C Z 7 , P v w E d.^ G J ( ..A.Q.6.% * O ].4X@X%XOX].4X5X]./ u e u : $ = ",
"X - q 6 Z S j s , @ s , + * L v e s F G J J / ) _ 3.J ; # # Y.Y.I.].Y.| E..XR.6.x e g e 1 * ",
"u % e * A Z e 0 , . $ = = 0 v x t 7 t J H H S C C c a : % @ B / / | / J J ` x.T x e u e 1 * ",
"%.1 w * %.a s = = + o @ = , f e e , s J J B C B Z i t 2 % % a H _ Y T  .} j.^.7.g t y q 1 * ",
"t * e 6 A s w 7 , + + + + $ p p d * i ` / s D B q , * 0 * % s a a B L  .j.M.^.s.x u y e 0 : ",
"q * r 6 l s 7 = = + + + + + f c p = j Y H B S _ B s w 2 * = Y B 7 < a Y x.x.s.,.b u u 1 % & ",
"0 * e 0 l $ , @ $ , , $   @ f v t * q Z B ) ) ) _ $.*., % % Y *.B D a A b T x.7.m u u = @ @ ",
"t * t 0 Z , = = , $ + 7 @ @ e a t $ = 7 V G.A.( _ _ F 0 4 * *.2.$.C S A a ~ =X,.P d u : = % ",
"* = t q l @ $ , $   . @ , q t t t * = 1 z T H T F B j w , % 2.Y A s 7 t t >.,.6.%.u d : = % ",
"% % q l %.%.#.:.%.%.#.%.#.m x t t A ;.0.0.0.0.w.i.0.=.3 * 1 %.:.-.;.0.0.0.0.0.<.U t h : * % ",
"& * e x b #.A b b b v x x f e p p t r t l t e e 0 4 $ @ * , * * % @ @ @ O # % * q e v 0 * % ",
"@ * f l d t u p e p p q t t f p i e q 1 1 1 * # @ o @ @ % % % % @ @ @ +   o @ % : 0 0 : * @ "
};
