/* XPM */
static char *new_3[] = {
/* columns rows colors chars-per-pixel */
"64 64 239 2 ",
"   c #050303",
".  c #0A0606",
"X  c #0D0807",
"o  c #080708",
"O  c #0D0A0A",
"+  c #070708",
"@  c #120D0C",
"#  c #1B0E08",
"$  c #160A06",
"%  c #15100E",
"&  c #1B120D",
"*  c #1A1708",
"=  c #151312",
"-  c #1B1613",
";  c #1D1916",
":  c #1D1B1A",
">  c #161819",
",  c #0F0F10",
"<  c #23140D",
"1  c #2A190E",
"2  c #231A15",
"3  c #2B1B13",
"4  c #221D1B",
"5  c #251A14",
"6  c #331D12",
"7  c #351A0E",
"8  c #25211E",
"9  c #2B221C",
"0  c #2C2818",
"q  c #352116",
"w  c #33241B",
"e  c #3B2619",
"r  c #3D2A1D",
"t  c #392517",
"y  c #353312",
"u  c #1D1F20",
"i  c #1E2223",
"p  c #252322",
"a  c #2A2522",
"s  c #2C2926",
"d  c #2C2B2A",
"f  c #24292A",
"g  c #342A23",
"h  c #322E2A",
"j  c #372A22",
"k  c #34312D",
"l  c #3C332B",
"z  c #3D3628",
"x  c #2D3335",
"c  c #353432",
"v  c #393632",
"b  c #3C3935",
"n  c #3D3D3B",
"m  c #32393A",
"M  c #2F302F",
"N  c #432B1D",
"B  c #4B2D1C",
"V  c #442616",
"C  c #502E1B",
"Z  c #432E21",
"A  c #443124",
"S  c #4C3324",
"D  c #42352B",
"F  c #4D392C",
"G  c #48382A",
"H  c #543B2B",
"J  c #593D2B",
"K  c #533726",
"L  c #443B33",
"P  c #4A3D34",
"I  c #423F3B",
"U  c #443B34",
"Y  c #533E31",
"T  c #3E403F",
"R  c #4A491C",
"E  c #57581A",
"W  c #43440F",
"Q  c #5F601A",
"!  c #68691B",
"~  c #5C412F",
"^  c #575627",
"/  c #44413E",
"(  c #4D433B",
")  c #464233",
"_  c #5C4333",
"`  c #51463C",
"'  c #564539",
"]  c #5A5834",
"[  c #4C4822",
"{  c #614633",
"}  c #634936",
"|  c #644B3A",
" . c #694C38",
".. c #6A523E",
"X. c #6C4D38",
"o. c #696926",
"O. c #787828",
"+. c #686539",
"@. c #757435",
"#. c #363F40",
"$. c #3D4243",
"%. c #3A4749",
"&. c #3F4D50",
"*. c #464543",
"=. c #494742",
"-. c #4B4944",
";. c #4B4D4A",
":. c #434B4C",
">. c #56544D",
",. c #485557",
"<. c #5D5B55",
"1. c #5C5D5A",
"2. c #545856",
"3. c #4A4D4A",
"4. c #6B5442",
"5. c #6B5545",
"6. c #775B46",
"7. c #615E59",
"8. c #5C615E",
"9. c #63625D",
"0. c #6B6A5C",
"q. c #76704D",
"w. c #4D5E61",
"e. c #5B6A6C",
"r. c #566567",
"t. c #5A6E72",
"y. c #576D70",
"u. c #646662",
"i. c #696B66",
"p. c #6D736C",
"a. c #757567",
"s. c #6E7573",
"d. c #667779",
"f. c #7B7E7A",
"g. c #767A76",
"h. c #626F70",
"j. c #8E6C53",
"k. c #987A63",
"l. c #817F78",
"z. c #7F8030",
"x. c #7D807D",
"c. c #84852E",
"v. c #888936",
"b. c #93943A",
"n. c #999B3E",
"m. c #8F9035",
"M. c #989944",
"N. c #90904D",
"B. c #9FA045",
"V. c #9DA053",
"C. c #A4A648",
"Z. c #A8AA54",
"A. c #B1B35A",
"S. c #898A73",
"D. c #B38F73",
"F. c #B4B766",
"G. c #B2B472",
"H. c #BFC17D",
"J. c #C6C974",
"K. c #657E82",
"L. c #6C8488",
"P. c #768789",
"I. c #788E91",
"U. c #79959A",
"Y. c #7C9DA3",
"T. c #7CA4AD",
"R. c #8C938C",
"E. c #939388",
"W. c #8A9898",
"Q. c #929997",
"!. c #828A88",
"~. c #9DA295",
"^. c #BBBE82",
"/. c #849EA3",
"(. c #88A5AA",
"). c #98A8A8",
"_. c #85ADB5",
"`. c #8DB3BA",
"'. c #97B5B9",
"]. c #95AEB1",
"[. c #A8B6B4",
"{. c #ACB4B1",
"}. c #BE9D82",
"|. c #C3A186",
" X c #C6C986",
".X c #CACD98",
"XX c #D6D999",
"oX c #D2D688",
"OX c #D9DDA7",
"+X c #D6DBB8",
"@X c #CBCFB0",
"#X c #DEE1BA",
"$X c #DEE1AE",
"%X c #E3E6B9",
"&X c #DCE09E",
"*X c #99BDC3",
"=X c #8CB8C2",
"-X c #A4BEC1",
";X c #9BC4CB",
":X c #9DCBD4",
">X c #A6C6CA",
",X c #B1CACB",
"<X c #A3CDD5",
"1X c #AACDD3",
"2X c #A6D1D9",
"3X c #ACD4DC",
"4X c #A6D3DA",
"5X c #B2D6DD",
"6X c #B4D8DF",
"7X c #BAD5D7",
"8X c #B5DAE1",
"9X c #BBDDE3",
"0X c #ABDAE1",
"qX c #B9E1E8",
"wX c #BBEAF1",
"eX c #C9D9D7",
"rX c #D3DAD4",
"tX c #D5DCC6",
"yX c #DAE4DB",
"uX c #DBE1C6",
"iX c #E4E7C4",
"pX c #E4EAD9",
"aX c #C0DFE2",
"sX c #C4E2E5",
"dX c #CAE4E5",
"fX c #CBE6E9",
"gX c #D3EAEA",
"hX c #DCEEEC",
"jX c #D6E7E4",
"kX c #DEF0EE",
"lX c #CEF3F7",
"zX c #E1EFEC",
"xX c #E6EEE7",
"cX c #E2F1ED",
"vX c #EAF2ED",
"bX c #E8F0E4",
"nX c #E4F3F0",
"mX c #EEF6F1",
"MX c #F0F8F3",
/* pixels */
"N J J { _ 6 6 # e e 6 K S J  .1 6 1 < A N N ~ K { w 3 e # e 6 r ~ ~ X.6 7 6 1 N 1 Z { ~  .6 6 < Z 3 Z r { H | j 6 S < N q Z ..X.",
"V S {  .K A N N N _ r B Y  .X.C S e N J Y N H  .{ H w Z _ K K A J X.~ S N ~ N J K S K X.{ Z S K K Y } Z Y 4.{ Y j H } S _ G _ X.",
"J 6.D.k.{ J K r r J J 6.}.k.6.K Z S 6 _ J X.k.|.j. .S H _ N ..~ j.|.j. .{ _ S A 5...k.|.j.{ { { Z 4.| | k.}.j.| } J  .S  .{ k.}.",
"K ..D.k.} S e _ G e K ..D.D...B N _ _ Z S X.k.}.j. .J Z H Z H } j.D.j.{ S S | N J X.k.D.j.{ Z K S Z J 4.D.D.j.| ~ D 4.G _ 4.D.D.",
"q w G r w 6 < r w q 3 3 V j 5 6 q w j q 6 w j A j w e 1 q q N 9 9 A w 3 3 1 w q S 3 j A j w 3 6 3 6 S 3 j A w w e 3 j w N w A G ",
"9 j g a 9 ; & @ @ = & - & < & - # @ @ & 5 4 3 4 4 2 - @ @ @ & - - < ; & & @ @ @ 2 < 2 2 3 4 - @ $ @ - ; < - = < & $ X $ & - 5 2 ",
"r r r r e 3 - < 3 w r N Z r r 3 < < < 5 e r Z Z N e 3 < < 5 q j A N N r 3 5 5 < 6 j j Z Z j 6 < 5 3 q N Z Z r t 1 < < & 3 r Z A ",
"*.U I L s < 2 & & g =.L b L l 4 - 4 p 2 U / b U b a - - - & I ( v v b l 5 - 2 a 4 l -.T U v 5 - 2 @ a -.U v l k ; = 4 : 8 l / v ",
"5X9X>X;.2 - @ - & 8 (.9X8XW.f : 2 O 4 s #.>X8X5Xe.4 - @ = = T >X9X5Xf.p ; 4 O @ d *.*XqX-XT 2 = % % : /.8X4XI.a ; 4 O @ : r.<X1X",
"h.<XP.a = $ X X % % n >X*X*.u -   +   - s 1.3X].h = # @ # < = r.3X].c : 2 .     . h 2.*XK.p @ O . @ @ c *X'.#.4 :       ; p P.2X",
"s c s - @ - ; @ % = ; c M a - o #.,.#.O - s c n ; @ - - 4 4 = 4 c d 8 ; . #.2.*.@ $ s v s - = - ; a - = a f 4 : o $.,.m X ; p m ",
"u s 4 4 4 4 ; 4 8 ; ; 9 p 4 o h.!.K.P.r.@ 4 v s ; 4 a 4 p 4 4 4 p 8 8 o h.W.P.I.d.$ = h 8 - 5 p 4 a 8 ; 4 4 4 O u.W.P.P.2.o 8 ; ",
"; c v : p a h U j 4 4 h a = s d.2.].u.s.v = h h 4 a h b v h p u h s = a g.2.[.p.P.I & s k 4 p a v c 4 4 h a = a g.2.).u.d.s & s ",
"4 a I v p 4 j h 4 s h h ; p ; d.W.1.).Q.9 p 8 v h p = 4 2 - a k k ; p = P.Q.7.Q.E.a s 4 v k 4 - ; : p b h : 4 > P.W.1.).P.5 4 4 ",
"p 4 s b h >.a c 2.h v : , a I ).].g.).Q.u.g 4 8 v s ;.s v ;.h c : = 4 ;.W.).s.).Q.>.j 5 8 k s I h >.I v p = 4 ,.W.).i.).R./ 9 O ",
"k 4 ; h p d 1.s.h s s O - p h 2.g.!.g.g.U k 8 = s a a u.s.c d a @ > 8 k p.p.!.g.p.P U 4 = h p p 8.;.p s @ = 8 c u.g.f.p.9.h s @ ",
"h 4 ; 4 k @ = > % l > % ; p l r.Q.{.R.Q.( h 4 - 4 h @ , = = v - = = 8 k K.Q.).!.!.U k 8 ; 8 s , O o s 4 , = p n p.R.).!.P.g a = ",
"s c #.% s p @ . 8 k X f p s b / 8.2.r.;./ h c n @ a 9 @ . a d O d 4 d b U u.7.7.=.( s M c @ s 2 + % h , a : a / *.1.2.2.-.h s k ",
"d : O + - s % @ h :   + % a p : I r.<.a p d > o X ; g = @ h > . o = p p 4 I h.;.8 s d > O o 4 8 @ 4 p   + % p a 8 n 8.3.: p 4   ",
"f &.%.m X a = % k o i &.&.x : > a *.4 - p x %.,.f . s - = g . f w.w.c 4 = d *.: ; p m :.w.f @ p @ s = = &.&.m u = p m ; 4 u $.&.",
",.`.;Xt.. 2 > - d   w.:X0Xr.@ v b n d c O L.0X4Xw.  2 : : a   w.0XwXK.$ k b #.M c = Y.0X3X&.+ 8 , s   #.:X0XL.= a n M s : f _.=X",
"^ s._.Y.u $ 4 4 > + U.`.`.`.c b p 8 8 u m >X(.=XY., @ 4 a > o /.*X*X>Xc c p ; a 8 #.<X/.*XK.  - 4 4   e.;X_.`.m k 4 - - = y._.L.",
"o.] d.0Xr.. a h O m 2X(.U.lXI.= : : s O U.fXL.`.0X%.X a h o #.9X_.W.lXQ.@ 4 : a = (.8Xt.<X<Xi @ k - O `.;XL.qXI.- 8 : d f *X/.,.",
"i +.d d.,.. 4 g + x I.;X<X`.r.- - : ; = e.'.3X<XL.m . 4 h   #./.5X8X'.h.; = ; : = e.=X3X-XK.i O a = = K.;X1X_.r.> > : > f d.T.Y.",
"o >.d c e.n & ; > P.U.4X3X'.I.K.; n = w.P.>X9X8XY.I.#.= ; f I./.8XsX>XI.L.; b @ r.K.-X8X5XK.K.= ; O w.L.<X8X*XL.r.: d p I.K.T.T.",
"  ` y f ,.:.% = p e.L.4X3X1Xr.t.> d 4 r.e.>X8X8X].w.,.X = #.h./.sXsX7Xe.r.= s : w.y.3X8X9XK.y.: ; , r.t.<X8X<Xr.,.= a f e.r.L.w.",
"  ,.<.r.t.% X , + &.;X:X2XsX[.n + O O : /.8X5X5X8XK., . @ O r.aXfXsXsX1X*.  , O i (.8X5X9X*X#.O @ O > (.3X3X3X_.p . = + &.T.T.%.",
"  2.p.x.;Xw.= c u T.:X:X2XaXlX>Xf *.: d.9X8X8X8X8X3X,.; d #.7XlXsXsX9XsX*Xp *.: K.8X5X5X8X8X(.> k > d.8X3X2X2X4XK.p n x `.=XT.r.",
"  8.~.[.4XU.8 p.m ;X;X:X4X8XsXsX:.<.c /.9X8X8X8X3X3Xt.c <.t.fX9X8X8X8X3X3X#.u.M (.8X3X3X5X0X*XM 9.M (.3X4X2X<X:XL.M 2.&.=XT.T.y.",
"  >.S.-X4XI., 0 x =X<X2X2X2X9XaX$.; - U.8X0X5X8X3X<Xr.= u r.9X8X8X5X8X3X>Xx : > /.8X3X5X3X0X*Xi p > Y.3X2X2X<X<Xt.= : w.=XT.T.w.",
"  8.R.1X6XL.* T x ;X:X<X<X4X2X8X:.s i I.8X8X8X8X8X3Xr.p k e.9X9X8X8X8X8X1Xm h : /.8X5X5X5X3X*Xf M : /.3X2X2X:X:Xy.u f y.=X=XT.y.",
"  g.].6X9XP.> x.%.<X<X:X<X:X:X<X:.>.*.U.sXsXsXsXdXsXe.#.i.h.9XaXaX9X9X9X7Xm 8.c (.9X8X8X8X8X-Xf i.c /.0X3X2X2X4Xr.m 2.K.=XT.T.r.",
". l.,X9X9XP.4 K.*.3X3X1X3X2X:X:X:.2.=.W.gXgXfXdXfXfXh.T u.d.gXgXgXjXgXgXsXn 1.v (.sXaXaX9X9X-Xf i.c (.8X8X3X3X2Xy.b 9.K.-X*X=Xw.",
". K.,X9XsXP.5 f.:.1XqX6X7X5X3X4X:.>.=.(.kXgXfXsXfXgXh.I u.s.kXhXzXhXkXhXjXn 1.n (.sXfXgXgXfX,Xf i.c ].9X8X8X5X8Xe.#.9.K.1X-X*Xh.",
"+ g.>X9X8XP.; S.3.7XqXsXdXsXaXaX,.>.=.Q.gXfXdXdXfXfXs.n u.s.nXzXzXzXkXhXjXT 1.b ].gXgXhXhXkXeXp i.k [.fXdXsXaX9Xh.n <.K.5X7X,Xs.",
"+ f.7XdXfXW.: f.;.sXjXfXgXgXgXdX2.>.=./.gXfXfXfXgXgXh.I u.g.nXhXcXzXhXkXjX#.7.n [.hXhXhXhXcXeXp i.v -XkXhXhXgXgXs.n <.K.aX7X,Xs.",
"+ f.eXhXkXQ.: x.;.jXhXgXgXgXgXgXw.2.*./.hXgXgXhXgXhXs.n u.g.nXzXcXzXzXkXjXT 9.U [.hXhXzXkXzXeXs i.v {.vXnXcXzXkXg.I 7.I.sX7X-Xs.",
"+ g.eXzXcXR.; x.;.dXhXhXgXgXgXgX2.>.=.).kXhXkXhXhXhXs.n u.g.nXcXcXcXzXzXjXT 7.#.[.nXzXzXzXzXeXf i.v -XvXcXcXzXnXg.I 1.!.sXeX,Xs.",
". g.@XyXzXQ.; f.;.dXhXhXgXgXgXgX2.>.=.).kXhXhXhXhXkXs.I 0.d.cXcXcXzXzXkXjXT 7.n [.nXcXzXzXkXeXs i.c {.vXcXzXhXkXK.I <.I.aX7X,Xs.",
". g.@XOX#XE.; f.-.yXxXyXjXgXdXjX2.>.-.Q.hXhXzXhXhXhXs.n u.s.nXcXzXgXgXhXjX#.7.I [.nXcXcXzXkXeXs i.D -XmXcXhXgXhXg.I 7.I.eX7X,Xs.",
". a.G.G. XS.; g.-.tXiX#XyXjXdXdX2.;.-.E.+X+XuXgXhXjXs.b 9.g.kXkXhXgXgXgXjX#.7.n {.nXcXcXzXhXeXd i.b [.cXgXgXjXgXs.T <.I.aX7X-Xs.",
"o a.N.v.M.q.= S.-.+XuX#XuXyXdXaX2.;./ j.F.Z.F.OX.XXX0./ 9.i.jXgXgXgXgXgXjXn 7.n [.hXhXzXhXnXrXd 0.b [.kXgXsXsXfXs.I <.W.jXeX-Xs.",
"O a.v.z.O.o.; f.3.tXuX$XOXtXeX7X,.;.=.q.C.B.b.V.C.C.| I 9.] .XyXzXhXhXhXjXn 1.b [.gXgXgXhXnXrXf u.v [.kXhXgXfXgXg.U 7.R.xXrXrXl.",
"+ a.@.o.c.^ 2 g.*.+X#X&XOXOXyXeX2.;.*.@.C.n.b.m.n.B.^ #.<.^ Z. X+XrXhXgXdXn 7.U ).jXhXzXnXmXrXM 9.v [.cXcXcXcXcXK.U 7.R.xXyXrXl.",
"  a.o.E o.^ > g.) .X&XXXOX$XyXyX1.-./ @.C.C.B.n.n.n.E I 9.[ C.Z.A. XyXgXjX#.7.v E..X@XbXvXbX@Xf 0.c {.mXvXxXvXvXx.n 1.S.xXrXrXl.",
"o a.o.E o.R ; g.)  XoXoX&X%X$XOX] 3.*.@.n.b.b.m.b.n.E n 9.[ M.C.B.G.pXvXxX*.7.v @.B.F.pXuXG.M.0 u.v {.mXvXvXvXvXx.b <.q.tXrXrXl.",
"o i.o.E O.^ ; g.)  XoXXX&X%XoXJ.] 3./ q.c.m.n.m.m.v.R T 1.R n.M.v.G.pXmXxX*.<.k O.c.Z.+XG.O.! 5 u.k {.MXvXvXvXvXx.b <.] |.rXrXl.",
"O 0.o.O.O.^ - a.) .XXX&X$XiXXXJ.] *./ a.M.z.v.z.z.m.R b 7.[ n.m.m.F.pXMXxX*.>.v @.c.M.A.v.! ! 5 7.c @XMXvXvXvXvXP.v <.^ H.rXrXg.",
"o 0.o.o.o.R : s.)  XiXiXiX$XXXJ.^ *.$.a.n.z.z.c.O.z.R b <.R C.M.n.A.%XMXvX*.>.l ! c.! z.O.! ! < 7.v {.MXvXvXvXvXl.U 7.^ ^.tX{.q.",
". <.o.W E y ; ( h G.%X%XOX XZ.V.z h s +.n.z.O.O.O.o.y p v y b.M.n.C.+XMXyXn b a E z.! Q Q Q Q ; ( p {.MXvXvXvXvXu.p b A N.N.N.K ",
"  k R W y ; = = a a.%X+XJ.V.v.' ; & u z v.m.c.E ! ^ ; = = k @.C.b.C. XbX!.; = 4 W ! ! ! E W 0 2 - p i.xXvXvXvX{.4 - - h @.o.Q 0 ",
"= p [ y 9 8 8 4 T ( V.oX.XV.+.8 : ; k *.^ O.O.o.^ 0 : 2 u *.) v.b.b.A.S.h 4 : s $.W W y y 1 4 4 2 v =.~.vXvXrX*.4 4 p / z o.E 1 ",
"= 4 g 0 & = % = : a +.A.H.F.] = % % % 8 0 o.O.o.R % @ @ @ 4 a +.b.b.b.^ % % @ = u ; y * # @ & = % - p i.vXmX{.: & = = 4 8 R y 2 ",
"X @ A A & @ X X X a N.A.F.F.q.; $ X . % [ v.c.v.o.0 X X . @ s M.n.n.m.@.2 @ X O % ; * X X O @ $ O @ p {.MXmXvX7.X O . @ 0 @.y @ ",
": h A G g 4 % = 9 D q.q.q.q.+.g ; % 2 h ` 5...+.] l 4 % - 9 L 5.+.+...^ g ; @ ; a z 0 8 p 4 4 - = p U f.E.R.E.9.4 = = p z ] G 3 ",
"w g g w 0 2 - < 9 w g w w j g 0 & ; ; w 0 g g g j 9 5 - = 9 w g z g g r 9 2 - 2 0 s r j j w 5 < & 5 w w w w w 9 9 < 2 3 a w w 9 ",
"Y Y =.P P U L U -.` ` ` -.` ( ( U I ` P ` P Y ( P U P U L -.=.( ` ` ( ( ( I ( ( ` ` ` ` ( P U U U ( ( ( =.` ` U ( U L ( ` ( ( ( ",
"D D D A D D A D ) G D D D D D D D D U P G L D D D D D D L P G A D D D D A D l P U D U D D D A D D Y D D D D D D l l D P A D D D ",
"v D l l l l D P D z l l D h l l j L L l l D D v l D l U Y L l D l D l D D l G D k D D l U D D U D D U U D l l D l A G l D D h A ",
"$ & < # & < # D j $ # < 1 # < & $ 3 Y 3 $ # < # < < # < Y 3 $ < < < & 1 # # F w $ < < # # & X 3 Y & $ < < # < 5 $ < Y 3 # 3 < # ",
"e Z J Y Z < 1 A Z 1 N Z H F K K < 3 ' 6 w w K F J A 3 < A 6 6 Z S Y J S q < B q 3 V K _ H Y < 3 Y 6 w S K Y { Y 7 1 F 7 r J ~ Y ",
"6.4. . .} | j Z Z { j.4.4.4.| 6._ w G F j.6.J 4.5.4.6.6 l S 6.5.| 5.6.| j.7 A S 6.4.4.5.5.6.} w Z F 5.4.4.5.4.6.6.Z A Z q.4.X.4.",
"{ { J J J J 3 F { Z H J H K K 4.D 6 4.A A Y K H H | Y 3 ` A Z J H Z K { _ w ' S K Y _ H J 5.Z r ' 6 Y | H F K 4.H 6 4.j K J { K ",
"V V B V 7 Z 6 J X.Z S V V 3 C A B 6 4.A Z V B V C B B 6 ' K V K S 7 V B C 6 ' K Z B V 7 C K B e 4.Z S 6 7 7 B B Z 6  .S C K J C "
};
