/* XPM */
static char *plafond[] = {
/* columns rows colors chars-per-pixel */
"64 36 136 2 ",
"   c #060608",
".  c #080709",
"X  c #07090C",
"o  c #0A0B0D",
"O  c #0D0E11",
"+  c #0E1115",
"@  c #111215",
"#  c #14161A",
"$  c #16191E",
"%  c #191A1E",
"&  c #171C22",
"*  c #1B1E23",
"=  c #1D2126",
"-  c #1E2229",
";  c #212225",
":  c #23252B",
">  c #26282D",
",  c #2A2A2D",
"<  c #252B33",
"1  c #2B2E34",
"2  c #2A2F38",
"3  c #2E3035",
"4  c #2C323C",
"5  c #313236",
"6  c #33353C",
"7  c #36383E",
"8  c #39393E",
"9  c #2F3640",
"0  c #313740",
"q  c #353B43",
"w  c #3B3D44",
"e  c #363E48",
"r  c #3A3F48",
"t  c #3E4046",
"y  c #3D424B",
"u  c #3E4650",
"i  c #3F4853",
"p  c #414246",
"a  c #42454D",
"s  c #46484E",
"d  c #48494F",
"f  c #424751",
"g  c #454A54",
"h  c #4A4D54",
"j  c #464D58",
"k  c #4A4E59",
"l  c #4E5157",
"z  c #4C525C",
"x  c #515257",
"c  c #52545C",
"v  c #56585E",
"b  c #5A5B5E",
"n  c #4E5561",
"m  c #4F5964",
"M  c #525761",
"N  c #545964",
"B  c #5A5D64",
"V  c #565E69",
"C  c #5A5E69",
"Z  c #5E6067",
"A  c #57616D",
"S  c #5C626D",
"D  c #5D6571",
"F  c #5F6A75",
"G  c #62656C",
"H  c #68676B",
"J  c #65686F",
"K  c #636671",
"L  c #656A74",
"P  c #6A6D75",
"I  c #656D7A",
"U  c #6A6E79",
"Y  c #6F7076",
"T  c #6C717C",
"R  c #707175",
"E  c #72747D",
"W  c #76787E",
"Q  c #78797E",
"!  c #6E7581",
"~  c #6E7985",
"^  c #727682",
"/  c #757A85",
"(  c #7A7C85",
")  c #757C89",
"_  c #7A7E8A",
"`  c #7E8086",
"'  c #76818F",
"]  c #7C818C",
"[  c #768290",
"{  c #7D8592",
"}  c #7F8895",
"|  c #808086",
" . c #82848D",
".. c #85888E",
"X. c #828691",
"o. c #858A94",
"O. c #8A8C95",
"+. c #868D99",
"@. c #8A8E99",
"#. c #8F9096",
"$. c #8D929C",
"%. c #909197",
"&. c #92949D",
"*. c #94989F",
"=. c #99999F",
"-. c #8E96A1",
";. c #9296A1",
":. c #959AA3",
">. c #9A9DA4",
",. c #959EA9",
"<. c #9B9FA9",
"1. c #9DA0A7",
"2. c #9DA2AB",
"3. c #9EA6B1",
"4. c #A1A1A7",
"5. c #A3A5AC",
"6. c #A5A8AE",
"7. c #A9A9AF",
"8. c #A2A6B1",
"9. c #A5AAB2",
"0. c #ABADB4",
"q. c #A7AEB8",
"w. c #ADAFB9",
"e. c #ADB0B6",
"r. c #AEB2B9",
"t. c #B0B1B7",
"y. c #B2B4BB",
"u. c #B5B8BE",
"i. c #B9B9BF",
"p. c #B5B9C1",
"a. c #BABCC3",
"s. c #BFC0C7",
"d. c #BDC2C9",
"f. c #C1C4CA",
"g. c #CECED4",
"h. c #D0D1D6",
/* pixels */
"u j n A A ! F ! [ [ [ } -.} ,.3.1.-.3.3.d.3.3.p.3.q.p.9.6.e.e.e.6.u.6.*.6.d.1.1.d.3.$.q.2.&.3.-.*.} -.} ' ' F L A D m z z i i y ",
"y u u V V F ~ F ~ ! [ } [ ,.-.-.) q.+.p.1.-.p.2.q.2.9.3.e.2.6.2.9.d.e.6.q.e.*.3.r.1.3.} 1.*.} *.$.-.$.} ' E F ' A A m y z u y t ",
"y i m n F ) ~ / } -.} } } 3.-.} 2.:.2.:.3.&.d.1.,.$.2.9.6.*.e.1.9.1.u.1.1.d.9.*.9.9.1.' ,.$.} $.[ } } $.} Z F { D D Z m u n i i ",
"i m n A A F I ' ~ ~ -.-.' -.3.q.q./ p.p.3.2.r.1.u.9.q.p.} 2.u.1.2.*.e.e.*.} d.6.#.&.e.*.} $.' O.*.{ -.} F ` } F i F T F u i A m ",
"A n j I ~ N D -.] ' ! D 1.$.~ ] 2.y.>.>.;.y.f.t.1.d.*.9.*.*.u.-.1.%.e.%.e.6.} #.0.4.]  .$.&.S ] 1.:.$.W A L D D m S A j i i m m ",
"A m I I V m D I I -.E $.$.} 3.$.$.| ;.w.>.>.p.w.2.*.1.d.e.2.+.u.6.1.e...e.1.} 1...5.*.:.2.T $.2.+.[ +.A P ' z h R F m t V F h h ",
"u i m A z V ^ ] $.' I :.:.3.9.p. .N 2.2.>.@.Y w.p.9.W 9.q.9.u.-...u.1.6.e.` Q 1.>.4.1.]  .2.5.$.o.Z } %.$.$.` A L ~ A j y m u 4 ",
"j i m I I A M ' } ] ) N o.2.2.5.E E 5.8.9.w.P / *.-.$.} h P $.$.1.` H e.7.e.u.W ( e.Q E 2.*.>.( B :.%.*.&.E ` } ' ` G h x m z t ",
"g g f S ~ U ) N z ~ T ! T B :.2.<.p.7.Z >.f.y.a.a.G ^ 8.4.8.4.X.x e.9.6.1.H ..#.{ J W *.>.>.^ T O.&.:.<.@.C N I F h z l i z u 7 ",
"r q C I L ! B a F T I I g ] 5.$.>.<.O.G &.O...$.&.Y %.%.<.4.4.O.H e.u.e.u.` Y T ` ' A *.o.( o.Z X.,.;. .O.U k M h g t u i t q 4 ",
"j n k q C ) { @.o.K g L / ` I h X.X.o.$.O.N N O.o.:._ B i.p.i.g...%.h.d.u.d.e.b *.r.e.9.>.E B 8.0.0.9.X.c O.<.X.E h g l g y > 2 ",
"0 q 0 N ^ I U _ / s C V D I z D ! ^ ^ C / K Y ^ C ( ^ ( 4.&.| &.` W #...` W *.R R { W ` *.%.G R %. .( ;.^ k _ _ W Z i u y 0 y 4 ",
"r N U ^ f 8 ^ o.@.$.v c >.>.5.9.t.a.%.x 7.i.s.7.B t.p.t.7.7.v Y e.7.1.=.#.l *.6.2.:.` a >.t.t.5.:.O.G h ! I K A V y h E T c 7 a ",
"I I L t r o.@.@.&.B k X.o.,.>.:.:.7.B | t.7.t.| H >.%.%.&.&.x R =.=.%.#.*.b H ..{ ..#.v Z *.$.*.>.<.5.H r C N N N N f 0 S S c 3 ",
"6 f k f K p 8 K G M K U k 1 M P G P P ( d B =.%.| ..P t ^ Q ( | l s ` %.#.#.| |  .h d &.O.O.O. .| _ a h U J K L G 6 7 v x k g a ",
"C L ! ] M 7 E ] X.@.O.$.v C o.O.@.&.&. .h 5.f.i.t.a.=.b =.=.4.4.#.b #.6.6.1.7.7.e.1.b *.a.a.i.u.w.w.%.s | $.O.@.O.{ s f ^ I S C ",
"N C C q : L X._ _ _ X.C a _ / _ X._ _ x P a.8.=.4.7.E d O.&.O.X.| p | %.X.O.O.X.| X.C c <.8.w.8.8.<.8.^ 0 (  .^ ^ ! K 8 3 N c k ",
"r r q > f g q r z h c p 1 w a d k z b x h p Z E P Y P B p w v v v v x d d 5 w c c d h G K k y r h k h c p 8 w w : w f p 0 8 1 : ",
"n V S D L v 1 K _ ( X.B p ] =.4.4.8.7.&.R b t.y.i.i.i.i.H b 7.4.4.w.w.7.4.H d X.@.&.@.@.X._ ^ f 1 ^ X.X. .( R ^ h 5 Z K K S k k ",
"n N S ! N > P o.^ ^ Z p ;.=.&.8.7.7.w.=.b %.t.5.0.7.4.5.Q R 7.4.7.7.w.7.i.4.p ^ O.O.O.X.X.X.X.X.w c | O. .^ Y ^ ^ h 1 B K M M k ",
"n S D c > g / ! ^ ^ d O.5.<.8.8.w.w.i.Q x a.p.p.t.i.w.i.B ^ 8.8.7.7.4.4.4.4.d K X.X._ X.X._ _ _ P , k B U ( E H K ! 0 * k N k k ",
"- - - % = 0 0 q p 5 w h f z x c v B H d v H P H K K Z Z 8 a k r d d d c v c d w p y f 0 6 8 r y y , q a q 0 0 0 4 1 2 # * * $ $ ",
"g g h 8 # h P P ^ ^ Q ^ Q h 5 U Y (  .%.#.O.a 1 C C K C K K ! S h ; K O.X.&.&.&.X.X.X.C , C _ X.] |  .X.^ K v : O r f f y r 0 : ",
"C D c : d ^ _ ]  .X.O.&. .8 / <.<.4.w.5.4.=.p v X./ _ _ _ _ _ _ ! 5 X.4.<.=.;.&.@.@.@.@.v v &.<.<.;.;.@.X._ _ ^ 0 : k j f k f r ",
"M g % w K U ^ ^ / _ X._ x p X.O.@.&.@.O.X.( 3 B ^ ^ ^ ^ ^ ^ ! ^ K : ^ =.=.<.;.X.@.&.@.@.^ w _ ;.@.@.X._ ( ^ ^ ^ U , : g r q r r ",
"f * : N M K U ! ^ _ ^ P 8 K O.@.X.O.X.] O.Z ; ^ ^ ^ ^ ^ ^ ^ ^ ^ H , C X.@.@.;.@.X.X.O.X.X.p C @.X.X._ _ _ _ _ ^ ^ B @ 2 y q 9 9 ",
"= * M C C L K K ^ P c t 0 P P ( ;.&.%.=.$.5 r ^ ! ! / ! ! ! ^ ^ ^ : C &.;.;.@.@.O.X.X.X.O.C 1 ^ X._ _ X._ _ _ / ^ ! 8 O 9 0 9 9 ",
"+ 2 q y f k k g a w h , 0 h z h f B C k z = r f 9 y f y f k g a 8 ; 8 M k k C C C C C c n k : d f r f f y a y r 0 > > # + & & - ",
"# + o . . o + 0 w q t t w 0 : ; = # O < y w 0 q y 0 - - - + # w d d c d r p 1 % ; ; % # % ; 1 3 1 3 3 , * o # $ $ $ & & # + + X ",
"q w 5 , ; O r G Z K U ! ( ( ^ Y B 8 : S ! S ! ! D ! ! C C 4 8 ^ ( ^ ( _ X._ B : h Z P ^ E E E ^ ! U K c d # * 0 e e e 9 9 < 9 < ",
"r q 6 8 % , g k c k c U P ! U G d 1 0 C z V V D C C C V M 0 5 H E E U ^ ^ ^ K 5 w K ^ ^ ( ^ ! L L K ! K M w X - 9 e q 9 9 < < < ",
"q q 5 ; # q y h c M a n P P P d h , 8 M z n M n n n n n M 3 0 ^ K ! K ^ K ! ^ 8 6 Z ^ ^ ^ L K K ! K ! U ! K q X 9 q 9 9 9 9 < - ",
"q 1 ; O 1 a g k k c M f M K K x a - i j n n n n M n k n M 1 0 K C ! ! K K ^ K w 3 C U T ^ ! K K M M M M C M M ; * 2 9 < 9 < < : ",
"1 ; O * a a g k k c N N g M S N , - i j j n n A A V n n M : 5 K G K ! ! C C C w : B ! v k a k k k h d h d f k 6 + * < 2 < < < < ",
"% O @ q y r y g k c c M v z N a # 9 r i j i j n n V j j h * 2 g c B B C c C U x ; w k c k c c c C c g f f k a 7 # O - < < - - - ",
"O o : r q r y f g h h k z c a , @ y n i r e r i r j a g 0 @ - 0 a k k k k B ! c : 5 w k c c c k k g a d d d f r ; o + * & & - & "
};
