/* XPM */
static char *porte_close[] = {
/* columns rows colors chars-per-pixel */
"64 64 205 2 ",
"   c #080604",
".  c #141515",
"X  c #151A1B",
"o  c #191C1C",
"O  c #171817",
"+  c #161109",
"@  c #271909",
"#  c #201F1E",
"$  c #301504",
"%  c #21211F",
"&  c #282014",
"*  c #38260A",
"=  c #191F20",
"-  c #1C2324",
";  c #1E2728",
":  c #1F292A",
">  c #222423",
",  c #232B2C",
"<  c #2C2C2B",
"1  c #262726",
"2  c #302F2C",
"3  c #32312E",
"4  c #252F30",
"5  c #292F30",
"6  c #263133",
"7  c #2A3335",
"8  c #2B3739",
"9  c #2D3A3C",
"0  c #353432",
"q  c #393734",
"w  c #3A3936",
"e  c #333C3D",
"r  c #3C3C3A",
"t  c #303738",
"y  c #462D0D",
"u  c #4B3514",
"i  c #6C3F03",
"p  c #433E37",
"a  c #4E3C27",
"s  c #784C16",
"d  c #674B19",
"f  c #44413A",
"g  c #524526",
"h  c #684F2D",
"j  c #2E3E40",
"k  c #323F40",
"l  c #344244",
"z  c #3B4445",
"x  c #364649",
"c  c #3A4749",
"v  c #37494B",
"b  c #3B4A4C",
"n  c #3D4E51",
"m  c #3E5254",
"M  c #2F4042",
"N  c #454443",
"B  c #434B4C",
"V  c #4B4D4D",
"C  c #434746",
"Z  c #4D504F",
"A  c #55514E",
"S  c #424F51",
"D  c #425255",
"F  c #4A5253",
"G  c #435659",
"H  c #4B5659",
"J  c #455A5D",
"K  c #4B5B5D",
"L  c #545655",
"P  c #525C5D",
"I  c #5A5B59",
"U  c #514D4A",
"Y  c #636357",
"T  c #465D61",
"R  c #4A5E61",
"E  c #515F61",
"W  c #4C6265",
"Q  c #4D6569",
"!  c #4F696D",
"~  c #466165",
"^  c #526365",
"/  c #5A6364",
"(  c #536669",
")  c #536A6D",
"_  c #5B6A6D",
"`  c #5C6768",
"'  c #546E71",
"]  c #5B6E71",
"[  c #567175",
"{  c #5B7275",
"}  c #5B767A",
"|  c #5D797D",
" . c #557479",
".. c #4E6E73",
"X. c #636B6B",
"o. c #696967",
"O. c #77786A",
"+. c #656F70",
"@. c #627275",
"#. c #6B7273",
"$. c #627679",
"%. c #6C7778",
"&. c #63797D",
"*. c #6A7A7D",
"=. c #727B7C",
"-. c #717271",
";. c #6E706F",
":. c #596054",
">. c #835927",
",. c #9B6A32",
"<. c #9B6525",
"1. c #AD7530",
"2. c #AA7518",
"3. c #C07927",
"4. c #7A8278",
"5. c #BF9A37",
"6. c #CC892A",
"7. c #8B8C78",
"8. c #D2B248",
"9. c #E6C84D",
"0. c #5E7C81",
"q. c #637D81",
"w. c #6A7E81",
"e. c #737F81",
"r. c #658185",
"t. c #6B8285",
"y. c #668589",
"u. c #6C8689",
"i. c #6C898D",
"p. c #738385",
"a. c #7C8485",
"s. c #728689",
"d. c #788688",
"f. c #738A8D",
"g. c #7C8B8D",
"h. c #6D8D92",
"j. c #748D91",
"k. c #7A8E91",
"l. c #6F9196",
"z. c #759195",
"x. c #7C9295",
"c. c #76959A",
"v. c #7C9699",
"b. c #7C999D",
"n. c #77989C",
"m. c #7D9DA1",
"M. c #858D8D",
"N. c #818F90",
"B. c #849294",
"V. c #829699",
"C. c #85999C",
"Z. c #8A9B9D",
"A. c #899596",
"S. c #919C9D",
"D. c #969795",
"F. c #95988D",
"G. c #839EA2",
"H. c #8A9EA0",
"J. c #929FA0",
"K. c #85A2A5",
"L. c #8DA1A4",
"P. c #86A4A8",
"I. c #8AA6A9",
"U. c #8DA9AD",
"Y. c #92A3A6",
"T. c #9AA4A5",
"R. c #95A6A9",
"E. c #9AA7A8",
"W. c #95A9AC",
"Q. c #9BAAAD",
"!. c #92AEB1",
"~. c #9EAEB1",
"^. c #95B2B5",
"/. c #9AB2B5",
"(. c #9CB5B9",
"). c #9FB8BB",
"_. c #A1ACAE",
"`. c #A1AFB1",
"'. c #A4B2B4",
"]. c #AAB4B5",
"[. c #A3B6B9",
"{. c #A9B7B8",
"}. c #A4BABD",
"|. c #ACBABB",
" X c #B2BCBD",
".X c #B8BBBB",
"XX c #A6BEC1",
"oX c #ABBEC0",
"OX c #B3BFC0",
"+X c #ABC1C4",
"@X c #AFC7C9",
"#X c #B4C2C4",
"$X c #BAC3C5",
"%X c #B2C6C8",
"&X c #BAC7C8",
"*X c #B5CACC",
"=X c #BCCACB",
"-X c #BCCED1",
";X c #BFD0D2",
":X c #C3CCCD",
">X c #C1CFD1",
",X c #C4D2D4",
"<X c #C9D6D8",
"1X c #D2DEDF",
"2X c #D2DEE0",
/* pixels */
"+.Q.E.Y.H.E.E.E.A.Z.E.T.J.S.S.H.J.J.J.H.S.J.J.J.J.J.J.J.H.J.J.H.J.J.J.J.E.J._._.J.J._._.T._._._._._.'.]._._.].{. X X#XOX$X$X>XT.",
"K j.&.z.j.b.j.*.] w.i.i.i.q.&.] w.z.f.} q.k.w.q.q.w.w.q.q.c.f.] $.s.m.h.w.q.w.e.w.q.f.c.j.s.q.f.%.f.U.H.m.U.H.~.oX[.[.U.!.G.R.`.",
"b [ G ..| r.9 o.a.Q } } 0.' l L M.} q.Q T  .k o.d.! q.} R q.b N D.! q.i.w.0.v o.J.q.y.v.] ..x L S.0.c.m.m.h.E D.OXR.U.m.h.r.j.`.",
"G [ T Q  .r.v < G ! q.h.0.0.J 1 E y.q.Q T R v 5 D R [ } ' [ T = F ! 0.w.i.q.R k E z.j.c.f.0.T , P z.P.R.G.G.' B A.).U.n.} } G.|.",
"J 0.| [ [ | [ Q ' q.y.j.q.| q.( q.y.0.) J ! T T R ' .. .' ' ' ' q.q.q.w.z.} i.q.0.m.z.j.h.0.i.j.b.I.W.^.!.P.m.I.}.@X(.n.0.Q K.{.",
"n [  .' | *.6 l k x b c x l b k c k k 8 6 6 6 4 4 j j 7 8 k j k x k k b b j j 8 k x k k c k x D S b S F D H H / @.#.v.^.n.h./.'.",
"9 ' ..T 0.Z.> X = = = = > = - = = ; = = = X = X . = = = . = = = = = = = = = = O = = . . = X = = > > > - , 1 , 8 l b v.^.h.I.!.`.",
"v m X.e.[ Y.5 = = - ; , , 4 4 5 6 8 4 4 6 - = ; = = = ; = , 4 , , , 4 5 5 4 4 = ; = ; ; , ; 4 5 t j j k k x b G E K v.b.P .XW.|.",
"m v q E q.Y.5 > : , , 4 4 4 4 8 7 7 4 8 7 ; = , ; ; 4 , , 6 4 4 6 , 4 7 t 8 7 6 4 7 4 , j t t 8 l b b B D K W R ( ^ C.(.K _ }.{.",
"n R n T y.J.9 8 7 7 9 k 9 9 k l k j k k k 8 4 7 7 4 j j j k k j k j k k c k c k 8 k j 8 b B b c F P _ @.*.p.$.' @.K z.*X^.I.+X|.",
"v ! i.l.G.Y.k k j 9 k k v v G S G D v n D v k v j 6 j k S c k k x n G E H m H S c T v k G G G n ^ *.p.x.C.G.y.' @.K B.%X+XXX+X|.",
"D 0.} 0.I.E.x b n n n n D S J J R ( R G m G v v k j c G n v D G R E E E ( E T G n G G v R ( ! R { t.i.z.C.b.r..._ ( K.*X-X+XoX|.",
"R y.0. .I.~.b K K E E R J D R R ) R ( T b T G v k v v m v D _ @.E E E ( ] T G G x n T T _ $.) ) $.k.V.K.n.j.z.4.E K z.@X*X+X}.|.",
"G y...0.H.`.S R J E / R J R ' ( m G 0.E D Q R T m x b m G R ] ] ] R R ! ( G T T m m _ T R ] R R r.Y.C.I.G.n.C.4.J n h.-X%X+X%X|.",
"J h. ...I.].E E H E ) R R ( { R m T Q ) Q ' Q T R v n T R _ w.q.$.E ] E E R ' R T m R T ) ] G T u.v.b.c.U.P.v.$.) b v.<X*X}.*X{.",
"n  .@.j.b.`.H ^ E ( E R { ] ) ' ) R ( ) ' R R T R T R ( @.$.w.e.w.q.q.E T R T m D R R m ) { m x q.L.L.P./.U.t.{ E H L.%XA.:X+X|.",
"D n A a.h.`.P / _ ( _ _ $.t.$.&.u.u.*.[ G W J ~ R { s.s.s.g.e.q.p.g.u.( ) ) J n J { { W m m v M ) L.|.+X/.W.v.{ ^ K W.%XP M.$XOX",
"T 0.b } XX].P ) ` { { @.*.t.t.f.B.B.x.f.} &.W G Q q.V.k.k.V.s.q.x.x.$.~ ) ~ J m J ] $.) T b v v J c.[.&X+XW.W.p.{ E L.1X{.W.;XOX",
"R h.c.^.oX].K ] @.*.&.) { f.g.x.v.V.C.C.f.u.} } f.B.J.V.f.w.f.} f.f.&.&.} J W J ) } $.' ! J n b m z.}.#X[.K.R.s.4._ Q.<X,X,X,X$X",
"Q h.z./.%X].D ` #.t.p.*.[ s.x.x.f.C.Z.L.x.s.x.x.H.V.G.G.x.f.u.{ x.C.f.x.f.{ { W ] w.s.{ [ Q T ) ) z.%X&X/./.R.k.t._ '.1X<X,X<X$X",
"' U.~.oXXXE.K %.*.d.N.g.p.x.V.C.B.H.R.L.L.H.V.f.v.H.H.J.J.f.i.w.x.V.x.x.z.{ Q ~ W &.w.{ *.q.u.B.v.!.=X&X}.}.'.A.p._ '.2X,X&X;X#X",
"e.XX!.U.!.].] d.p.g.N.g.x.A.Z.L.H.R.Q.Q.R.Y.C.x.H.J.H.R.R.H.G.x.C.t.} Z.B.$.{ ) Q [ q.{ { f.H.R.L./.+X&X#XOX{.A.p.X.].2X,X&X,XOX",
"g.#X[.G.[. XX.%.p.B.g.B.Z.J.E.Y.L.Y.Q.Q.E.E.W.Y.R.`.J.H.R.V.v.j.x.f.u.C.'.x.q.t.$.} r.$.{ k.V.C.E./.[.$X:X$X|.M._ _ ].2X{.{.<X$X",
"N.J.M.].XX].R ( @.&.p.g.V.E.Q.E.E.L.R.Q.W.Q./.'.[.~.~.Q.Q.v.f.w.u.V.Y.V.C.j.} &.f.u.t.u.x.V.j.j.C.'.}.#X>X=X|.N.%./ E.$Xo..X$X$X",
"s.d.U %.U.E.S ^ _ @.s.N.Z.Q.`.Q.'.Q.W.[.`.`.`.Q.Q.Q.Q.~.'.z.z.G.Y.v.H.Z.x.C.s.f.V.t.q.f.H.V.s.x.C.Q.#X:X,XoXC.w.p./ Z.&XL #.>X.X",
"e.XXq.' I.`.K R ' s.Z.J.E._.`.].|.|.|.|.oXOXoX].'.oX~.'.oXH.J.H.W.x.Q.Q.Q.Z.Y.C.H.Q.Q.L.E.H.u.C.v.H.#X:X$XL.Y.d.%.P M.<X#X|.<X.X",
"( m.!.G.(.`.D K ] e.A.J.E.Q.A.%.=.=.4.%.*.e.%.=.e.N.{.'.~.W.R.H.Z.V.'.#XQ.C.L.x.Q.OX$XOX|.Y.H.'.L.~.OX#XOX`.A.e.@.F A.>X,X&X,X X",
"m l.U.q.I.T.b ^ w.J.J.'.`.R.L o w r C C p N p p w V Q.~.J.Q.{.H.C.Z.C.[.L.u.H.x.Y.`.'.Y.Q.H.H.L.R.~.`.OXOX`.B.a.#.C M.<X&X{.=X X",
"v i.l.0.m.H.S ^ %.a.=.a.S.`.V . # N < r w 0 # N N B J.oXV.J.~.H.E.Q.~.'.j.r.x.C.t.k.[.'.`.Y.C.C.{.R.C.'.|.T.N.%.+.l a.>X$X[.%X].",
"n ' 0.y.n.H.H ^ k u g s s F.L . o 2 < w q 0 # 2 N Z _.{.H.{.Q.x.W.W.{.'.k.*.x.C.f.x.'.{.`.R.V.L.OX!.L.~.~.Z.g.e.#.B p.=X=XoX$X].",
"v 0...0.m.J.K E O @ <.9.d o.L . < % 2 0 3 0 1 O w L J.G.`.Q.{.H.{.{.].|.Q.t.f.R.H.Y.~.~.~.Y.f.R.|.V.L.`.Q.B.d.=.-.B a.>X$X X>X X",
"T ' +.d.i.Y.E ` o   s 9.Y d.Z O 1 q p w < < 1 1 0 A G.H.W.G.`.W.$X&X#X:X$XQ.Q.R.~.|.OX'.~.W.Z.H.[.R.Q.[.V.@._ =.#.z $.].#..X=X.X",
"{ ( N =.r.Y.F e # # u 8.7.Q.Z O > 3 p p p p 3 % < V s.J.[.W.{.[.&X|.|.&X{.{.|.Y.H.|.|.`.W.Q.L.x.Y.H.H.L.*.( ^ ^ P r @.H.r ;.#X.X",
"^ v.E r.(.E.z , 5 k y 8.7.R.V X 0 > d <.>.>.a X 1 F J.oX`.H.'.'.'.Q.'.#X'.Y.].{.Y.Y.~.H.k.x.V.s.H.x.x.C.s.] P K K k ^ c.s.p.#X|.",
"] I.+X/./.Q.c , k V y 8.7.R.C o p - d <.$ >.g o > V `.oXJ.G.H.J.W.Y.E. XQ.C./.$XW.L.W.C.x.u.x.s.V.W.H.C.s._ P K F 9 l ! G.G.W.'.",
"{ U.|.I.U.'.F - k c y 8.7.R.C . q , >.6.y 3.a = < N J.'.H.H.H.B.'.R.L.'.W.Q.Q.'.~.'.W.Q.E.L.x.v.V.R.].W.g.&.^ K B 5 k ' G.j.] S.",
"{ ^.(.(.+X'.V > k C y 6.O.R.V . 2 < h 1.s 1.h > N k $.H.f.V.Q.W.].E.x.x.L.].'.L.Q.'.Q.|. X[.L.'.{.I.`.Y.V.$.K H l , b ! { | ( A.",
"W P.I.(./.|.D = k B @ 2.O.H.C o q < a 1.,.1.h k U N _ s.w.H.V.G.C.W.C.u.z.R.Q.'.Q.W.'.{.|.|.]. X{.Z.L.x.$.) F c e ; x T T ) } B.",
"! l.l.z.%X'.c = z C + s o.Z.z O w < 2 a p p p w N z ( ' ] ] ] w.u.j.G.V.f.E.'.].Y.L.].|.OX|.{.|.W.L.L.j.$.W b l t > l m m m { M.",
"{  .%.L.+X'.S , % &   @ u =.B O p q 0 q r N r 0 p k ) ' ) T ! } } &.v.C.Y./.[.]./.R.~.{.{.|.'.W.L.R.Z.} *.T S e 7 , j l e D.@.k.",
"s.Q U T.}.{.:.;   +     * I B . k p 0 p 0 q r < q r E ! ( T T q.r.&.j.V.Y.'./._.|.Q.Q./.'.'.Q.Z.k.x.f.} &.J c k 6 ; l v ; F ' A.",
"} r.^ j.+X XP < .   . o r &.C O 3 I k p 3 p 3 U N k Q ( R T q.w.t.&.j.R.W.Q.R.R._.Q._.R.W.E.Q.G.j.x.t.&.' D b l 7 > M m b m } B.",
"{ ^.@X/.}.$X^ 7 o k w.e.s.s.k O % A r r 0 p < N U k R [ ' ! w.q.u.x.v.C.L.Y.L.C.L.Q.E.R.L.R.L.Y.H.C.u.) J b x e 7 ; 9 m J ) &.g.",
"$.*X+X/.=X$X/ 0 k e.A.C.j.u.k O O . % % # # # . > 8 R ! q.q.} 0.x.f.f.x.B.v.Z.z.B.H.L.L.L.L.V.H.V.x.k.' W J c 9 7 ; 9 m J ~ &.N.",
"w.-X&XXX<X$X#.@.e.N.e.w.e.z.B = - = X X . X X X O 7 R ' 0.f.f.q.} t.u.B.C.x.v.B.x.v.C.Z.Z.L.B.j.j.j.w.q.( G b 7 6 - 9 m T Q } B.",
"*.XXoXoX-X#X_ t.e.e.j.j.z.e.q.w.w.T m ! S G ~ T T T T { q.w.z.f.f.u.g.x.x.Z.f.s.k.C.V.Z.Z.C.x.f.k.k.q.g.*.( b 8 4 = 9 J ! ! &.V.",
"$.(./.}.%X XE @.q.w.e.e.j.w.c.G.V.z.w.q.w.0.0.[ 0.T T 0.w.h.i.f.u.} x.u.x.Z.s.f.B.C.x.C.Y.Z.f.s.s.&.{ $.w._ D 9 4 = 9 J ! ~ t.Z.",
") h.d./.}.|.K _ 0.0.w.q.0.q.c.w.w.w.q.! 0.0.) R ' G T } q.q.j.w.' u.r.u.C.x.f.x.v.u.k.B.f.f.t.u.t.{ ] ] @.^ S l 4 - x T c M.$.N.",
") T I D.I.].J { ( X.] ] { *.r.| 0.{ R R T T ' [ R ! R ! E ! i.( ' y.[ w.k.v.w.y.s.s.f.s.w.w.&.w.*.&.*.{ _ K S e 4 , D m , o.$.N.",
"~ q.l Q U.E.H ( ^ ) ( ] &.t.} | 0.{ R T R R ( ' ! Q T T G ! } ! q.R Q w.k.k.q.e.w.w.u.q.} w.] q.&.*.*.] ^ G B e 7 5 D ' J m i.B.",
"G h.r. .f.H.b ^ ^ ^ K R ) ) ( *.q.R R R D T T R R ! E T R ' ) ] ) D Q $.w.w.q.w.w.q.@.] ( ' ^ ) $.%.) _ ^ D l 7 5 , b } 0.' &.k.",
"m 0.| [ q.T.l D K H D D D D G W q.R E ' T D D T R Q R D T R R ! R n ) ) ( q.] $.@.' @.) R R J G _ _ R E H b 8 7 4 - n r.q.} u.A.",
"b r.r.| u.C.l b D n b b l b b G T H E E R G k x D D T S x D D T T c D T J ' ( ` E ) ' E R K n b G R G n D c 4 4 , - n q.r.r.j.A.",
"b | Q W u.A.t c c z b x l x x b b n T k n G k k v D T x D D m D v v n b J R R K ^ ^ ^ ^ E R n n n D S D b 9 4 - ; - D 0.0.h.r.N.",
"v [ m ~ i.g.8 l l c x l x x x l n D D x S n 8 k x n x x m b D k v c x x n S S G J R ` ' ^ ^ K n c b b S B 8 , ; > , E G.f.| i.N.",
"l m ( p.q.B.7 k l c l e l z c l k B n k b x 7 j k k k n D n x k n x b S K S n G v S E E R E K S x l b F c 9 , , > 4 ' j.L T.j.A.",
"v j r +.q.A.5 9 t k t 9 k k l k k k k k k k k k 8 j k k c x 7 9 k 8 j c S x x b c b D S J K S S k j c B k 8 , - = ; ^ q.t I j.Z.",
"n R 6 v $.N.k z c C c C C B B z C B B B S S B F F S D V F F S F S F F P E P P E E E / / ` X.E E H F F F S B B C C c R c.s.0.I.E.",
"v [ R ..( J.T.E._._.Q.Q._._.E.E.Q._._.W._.E._.`._.E.`.`.`.{.{.|.].`.'.oXOX|.].|.{.oX#X&X$X:X&X&XOXOX`.`.{.`.`.'.[.oXQ.I.!.G.I.Q.",
"k R T T n ) 0.} } t.q.| q.r.} Q ' } ] q.q.q.q.0.q.q.0.q.0.q.j.y.q.q.0.l.h.0.i.} y.h.n.m.m.!.U.U.b.m.b.b.i.q.0.q.q.h.b.I.!.I.U.E.",
"x Q T n v ! v ;.g.0.} ' ' | D L e.m [ 0.' 0.m o.N.} 0.' Q Q R P J...y.w.[ ' v X.H.h.l.r.b.P.q.X._.h.c.u.r. .v #.V...h.K.R.m.P.Q.",
"x ! J n v R 8 0 X.q.0.}  .| G 1 B T R  .! 0.x 0 P ' q.[ ! [ R 1 E ' j.c.q.) l q ` r.q.c.G.b.( 3 / j.h.r.j.0.l 0 ` 0.h.G.P.h.G.Q.",
"M Q J m n ! } m ( y.q.[ ' 0.] n v R ! ! R 0.R T ' ' [ 0.} } ] J R q.u.G.j. .[ T ! y.y.c.n.b.c.' } q.0.h.m.0.' T } h.m.U.!.G.^.[.",
"6 j j 6 7 k n n 9 b b v j l l k j k k j j k j D b j b c x b x x x b S R G x b m v n n S n J G J J b S G J n v G R J ^ ] ' ^ ] =."
};
