/* XPM */
static char *porte[] = {
/* columns rows colors chars-per-pixel */
"64 64 205 2 ",
"   c #080604",
".  c #141515",
"X  c #151A1B",
"o  c #191C1C",
"O  c #171817",
"+  c #161109",
"@  c #271909",
"#  c #201F1E",
"$  c #301504",
"%  c #21211F",
"&  c #282014",
"*  c #38260A",
"=  c #191F20",
"-  c #1C2324",
";  c #1E2728",
":  c #1F292A",
">  c #222423",
",  c #232B2C",
"<  c #2C2C2B",
"1  c #262726",
"2  c #302F2C",
"3  c #32312E",
"4  c #252F30",
"5  c #292F30",
"6  c #263133",
"7  c #2A3335",
"8  c #2B3739",
"9  c #2D3A3C",
"0  c #353432",
"q  c #393734",
"w  c #3A3936",
"e  c #333C3D",
"r  c #3C3C3A",
"t  c #303738",
"y  c #462D0D",
"u  c #4B3514",
"i  c #6C3F03",
"p  c #433E37",
"a  c #4E3C27",
"s  c #784C16",
"d  c #674B19",
"f  c #44413A",
"g  c #524526",
"h  c #684F2D",
"j  c #2E3E40",
"k  c #323F40",
"l  c #344244",
"z  c #3B4445",
"x  c #364649",
"c  c #3A4749",
"v  c #37494B",
"b  c #3B4A4C",
"n  c #3D4E51",
"m  c #3E5254",
"M  c #2F4042",
"N  c #454443",
"B  c #434B4C",
"V  c #4B4D4D",
"C  c #434746",
"Z  c #4D504F",
"A  c #55514E",
"S  c #424F51",
"D  c #425255",
"F  c #4A5253",
"G  c #435659",
"H  c #4B5659",
"J  c #455A5D",
"K  c #4B5B5D",
"L  c #545655",
"P  c #525C5D",
"I  c #5A5B59",
"U  c #514D4A",
"Y  c #636357",
"T  c #465D61",
"R  c #4A5E61",
"E  c #515F61",
"W  c #4C6265",
"Q  c #4D6569",
"!  c #4F696D",
"~  c #466165",
"^  c #526365",
"/  c #5A6364",
"(  c #536669",
")  c #536A6D",
"_  c #5B6A6D",
"`  c #5C6768",
"'  c #546E71",
"]  c #5B6E71",
"[  c #567175",
"{  c #5B7275",
"}  c #5B767A",
"|  c #5D797D",
" . c #557479",
".. c #4E6E73",
"X. c #636B6B",
"o. c #696967",
"O. c #77786A",
"+. c #656F70",
"@. c #627275",
"#. c #6B7273",
"$. c #627679",
"%. c #6C7778",
"&. c #63797D",
"*. c #6A7A7D",
"=. c #727B7C",
"-. c #717271",
";. c #6E706F",
":. c #596054",
">. c #835927",
",. c #9B6A32",
"<. c #9B6525",
"1. c #AD7530",
"2. c #AA7518",
"3. c #C07927",
"4. c #7A8278",
"5. c #BF9A37",
"6. c #CC892A",
"7. c #8B8C78",
"8. c #D2B248",
"9. c #E6C84D",
"0. c #5E7C81",
"q. c #637D81",
"w. c #6A7E81",
"e. c #737F81",
"r. c #658185",
"t. c #6B8285",
"y. c #668589",
"u. c #6C8689",
"i. c #6C898D",
"p. c #738385",
"a. c #7C8485",
"s. c #728689",
"d. c #788688",
"f. c #738A8D",
"g. c #7C8B8D",
"h. c #6D8D92",
"j. c #748D91",
"k. c #7A8E91",
"l. c #6F9196",
"z. c #759195",
"x. c #7C9295",
"c. c #76959A",
"v. c #7C9699",
"b. c #7C999D",
"n. c #77989C",
"m. c #7D9DA1",
"M. c #858D8D",
"N. c #818F90",
"B. c #849294",
"V. c #829699",
"C. c #85999C",
"Z. c #8A9B9D",
"A. c #899596",
"S. c #919C9D",
"D. c #969795",
"F. c #95988D",
"G. c #839EA2",
"H. c #8A9EA0",
"J. c #929FA0",
"K. c #85A2A5",
"L. c #8DA1A4",
"P. c #86A4A8",
"I. c #8AA6A9",
"U. c #8DA9AD",
"Y. c #92A3A6",
"T. c #9AA4A5",
"R. c #95A6A9",
"E. c #9AA7A8",
"W. c #95A9AC",
"Q. c #9BAAAD",
"!. c #92AEB1",
"~. c #9EAEB1",
"^. c #95B2B5",
"/. c #9AB2B5",
"(. c #9CB5B9",
"). c #9FB8BB",
"_. c #A1ACAE",
"`. c #A1AFB1",
"'. c #A4B2B4",
"]. c #AAB4B5",
"[. c #A3B6B9",
"{. c #A9B7B8",
"}. c #A4BABD",
"|. c #ACBABB",
" X c #B2BCBD",
".X c #B8BBBB",
"XX c #A6BEC1",
"oX c #ABBEC0",
"OX c #B3BFC0",
"+X c #ABC1C4",
"@X c #AFC7C9",
"#X c #B4C2C4",
"$X c #BAC3C5",
"%X c #B2C6C8",
"&X c #BAC7C8",
"*X c #B5CACC",
"=X c #BCCACB",
"-X c #BCCED1",
";X c #BFD0D2",
":X c #C3CCCD",
">X c #C1CFD1",
",X c #C4D2D4",
"<X c #C9D6D8",
"1X c #D2DEDF",
"2X c #D2DEE0",
/* pixels */
"T.:X$X$XOX$X X X|.]._._.].]._._.'.T._.E._.T.T.T.E.E.T.T.T.E.Y.S.Z.T.S.Z.S.S.Y.S.Y.Z.S.S.S.S.T.S.Z.S.S.S.T.E.S.A.E._.T.J.J.T.~.+.",
"`.W.K.U.!.}.[.}.Q.K.R.b.I.I.f.*.f.| f.f.x.f.r.&.s.t.&.r.f.v.f.} _ u.c.q.r.t.t.$.&.u.z.&.{ f.z.t.{ &.r.i.i.u.q.] &.j.b.j.z.q.j.T ",
"Q.z.r.h.n.U.U.$XD.W h.c.b.c.} S.L x [ [ x.i.r.S.o.l { i.i.r.! D.N b r.Q { r.Q a.o.l  .~ Q q. .N.L l [ | |  .! a.o.j q.| ' G [ v ",
" XK. . .c.W.(.A.U ) P.K.W.I.z.P < J | i.c.f.z.W t R r.i.y.} ) S > J  .! { [ Q G < v Q ~ ! q.y.P > J q.| h.0.! D 1 b y. .! T ' G ",
"{.K.~ | n.(.%X}.L.m.I.^.^.W.I.b.h.i.| z.h.z.l.4.&.i.} z.t.| | r.' [ [ .. .[ ) ~ ~ ~ Q m ! | i.} ! r.} r.j.y.q.' Q [ 0.] ' | 0.G ",
"'./.h.n.^.v.@.@.( G G D F n b D D M M b l x v l 9 9 9 b c l l x l 9 9 8 9 9 8 6 6 4 7 7 8 e x z k c l l c c c k k 4 w.} ..0...n ",
"_.^.P.z.^.v.b z t , , 1 - - 1 - - - X X X X = X X - = = - - = o X - o X X X X . . X X o o - > - - - - > - = = = = ; H.q.T ! ' j ",
"|.R..XI b.n.K E G b c e e e e 9 6 4 ; ; ; - - - ; , < 6 6 < : , , , ; - ; ; - - - - ; 6 , 6 9 6 4 4 , , , ; - - = 4 J. .e.X.m x ",
"{.).X.H (.C.^ ` E E J D B b z z 8 9 t t 4 , 4 4 6 7 t e 8 6 , 4 , 6 6 , , 6 ; ; ; - ; 6 7 6 7 7 8 4 4 , 4 4 , ; ; 5 R.&.E q v m ",
"|.XXI.^.*Xz.K @._ $.y.4.@._ P D z b n b 8 e x 8 k c k z c k 9 e 9 e k 9 8 9 6 8 7 4 8 M l j 8 l x k 9 9 9 8 7 7 7 8 Y.y.T S T n ",
"|.@X+X+X@Xc.K @.' u.Z.C.z.s.*.^ n G G D j b J b D G S G K D b v k x b b l j 7 9 v M v m b m m D n G c v k l 9 j k k R.G.h.i.! v ",
"{.oX+X-X*XK.^ ] { t.b.b.z.f.t.{ R ( ) W v G G n G K ^ ( ^ ^ E K J D b m D v j j v b G m G R ( ^ T H m D S n n n n c T.P.0.| 0.D ",
" X}.@X*X%Xz.K W *.z.h.n.K.C.z.$.) ) $.] R R n v G G ~ ) ^ W ^ ( X.) D v m x v l b G J m J ^ W ) T R G J R / E H J B Q.I. .0.y.T ",
"|.%X+X%X-Xh.b K *.C.n.K.L.C.Y.t.W W { W J ) m m J K G ( ( E R _ ] ] W D D b x D K ~ Q m ^ | J m Q ] T J R ^ R H K D ~.P.0.' y.G ",
"|.%X).%X<Xc.b ) &.x.P.U.x.v.x.u.J G ' ( J R n G ~ ) R ^ W [ ^ { *.t._ W R b v ~ J W ) ( ) Q J D T { ) E T ` E J E P ].L... .h.m ",
"|.#X:XA.%XL.G ^ { t.U./.P.I.I.&.x n { ) m W ( D n J ( J ^ *.&.*.p.*.$.{ Q Q J W J ~ Q ) ) Q ~ ( ' ' ] ] R R ` ^ E H `.m.j.$. .m ",
"OX%XM.:.%XW.J ( { v.W./.oXoXL.! l v m G ~ { { R n J [ ) ( u.g.s.w.e.g.s.p.u.{ E T T R D { q.s.w.&.&.w.$.] ) ^ _ ` K `.h.a.A n m ",
"OX>XY.{.1XL.E @.p.W.U.+X=X[.c.J v v v J ) $.] J G J T ) ~ $.k.z.q.f.V.k.k.C.q.Q G R q.q.f.x.v.V.f.w.w.w.@.@.@._ ` K ].XX{ b q.T ",
"$X,X,X<X<XQ.` 4.d.Y.K.{.#X}.z.m n b J ( ' $.{ ) K ~ ~ { &.&.f.g.{ u.w.f.C.H.N.j.| { w.j.H.V.B.x.N.k.f.{ ) $.*.+.] E ].OX^.c.i.W ",
"$X<X,X<X2X'._ t.k.R././.&X#Xz.' ! T Q ' { f.*.[ W ) [ f.x.f.C.x.{ s.f.x.H.C.C.G.x.x.s.x.H.H.G.j.v.x.f.' *.p.w.$._ S `.%X(.z.h.Q ",
"#X;X&X>X2X'._ p.Z.`.}.}.&X=X!.b.v.f.t.&.{ t.$.W ~ ( [ g.x.x.C.v.u.w.j.J.J.H.H.v.j.B.H.J.J.R.H.V.C.V.k.p.k.N.a.w.%.K T.XXoX~.!.' ",
".X,X=X,X2X{.@.=.A.].OX#X%XOX~.H.Y.Z.f.[ { q.[ Q _ [ $.C.Z.} t.C.x.G.G.W.R.H.J.H.v.G.H.R.W.Q.R.H.J.H.A.k.k.N.g.p.d._ ].!.U.!.}.e.",
"$X<X].[.1X].` { N.|.:X:X%X[.~.~.Z.V.g.{ $.r.$.&.t.q.x.'.V.u.f.v.j.x.V.R.H.R.`.R.H.R.Q.W.~.Q.J.J.Y.E.J.Z.N.N.N.p.w.`  X}.G.[.@Xg.",
"$X&X.Xo.#X_.^ #.N.{.$X>X#X}.`.C.f.g.V.x.u.t.u.i.&.} f.V.V.Y.V.u.w.f.V.W.W.~.`.[.'.~.~.Q.Q.W.H.Q.E.Q.E.C.k.p.&.@.^ R ].oX].M.J.N.",
".X,X#.L $XS.E d.w.C.OX>X:XOXR.C.z.i.A.Z.f.r.t.V.f.f.V.z.Z.H.z.Y.C.z.z.[.`.~.~.R.Q.`.`.`.].W.Q.`.Q.`._.Z.k.d.{ _ ^ S E.W.%.V d.p.",
".X<X|.#X<XB.I *.a.J.L.&X>X#XL.b.V.f.Z.W.I.E.Q.Z.C.Y.Z._.Q.Q.v.E.H.H.J.[.`.`.oX'.[. XOXoX|.|.{.oX].`.Q.T.J.Z.d.) R K `.P.' q.}.e.",
".X,X&X,X>XA.Z +.e.Z.`.OX#XOX~.Y.'.Z.Y.|. X$X XQ.k.L.V.Q.#X'.V.H.H.R.W.~.`.{.N.=.*.*.p.*.%.e.e.=.=.A._.E.T.A.p.] H S `.(.m.!.G.) ",
"|.=X}.&X,XM.B #.e.B.`.OXOX~.~.R.Y.L.K.Q.Y.'.'.Y.v.Z.f.I.{.C.C.C.H.{.~.Y.`.W.V r r p f f N N p w O H T._.`.Y.Z.w.) b T.U.y.I.z.m ",
"].#X[.#X,Xd.z +.=.N.T.|.`.G.R.{.C.C.Y.`.'.].g.u.C.x.*.j.'./.Q.W.H.Q.J.V.oXJ.V N f 1 0 q r 2 f % O V ~.S.a.=.M.%.( S H.m.0.h.h.x ",
"{.#XOX=X=Xe.B #.e.g.H.`.~.J.W.OXL.v.Y.'.{.'.x.f.C.B.&.z._.|.E.W.V.~.XXH.{.`.Z N 3 % 0 q q 2 3 O . L D.s d d u t / F Z.b.y.0...n ",
".X-X|.$X>Xe.B %.=.a.x.W.~.H.V.|.E.f.Y./././.Y.L.Y.j.t.Q. X].|.{.G.].Q.~.H.R.L w O 1 0 3 0 2 % 2 . L ;.d 9.,.@ O E K Y.m.0. .| v ",
".X:X.X-.[.%.z #.%.X.@.C.[.~.R.[.Z.C.Q.Q.'..X|.Q.Y.Q.Q.$X:X#X$X$XQ.`.V.R.H.V.Z 0 % < < < w r w 1 . V a.:.9.s   O ` R Y.y.s.+.' J ",
"OXOX-.k J.+.k E E E ( w.J.H.H.J.x.H.Q.W._.oXOXH.H.OX{.oXOXOXOXOX'.{.Q.'.R.f.V < % 3 a f f f 3 > O Z Q.M.8.u o o z F Y.r.=.N _ { ",
"OX*Xe.e.v.E k H E E ] f.G.x.x.H.e.V.x.z.H.~.H.R.oX[.J.`.OX`.~.`.'.'.H./.oXH.V 1 O a >.>.,.d - 0 O Z T.7.8.y r 6 < z W.(.&.^ c.^ ",
"].J.G.G.! k t F E E _ e.H.H.R.G.f.v.e.v.G.R.H.W.OX`.G.Q.OX~.R.W.R.H.V.J.|.`.V > X a s $ <.s , p o B J.7.8.y B z ; z E.(./.+XI._ ",
"J.] h.G.[ k 5 F H E q.f.R.'.R.V.v.x.J.Q.Q.R.'.~.'.`.W.R.[.J.J.'.v.H.H.H.'.J.N 2 X h 3.u 6.h , q . C R.7.8.u z e - D '.W.P.oXU.[ ",
"A.E q.{ ! n , k H E @.V.J./.R.`.'.H.'.OX{.Q._.~.J.'.XXH.v.x.Q.[.R.Q.V.s.H.$.k N - h 1.s 3.h < 2 . N R.O.6.u z l > S '.+X[.[.W.{ ",
"B.0.! T R k : j k F ` q.x.J.H.XXOXXXoXOXoX'.J.~.`.`.R.f.w.G.J.H.G.V.H.q.s.) N U 8 h 1.,.,.a < q o C J.O.2.@ b l - S |./.(.P.P.W ",
"N.{ G m D k > t k b R q.f.H.Y.R.oX].oX|.OX'.I.J.[.'.Q.j.v.H.j.w.u.{ ] ] ' ( k N r r p p p 2 < w o k H.o.d @ C z = b ].#Xc.l.c.Q ",
"N.{ D.k k k , 7 k b R q.0.G.R.J.J._.oX].[.Q.Q._.{.[.'.J.V.V.q.0.q.( T ) ] _ z p q r p p q q w r X C =.u @   @ % , B '.+XK.&.| { ",
"B.' B ; k k ; 6 k b R 0.@.f.x.z.H.`.'.'.~.W.Q.oX`.`.`.J.G.j.q.q.q.J G ( ! Q k 0 < r r w w q w r O B :.*     +   - P {.}.T.U ^ s.",
"B.@.m v T j ; 6 k S D ) q.q.x.j.H._.Q.W.R.~.Q._.R.R.Q.Q.J.j.q.q.w.| T E Q W w N A 2 q 0 q r I 0 O z &.e O .   . < P |.+Xz.^ r.{ ",
"N.0.E T m j , 6 j k b T ) e.G.H.J.H.R.H.R.W.Q.H.G.H.J.H.H.x.x.s.q.q.! ' ] Q k U N < w q p r A > O z u.d.p.@.t o 8 I $X+X^.@X^.{ ",
"N.q.R T G k = 7 j k R R ' k.x.V.H.G.J.H.J.H.J.V.k.H.V.B.v.f.i.k.q.} q.q.' T 0 % . = % % # # . O . z s.f.V.Z.d.e 7 ` $X=X(.#X*X} ",
"N.0.R T G 8 = 6 7 k R Q w.w.j.k.j.V.H.H.H.G.B.z.v.V.x.G.v.i.q.q.q.j.f. .' Q 7 X O X X X X X - - o B f.f.t.s.g.=.@.#.$X,X}.*X=X*.",
"A.0.! ' T 8 = 4 j B E w.f.q.k.z.f.k.H.G.H.V.V.k.f.f.H.k.x.k.w.f.f.j.i.q.} D T T R R G n W n T @.*.w.f.i.f.f.d.f.u.` $X-X|.+X+X*.",
"H.w.T ' T j = 4 k D X.w.0.] q.e.f.f.H.J.H.v.V.V.j.s.H.v.w.v.q.i.f.u.h.w.0.T T q.} } | y.0.h.z.G.C.z.u.f.k.s.*.*.{ P  X+X}./.(.$.",
"g.q.M.k T v = 4 k D E @.] ] 0.w.e.q.e.k.x.z.e.B.k.f.k.H.w.w.w.' w.j.q.q.{ T J ' T ' } &.' q.i.w.u.f.q.{ &.&.@.{ _ K  X}.(.f.h.) ",
"N.q./ 1 G D , 4 k S R ` @.q.q.%.w.q.w.w.e.f.w.j.s.w.m.k.w.0.q.[ ( i.! R ! R ' R { ' T G R R { 0.&.t.&.{ ) ] { ( _ K ].I.S.A R ) ",
"A.w.m T ..S 5 7 j B T E ] q.q.@.q.$.q.@.w.w.w.w.w.w.j.k.w.R R 0.' } ( T T T ! ! ' ! R T T R { } | } t.&.] _ _ ^ _ H E.I.Q x r.W ",
"g.q.' 0.0.b : 5 7 k S E _ _ %.q.E ( ' E } $.q.w.w.w.w.w.0.E G ) ' ( ( R T R ! R R R G G R ! R w.&.) ) ) R R E ^ ^ b S.h. .r.i.G ",
"A.w.0.q.q.D = < 7 j B H R E X.E T G R T ( } _ ] $.] q.Q ( ) n R ( R R T G R E T T T D T ' R R @.W D D D m D H K D z Y.&.[ | 0.m ",
"H.f.w.q.0.G ; , 4 5 k D n G R D b n T E R { ( Q ( ( ] T G D k T R G m b D T D D k k T R E ( T T G b b l b b n D b l Z.i.| r.r.b ",
"N.q.i.q.0.m - ; = 5 k b S S D S n b E T ( E E E R T R G b n b n G n D D x G D x k k D n k T n b b b x l x b c z z t B.u.Q Q | b ",
"N.w.0.j.G.R , ; , , j B D b b k S T ( E _ _ R H G D D m k b b n k G b m b x b x k 8 n n v D S b l x x l l x b l l 7 N.u.~ G ..v ",
"H.f.J.L z._ , , , , k k D D k b D T E E E E G n D b S H T k k S k x v D n k k j j j B k k B b n l z z x e l z l l 7 B.q.w.^ m x ",
"H.f.E k q.E = = = , j j B k k k S D E H n D b k n k k S b k j k j 7 k b k k j 8 j k k k k k k k k k k k e 8 k 8 8 6 B.$.X.r j v ",
"E.H.q.w.m.E B C B B B S B F F E E E ` ` E E E E E E E E E F B F S F F F D F B S F B B B B C C C z B C B z z B C z z B.} b 7 ~ b ",
"_.I.G.!.P.W.oX[.`.`.`.oX'.`.OXOXOX:X:XOX:XOXOXoXOX{.oXOX{._._.].{.{.{.`._._.Q._.'.`.Q._.Q.R._.Q.E.Q._.Q.~.Q.Q.Q.Q.E.J.Q ) Q [ b ",
"E.I.I.!.P.m.h.q.q.0.0.w.b.b.b.m.I.U./.m.G.v.l.q.0.w.q.h.h.q.q.q.i.j.q.q.q.0.q.q.{ q.q.0.q.0.} ' Q { y.q.&.q.u.} } $.) m J T ~ l ",
"_.P.m.W.G.l...V.#.v 0.q.e.c.h._.X.q.G.m.q.l.h.J.o.n ..[ q.q.0.J.L T Q Q [ 0.} N.o.D 0.[ 0.' m e.L D 0.' )  .0.k.+.x ! v m T Q M ",
"Q.G.l.G.G.h.0._ 0 j 0.j.i.h.z.E 0 ! m.G.m.0.q.` 0 k ! q.v.f...E 1 T } Q [ q.) E 0 x { ! ' Q T B 1 G 0.] } 0.w.X.0 9 T v n J ! l ",
"{.^.G.!.U.m.i.0.T [ 0.m.h.0.q.0.' z.c.m.l.y.q.! T [ 0.h.G.i.0.Q T { 0.} 0.{ ' ' T Q [ Q ) ! T v n } 0.) } q.y.! D  .! m m m ! x ",
"e.{ R ] ] R J R T k n H D D b G G G T m m n n b D n k G R n b k b k b k b b j n n j x j j k j j j k k k c b b 9 b S M 8 8 8 j 6 "
};
