/* XPM */
static char *run2[] = {
/* columns rows colors chars-per-pixel */
"42 64 180 2 ",
"   c black",
".  c #010101",
"X  c #020202",
"o  c #030700",
"O  c #030403",
"+  c #030304",
"@  c #040404",
"#  c #050505",
"$  c #060504",
"%  c #060606",
"&  c #060706",
"*  c #090703",
"=  c #080707",
"-  c #080B04",
";  c #080907",
":  c #080808",
">  c #090909",
",  c #090A08",
"<  c #0A0B09",
"1  c #0B0B0A",
"2  c #0B0B0B",
"3  c #0D0B08",
"4  c #0C0C0B",
"5  c #0C0C0C",
"6  c #0C0D0D",
"7  c #0D0D0D",
"8  c #0D0E0E",
"9  c #0E0E0E",
"0  c #0F0F0F",
"q  c #141807",
"w  c #11110D",
"e  c #12120E",
"r  c #1B1D0C",
"t  c #0F0F10",
"y  c #101010",
"u  c #111111",
"i  c #121211",
"p  c #111112",
"a  c #121212",
"s  c #131312",
"d  c #131313",
"f  c #141312",
"g  c #141313",
"h  c #141511",
"j  c #151412",
"k  c #141413",
"l  c #161512",
"z  c #161513",
"x  c #171513",
"c  c #141414",
"v  c #151414",
"b  c #151515",
"n  c #161615",
"m  c #161616",
"M  c #161716",
"N  c #171716",
"B  c #171717",
"V  c #191714",
"C  c #181717",
"Z  c #171817",
"A  c #191816",
"S  c #181817",
"D  c #191917",
"F  c #1D1C14",
"G  c #181818",
"H  c #191919",
"J  c #1A1918",
"K  c #1A1A1A",
"L  c #1B1B1B",
"P  c #1C1C1C",
"I  c #1D1D1D",
"U  c #1E1E1C",
"Y  c #1F1F1D",
"T  c #1E1E1E",
"R  c #1F1F1E",
"E  c #1F1F1F",
"W  c #1F201F",
"Q  c #23230E",
"!  c #242416",
"~  c #322613",
"^  c #362B14",
"/  c #382B16",
"(  c #3B2F16",
")  c #3D321E",
"_  c #212121",
"`  c #232323",
"'  c #242424",
"]  c #252525",
"[  c #272726",
"{  c #2D2D2D",
"}  c #2E2E2E",
"|  c #2E2F2E",
" . c #2F2F2F",
".. c #362C22",
"X. c #363024",
"o. c #32312D",
"O. c #2F2F30",
"+. c #303030",
"@. c #313131",
"#. c #313231",
"$. c #323232",
"%. c #333333",
"&. c #343434",
"*. c #353535",
"=. c #363636",
"-. c #373737",
";. c #3A3834",
":. c #383838",
">. c #393939",
",. c #3A3A3A",
"<. c #3E3E3E",
"1. c #402D18",
"2. c #503B1E",
"3. c #4D3623",
"4. c #493A23",
"5. c #40392B",
"6. c #49392A",
"7. c #613F27",
"8. c #5C4022",
"9. c #5E4324",
"0. c #5B4429",
"q. c #4A4234",
"w. c #40403F",
"e. c #4E473B",
"r. c #524531",
"t. c #5B4631",
"y. c #64422A",
"u. c #6F4C2A",
"i. c #714C2B",
"p. c #734C2A",
"a. c #734D2B",
"s. c #704D2C",
"d. c #744F2C",
"f. c #784F2C",
"g. c #78502C",
"h. c #79512E",
"j. c #7B522E",
"k. c #7D532F",
"l. c #745030",
"z. c #785332",
"x. c #7F5430",
"c. c #7F5433",
"v. c #7F5836",
"b. c #7D5B3C",
"n. c #424240",
"m. c #464646",
"M. c #474747",
"N. c #494949",
"B. c #4A4A4A",
"V. c #4C4C4C",
"C. c #4E4E4E",
"Z. c #4F4F4F",
"A. c #5C4F42",
"S. c #525252",
"D. c #595959",
"F. c #5A5A5A",
"G. c #5F5F5F",
"H. c #615647",
"J. c #6B5B45",
"K. c #6A5B47",
"L. c #605F5B",
"P. c #636363",
"I. c #6C6C6C",
"U. c #8F5D36",
"Y. c #9B663E",
"T. c #A1693F",
"R. c #806143",
"E. c #80664B",
"W. c #82684E",
"Q. c #9C6C47",
"!. c #A6744F",
"~. c #B17246",
"^. c #BA784A",
"/. c #BC7B4F",
"(. c #CB8455",
"). c #DF9667",
"_. c #E29565",
"`. c #E39867",
"'. c #E59969",
"]. c None",
/* pixels */
"].].].].].].].].].].].].].].].].].].].].].].].].].].].].].].].].].].].].].].].].].].",
"].].].].].].].].].].].].].].].].].].].].].].].].].].].].].].].].].].].].].].].].].].",
"].].].].].].].].].].].].].].].].].].].].].].].].].].].].].].].].].].].].].].].].].].",
"].].].].].].].].].].].].].].].].].].].].].].].].].].].].].].].].].].].].].].].].].].",
"].].].].].].].].].].].].].].].].].].].].].].].].].].].].].].].].].].].].].].].].].].",
"].].].].].].].].].].].].].].].].].].].].].].].].].].].].].].].].].].].].].].].].].].",
"].].].].].].].].].].].].].].].].].].].].].].].].].].].].].].].].].].].].].].].].].].",
"].].].].].].].].].].].].].].].].].].].].].].].].].].].].].].].].].].].].].].].].].].",
"].].].].].].].].].].].].].].].].].].].].].].].].].].].].].].].].].].].].].].].].].].",
"].].].].].].].].].].].].].].].].].].].].].].].].].].].].].].].].].].].].].].].].].].",
"].].].].].].].].].].].].].].].].].].].].].].].].].].].].].].].].].].].].].].].].].].",
"].].].].].].].].].].].].].].].].].].].].].].].].].].].].].].].].].].].].].].].].].].",
"].].].].].].].].].].].].].].].].].].].].].].].].].].].].].].].].].].].].].].].].].].",
"].].].].].].].].].].].].].].].].].].].].].].].].].].].].].].].].].].].].].].].].].].",
"].].].].].].].].].].].].].].].].].].].].].].].].].].].].].].].].].].].].].].].].].].",
"].].].].].].].].].].].].].].].].].].].].].].].].].].].].].].].].].].].].].].].].].].",
"].].].].].].].].].].].].].].].].].].].].].].].].].].].].].].].].].].].].].].].].].].",
"].].].].].].].].].].].].].].].].].].].].].].].].].].].].].].].].].].].].].].].].].].",
"].].].].].].].].].].].].].].].].].].].].].].].].].].].].].].].].].].].].].].].].].].",
"].].].].].].].].].].].].].].].].].].].].].].].].].].].].].].].].].].].].].].].].].].",
"].].].].].].].].].].].].].].].].].].].].].].].].].].].].].].].].].].].].].].].].].].",
"].].].].].].].].].].].].].].].].].].].].].].].].].].].].].].].].].].].].].].].].].].",
"].].].].].].].].].].].].].].].].].].].].].].].].].].].].].].].].].].].].].].].].].].",
"].].].].].].].].].].].].].].].].].].].].].].].].].].].].].].].].].].].].].].].].].].",
"].].].].].].].].].].].].].].].].].].].].].].].].].].].].].].].].].].].].].].].].].].",
"].].].].].].].].].].].].].].].].].].].].].].].].].].].].].].].].].].].].].].].].].].",
"].].].].].].].].].].].].].].].].].].].].].].].].].].].].].].].].].].].].].].].].].].",
"].].].].].].].].].].].].].].].].].].].].].].].].].].].].].].].].].].].].].].].].].].",
"].].].].].].].].].].].].].].].].].].].].].].].].].].].].].].].].].].].].].].].].].].",
"].].].].].].].].].].].].].].].].].].].].].].].].].].].].].].].].].].].].].].].].].].",
"].].].].].].].].].].].].].].].].].].].].].].].].].].].].].].].].].].].].].].].].].].",
"].].].].].].].].].].].].].].].].].].].].].].].].].].].].].].].].].].].].].].].].].].",
"].].].].].].].].].].].].].].].].].].].].].].].].].].].].].].].].].].].].].].].].].].",
"].].].].].].].].].].].].].].].].].].].].].].].].].].].].].].].].].].].].].].].].].].",
"].].].].].].].].].].].].].].].].].].].].].].].].].].].].].].].].].].].].].].].].].].",
"].].].].].].].].].].].].].].].].].].].].].].].].].].].].].].].].].].].].].].].].].].",
"].].].].].].].].].].].].].].].].].].].].].].].].].].].].].].].].].].].].].].].].].].",
"].].].].].].].].].].].].].].].].].].].].].].].].].].].].].].].].].].].].].].].].].].",
"].].].].].].].].].].].].].].].].].].].].].].].].].].].].].].].].].].].].].].].].].].",
"].].].].].].].].].].].].].].].].].].].].].].].].].].].].].].].].].].].].].].].].].].",
"].].].].].].].].].].].].].].].].].].].].].].].].].].].].].].].].].].].].].].].].].].",
"].].].].].].].].].].].].].].].].].].].].].].].].].].].].].].].].].].].].].].].].].].",
"].].].].].].].].].].].].].].].].].].].].].].].].].].].].].].].].].].].].].].].].].].",
"].].].].].].].].].].].].].].].].].].].].].].].].].].].].].].].].].].].].].].].].].].",
"].].].].].].].].].].].].].].].].].].].].].].].].].].].].].].].].].].].].].].].].].].",
"].].].].].].].].].].].].].].].].].].].].].].].].].].].].].].].].].].].].].].].].].].",
"].].].].].].].].].].].].].].].].].].].].].].].].].].].].].].].].].].].].].].].].].].",
"].].].].].].].].].].D.].].].].].].].].].].].].].].].].].].].].].].].].].].].].].].].",
"].].].].].].].P.Z.N.%.m.Z.S.].].].].].].].].].].].].].].].].].].].].].].].].].].].].",
"].].].].].].].,.&.,.| &.%.,.].].].].].].].].].].].].].].].].].].].].].].].].].].].].",
"].].].].].].D.%.| &.%.&.| %.Z.].].].].].].].].].].].].].].].].].].].].].].].].].].].",
"].].].].].].w.| O.-.%.&.%.%.N.].].].].].].].].].].].].].].].].].].].].].].].].].].].",
"].].].!.Q.t.o.U T | | %.T _ -.H.].].].].].].].].].].].].].].].].].].].].].].].].].].",
"].K.U.~.Y.~ 3 $ 2 d b ` ' 4 l X.K.].].].].].].].].].].].].].].].].].].].].].].].].].",
"].r.f.^.z.*   2 w J l W U w $ R 5.].].].].].].].].].].].].].].].].].].].].].].].].].",
"].4.k.T./ o   2 @         4 4 F ) ].].].].].].].].].].].].].].].].].].].].].].].].].",
"].9.U.u.Q q $ %.Z @ $ $ b M.%.n.e.0.].].].].].].].].].].].].].].].].].].].].].].].].",
"E.k.h.( ! l $ 0 0 p p p b J T <.I.q.].].].].].].].].].].].].].].].].].].].].].].].].",
"b.h.2.r < O = 2 p b b b p b p J Z.G.].].].].].].].].].].].].].].].].].].].].].].].].",
"p.8.^ - + 2 0 0 p V D b b b b p [ G.].].].].].].].].].].].].].].].].].].].].].].].].",
"d.u.( = p p 0 p d B J b l b b g b N.].].].].].].].].].].].].].].].].].].].].].].].].",
"/.(.7.7 c c p b b G K B c p b p p [ A.].].].].].].].].].].].].].].].].].].].].].].].",
"_.`.y.0 d b d B B J I B b b l l d b 6.h.z.W.].].].].].].].].].].].].].].].].].].].].",
"'.).3.0 d V B B G J T J J V D l c p ..p.p.l.R.].].].].].].].].].].].].].].].].].].]."
};
