/* XPM */
static char *run3[] = {
/* columns rows colors chars-per-pixel */
"42 64 207 2 ",
"   c #000000",
".  c #020300",
"X  c #030303",
"o  c #040301",
"O  c #040403",
"+  c #040404",
"@  c #050505",
"#  c #050604",
"$  c #060606",
"%  c #070706",
"&  c #080803",
"*  c #0B0B05",
"=  c #080806",
"-  c #080906",
";  c #070808",
":  c #080808",
">  c #090908",
",  c #0A0A09",
"<  c #0A0A0A",
"1  c #0B0B0B",
"2  c #0F0C09",
"3  c #0C0C0C",
"4  c #0D0C0C",
"5  c #0D0D0C",
"6  c #0D0D0D",
"7  c #0E0D0D",
"8  c #0E0E0C",
"9  c #0E0E0D",
"0  c #0E0E0E",
"q  c #0E0E0F",
"w  c #0F0F0F",
"e  c #100E0C",
"r  c #100F0C",
"t  c #100F0D",
"y  c #0E1303",
"u  c #12110E",
"i  c #12110F",
"p  c #191B0A",
"a  c #111111",
"s  c #111112",
"d  c #121212",
"f  c #131312",
"g  c #131313",
"h  c #141313",
"j  c #141413",
"k  c #171512",
"l  c #171613",
"z  c #141414",
"x  c #151414",
"c  c #151514",
"v  c #151515",
"b  c #171614",
"n  c #161615",
"m  c #161616",
"M  c #171716",
"N  c #171717",
"B  c #181716",
"V  c #181717",
"C  c #1C1C12",
"Z  c #181816",
"A  c #181917",
"S  c #1D1A16",
"D  c #171718",
"F  c #181818",
"G  c #181918",
"H  c #191919",
"J  c #1A1A19",
"K  c #1A1A1A",
"L  c #1B1B1B",
"P  c #1C1C1B",
"I  c #1B1B1C",
"U  c #1C1C1C",
"Y  c #1D1D1D",
"T  c #1D1E1D",
"R  c #1F1E1C",
"E  c #1E1E1E",
"W  c #1F1F1F",
"Q  c #1E2011",
"!  c #2A2712",
"~  c #21211D",
"^  c #342513",
"/  c #372D15",
"(  c #3B2F18",
")  c #202020",
"_  c #212121",
"`  c #232323",
"'  c #242424",
"]  c #252525",
"[  c #2B2720",
"{  c #282724",
"}  c #2F2821",
"|  c #282828",
" . c #2A2A2A",
".. c #2B2B2B",
"X. c #2B2C2A",
"o. c #2D2C2C",
"O. c #2D2D2D",
"+. c #2F2F2F",
"@. c #322D21",
"#. c #3F3626",
"$. c #30302F",
"%. c #303030",
"&. c #313131",
"*. c #323232",
"=. c #333332",
"-. c #333333",
";. c #343434",
":. c #353535",
">. c #363636",
",. c #3A3A3A",
"<. c #3C3C3C",
"1. c #413118",
"2. c #40301A",
"3. c #4C381C",
"4. c #4C3424",
"5. c #4E3E26",
"6. c #433B2C",
"7. c #473F2F",
"8. c #543D22",
"9. c #563F25",
"0. c #453A31",
"q. c #413F3B",
"w. c #4F412D",
"e. c #4E4431",
"r. c #4D4334",
"t. c #5D4B33",
"y. c #604323",
"u. c #624424",
"i. c #654727",
"p. c #61432C",
"a. c #6B4729",
"s. c #60482E",
"d. c #694828",
"f. c #6A4828",
"g. c #6B4828",
"h. c #6A4A2B",
"j. c #6C4928",
"k. c #6E4A28",
"l. c #714D2B",
"z. c #724F2D",
"x. c #754F2C",
"c. c #764F2C",
"v. c #754F2E",
"b. c #79502D",
"n. c #7B512E",
"m. c #79522F",
"M. c #675137",
"N. c #705131",
"B. c #725233",
"V. c #765130",
"C. c #765434",
"Z. c #7F5432",
"A. c #7A5839",
"S. c #404040",
"D. c #414141",
"F. c #424242",
"G. c #434343",
"H. c #484848",
"J. c #494949",
"K. c #4A4A4A",
"L. c #4F4F4F",
"P. c #545454",
"I. c #5E5952",
"U. c #5C5954",
"Y. c #5E5C56",
"T. c #585858",
"R. c #595959",
"E. c #5C5D5D",
"W. c #5F5E5C",
"Q. c #605643",
"!. c #616161",
"~. c #656565",
"^. c #805430",
"/. c #805631",
"(. c #825732",
"). c #885933",
"_. c #845939",
"`. c #865F3E",
"'. c #8E5C3B",
"]. c #8B603C",
"[. c #99653D",
"{. c #9B653C",
"}. c #836142",
"|. c #846247",
" X c #8A6647",
".X c #886749",
"XX c #956641",
"oX c #9D6941",
"OX c #886E54",
"+X c #916E52",
"@X c #A16B43",
"#X c #AB6E42",
"$X c #AB6F45",
"%X c #AF7145",
"&X c #B3764B",
"*X c #B47549",
"=X c #C88253",
"-X c #CE8658",
";X c #D98E5E",
":X c #DF9363",
">X c #E29564",
",X c #E19768",
"<X c #E49868",
"1X c #E69A6B",
"2X c #E99D6C",
"3X c #EA9D6D",
"4X c None",
/* pixels */
"4X4X4X4X4X4X4X4X4X4X4X4X4X4X4X4X4X4X4X4X4X4X4X4X4X4X4X4X4X4X4X4X4X4X4X4X4X4X4X4X4X4X",
"4X4X4X4X4X4X4X4X4X4X4X4X4X4X4X4X4X4X4X4X4X4X4X4X4X4X4X4X4X4X4X4X4X4X4X4X4X4X4X4X4X4X",
"4X4X4X4X4X4X4X4X4X4X4X4X4X4X4X4X4X4X4X4X4X4X4X4X4X4X4X4X4X4X4X4X4X4X4X4X4X4X4X4X4X4X",
"4X4X4X4X4X4X4X4X4X4X4X4X4X4X4X4X4X4X4X4X4X4X4X4X4X4X4X4X4X4X4X4X4X4X4X4X4X4X4X4X4X4X",
"4X4X4X4X4X4X4X4X4X4X4X4X4X4X4X4X4X4X4X4X4X4X4X4X4X4X4X4X4X4X4X4X4X4X4X4X4X4X4X4X4X4X",
"4X4X4X4X4X4X4X4X4X4X4X4X4X4X4X4X4X4X4X4X4X4X4X4X4X4X4X4X4X4X4X4X4X4X4X4X4X4X4X4X4X4X",
"4X4X4X4X4X4X4X4X4X4X4X4X4X4X4X4X4X4X4X4X4X4X4X4X4X4X4X4X4X4X4X4X4X4X4X4X4X4X4X4X4X4X",
"4X4X4X4X4X4X4X4X4X4X4X4X4X4X4X4X4X4X4X4X4X4X4X4X4X4X4X4X4X4X4X4X4X4X4X4X4X4X4X4X4X4X",
"4X4X4X4X4X4X4X4X4X4X4X4X4X4X4X4X4X4X4X4X4X4X4X4X4X4X4X4X4X4X4X4X4X4X4X4X4X4X4X4X4X4X",
"4X4X4X4X4X4X4X4X4X4X4X4X4X4X4X4X4X4X4X4X4X4X4X4X4X4X4X4X4X4X4X4X4X4X4X4X4X4X4X4X4X4X",
"4X4X4X4X4X4X4X4X4X4X4X4X4X4X4X4X4X4X4X4X4X4X4X4X4X4X4X4X4X4X4X4X4X4X4X4X4X4X4X4X4X4X",
"4X4X4X4X4X4X4X4X4X4X4X4X4X4X4X4X4X4X4X4X4X4X4X4X4X4X4X4X4X4X4X4X4X4X4X4X4X4X4X4X4X4X",
"4X4X4X4X4X4X4X4X4X4X4X4X4X4X4X4X4X4X4X4X4X4X4X4X4X4X4X4X4X4X4X4X4X4X4X4X4X4X4X4X4X4X",
"4X4X4X4X4X4X4X4X4X4X4X4X4X4X4X4X4X4X4X4X4X4X4X4X4X4X4X4X4X4X4X4X4X4X4X4X4X4X4X4X4X4X",
"4X4X4X4X4X4X4X4X4X4X4X4X4X4X4X4X4X4X4X4X4X4X4X4X4X4X4X4X4X4X4X4X4X4X4X4X4X4X4X4X4X4X",
"4X4X4X4X4X4X4X4X4X4X4X4X4X4X4X4X4X4X4X4X4X4X4X4X4X4X4X4X4X4X4X4X4X4X4X4X4X4X4X4X4X4X",
"4X4X4X4X4X4X4X4X4X4X4X4X4X4X4X4X4X4X4X4X4X4X4X4X4X4X4X4X4X4X4X4X4X4X4X4X4X4X4X4X4X4X",
"4X4X4X4X4X4X4X4X4X4X4X4X4X4X4X4X4X4X4X4X4X4X4X4X4X4X4X4X4X4X4X4X4X4X4X4X4X4X4X4X4X4X",
"4X4X4X4X4X4X4X4X4X4X4X4X4X4X4X4X4X4X4X4X4X4X4X4X4X4X4X4X4X4X4X4X4X4X4X4X4X4X4X4X4X4X",
"4X4X4X4X4X4X4X4X4X4X4X4X4X4X4X4X4X4X4X4X4X4X4X4X4X4X4X4X4X4X4X4X4X4X4X4X4X4X4X4X4X4X",
"4X4X4X4X4X4X4X4X4X4X4X4X4X4X4X4X4X4X4X4X4X4X4X4X4X4X4X4X4X4X4X4X4X4X4X4X4X4X4X4X4X4X",
"4X4X4X4X4X4X4X4X4X4X4X4X4X4X4X4X4X4X4X4X4X4X4X4X4X4X4X4X4X4X4X4X4X4X4X4X4X4X4X4X4X4X",
"4X4X4X4X4X4X4X4X4X4X4X4X4X4X4X4X4X4X4X4X4X4X4X4X4X4X4X4X4X4X4X4X4X4X4X4X4X4X4X4X4X4X",
"4X4X4X4X4X4X4X4X4X4X4X4X4X4X4X4X4X4X4X4X4X4X4X4X4X4X4X4X4X4X4X4X4X4X4X4X4X4X4X4X4X4X",
"4X4X4X4X4X4X4X4X4X4X4X4X4X4X4X4X4X4X4X4X4X4X4X4X4X4X4X4X4X4X4X4X4X4X4X4X4X4X4X4X4X4X",
"4X4X4X4X4X4X4X4X4X4X4X4X4X4X4X4X4X4X4X4X4X4X4X4X4X4X4X4X4X4X4X4X4X4X4X4X4X4X4X4X4X4X",
"4X4X4X4X4X4X4X4X4X4X4X4X4X4X4X4X4X4X4X4X4X4X4X4X4X4X4X4X4X4X4X4X4X4X4X4X4X4X4X4X4X4X",
"4X4X4X4X4X4X4X4X4X4X4X4X4X4X4X4X4X4X4X4X4X4X4X4X4X4X4X4X4X4X4X4X4X4X4X4X4X4X4X4X4X4X",
"4X4X4X4X4X4X4X4X4X4X4X4X4X4X4X4X4X4X4X4X4X4X4X4X4X4X4X4X4X4X4X4X4X4X4X4X4X4X4X4X4X4X",
"4X4X4X4X4X4X4X4X4X4X4X4X4X4X4X4X4X4X4X4X4X4X4X4X4X4X4X4X4X4X4X4X4X4X4X4X4X4X4X4X4X4X",
"4X4X4X4X4X4X4X4X4X4X4X4X4X4X4X4X4X4X4X4X4X4X4X4X4X4X4X4X4X4X4X4X4X4X4X4X4X4X4X4X4X4X",
"4X4X4X4X4X4X4X4X4X4X4X4X4X4X4X4X4X4X4X4X4X4X4X4X4X4X4X4X4X4X4X4X4X4X4X4X4X4X4X4X4X4X",
"4X4X4X4X4X4X4X4X4X4X4X4X4X4X4X4X4X4X4X4X4X4X4X4X4X4X4X4X4X4X4X4X4X4X4X4X4X4X4X4X4X4X",
"4X4X4X4X4X4X4X4X4X4X4X4X4X4X4X4X4X4X4X4X4X4X4X4X4X4X4X4X4X4X4X4X4X4X4X4X4X4X4X4X4X4X",
"4X4X4X4X4X4X4X4X4X4X4X4X4X4X4X4X4X4X4X4X4X4X4X4X4X4X4X4X4X4X4X4X4X4X4X4X4X4X4X4X4X4X",
"4X4X4X4X4X4X4X4X4X4X4X4X4X4X4X4X4X4X4X4X4X4X4X4X4X4X4X4X4X4X4X4X4X4X4X4X4X4X4X4X4X4X",
"4X4X4X4X4X4X4X4X4X4X4X4X4X4X4X4X4X4X4X4X4X4X4X4X4X4X4X4X4X4X4X4X4X4X4X4X4X4X4X4X4X4X",
"4X4X4X4X4X4X4X4X4X4X4X4X4X4X4X4X4X4X4X4X4X4X4X4X4X4X4X4X4X4X4X4X4X4X4X4X4X4X4X4X4X4X",
"4X4X4X4X4X4X4X4X4X4X4X4X4X4X4X4X4X4X4X4X4X4X4X4X4X4X4X4X4X4X4X4X4X4X4X4X4X4X4X4X4X4X",
"4X4X4X4X4X4X4X4X4X4X4X4X4X4X4X4X4X4X4X4X4X4X4X4X4X4X4X4X4X4X4X4X4X4X4X4X4X4X4X4X4X4X",
"4X4X4X4X4X4X4X4X4X4X4X4X4X4X4X4X4X4X4X4X4X4X4X4X4X4X4X4X4X4X4X4X4X4X4X4X4X4X4X4X4X4X",
"4X4X4X4X4X4X4X4X4X4X4X4X4X4X4X4X4X4X4X4X4X4X4X4X4X4X4X4X4X4X4X4X4X4X4X4X4X4X4X4X4X4X",
"4X4X4X4X4X4X4X4X4X4X4X4X4X4X4X4X4X4X4X4X4X4X4X4X4X4X4X4X4X4X4X4X4X4X4X4X4X4X4X4X4X4X",
"4X4X4X4X4X4X4X4X4X4X4X4X4X4X4X4X4X4X4X4X4X4X4X4X4X4X4X4X4X4X4X4X4X4X4X4X4X4X4X4X4X4X",
"4X4X4X4X4X4X4X4X4X4X4X4X4X4X4X4X4X4X4X4X4X4X4X4X4X4X4X4X4X4X4X4X4X4X4X4X4X4X4X4X4X4X",
"4X4X4X4X4X4X4X4X4X4X4X4X4X4X4X4X4X4X4X4X4X4X4X4X4X4X4X4X4X4X4X4X4X4X4X4X4X4X4X4X4X4X",
"4X4X4X4X4X4X4X4X4X4X4X~.R.H.L.R.4X4X4X4X4X4X4X4X4X4X4X4X4X4X4X4X4X4X4X4X4X4X4X4X4X4X",
"4X4X4X4X4X4X4X4X4X4XP.<.G.%.;.G.G.4X4X4X4X4X4X4X4X4X4X4X4X4X4X4X4X4X4X4X4X4X4X4X4X4X",
"4X4X4X4X4X4X4X4X4X4X<.+.;.-.%.;.%.J.4X4X4X4X4X4X4X4X4X4X4X4X4X4X4X4X4X4X4X4X4X4X4X4X",
"4X4X4X4X4X4X4X4X4XR.;.%.;.-.;.%.$.G.4X4X4X4X4X4X4X4X4X4X4X4X4X4X4X4X4X4X4X4X4X4X4X4X",
"4X4X4X4X4X4X4X4X|.q.X.o.;.;.>.%.o.G.I.4X4X4X4X4X4X4X4X4X4X4X4X4X4X4X4X4X4X4X4X4X4X4X",
"4X4X4X4X4X.XoX@X9.[ i 4 D '  .Y s R 6.4X4X4X4X4X4X4X4X4X4X4X4X4X4X4X4X4X4X4X4X4X4X4X",
"4X4X4X4XQ.h.%X&X^ O O i D G Y =.l 4 ~ r.4X4X4X4X4X4X4X4X4X4X4X4X4X4X4X4X4X4X4X4X4X4X",
"4X4X4X4Xe.g.#XZ.&   O % = , 4 , % + 4 @.4X4X4X4X4X4X4X4X4X4X4X4X4X4X4X4X4X4X4X4X4X4X",
"4X4X4X4X5.c.{.( y   U m       + ' ' { #.s.4X4X4X4X4X4X4X4X4X4X4X4X4X4X4X4X4X4X4X4X4X",
"4X4X4X4Xi.).g.! Q = Y I 1 4 4 s ;.%.<.W.w.t.4X4X4X4X4X4X4X4X4X4X4X4X4X4X4X4X4X4X4X4X",
"4X4X4XOX^.c./ C 8 % , 4 g m s g h z _ E.Y.7.4X4X4X4X4X4X4X4X4X4X4X4X4X4X4X4X4X4X4X4X",
"4X4X4XC.k.3.p + O , 4 s D m m g h m h  .!.4X4X4X4X4X4X4X4X4X4X4X4X4X4X4X4X4X4X4X4X4X",
"4X4X}.V.y.2.* $ 4 4 s s m G m g z z h m J.4X4X4X4X4X4X4X4X4X4X4X4X4X4X4X4X4X4X4X4X4X",
"4X4Xz.^.{.a.e d g s s g m G D z z h h h o.Y.4X4X4X4X4X4X4X4X4X4X4X4X4X4X4X4X4X4X4X4X",
"4X4X].-X>X'.r h h z g D G U F m z z z h Z 0.B.B.4X4X4X4X4X4X4X4X4X4X4X4X4X4X4X4X4X4X",
"4X4X&X>X2X_.r h h m m F F Y F F m B k z s } v.b.A.4X4X4X4X4X4X4X4X4X4X4X4X4X4X4X4X4X",
"4XXX=X1X1Xp.6 z B G I F G ) G I G G B m s S 8.u.k.V.`. X4X4X4X4X4X4X4X4X4X4X4X4X4X4X",
"+X$X;X2X,X4.6 B G J U U ) ..` Y Y G G m s r 2.g.^.^.b.l.M.4X4X4X4X4X4X4X4X4X4X4X4X4X"
};
