/* XPM */
static char *run4[] = {
/* columns rows colors chars-per-pixel */
"42 64 230 2 ",
"   c #000000",
".  c #020202",
"X  c #030303",
"o  c #040301",
"O  c #030500",
"+  c #050504",
"@  c #050704",
"#  c #060605",
"$  c #070705",
"%  c #060606",
"&  c #070707",
"*  c #080706",
"=  c #080807",
"-  c #090B07",
";  c #0F0D06",
":  c #080808",
">  c #090909",
",  c #0A0A08",
"<  c #0A0A09",
"1  c #0B0B0B",
"2  c #0C0C0B",
"3  c #0D0C0B",
"4  c #0C0C0C",
"5  c #0D0D0C",
"6  c #0D0D0D",
"7  c #0E0E0D",
"8  c #0F0F0D",
"9  c #0E0E0E",
"0  c #0F0F0F",
"q  c #110F07",
"w  c #111605",
"e  c #16100B",
"r  c #12100E",
"t  c #12110E",
"y  c #17120D",
"u  c #15110E",
"i  c #1E1E0C",
"p  c #101010",
"a  c #111111",
"s  c #111212",
"d  c #121212",
"f  c #121313",
"g  c #131313",
"h  c #141313",
"j  c #141413",
"k  c #151413",
"l  c #161412",
"z  c #161513",
"x  c #131314",
"c  c #141414",
"v  c #151414",
"b  c #151514",
"n  c #151515",
"m  c #171615",
"M  c #161616",
"N  c #171616",
"B  c #171716",
"V  c #161617",
"C  c #171717",
"Z  c #181612",
"A  c #181714",
"S  c #1B1C10",
"D  c #181817",
"F  c #181818",
"G  c #181918",
"H  c #191919",
"J  c #1A1919",
"K  c #1B1B18",
"L  c #1A1A19",
"P  c #1A1A1A",
"I  c #1B1B1B",
"U  c #1B1C1A",
"Y  c #1C1C1C",
"T  c #1D1D1D",
"R  c #1E1E1E",
"E  c #1F1F1E",
"W  c #1F1F1F",
"Q  c #212214",
"!  c #2D2813",
"~  c #23201D",
"^  c #2B261E",
"/  c #2E291E",
"(  c #3A2C18",
")  c #3D3017",
"_  c #202020",
"`  c #212121",
"'  c #222222",
"]  c #232322",
"[  c #232323",
"{  c #242424",
"}  c #252525",
"|  c #282726",
" . c #282828",
".. c #292929",
"X. c #2B2B2B",
"o. c #2C2D2A",
"O. c #2F2F2B",
"+. c #2D2D2D",
"@. c #2E2D2D",
"#. c #2E2E2E",
"$. c #2F2F2E",
"%. c #2F2F2F",
"&. c #393226",
"*. c #32322D",
"=. c #38322B",
"-. c #3E382B",
";. c #303030",
":. c #313130",
">. c #313131",
",. c #323232",
"<. c #333333",
"1. c #333432",
"2. c #343434",
"3. c #353435",
"4. c #353535",
"5. c #363636",
"6. c #373837",
"7. c #3A3A35",
"8. c #3B3B3A",
"9. c #3C3C3C",
"0. c #3D3D3D",
"q. c #3E3E3C",
"w. c #3E3E3E",
"e. c #3F3F3F",
"r. c #412D19",
"t. c #49361B",
"y. c #48361D",
"u. c #4C351D",
"i. c #4B391E",
"p. c #503B1D",
"a. c #4A3720",
"s. c #5D3F2B",
"d. c #443C30",
"f. c #453F30",
"g. c #4F4028",
"h. c #5E4223",
"j. c #56452D",
"k. c #5A442B",
"l. c #47413C",
"z. c #504637",
"x. c #514836",
"c. c #604325",
"v. c #604426",
"b. c #654525",
"n. c #6C4927",
"m. c #624629",
"M. c #66492A",
"N. c #634B2F",
"B. c #6C4928",
"V. c #6D4A28",
"C. c #6E4B29",
"Z. c #6D4B2D",
"A. c #704B29",
"S. c #704C2B",
"D. c #744E2B",
"F. c #704E2C",
"G. c #714F2E",
"H. c #744F2D",
"J. c #78502D",
"K. c #7C512D",
"L. c #7E522F",
"P. c #684630",
"I. c #705033",
"U. c #775535",
"Y. c #7B5431",
"T. c #785433",
"R. c #7B5438",
"E. c #404040",
"W. c #444444",
"Q. c #484848",
"!. c #494949",
"~. c #4E4E4E",
"^. c #5B5340",
"/. c #53504D",
"(. c #59544D",
"). c #565656",
"_. c #575757",
"`. c #5A5A5A",
"'. c #6A5C47",
"]. c #616161",
"[. c #666562",
"{. c #666666",
"}. c #707070",
"|. c #825531",
" X c #805631",
".X c #805432",
"XX c #845732",
"oX c #855732",
"OX c #865732",
"+X c #815734",
"@X c #825A39",
"#X c #875F3C",
"$X c #8B5E3A",
"%X c #8C5C38",
"&X c #935F38",
"*X c #9A633B",
"=X c #99663F",
"-X c #9C653C",
";X c #A3693F",
":X c #846243",
">X c #896343",
",X c #8B6547",
"<X c #84674A",
"1X c #81664C",
"2X c #8B684C",
"3X c #926643",
"4X c #9D6945",
"5X c #8B735A",
"6X c #A06941",
"7X c #A56B40",
"8X c #A66D44",
"9X c #A76F45",
"0X c #A86D47",
"qX c #AB7249",
"wX c #B37346",
"eX c #BE7B4E",
"rX c #C27E50",
"tX c #CA8456",
"yX c #D68B5B",
"uX c #DB8F5F",
"iX c #DC9060",
"pX c #E39767",
"aX c #E49665",
"sX c #E89C6C",
"dX c #E99D6C",
"fX c #E99D6D",
"gX c #EA9D6D",
"hX c #E99E6E",
"jX c #EA9E6E",
"kX c None",
/* pixels */
"kXkXkXkXkXkXkXkXkXkXkXkXkXkXkXkXkXkXkXkXkXkXkXkXkXkXkXkXkXkXkXkXkXkXkXkXkXkXkXkXkXkX",
"kXkXkXkXkXkXkXkXkXkXkXkXkXkXkXkXkXkXkXkXkXkXkXkXkXkXkXkXkXkXkXkXkXkXkXkXkXkXkXkXkXkX",
"kXkXkXkXkXkXkXkXkXkXkXkXkXkXkXkXkXkXkXkXkXkXkXkXkXkXkXkXkXkXkXkXkXkXkXkXkXkXkXkXkXkX",
"kXkXkXkXkXkXkXkXkXkXkXkXkXkXkXkXkXkXkXkXkXkXkXkXkXkXkXkXkXkXkXkXkXkXkXkXkXkXkXkXkXkX",
"kXkXkXkXkXkXkXkXkXkXkXkXkXkXkXkXkXkXkXkXkXkXkXkXkXkXkXkXkXkXkXkXkXkXkXkXkXkXkXkXkXkX",
"kXkXkXkXkXkXkXkXkXkXkXkXkXkXkXkXkXkXkXkXkXkXkXkXkXkXkXkXkXkXkXkXkXkXkXkXkXkXkXkXkXkX",
"kXkXkXkXkXkXkXkXkXkXkXkXkXkXkXkXkXkXkXkXkXkXkXkXkXkXkXkXkXkXkXkXkXkXkXkXkXkXkXkXkXkX",
"kXkXkXkXkXkXkXkXkXkXkXkXkXkXkXkXkXkXkXkXkXkXkXkXkXkXkXkXkXkXkXkXkXkXkXkXkXkXkXkXkXkX",
"kXkXkXkXkXkXkXkXkXkXkXkXkXkXkXkXkXkXkXkXkXkXkXkXkXkXkXkXkXkXkXkXkXkXkXkXkXkXkXkXkXkX",
"kXkXkXkXkXkXkXkXkXkXkXkXkXkXkXkXkXkXkXkXkXkXkXkXkXkXkXkXkXkXkXkXkXkXkXkXkXkXkXkXkXkX",
"kXkXkXkXkXkXkXkXkXkXkXkXkXkXkXkXkXkXkXkXkXkXkXkXkXkXkXkXkXkXkXkXkXkXkXkXkXkXkXkXkXkX",
"kXkXkXkXkXkXkXkXkXkXkXkXkXkXkXkXkXkXkXkXkXkXkXkXkXkXkXkXkXkXkXkXkXkXkXkXkXkXkXkXkXkX",
"kXkXkXkXkXkXkXkXkXkXkXkXkXkXkXkXkXkXkXkXkXkXkXkXkXkXkXkXkXkXkXkXkXkXkXkXkXkXkXkXkXkX",
"kXkXkXkXkXkXkXkXkXkXkXkXkXkXkXkXkXkXkXkXkXkXkXkXkXkXkXkXkXkXkXkXkXkXkXkXkXkXkXkXkXkX",
"kXkXkXkXkXkXkXkXkXkXkXkXkXkXkXkXkXkXkXkXkXkXkXkXkXkXkXkXkXkXkXkXkXkXkXkXkXkXkXkXkXkX",
"kXkXkXkXkXkXkXkXkXkXkXkXkXkXkXkXkXkXkXkXkXkXkXkXkXkXkXkXkXkXkXkXkXkXkXkXkXkXkXkXkXkX",
"kXkXkXkXkXkXkXkXkXkXkXkXkXkXkXkXkXkXkXkXkXkXkXkXkXkXkXkXkXkXkXkXkXkXkXkXkXkXkXkXkXkX",
"kXkXkXkXkXkXkXkXkXkXkXkXkXkXkXkXkXkXkXkXkXkXkXkXkXkXkXkXkXkXkXkXkXkXkXkXkXkXkXkXkXkX",
"kXkXkXkXkXkXkXkXkXkXkXkXkXkXkXkXkXkXkXkXkXkXkXkXkXkXkXkXkXkXkXkXkXkXkXkXkXkXkXkXkXkX",
"kXkXkXkXkXkXkXkXkXkXkXkXkXkXkXkXkXkXkXkXkXkXkXkXkXkXkXkXkXkXkXkXkXkXkXkXkXkXkXkXkXkX",
"kXkXkXkXkXkXkXkXkXkXkXkXkXkXkXkXkXkXkXkXkXkXkXkXkXkXkXkXkXkXkXkXkXkXkXkXkXkXkXkXkXkX",
"kXkXkXkXkXkXkXkXkXkXkXkXkXkXkXkXkXkXkXkXkXkXkXkXkXkXkXkXkXkXkXkXkXkXkXkXkXkXkXkXkXkX",
"kXkXkXkXkXkXkXkXkXkXkXkXkXkXkXkXkXkXkXkXkXkXkXkXkXkXkXkXkXkXkXkXkXkXkXkXkXkXkXkXkXkX",
"kXkXkXkXkXkXkXkXkXkXkXkXkXkXkXkXkXkXkXkXkXkXkXkXkXkXkXkXkXkXkXkXkXkXkXkXkXkXkXkXkXkX",
"kXkXkXkXkXkXkXkXkXkXkXkXkXkXkXkXkXkXkXkXkXkXkXkXkXkXkXkXkXkXkXkXkXkXkXkXkXkXkXkXkXkX",
"kXkXkXkXkXkXkXkXkXkXkXkXkXkXkXkXkXkXkXkXkXkXkXkXkXkXkXkXkXkXkXkXkXkXkXkXkXkXkXkXkXkX",
"kXkXkXkXkXkXkXkXkXkXkXkXkXkXkXkXkXkXkXkXkXkXkXkXkXkXkXkXkXkXkXkXkXkXkXkXkXkXkXkXkXkX",
"kXkXkXkXkXkXkXkXkXkXkXkXkXkXkXkXkXkXkXkXkXkXkXkXkXkXkXkXkXkXkXkXkXkXkXkXkXkXkXkXkXkX",
"kXkXkXkXkXkXkXkXkXkXkXkXkXkXkXkXkXkXkXkXkXkXkXkXkXkXkXkXkXkXkXkXkXkXkXkXkXkXkXkXkXkX",
"kXkXkXkXkXkXkXkXkXkXkXkXkXkXkXkXkXkXkXkXkXkXkXkXkXkXkXkXkXkXkXkXkXkXkXkXkXkXkXkXkXkX",
"kXkXkXkXkXkXkXkXkXkXkXkXkXkXkXkXkXkXkXkXkXkXkXkXkXkXkXkXkXkXkXkXkXkXkXkXkXkXkXkXkXkX",
"kXkXkXkXkXkXkXkXkXkXkXkXkXkXkXkXkXkXkXkXkXkXkXkXkXkXkXkXkXkXkXkXkXkXkXkXkXkXkXkXkXkX",
"kXkXkXkXkXkXkXkXkXkXkXkXkXkXkXkXkXkXkXkXkXkXkXkXkXkXkXkXkXkXkXkXkXkXkXkXkXkXkXkXkXkX",
"kXkXkXkXkXkXkXkXkXkXkXkXkXkXkXkXkXkXkXkXkXkXkXkXkXkXkXkXkXkXkXkXkXkXkXkXkXkXkXkXkXkX",
"kXkXkXkXkXkXkXkXkXkXkXkXkXkXkXkXkXkXkXkXkXkXkXkXkXkXkXkXkXkXkXkXkXkXkXkXkXkXkXkXkXkX",
"kXkXkXkXkXkXkXkXkXkXkXkXkXkXkXkXkXkXkXkXkXkXkXkXkXkXkXkXkXkXkXkXkXkXkXkXkXkXkXkXkXkX",
"kXkXkXkXkXkXkXkXkXkXkXkXkXkXkXkXkXkXkXkXkXkXkXkXkXkXkXkXkXkXkXkXkXkXkXkXkXkXkXkXkXkX",
"kXkXkXkXkXkXkXkXkXkXkXkXkXkXkXkXkXkXkXkXkXkXkXkXkXkXkXkXkXkXkXkXkXkXkXkXkXkXkXkXkXkX",
"kXkXkXkXkXkXkXkXkXkXkXkXkXkXkXkXkXkXkXkXkXkXkXkXkXkXkXkXkXkXkXkXkXkXkXkXkXkXkXkXkXkX",
"kXkXkXkXkXkXkXkXkXkXkXkXkXkXkXkXkXkXkXkXkXkXkXkXkXkXkXkXkXkXkXkXkXkXkXkXkXkXkXkXkXkX",
"kXkXkXkXkXkXkXkXkXkXkXkXkXkXkXkXkXkXkXkXkXkXkXkXkXkXkXkXkXkXkXkXkXkXkXkXkXkXkXkXkXkX",
"kXkXkXkXkXkXkXkXkXkXkXkXkXkXkXkXkXkXkXkXkXkXkXkXkXkXkXkXkXkXkXkXkXkXkXkXkXkXkXkXkXkX",
"kXkXkXkXkXkXkXkXkXkXkXkXkXkXkXkXkXkXkXkXkXkXkXkXkXkXkXkXkXkXkXkXkXkXkXkXkXkXkXkXkXkX",
"kXkXkXkXkXkXkXkXkXkXkXkXkXkXkXkXkXkXkXkXkXkXkXkXkXkXkXkXkXkXkXkXkXkXkXkXkXkXkXkXkXkX",
"kXkXkXkXkXkXkXkXkXkXkXkXkXkXkXkXkXkXkXkXkXkXkXkXkXkXkXkXkXkXkXkXkXkXkXkXkXkXkXkXkXkX",
"kXkXkXkXkXkXkXkXkXkXkXkXkX{._.!.!._.kXkXkXkXkXkXkXkXkXkXkXkXkXkXkXkXkXkXkXkXkXkXkXkX",
"kXkXkXkXkXkXkXkXkXkXkXkXkXE.E.2.;.E.q.kXkXkXkXkXkXkXkXkXkXkXkXkXkXkXkXkXkXkXkXkXkXkX",
"kXkXkXkXkXkXkXkXkXkXkXkXE.%.<.2.;.<.;.W.kXkXkXkXkXkXkXkXkXkXkXkXkXkXkXkXkXkXkXkXkXkX",
"kXkXkXkXkXkXkXkXkXkXkXkX6.%.;.2.1.1.%.E.kXkXkXkXkXkXkXkXkXkXkXkXkXkXkXkXkXkXkXkXkXkX",
"kXkXkXkXkXkXkXkXkXkX,Xl.o.X.;.6.2.;. .q.(.kXkXkXkXkXkXkXkXkXkXkXkXkXkXkXkXkXkXkXkXkX",
"kXkXkXkXkXkXkX<X4X8Xh.^ 8 0 x _ } E d A &.'.kXkXkXkXkXkXkXkXkXkXkXkXkXkXkXkXkXkXkXkX",
"kXkXkXkXkXkXkXm.;XeXr.+ . t D Y F 1.F 1 F f.kXkXkXkXkXkXkXkXkXkXkXkXkXkXkXkXkXkXkXkX",
"kXkXkXkXkXkXx.h.;X%X; . . = * = , $ $ X , / kXkXkXkXkXkXkXkXkXkXkXkXkXkXkXkXkXkXkXkX",
"kXkXkXkXkXkXg.C.*Xy.w O F Y . . . . [ %.| -.k.kXkXkXkXkXkXkXkXkXkXkXkXkXkXkXkXkXkXkX",
"kXkXkXkXkXkXM.OXA.! Q = F F , 0 0 0 X.;.2.].z.j.kXkXkXkXkXkXkXkXkXkXkXkXkXkXkXkXkXkX",
"kXkXkXkXkX5X+XJ.) S 0 $ , 0 d n n x d n F ~.[.f.kXkXkXkXkXkXkXkXkXkXkXkXkXkXkXkXkXkX",
"kXkXkXkXkXU.n.p.i $ . : 0 p n n C c n n d W `.kXkXkXkXkXkXkXkXkXkXkXkXkXkXkXkXkXkXkX",
"kXkXkXkX:XY.b.u.q $ 0 0 0 p n F n x c n n x q.}.kXkXkXkXkXkXkXkXkXkXkXkXkXkXkXkXkXkX",
"kXkXkXkXG.|.6X.Xe d c d d n C F F n x x d d ] /.kXkXkXkXkXkXkXkXkXkXkXkXkXkXkXkXkXkX",
"kXkXkXkX#XtXaX0Xy d d c x n F Y F n x n n d n =.I.G.kXkXkXkXkXkXkXkXkXkXkXkXkXkXkXkX",
"kXkXkXkXqXiXjX4Xy x l D n F F E F F F A l l d ~ Z.L.T.'.kXkXkXkXkXkXkXkXkXkXkXkXkXkX",
"kXkXkX3XrXpXsXR.4 l n U F F F _ Y F F U F n d l a.h.A.L.@X>XkXkXkXkXkXkXkXkXkXkXkXkX",
"kXkX2X8XyXsXsXP.1 n F F U Y { %. ._ W F F F d 2 ( n.OXOXL.A.N.kXkXkXkXkXkXkXkXkXkXkX",
"kXkX$XwXuXjXjXk.8 n U _ %.%.7.8.q.*.%. .Y F 0 $ u.|.*X*X&XD.i.^.kXkXkXkXkXkXkXkXkXkX"
};
