/* XPM */
static char *run6[] = {
/* columns rows colors chars-per-pixel */
"42 64 113 2 ",
"   c #030403",
".  c #070806",
"X  c #080806",
"o  c #0C0C0C",
"O  c #100E09",
"+  c #0E1203",
"@  c #12130C",
"#  c #1B140E",
"$  c #0F0F10",
"%  c #100F10",
"&  c #141414",
"*  c #181614",
"=  c #1A1B13",
"-  c #1B1A1A",
";  c #271C0E",
":  c #211C17",
">  c #211E19",
",  c #292612",
"<  c #2F2813",
"1  c #24221D",
"2  c #3C2E16",
"3  c #322218",
"4  c #3C291C",
"5  c #242423",
"6  c #2D2D2C",
"7  c #322E24",
"8  c #343127",
"9  c #32302C",
"0  c #333333",
"q  c #393836",
"w  c #3C3B3A",
"e  c #432D1A",
"r  c #433319",
"t  c #49351D",
"y  c #413621",
"u  c #4D3624",
"i  c #423827",
"p  c #4C3B22",
"a  c #443D2C",
"s  c #4D3F2B",
"d  c #543D22",
"f  c #583A21",
"g  c #423E37",
"h  c #4A3D31",
"j  c #4A402D",
"k  c #5E4223",
"l  c #4F4535",
"z  c #45423E",
"x  c #5B4A33",
"c  c #5D4E39",
"v  c #5C513D",
"b  c #624225",
"n  c #694726",
"m  c #694826",
"M  c #65492B",
"N  c #6C4A29",
"B  c #724D2B",
"V  c #77502D",
"C  c #79502D",
"Z  c #634B30",
"A  c #694D30",
"S  c #704C30",
"D  c #635036",
"F  c #63513A",
"G  c #745231",
"H  c #7D5332",
"J  c #7A583A",
"K  c #434342",
"L  c #494541",
"P  c #4B4946",
"I  c #4E4D4C",
"U  c #55524F",
"Y  c #555452",
"T  c #585654",
"R  c #5D5953",
"E  c #595959",
"W  c #795B43",
"Q  c #635C53",
"!  c #61605D",
"~  c #616161",
"^  c #845631",
"/  c #875A35",
"(  c #8B5B35",
")  c #835E3D",
"_  c #95623B",
"`  c #9B643B",
"'  c #A0683E",
"]  c #896545",
"[  c #8E6749",
"{  c #86694E",
"}  c #986746",
"|  c #9B6841",
" . c #A26A41",
".. c #AA6E43",
"X. c #AE7044",
"o. c #B47447",
"O. c #B57548",
"+. c #B87649",
"@. c #BD7A4C",
"#. c #BA7F58",
"$. c #C17B4C",
"%. c #CA8354",
"&. c #C3845C",
"*. c #D48A5B",
"=. c #D59165",
"-. c #DB9162",
";. c #E29666",
":. c #E09768",
">. c #E69A6A",
",. c #EA9D6D",
"<. c #EDA06F",
"1. c #EEA171",
"2. c None",
/* pixels */
"2.2.2.2.2.2.2.2.2.2.2.2.2.2.2.2.2.2.2.2.2.2.2.2.2.2.2.2.2.2.2.2.2.2.2.2.2.2.2.2.2.2.",
"2.2.2.2.2.2.2.2.2.2.2.2.2.2.2.2.2.2.2.2.2.2.2.2.2.2.2.2.2.2.2.2.2.2.2.2.2.2.2.2.2.2.",
"2.2.2.2.2.2.2.2.2.2.2.2.2.2.2.2.2.2.2.2.2.2.2.2.2.2.2.2.2.2.2.2.2.2.2.2.2.2.2.2.2.2.",
"2.2.2.2.2.2.2.2.2.2.2.2.2.2.2.2.2.2.2.2.2.2.2.2.2.2.2.2.2.2.2.2.2.2.2.2.2.2.2.2.2.2.",
"2.2.2.2.2.2.2.2.2.2.2.2.2.2.2.2.2.2.2.2.2.2.2.2.2.2.2.2.2.2.2.2.2.2.2.2.2.2.2.2.2.2.",
"2.2.2.2.2.2.2.2.2.2.2.2.2.2.2.2.2.2.2.2.2.2.2.2.2.2.2.2.2.2.2.2.2.2.2.2.2.2.2.2.2.2.",
"2.2.2.2.2.2.2.2.2.2.2.2.2.2.2.2.2.2.2.2.2.2.2.2.2.2.2.2.2.2.2.2.2.2.2.2.2.2.2.2.2.2.",
"2.2.2.2.2.2.2.2.2.2.2.2.2.2.2.2.2.2.2.2.2.2.2.2.2.2.2.2.2.2.2.2.2.2.2.2.2.2.2.2.2.2.",
"2.2.2.2.2.2.2.2.2.2.2.2.2.2.2.2.2.2.2.2.2.2.2.2.2.2.2.2.2.2.2.2.2.2.2.2.2.2.2.2.2.2.",
"2.2.2.2.2.2.2.2.2.2.2.2.2.2.2.2.2.2.2.2.2.2.2.2.2.2.2.2.2.2.2.2.2.2.2.2.2.2.2.2.2.2.",
"2.2.2.2.2.2.2.2.2.2.2.2.2.2.2.2.2.2.2.2.2.2.2.2.2.2.2.2.2.2.2.2.2.2.2.2.2.2.2.2.2.2.",
"2.2.2.2.2.2.2.2.2.2.2.2.2.2.2.2.2.2.2.2.2.2.2.2.2.2.2.2.2.2.2.2.2.2.2.2.2.2.2.2.2.2.",
"2.2.2.2.2.2.2.2.2.2.2.2.2.2.2.2.2.2.2.2.2.2.2.2.2.2.2.2.2.2.2.2.2.2.2.2.2.2.2.2.2.2.",
"2.2.2.2.2.2.2.2.2.2.2.2.2.2.2.2.2.2.2.2.2.2.2.2.2.2.2.2.2.2.2.2.2.2.2.2.2.2.2.2.2.2.",
"2.2.2.2.2.2.2.2.2.2.2.2.2.2.2.2.2.2.2.2.2.2.2.2.2.2.2.2.2.2.2.2.2.2.2.2.2.2.2.2.2.2.",
"2.2.2.2.2.2.2.2.2.2.2.2.2.2.2.2.2.2.2.2.2.2.2.2.2.2.2.2.2.2.2.2.2.2.2.2.2.2.2.2.2.2.",
"2.2.2.2.2.2.2.2.2.2.2.2.2.2.2.2.2.2.2.2.2.2.2.2.2.2.2.2.2.2.2.2.2.2.2.2.2.2.2.2.2.2.",
"2.2.2.2.2.2.2.2.2.2.2.2.2.2.2.2.2.2.2.2.2.2.2.2.2.2.2.2.2.2.2.2.2.2.2.2.2.2.2.2.2.2.",
"2.2.2.2.2.2.2.2.2.2.2.2.2.2.2.2.2.2.2.2.2.2.2.2.2.2.2.2.2.2.2.2.2.2.2.2.2.2.2.2.2.2.",
"2.2.2.2.2.2.2.2.2.2.2.2.2.2.2.2.2.2.2.2.2.2.2.2.2.2.2.2.2.2.2.2.2.2.2.2.2.2.2.2.2.2.",
"2.2.2.2.2.2.2.2.2.2.2.2.2.2.2.2.2.2.2.2.2.2.2.2.2.2.2.2.2.2.2.2.2.2.2.2.2.2.2.2.2.2.",
"2.2.2.2.2.2.2.2.2.2.2.2.2.2.2.2.2.2.2.2.2.2.2.2.2.2.2.2.2.2.2.2.2.2.2.2.2.2.2.2.2.2.",
"2.2.2.2.2.2.2.2.2.2.2.2.2.2.2.2.2.2.2.2.2.2.2.2.2.2.2.2.2.2.2.2.2.2.2.2.2.2.2.2.2.2.",
"2.2.2.2.2.2.2.2.2.2.2.2.2.2.2.2.2.2.2.2.2.2.2.2.2.2.2.2.2.2.2.2.2.2.2.2.2.2.2.2.2.2.",
"2.2.2.2.2.2.2.2.2.2.2.2.2.2.2.2.2.2.2.2.2.2.2.2.2.2.2.2.2.2.2.2.2.2.2.2.2.2.2.2.2.2.",
"2.2.2.2.2.2.2.2.2.2.2.2.2.2.2.2.2.2.2.2.2.2.2.2.2.2.2.2.2.2.2.2.2.2.2.2.2.2.2.2.2.2.",
"2.2.2.2.2.2.2.2.2.2.2.2.2.2.2.2.2.2.2.2.2.2.2.2.2.2.2.2.2.2.2.2.2.2.2.2.2.2.2.2.2.2.",
"2.2.2.2.2.2.2.2.2.2.2.2.2.2.2.2.2.2.2.2.2.2.2.2.2.2.2.2.2.2.2.2.2.2.2.2.2.2.2.2.2.2.",
"2.2.2.2.2.2.2.2.2.2.2.2.2.2.2.2.2.2.2.2.2.2.2.2.2.2.2.2.2.2.2.2.2.2.2.2.2.2.2.2.2.2.",
"2.2.2.2.2.2.2.2.2.2.2.2.2.2.2.2.2.2.2.2.2.2.2.2.2.2.2.2.2.2.2.2.2.2.2.2.2.2.2.2.2.2.",
"2.2.2.2.2.2.2.2.2.2.2.2.2.2.2.2.2.2.2.2.2.2.2.2.2.2.2.2.2.2.2.2.2.2.2.2.2.2.2.2.2.2.",
"2.2.2.2.2.2.2.2.2.2.2.2.2.2.2.2.2.2.2.2.2.2.2.2.2.2.2.2.2.2.2.2.2.2.2.2.2.2.2.2.2.2.",
"2.2.2.2.2.2.2.2.2.2.2.2.2.2.2.2.2.2.2.2.2.2.2.2.2.2.2.2.2.2.2.2.2.2.2.2.2.2.2.2.2.2.",
"2.2.2.2.2.2.2.2.2.2.2.2.2.2.2.2.2.2.2.2.2.2.2.2.2.2.2.2.2.2.2.2.2.2.2.2.2.2.2.2.2.2.",
"2.2.2.2.2.2.2.2.2.2.2.2.2.2.2.2.2.2.2.2.2.2.2.2.2.2.2.2.2.2.2.2.2.2.2.2.2.2.2.2.2.2.",
"2.2.2.2.2.2.2.2.2.2.2.2.2.2.2.2.2.2.2.2.2.2.2.2.2.2.2.2.2.2.2.2.2.2.2.2.2.2.2.2.2.2.",
"2.2.2.2.2.2.2.2.2.2.2.2.2.2.2.2.2.2.2.2.2.2.2.2.2.2.2.2.2.2.2.2.2.2.2.2.2.2.2.2.2.2.",
"2.2.2.2.2.2.2.2.2.2.2.2.2.2.2.2.2.2.2.2.2.2.2.2.2.2.2.2.2.2.2.2.2.2.2.2.2.2.2.2.2.2.",
"2.2.2.2.2.2.2.2.2.2.2.2.2.2.2.2.2.2.2.2.2.2.2.2.2.2.2.2.2.2.2.2.2.2.2.2.2.2.2.2.2.2.",
"2.2.2.2.2.2.2.2.2.2.2.2.2.2.2.2.2.2.2.2.2.2.2.2.2.2.2.2.2.2.2.2.2.2.2.2.2.2.2.2.2.2.",
"2.2.2.2.2.2.2.2.2.2.2.2.2.2.2.2.2.2.2.2.2.2.2.2.2.2.2.2.2.2.2.2.2.2.2.2.2.2.2.2.2.2.",
"2.2.2.2.2.2.2.2.2.2.2.2.2.2.2.2.2.2.2.~ E K I E 2.2.2.2.2.2.2.2.2.2.2.2.2.2.2.2.2.2.",
"2.2.2.2.2.2.2.2.2.2.2.2.2.2.2.2.2.2.I K K 6 q K K 2.2.2.2.2.2.2.2.2.2.2.2.2.2.2.2.2.",
"2.2.2.2.2.2.2.2.2.2.2.2.2.2.2.2.2.2.q 6 0 6 0 0 0 I 2.2.2.2.2.2.2.2.2.2.2.2.2.2.2.2.",
"2.2.2.2.2.2.2.2.2.2.2.2.2.2.2.2.2.Y 0 6 0 0 0 0 0 K 2.2.2.2.2.2.2.2.2.2.2.2.2.2.2.2.",
"2.2.2.2.2.2.2.2.2.2.2.2.2.2.2.2.W q 6 6 0 0 0 0 6 K Q 2.2.2.2.2.2.2.2.2.2.2.2.2.2.2.",
"2.2.2.2.2.2.2.2.2.2.2.2.2.]  .| p 1 o $ & 5 6 - O > a 2.2.2.2.2.2.2.2.2.2.2.2.2.2.2.",
"2.2.2.2.2.2.2.2.2.2.2.2.v N O...;     & - * 5 6 & o 5 l 2.2.2.2.2.2.2.2.2.2.2.2.2.2.",
"2.2.2.2.2.2.2.2.2.2.2.2.j B X.m       . . . o .     % 7 2.2.2.2.2.2.2.2.2.2.2.2.2.2.",
"2.2.2.2.2.2.2.2.2.2.2.2.d H _ < +   5 $       . 6 5 6 i Z 2.2.2.2.2.2.2.2.2.2.2.2.2.",
"2.2.2.2.2.2.2.2.2.2.2.2.m / k , - . - - . o o & 0 6 z E s 2.2.2.2.2.2.2.2.2.2.2.2.2.",
"2.2.2.2.2.2.2.2.2.2.2.{ ^ N < = o . . $ & & & & & & 5 ~ T l 2.2.2.2.2.2.2.2.2.2.2.2.",
"2.2.2.2.2.2.2.2.2.2.2.G m t @     o $ $ & - & & & & & 6 ~ 2.2.2.2.2.2.2.2.2.2.2.2.2.",
"2.2.2.2.2.2.2.2.2.2.) V k 2 X X o $ $ $ & & - $ & & & * I 2.2.2.2.2.2.2.2.2.2.2.2.2.",
"2.2.2.2.2.2.2.2.2.2.V / ' b o & & $ $ & - - - & & & & $ 6 R 2.2.2.2.2.2.2.2.2.2.2.2.",
"2.2.2.2.2.2.2.2.2.2._ *.;.H o & & & & & - - & & & & & & - h G G 2.2.2.2.2.2.2.2.2.2.",
"2.2.2.2.2.2.2.2.2.] @.:.,.S o & & & & - - - - - * * & & O 7 C C J 2.2.2.2.2.2.2.2.2.",
"2.2.2.2.2.2.2.2.2.| %.>.:.u o & - - - - - - - - - - * & & : f b N G ) ] 2.2.2.2.2.2.",
"2.2.2.2.2.2.2.2.[ O.-.,.-.4 & & - - > > 5 0 5 - - - - * o O t B ^ ^ C N D 2.2.2.2.2.",
"2.2.2.2.2.2.2.2._ @.;.1.=.3 $ - > 5 6 9 w w q 0 0 5 - * o O b ( ` ` ( n p 2.2.2.2.2.",
"2.2.2.2.2.2.2.) o.%.;.1.&.* & - 1 7 g P w 0 q P P 9 5 5 & X b ` ....` C 2 2.2.2.2.2.",
"2.2.2.2.2.2.F ( %.-.>.1.#.# * : 1 8 L Y w 0 q T P 6 1 > : O b ..$.$.' C r a 2.2.2.2.",
"2.2.2.2.2.x H O.*.;.>.<.} O * > 1 7 g Y w 0 w Y P 8 1 > * O f +.*.+._ / k y 2.2.2.2.",
"2.2.2.2.v M  .*.-.;.;.,.H X * > 1 7 L T w 0 q U L 7 1 > = X e +.$.X...( m A 2.2.2.2."
};
