/* XPM */
static char *run8[] = {
/* columns rows colors chars-per-pixel */
"42 64 227 2 ",
"   c #000000",
".  c #010102",
"X  c #030303",
"o  c #040301",
"O  c #030500",
"+  c #040404",
"@  c #040504",
"#  c #050504",
"$  c #040704",
"%  c #060605",
"&  c #070705",
"*  c #060606",
"=  c #080706",
"-  c #080807",
";  c #090A07",
":  c #0D0C05",
">  c #070808",
",  c #080808",
"<  c #090909",
"1  c #0A0A09",
"2  c #0B0B0B",
"3  c #0C0C0B",
"4  c #0D0C0B",
"5  c #0C0C0C",
"6  c #0D0D0C",
"7  c #0D0D0D",
"8  c #0E0E0D",
"9  c #0F0F0D",
"0  c #0E0E0E",
"q  c #0F0F0F",
"w  c #100E07",
"e  c #150F0B",
"r  c #111604",
"t  c #11100D",
"y  c #13110D",
"u  c #12110E",
"i  c #16110D",
"p  c #1C1D0C",
"a  c #0F1010",
"s  c #101010",
"d  c #111111",
"f  c #111212",
"g  c #121212",
"h  c #131212",
"j  c #131313",
"k  c #141413",
"l  c #161412",
"z  c #171513",
"x  c #131314",
"c  c #141414",
"v  c #151414",
"b  c #151514",
"n  c #151515",
"m  c #171615",
"M  c #161616",
"N  c #171616",
"B  c #171716",
"V  c #171717",
"C  c #181612",
"Z  c #181714",
"A  c #181716",
"S  c #1A1C10",
"D  c #181817",
"F  c #191817",
"G  c #191917",
"H  c #1B1A17",
"J  c #181818",
"K  c #191919",
"L  c #191A19",
"P  c #1A1A19",
"I  c #1A1A1A",
"U  c #1B1B1A",
"Y  c #1B1B1B",
"T  c #1B1C1A",
"R  c #1C1C1C",
"E  c #1D1D1D",
"W  c #1E1E1E",
"Q  c #1E1F1E",
"!  c #1F1F1F",
"~  c #212214",
"^  c #2D2812",
"/  c #25211D",
"(  c #2B261E",
")  c #2E2A1E",
"_  c #3E2B17",
"`  c #3B2F16",
"'  c #3C2D19",
"]  c #202020",
"[  c #212121",
"{  c #222222",
"}  c #232323",
"|  c #242424",
" . c #252525",
".. c #282826",
"X. c #282828",
"o. c #2B2B2B",
"O. c #2B2D2A",
"+. c #2F2F2B",
"@. c #2C2C2C",
"#. c #2D2D2D",
"$. c #2E2E2D",
"%. c #2E2E2E",
"&. c #2F2F2E",
"*. c #2F2F2F",
"=. c #3A3326",
"-. c #32322D",
";. c #3A332C",
":. c #3E382B",
">. c #303030",
",. c #303130",
"<. c #323232",
"1. c #333333",
"2. c #333432",
"3. c #343434",
"4. c #353535",
"5. c #363636",
"6. c #373737",
"7. c #3A3A35",
"8. c #3B3B3A",
"9. c #3E3D3D",
"0. c #3E3E3C",
"q. c #3E3E3E",
"w. c #3F3F3F",
"e. c #45341B",
"r. c #48351B",
"t. c #4E361E",
"y. c #4A391E",
"u. c #4F3A1D",
"i. c #4B3821",
"p. c #4F3F28",
"a. c #583C29",
"s. c #453D31",
"d. c #453E30",
"f. c #5F4223",
"g. c #5E4326",
"h. c #57462D",
"j. c #5B452B",
"k. c #46413C",
"l. c #504735",
"z. c #504536",
"x. c #624425",
"c. c #644525",
"v. c #6D4927",
"b. c #634729",
"n. c #63432E",
"m. c #66482A",
"M. c #6C4928",
"N. c #6D4A29",
"B. c #6F4B29",
"V. c #6E4B2A",
"C. c #6E4B2E",
"Z. c #704C2A",
"A. c #734E2B",
"S. c #704E2C",
"D. c #714F2F",
"F. c #744F2D",
"G. c #77502D",
"H. c #7B512D",
"J. c #7E522E",
"K. c #634B30",
"L. c #705032",
"P. c #765036",
"I. c #765535",
"U. c #7B5330",
"Y. c #7E5231",
"T. c #785434",
"R. c #404040",
"E. c #454545",
"W. c #484848",
"Q. c #5C5441",
"!. c #54514E",
"~. c #5A554E",
"^. c #505050",
"/. c #565656",
"(. c #575757",
"). c #5B5B5B",
"_. c #5C5B5A",
"`. c #6B5D49",
"'. c #616161",
"]. c #656461",
"[. c #656565",
"{. c #835531",
"}. c #815732",
"|. c #815733",
" X c #855732",
".X c #865732",
"XX c #895A36",
"oX c #825B3A",
"OX c #8C5F3A",
"+X c #925F38",
"@X c #89603D",
"#X c #936038",
"$X c #9A633B",
"%X c #9A663F",
"&X c #9C653C",
"*X c #A46A3F",
"=X c #846243",
"-X c #896343",
";X c #896446",
":X c #84674A",
">X c #81674C",
",X c #8B684C",
"<X c #926643",
"1X c #996643",
"2X c #8A7258",
"3X c #A16A41",
"4X c #A76C41",
"5X c #A46B45",
"6X c #A76D44",
"7X c #A66E45",
"8X c #AD7349",
"9X c #B47347",
"0X c #BD7A4D",
"qX c #C37E50",
"wX c #CB8557",
"eX c #D78C5C",
"rX c #DB9060",
"tX c #DD9161",
"yX c #E39767",
"uX c #E49666",
"iX c #E79C6C",
"pX c #E99C6C",
"aX c #E99D6D",
"sX c #EA9D6D",
"dX c #E89D6E",
"fX c #EA9E6E",
"gX c None",
/* pixels */
"gXgXgXgXgXgXgXgXgXgXgXgXgXgXgXgXgXgXgXgXgXgXgXgXgXgXgXgXgXgXgXgXgXgXgXgXgXgXgXgXgXgX",
"gXgXgXgXgXgXgXgXgXgXgXgXgXgXgXgXgXgXgXgXgXgXgXgXgXgXgXgXgXgXgXgXgXgXgXgXgXgXgXgXgXgX",
"gXgXgXgXgXgXgXgXgXgXgXgXgXgXgXgXgXgXgXgXgXgXgXgXgXgXgXgXgXgXgXgXgXgXgXgXgXgXgXgXgXgX",
"gXgXgXgXgXgXgXgXgXgXgXgXgXgXgXgXgXgXgXgXgXgXgXgXgXgXgXgXgXgXgXgXgXgXgXgXgXgXgXgXgXgX",
"gXgXgXgXgXgXgXgXgXgXgXgXgXgXgXgXgXgXgXgXgXgXgXgXgXgXgXgXgXgXgXgXgXgXgXgXgXgXgXgXgXgX",
"gXgXgXgXgXgXgXgXgXgXgXgXgXgXgXgXgXgXgXgXgXgXgXgXgXgXgXgXgXgXgXgXgXgXgXgXgXgXgXgXgXgX",
"gXgXgXgXgXgXgXgXgXgXgXgXgXgXgXgXgXgXgXgXgXgXgXgXgXgXgXgXgXgXgXgXgXgXgXgXgXgXgXgXgXgX",
"gXgXgXgXgXgXgXgXgXgXgXgXgXgXgXgXgXgXgXgXgXgXgXgXgXgXgXgXgXgXgXgXgXgXgXgXgXgXgXgXgXgX",
"gXgXgXgXgXgXgXgXgXgXgXgXgXgXgXgXgXgXgXgXgXgXgXgXgXgXgXgXgXgXgXgXgXgXgXgXgXgXgXgXgXgX",
"gXgXgXgXgXgXgXgXgXgXgXgXgXgXgXgXgXgXgXgXgXgXgXgXgXgXgXgXgXgXgXgXgXgXgXgXgXgXgXgXgXgX",
"gXgXgXgXgXgXgXgXgXgXgXgXgXgXgXgXgXgXgXgXgXgXgXgXgXgXgXgXgXgXgXgXgXgXgXgXgXgXgXgXgXgX",
"gXgXgXgXgXgXgXgXgXgXgXgXgXgXgXgXgXgXgXgXgXgXgXgXgXgXgXgXgXgXgXgXgXgXgXgXgXgXgXgXgXgX",
"gXgXgXgXgXgXgXgXgXgXgXgXgXgXgXgXgXgXgXgXgXgXgXgXgXgXgXgXgXgXgXgXgXgXgXgXgXgXgXgXgXgX",
"gXgXgXgXgXgXgXgXgXgXgXgXgXgXgXgXgXgXgXgXgXgXgXgXgXgXgXgXgXgXgXgXgXgXgXgXgXgXgXgXgXgX",
"gXgXgXgXgXgXgXgXgXgXgXgXgXgXgXgXgXgXgXgXgXgXgXgXgXgXgXgXgXgXgXgXgXgXgXgXgXgXgXgXgXgX",
"gXgXgXgXgXgXgXgXgXgXgXgXgXgXgXgXgXgXgXgXgXgXgXgXgXgXgXgXgXgXgXgXgXgXgXgXgXgXgXgXgXgX",
"gXgXgXgXgXgXgXgXgXgXgXgXgXgXgXgXgXgXgXgXgXgXgXgXgXgXgXgXgXgXgXgXgXgXgXgXgXgXgXgXgXgX",
"gXgXgXgXgXgXgXgXgXgXgXgXgXgXgXgXgXgXgXgXgXgXgXgXgXgXgXgXgXgXgXgXgXgXgXgXgXgXgXgXgXgX",
"gXgXgXgXgXgXgXgXgXgXgXgXgXgXgXgXgXgXgXgXgXgXgXgXgXgXgXgXgXgXgXgXgXgXgXgXgXgXgXgXgXgX",
"gXgXgXgXgXgXgXgXgXgXgXgXgXgXgXgXgXgXgXgXgXgXgXgXgXgXgXgXgXgXgXgXgXgXgXgXgXgXgXgXgXgX",
"gXgXgXgXgXgXgXgXgXgXgXgXgXgXgXgXgXgXgXgXgXgXgXgXgXgXgXgXgXgXgXgXgXgXgXgXgXgXgXgXgXgX",
"gXgXgXgXgXgXgXgXgXgXgXgXgXgXgXgXgXgXgXgXgXgXgXgXgXgXgXgXgXgXgXgXgXgXgXgXgXgXgXgXgXgX",
"gXgXgXgXgXgXgXgXgXgXgXgXgXgXgXgXgXgXgXgXgXgXgXgXgXgXgXgXgXgXgXgXgXgXgXgXgXgXgXgXgXgX",
"gXgXgXgXgXgXgXgXgXgXgXgXgXgXgXgXgXgXgXgXgXgXgXgXgXgXgXgXgXgXgXgXgXgXgXgXgXgXgXgXgXgX",
"gXgXgXgXgXgXgXgXgXgXgXgXgXgXgXgXgXgXgXgXgXgXgXgXgXgXgXgXgXgXgXgXgXgXgXgXgXgXgXgXgXgX",
"gXgXgXgXgXgXgXgXgXgXgXgXgXgXgXgXgXgXgXgXgXgXgXgXgXgXgXgXgXgXgXgXgXgXgXgXgXgXgXgXgXgX",
"gXgXgXgXgXgXgXgXgXgXgXgXgXgXgXgXgXgXgXgXgXgXgXgXgXgXgXgXgXgXgXgXgXgXgXgXgXgXgXgXgXgX",
"gXgXgXgXgXgXgXgXgXgXgXgXgXgXgXgXgXgXgXgXgXgXgXgXgXgXgXgXgXgXgXgXgXgXgXgXgXgXgXgXgXgX",
"gXgXgXgXgXgXgXgXgXgXgXgXgXgXgXgXgXgXgXgXgXgXgXgXgXgXgXgXgXgXgXgXgXgXgXgXgXgXgXgXgXgX",
"gXgXgXgXgXgXgXgXgXgXgXgXgXgXgXgXgXgXgXgXgXgXgXgXgXgXgXgXgXgXgXgXgXgXgXgXgXgXgXgXgXgX",
"gXgXgXgXgXgXgXgXgXgXgXgXgXgXgXgXgXgXgXgXgXgXgXgXgXgXgXgXgXgXgXgXgXgXgXgXgXgXgXgXgXgX",
"gXgXgXgXgXgXgXgXgXgXgXgXgXgXgXgXgXgXgXgXgXgXgXgXgXgXgXgXgXgXgXgXgXgXgXgXgXgXgXgXgXgX",
"gXgXgXgXgXgXgXgXgXgXgXgXgXgXgXgXgXgXgXgXgXgXgXgXgXgXgXgXgXgXgXgXgXgXgXgXgXgXgXgXgXgX",
"gXgXgXgXgXgXgXgXgXgXgXgXgXgXgXgXgXgXgXgXgXgXgXgXgXgXgXgXgXgXgXgXgXgXgXgXgXgXgXgXgXgX",
"gXgXgXgXgXgXgXgXgXgXgXgXgXgXgXgXgXgXgXgXgXgXgXgXgXgXgXgXgXgXgXgXgXgXgXgXgXgXgXgXgXgX",
"gXgXgXgXgXgXgXgXgXgXgXgXgXgXgXgXgXgXgXgXgXgXgXgXgXgXgXgXgXgXgXgXgXgXgXgXgXgXgXgXgXgX",
"gXgXgXgXgXgXgXgXgXgXgXgXgXgXgXgXgXgXgXgXgXgXgXgXgXgXgXgXgXgXgXgXgXgXgXgXgXgXgXgXgXgX",
"gXgXgXgXgXgXgXgXgXgXgXgXgXgXgXgXgXgXgXgXgXgXgXgXgXgXgXgXgXgXgXgXgXgXgXgXgXgXgXgXgXgX",
"gXgXgXgXgXgXgXgXgXgXgXgXgXgXgXgXgXgXgXgXgXgXgXgXgXgXgXgXgXgXgXgXgXgXgXgXgXgXgXgXgXgX",
"gXgXgXgXgXgXgXgXgXgXgXgXgXgXgXgXgXgXgXgXgXgXgXgXgXgXgXgXgXgXgXgXgXgXgXgXgXgXgXgXgXgX",
"gXgXgXgXgXgXgXgXgXgXgXgXgXgXgXgXgXgXgXgXgXgXgXgXgXgXgXgXgXgXgXgXgXgXgXgXgXgXgXgXgXgX",
"gXgXgXgXgXgXgXgXgXgXgXgXgXgXgXgXgXgXgXgXgXgXgXgXgXgXgXgXgXgXgXgXgXgXgXgXgXgXgXgXgXgX",
"gXgXgXgXgXgXgXgXgXgXgXgXgXgXgXgXgXgXgXgXgXgXgXgXgXgXgXgXgXgXgXgXgXgXgXgXgXgXgXgXgXgX",
"gXgXgXgXgXgXgXgXgXgXgXgXgXgXgXgXgXgXgXgXgXgXgXgXgXgXgXgXgXgXgXgXgXgXgXgXgXgXgXgXgXgX",
"gXgXgXgXgXgXgXgXgXgXgXgXgXgXgXgXgXgXgXgXgXgXgXgXgXgXgXgXgXgXgXgXgXgXgXgXgXgXgXgXgXgX",
"gXgXgXgXgXgXgXgXgXgXgXgXgXgXgXgXgXgXgXgXgXgX[.(.W.W.(.gXgXgXgXgXgXgXgXgXgXgXgXgXgXgX",
"gXgXgXgXgXgXgXgXgXgXgXgXgXgXgXgXgXgXgXgXgXgXR.R.3.,.q.q.gXgXgXgXgXgXgXgXgXgXgXgXgXgX",
"gXgXgXgXgXgXgXgXgXgXgXgXgXgXgXgXgXgXgXgXgXq.*.1.6.,.,.,.E.gXgXgXgXgXgXgXgXgXgXgXgXgX",
"gXgXgXgXgXgXgXgXgXgXgXgXgXgXgXgXgXgXgXgX).6.$.,.6.,.1.$.q.gXgXgXgXgXgXgXgXgXgXgXgXgX",
"gXgXgXgXgXgXgXgXgXgXgXgXgXgXgXgXgXgXgX;Xk.O.o.,.6.6.,.@.q.~.gXgXgXgXgXgXgXgXgXgXgXgX",
"gXgXgXgXgXgXgXgXgXgXgXgXgXgXgXgX:X$X7Xg.( u q d [  .E d P =.`.gXgXgXgXgXgXgXgXgXgXgX",
"gXgXgXgXgXgXgXgXgXgXgXgXgXgXgXgXb.4X0X_ $ . u V U P 1.P 4 P d.gXgXgXgXgXgXgXgXgXgXgX",
"gXgXgXgXgXgXgXgXgXgXgXgXgXgXgXl.x.*XXX: . + > * ; 1 > * + 1 ) gXgXgXgXgXgXgXgXgXgXgX",
"gXgXgXgXgXgXgXgXgXgXgXgXgXgXgXp.V.$Xe.r O P T . . . +  .$...:.j.gXgXgXgXgXgXgXgXgXgX",
"gXgXgXgXgXgXgXgXgXgXgXgXgXgXgXm..XB.^ ~ ; V P 1 q q e #.*.6.'.z.h.gXgXgXgXgXgXgXgXgX",
"gXgXgXgXgXgXgXgXgXgXgXgXgXgX2X|.G.` S q * > q d d j f f x R ^.].d.gXgXgXgXgXgXgXgXgX",
"gXgXgXgXgXgXgXgXgXgXgXgXgXgXI.B.u.p $ . 1 q d V V V d j l d [ _.gXgXgXgXgXgXgXgXgXgX",
"gXgXgXgXgXgXgXgXgXgXgXgXgX=XU.x.r.w > q q q d x V V V V V j V q.gXgXgXgXgXgXgXgXgXgX",
"gXgXgXgXgXgXgXgXgXgXgXgXgXC.{.3XY.y d x d d x V D A j j d d d | !.gXgXgXgXgXgXgXgXgX",
"gXgXgXgXgXgXgXgXgXgXgXgXgXOXwXyX5Xi x d d l V V R D V j d V d V ;.L.D.gXgXgXgXgXgXgX",
"gXgXgXgXgXgXgXgXgXgXgXgXgX7XtXsX1Xe d l l V V P E P P V V C j d / C.H.I.>XgXgXgXgXgX",
"gXgXgXgXgXgXgXgXgXgXgXgX<XwXyXpXP.q x V P P P P ] P P P P A V d l i.f.v.F.oX-XgXgXgX",
"gXgXgXgXgXgXgXgXgXgXgX,X7XeXsXiXn.1 V P P R E [ -.X.E E P P V d 4 ' B.{..XJ.B.K.gXgX",
"gXgXgXgXgXgXgXgXgXgXgX@X9XrXfXiXa.q V T [ $.$.7.8.q.-.*.X.R V q = t..X#X$X+XA.y.Q.gX"
};
