/* XPM */
static char *run9[] = {
/* columns rows colors chars-per-pixel */
"42 64 203 2 ",
"   c #000000",
".  c #010101",
"X  c #010102",
"o  c #030303",
"O  c #040404",
"+  c #040505",
"@  c #050505",
"#  c #060705",
"$  c #070706",
"%  c #070707",
"&  c #080706",
"*  c #050800",
"=  c #0B0803",
"-  c #080B05",
";  c #080907",
":  c #0A0A0A",
">  c #0B0B0A",
",  c #0B0B0B",
"<  c #0D0F09",
"1  c #0D0D0B",
"2  c #0E0C0A",
"3  c #0E0E0B",
"4  c #0C0B0C",
"5  c #0C0C0C",
"6  c #0D0D0D",
"7  c #0D0E0C",
"8  c #0E0E0E",
"9  c #0F0F0F",
"0  c #131706",
"q  c #13100D",
"w  c #1C180B",
"e  c #101010",
"r  c #101111",
"t  c #111111",
"y  c #121212",
"u  c #121312",
"i  c #131312",
"p  c #121213",
"a  c #131313",
"s  c #141313",
"d  c #141411",
"f  c #141412",
"g  c #151412",
"h  c #141413",
"j  c #151413",
"k  c #141414",
"l  c #151514",
"z  c #151515",
"x  c #161615",
"c  c #161616",
"v  c #171716",
"b  c #161617",
"n  c #171717",
"m  c #181613",
"M  c #191714",
"N  c #181817",
"B  c #181818",
"V  c #191818",
"C  c #191918",
"Z  c #191919",
"A  c #1B1A19",
"S  c #1A1A1A",
"D  c #1B1B1A",
"F  c #1B1B1B",
"G  c #1D1D1B",
"H  c #1C1C1C",
"J  c #1D1D1C",
"K  c #1D1D1D",
"L  c #1E1E1E",
"P  c #25190F",
"I  c #251B0E",
"U  c #231A12",
"Y  c #291C13",
"T  c #202010",
"R  c #242413",
"E  c #2A2510",
"W  c #2B2314",
"Q  c #21211F",
"!  c #28251D",
"~  c #372E16",
"^  c #212120",
"/  c #222222",
"(  c #222322",
")  c #242424",
"_  c #262626",
"`  c #272727",
"'  c #282828",
"]  c #2B2B2B",
"[  c #2E2B28",
"{  c #2C2C2B",
"}  c #2C2C2C",
"|  c #2E2E2E",
" . c #2F2F2F",
".. c #352E22",
"X. c #352F25",
"o. c #3E3522",
"O. c #30312F",
"+. c #383328",
"@. c #3D372C",
"#. c #303030",
"$. c #313131",
"%. c #323331",
"&. c #313232",
"*. c #323232",
"=. c #343434",
"-. c #353535",
";. c #373737",
":. c #383838",
">. c #393939",
",. c #3A3A3A",
"<. c #3E3E3E",
"1. c #3F3F3F",
"2. c #4E391D",
"3. c #4F3A1D",
"4. c #423220",
"5. c #553E23",
"6. c #523F27",
"7. c #3F403F",
"8. c #5B4021",
"9. c #5F4223",
"0. c #5F4323",
"q. c #5F4224",
"w. c #534128",
"e. c #5D482D",
"r. c #474133",
"t. c #524630",
"y. c #534B3F",
"u. c #54483F",
"i. c #624226",
"p. c #6A4827",
"a. c #6B4827",
"s. c #654728",
"d. c #61452C",
"f. c #61482B",
"g. c #6F4E2D",
"h. c #714D2B",
"j. c #734D2B",
"k. c #734E2C",
"l. c #714F2E",
"z. c #74502E",
"x. c #78512E",
"c. c #7B512E",
"v. c #7D512E",
"b. c #7C522E",
"n. c #7E522E",
"m. c #694F36",
"M. c #795332",
"N. c #7E5735",
"B. c #795A3B",
"V. c #7F5938",
"C. c #7C5A3A",
"Z. c #404040",
"A. c #414141",
"S. c #444444",
"D. c #454545",
"F. c #464646",
"G. c #474747",
"H. c #4D4C4A",
"J. c #53504C",
"K. c #515151",
"L. c #535353",
"P. c #575757",
"I. c #595959",
"U. c #5A5B5B",
"Y. c #5F5D5A",
"T. c #635642",
"R. c #616161",
"E. c #6B6B69",
"W. c #69696A",
"Q. c #815530",
"!. c #825530",
"~. c #815631",
"^. c #8A5B36",
"/. c #805B39",
"(. c #93613A",
"). c #966139",
"_. c #93643E",
"`. c #98623A",
"'. c #9A643B",
"]. c #8F6042",
"[. c #8C6545",
"{. c #8D6747",
"}. c #80654A",
"|. c #9C6944",
" X c #9E6C46",
".X c #9D7150",
"XX c #A66B41",
"oX c #A26E4A",
"OX c #A97148",
"+X c #B4754A",
"@X c #B8784D",
"#X c #BE7F55",
"$X c #C27E53",
"%X c #C57F50",
"&X c #CC8354",
"*X c #D58B5B",
"=X c #DE9363",
"-X c #E09363",
";X c #E69A6A",
":X c #E99C6B",
">X c #EB9E6D",
",X c #EB9E6E",
"<X c None",
/* pixels */
"<X<X<X<X<X<X<X<X<X<X<X<X<X<X<X<X<X<X<X<X<X<X<X<X<X<X<X<X<X<X<X<X<X<X<X<X<X<X<X<X<X<X",
"<X<X<X<X<X<X<X<X<X<X<X<X<X<X<X<X<X<X<X<X<X<X<X<X<X<X<X<X<X<X<X<X<X<X<X<X<X<X<X<X<X<X",
"<X<X<X<X<X<X<X<X<X<X<X<X<X<X<X<X<X<X<X<X<X<X<X<X<X<X<X<X<X<X<X<X<X<X<X<X<X<X<X<X<X<X",
"<X<X<X<X<X<X<X<X<X<X<X<X<X<X<X<X<X<X<X<X<X<X<X<X<X<X<X<X<X<X<X<X<X<X<X<X<X<X<X<X<X<X",
"<X<X<X<X<X<X<X<X<X<X<X<X<X<X<X<X<X<X<X<X<X<X<X<X<X<X<X<X<X<X<X<X<X<X<X<X<X<X<X<X<X<X",
"<X<X<X<X<X<X<X<X<X<X<X<X<X<X<X<X<X<X<X<X<X<X<X<X<X<X<X<X<X<X<X<X<X<X<X<X<X<X<X<X<X<X",
"<X<X<X<X<X<X<X<X<X<X<X<X<X<X<X<X<X<X<X<X<X<X<X<X<X<X<X<X<X<X<X<X<X<X<X<X<X<X<X<X<X<X",
"<X<X<X<X<X<X<X<X<X<X<X<X<X<X<X<X<X<X<X<X<X<X<X<X<X<X<X<X<X<X<X<X<X<X<X<X<X<X<X<X<X<X",
"<X<X<X<X<X<X<X<X<X<X<X<X<X<X<X<X<X<X<X<X<X<X<X<X<X<X<X<X<X<X<X<X<X<X<X<X<X<X<X<X<X<X",
"<X<X<X<X<X<X<X<X<X<X<X<X<X<X<X<X<X<X<X<X<X<X<X<X<X<X<X<X<X<X<X<X<X<X<X<X<X<X<X<X<X<X",
"<X<X<X<X<X<X<X<X<X<X<X<X<X<X<X<X<X<X<X<X<X<X<X<X<X<X<X<X<X<X<X<X<X<X<X<X<X<X<X<X<X<X",
"<X<X<X<X<X<X<X<X<X<X<X<X<X<X<X<X<X<X<X<X<X<X<X<X<X<X<X<X<X<X<X<X<X<X<X<X<X<X<X<X<X<X",
"<X<X<X<X<X<X<X<X<X<X<X<X<X<X<X<X<X<X<X<X<X<X<X<X<X<X<X<X<X<X<X<X<X<X<X<X<X<X<X<X<X<X",
"<X<X<X<X<X<X<X<X<X<X<X<X<X<X<X<X<X<X<X<X<X<X<X<X<X<X<X<X<X<X<X<X<X<X<X<X<X<X<X<X<X<X",
"<X<X<X<X<X<X<X<X<X<X<X<X<X<X<X<X<X<X<X<X<X<X<X<X<X<X<X<X<X<X<X<X<X<X<X<X<X<X<X<X<X<X",
"<X<X<X<X<X<X<X<X<X<X<X<X<X<X<X<X<X<X<X<X<X<X<X<X<X<X<X<X<X<X<X<X<X<X<X<X<X<X<X<X<X<X",
"<X<X<X<X<X<X<X<X<X<X<X<X<X<X<X<X<X<X<X<X<X<X<X<X<X<X<X<X<X<X<X<X<X<X<X<X<X<X<X<X<X<X",
"<X<X<X<X<X<X<X<X<X<X<X<X<X<X<X<X<X<X<X<X<X<X<X<X<X<X<X<X<X<X<X<X<X<X<X<X<X<X<X<X<X<X",
"<X<X<X<X<X<X<X<X<X<X<X<X<X<X<X<X<X<X<X<X<X<X<X<X<X<X<X<X<X<X<X<X<X<X<X<X<X<X<X<X<X<X",
"<X<X<X<X<X<X<X<X<X<X<X<X<X<X<X<X<X<X<X<X<X<X<X<X<X<X<X<X<X<X<X<X<X<X<X<X<X<X<X<X<X<X",
"<X<X<X<X<X<X<X<X<X<X<X<X<X<X<X<X<X<X<X<X<X<X<X<X<X<X<X<X<X<X<X<X<X<X<X<X<X<X<X<X<X<X",
"<X<X<X<X<X<X<X<X<X<X<X<X<X<X<X<X<X<X<X<X<X<X<X<X<X<X<X<X<X<X<X<X<X<X<X<X<X<X<X<X<X<X",
"<X<X<X<X<X<X<X<X<X<X<X<X<X<X<X<X<X<X<X<X<X<X<X<X<X<X<X<X<X<X<X<X<X<X<X<X<X<X<X<X<X<X",
"<X<X<X<X<X<X<X<X<X<X<X<X<X<X<X<X<X<X<X<X<X<X<X<X<X<X<X<X<X<X<X<X<X<X<X<X<X<X<X<X<X<X",
"<X<X<X<X<X<X<X<X<X<X<X<X<X<X<X<X<X<X<X<X<X<X<X<X<X<X<X<X<X<X<X<X<X<X<X<X<X<X<X<X<X<X",
"<X<X<X<X<X<X<X<X<X<X<X<X<X<X<X<X<X<X<X<X<X<X<X<X<X<X<X<X<X<X<X<X<X<X<X<X<X<X<X<X<X<X",
"<X<X<X<X<X<X<X<X<X<X<X<X<X<X<X<X<X<X<X<X<X<X<X<X<X<X<X<X<X<X<X<X<X<X<X<X<X<X<X<X<X<X",
"<X<X<X<X<X<X<X<X<X<X<X<X<X<X<X<X<X<X<X<X<X<X<X<X<X<X<X<X<X<X<X<X<X<X<X<X<X<X<X<X<X<X",
"<X<X<X<X<X<X<X<X<X<X<X<X<X<X<X<X<X<X<X<X<X<X<X<X<X<X<X<X<X<X<X<X<X<X<X<X<X<X<X<X<X<X",
"<X<X<X<X<X<X<X<X<X<X<X<X<X<X<X<X<X<X<X<X<X<X<X<X<X<X<X<X<X<X<X<X<X<X<X<X<X<X<X<X<X<X",
"<X<X<X<X<X<X<X<X<X<X<X<X<X<X<X<X<X<X<X<X<X<X<X<X<X<X<X<X<X<X<X<X<X<X<X<X<X<X<X<X<X<X",
"<X<X<X<X<X<X<X<X<X<X<X<X<X<X<X<X<X<X<X<X<X<X<X<X<X<X<X<X<X<X<X<X<X<X<X<X<X<X<X<X<X<X",
"<X<X<X<X<X<X<X<X<X<X<X<X<X<X<X<X<X<X<X<X<X<X<X<X<X<X<X<X<X<X<X<X<X<X<X<X<X<X<X<X<X<X",
"<X<X<X<X<X<X<X<X<X<X<X<X<X<X<X<X<X<X<X<X<X<X<X<X<X<X<X<X<X<X<X<X<X<X<X<X<X<X<X<X<X<X",
"<X<X<X<X<X<X<X<X<X<X<X<X<X<X<X<X<X<X<X<X<X<X<X<X<X<X<X<X<X<X<X<X<X<X<X<X<X<X<X<X<X<X",
"<X<X<X<X<X<X<X<X<X<X<X<X<X<X<X<X<X<X<X<X<X<X<X<X<X<X<X<X<X<X<X<X<X<X<X<X<X<X<X<X<X<X",
"<X<X<X<X<X<X<X<X<X<X<X<X<X<X<X<X<X<X<X<X<X<X<X<X<X<X<X<X<X<X<X<X<X<X<X<X<X<X<X<X<X<X",
"<X<X<X<X<X<X<X<X<X<X<X<X<X<X<X<X<X<X<X<X<X<X<X<X<X<X<X<X<X<X<X<X<X<X<X<X<X<X<X<X<X<X",
"<X<X<X<X<X<X<X<X<X<X<X<X<X<X<X<X<X<X<X<X<X<X<X<X<X<X<X<X<X<X<X<X<X<X<X<X<X<X<X<X<X<X",
"<X<X<X<X<X<X<X<X<X<X<X<X<X<X<X<X<X<X<X<X<X<X<X<X<X<X<X<X<X<X<X<X<X<X<X<X<X<X<X<X<X<X",
"<X<X<X<X<X<X<X<X<X<X<X<X<X<X<X<X<X<X<X<X<X<X<X<X<X<X<X<X<X<X<X<X<X<X<X<X<X<X<X<X<X<X",
"<X<X<X<X<X<X<X<X<X<X<X<X<X<X<X<X<X<X<X<X<X<X<X<X<X<X<X<X<X<X<X<X<X<X<X<X<X<X<X<X<X<X",
"<X<X<X<X<X<X<X<X<X<X<X<X<X<X<X<X<X<X<X<X<X<X<X<X<X<X<X<X<X<X<X<X<X<X<X<X<X<X<X<X<X<X",
"<X<X<X<X<X<X<X<X<X<X<X<X<X<X<X<X<X<X<X<X<X<X<X<X<X<X<X<X<X<X<X<X<X<X<X<X<X<X<X<X<X<X",
"<X<X<X<X<X<X<X<X<X<X<X<X<X<X<X<X<X<X<X<X<X<X<X<X<X<X<X<X<X<X<X<X<X<X<X<X<X<X<X<X<X<X",
"<X<X<X<X<X<X<X<X<X<X<X<X<X<X<X<X<X<X<X<X<X<X<X<X<X<X<X<X<X<X<X<X<X<X<X<X<X<X<X<X<X<X",
"<X<X<X<X<X<X<X<X<X<X<X<X<X<X<X<X<X<X<X<X<X<X<X<X<X<XP.L.S.U.R.<X<X<X<X<X<X<X<X<X<X<X",
"<X<X<X<X<X<X<X<X<X<X<X<X<X<X<X<X<X<X<X<X<X<X<X<X<XS.Z.>.| Z.<.<X<X<X<X<X<X<X<X<X<X<X",
"<X<X<X<X<X<X<X<X<X<X<X<X<X<X<X<X<X<X<X<X<X<X<X<XG.#.&.;.| -.O.<.<X<X<X<X<X<X<X<X<X<X",
"<X<X<X<X<X<X<X<X<X<X<X<X<X<X<X<X<X<X<X<X<X<X<X<Xr. .#.;.O.-.| >.<X<X<X<X<X<X<X<X<X<X",
"<X<X<X<X<X<X<X<X<X<X<X<X<X<X<X<X<X<X<X<X<X<X.Xu.&.} #.>.$.-.] >.J.<X<X<X<X<X<X<X<X<X",
"<X<X<X<X<X<X<X<X<X<X<X<X<X<X<X<X<X<X<X<X_.OXz...n 8 r / ` ( a x X.T.<X<X<X<X<X<X<X<X",
"<X<X<X<X<X<X<X<X<X<X<X<X<X<X<X<X<X<X<Xe.(.&Xi.= X 6 h H x $.Q 1 x @.<X<X<X<X<X<X<X<X",
"<X<X<X<X<X<X<X<X<X<X<X<X<X<X<X<X<X<X<Xw.).XXI     % % , : 6 % % @ ! o.<X<X<X<X<X<X<X",
"<X<X<X<X<X<X<X<X<X<X<X<X<X<X<X<X<X<Xt.0.`.s.0 * 9 L O       v ] ^ +.6.<X<X<X<X<X<X<X",
"<X<X<X<X<X<X<X<X<X<X<X<X<X<X<X<X<X<Xf.v.Q.~ R < a ) , , 6 1 ` :.| U.y.w.<X<X<X<X<X<X",
"<X<X<X<X<X<X<X<X<X<X<X<X<X<X<X<X<X<X/.Q.2.T a % % , a a a a a a Z S.W.r.<X<X<X<X<X<X",
"<X<X<X<X<X<X<X<X<X<X<X<X<X<X<X<X<XB.j.8.E - O @ 6 9 a n B a a a x Z L.Y.<X<X<X<X<X<X",
"<X<X<X<X<X<X<X<X<X<X<X<X<X<X<X<X<XN.a.2.w @ , 6 9 9 a B B a x x h a $.W.<X<X<X<X<X<X",
"<X<X<X<X<X<X<X<X<X<X<X<X<X<X<X<Xz.z.(.^.P 6 a a a a x Z B x a a a a H H.<X<X<X<X<X<X",
"<X<X<X<X<X<X<X<X<X<X<X<X<X<X<X<XV.@X=X$XY 9 a x a x n Z Z x x a a a a [ m.l.<X<X<X<X",
"<X<X<X<X<X<X<X<X<X<X<X<X<X<X<X<X X*X>X#XU a s x x n B K Z Z x x m a a Z d.v.M.}.<X<X",
"<X<X<X<X<X<X<X<X<X<X<X<X<X<X<X[.+X=X>XoXq a x Z S Z B H H Z F Z N x a a 2.9.a.l.V.[.",
"<X<X<X<X<X<X<X<X<X<X<X<X<X<X<X|.&X;X>X].> x Z Z S K L ' ' ^ H Z Z N a , U i.v.!.v.j."
};
