/* XPM */
static char *BRICK[] = {
/* columns rows colors chars-per-pixel */
"64 64 115 2 ",
"   c #675649",
".  c #69564A",
"X  c #6D5A4E",
"o  c #705C4F",
"O  c #6F5C50",
"+  c #715E52",
"@  c #756155",
"#  c #786457",
"$  c #776458",
"%  c #796559",
"&  c #7C695C",
"*  c #7F6B60",
"=  c #AC451F",
"-  c #B4461D",
";  c #B6481F",
":  c #BD481D",
">  c #B44D27",
",  c #BC4D25",
"<  c #B54F28",
"1  c #BE5027",
"2  c #BF5128",
"3  c #BE5831",
"4  c #C1491E",
"5  c #C44E23",
"6  c #C84F23",
"7  c #C65126",
"8  c #C95227",
"9  c #C3542B",
"0  c #CB552A",
"q  c #C6582E",
"w  c #CE592E",
"e  c #D0572B",
"r  c #D15A2E",
"t  c #C65931",
"y  c #CC5B32",
"u  c #C45E38",
"i  c #CD5E38",
"p  c #D35D32",
"a  c #D85F34",
"s  c #CF6036",
"d  c #CD643C",
"f  c #D66136",
"g  c #D96236",
"h  c #D66339",
"j  c #DA653A",
"k  c #D6683F",
"l  c #DE693E",
"z  c #E0673B",
"x  c #E1693E",
"c  c #806B5E",
"v  c #867365",
"b  c #89776A",
"n  c #87796C",
"m  c #8C7B6E",
"M  c #8D7E71",
"N  c #917E71",
"B  c #CD6741",
"V  c #D66740",
"C  c #D76940",
"Z  c #DB6C43",
"A  c #D56F48",
"S  c #DE7047",
"D  c #D6704A",
"F  c #DF7149",
"G  c #E26D42",
"H  c #E57045",
"J  c #E97246",
"K  c #E3744B",
"L  c #E97449",
"P  c #E6784F",
"I  c #E8794F",
"U  c #E57750",
"Y  c #E57950",
"T  c #EA7C53",
"R  c #8E8074",
"E  c #928376",
"W  c #958679",
"Q  c #988779",
"!  c #97887B",
"~  c #9A8A7D",
"^  c #A08E7E",
"/  c #ED8057",
"(  c #EB8159",
")  c #F08157",
"_  c #F18A63",
"`  c #9D8E81",
"'  c #A18F81",
"]  c #A49384",
"[  c #A99686",
"{  c #A69688",
"}  c #AA978A",
"|  c #A69A8C",
" . c #AC9A8B",
".. c #B19D8D",
"X. c #AF9E90",
"o. c #B29E90",
"O. c #AEA194",
"+. c #B3A394",
"@. c #B8A494",
"#. c #B5A699",
"$. c #B8A79A",
"%. c #B7A89B",
"&. c #BAAA9D",
"*. c #BDADA1",
"=. c #BFB0A3",
"-. c #C0AEA1",
";. c #C3B1A5",
":. c #C9B4A7",
">. c #C5B5A8",
",. c #CAB6AA",
"<. c #CEBAAD",
"1. c #D0BCAF",
"2. c #CFBCB0",
"3. c #D1BDB1",
"4. c #D3C0B4",
/* pixels */
"]  .#.%.&.*.#.#.%.#.%.#.#.#.&.*.&.&.*.*.$.#.&.$. .+.%.| #.O.] { [ } +.%.%.&.O.%.&.&.#.#.&.#.#.&.$.$.*.&.*.$.&.#. .#.#.#.%.X.] ..",
"..;.<.4.1.1.,.<.2.<.3.<.2.<.,.<.<.<.3.3.,.2.3.1.:.,.2.<.*. .o. .} =.<.4.2.<.<.4.3.3.<.<.2.,.:.3.,.,.3.2.,.,.<.<.>.<.3.2.*. . .o.",
"&.1.( K I P P P K F K S Z Z k k l Z Z K K P P I U P Y Y H B v ] &.3.( K I I Y K K G K Z Z Z Z k j Z Z H K K P I I K I P F B M ] ",
"&.1.P r p r e w 8 8 8 8 8 8 8 w r a j h f f p p p w p w p 9 @ ~ *.4.L r p r r w w 8 8 8 8 8 0 w p f h h j a p p r p w w p 7 * ` ",
"&.1.F r p w y p p p f f h f h h f p p p p r w w w w y p p 9 % ! *.1.F r y p p y p p f h f f f f h p p p p w w w w r y p p 9 & ! ",
"&.3.K p h f f f p p r w r w e w w w w w w y w p f p f f j 9 @ W $.<.K p f f f f p y r w w r r q w w w r w w r p p p f p j 9 + M ",
"&.3.K r f p p p p p p p p r p p p f f g j l x l l x l j x 9 o E #.,.F r f p p r p p p p p p p p p a a f j l Z x Z l l l x 9 . E ",
"*.3.K r p p f f p p h j j j h h j j j j l j j j f f f f f 2 @ ! $.2.F p f p f f p f h j j j j j h j l j l j j j h f f f p 1 @ ! ",
"&.<.P a l l j Z Z l j h f p f p f p w y w r r p f p g h j y @ W &.4.K f l j l l l l j h f f f p f p p r w w p p a p j h z w + E ",
"&.<.K p p f f p p f p p r w w r w w r p p p f f j h j f x q @ W &.4.I p f f f f f f p p w w w w q w w p p p f f j h h j z q O W ",
"&.3.K w p p p p p p p p a f h f f j j j h h j f f f f p p , o E $.<.S r p y p p p p p p f f h f f f f j h h h f f f f p p , + W ",
"&.:.F p p p h p p f h h j j h h g f f f f p f f f f f f f 7 @ R +.-.S r f p p p p p f h j h h f h f j f p f f f f f f p f 2 $ ! ",
"#.$.C r p p p p f p p p r w p r p p a p p p r g f f f f g 9 . R O.#.Z r p p f f p f p p r r p p a p p p p p p f f f g f j 7 X ! ",
"X.{ B w t 2 9 q 9 9 5 , 7 , , , 2 , , , 2 2 7 9 9 9 9 y w < c ' +. .B t q 9 9 9 9 7 1 , , , , 5 , 5 , 2 , 7 7 9 9 9 9 t y > % ` ",
"[ { N % + $ @ + + O + % # # % @ X o @ + @ o # % @ + @ @ @ % m }  .] N % @ X + O + @ $ X X + % + + + + X o + # % # o + @ @ # N } ",
"}  .{ ` ! ` ! M E N ` ! E ~ ! M E ! W ~ W E W N E ] ~ E Q ^ [  . .} } ~ E W E M W W ` E E ` ! ! ! ! ! E W Q Q Q E ! E E ! ' ] [ ",
"&.&.*.&.-.&.@.+. .%.=.&.$.+...[ ..@.$.*.$.#.&.&.$.&.$.$.$.$.&.&.@.&.*.*.&.&.&.$.+.&.*.&.$.o. .......&.-.$.$.&.&.+.%.#.%.#.#.#.&.",
"3.,.3.3.1.3.<.,.;.,.3.<.&. .o...o.-.,.3.1.<.3.3.1.4.4.4.4.4.1.1.3.1.1.1.1.4.4.1.,.3.3.3.&.{ o.....>.<.3.<.:.2.3.2.3.3.<.2.3.<.3.",
"C l Z G K P U U I K U K K B N ' X.<._ T / ) ) / T T T U I L K K K K I I T / T ) / / / T T A N ] #.,.T K P P P P K K S S Z Z Z V ",
"p a j j f a p p p r p r p 7 & ~ @.3.T x x z j f a p p p r p f f z x H G G x x l l j j j z y & ! +.<.L r p r r e 0 8 8 8 8 8 8 w ",
"h p p p p w w w w r p y p 7 # ~ $.3.T j j j j j l l l G x Z G G x G l j j g h f f j j j x y # ! #.3.F w p y p y p p p f h f h h ",
"w w w r w w r p p p f f j 9 + E $.4.T z G G G G l j j f j j h f f f f f h j j l l l G l G i @ W *.3.K r h f f f p p p w r w r w ",
"p p p f j l l l l l j k x 9 . E $.3.T j l l j j j j l j l g l j x x G G H L L J L J H H J s o W $.<.H p f p p p y p p p p r p r ",
"h j l j l l j j j h p f h 7 @ ! $.3.T j l l x Z l G G G H H G H G G H H J H H H G x Z l x y + ! #.,.F p p p f f p f h j j j j h ",
"f p r p p w p p p p h j z y @ ! $.<./ x J H J L L J H G G Z x l G l j j j f j j l l G H J h @ W %.,.K a l l l Z l l j h f p f f ",
"w w w p p p p f j h j h l t + E $.4./ x Z x x l Z x l j g f f g f f j j l l G G G G G G J d + E &.3.U p p p f p f f p p r w w w ",
"f j f h h h h h h f a p p , X M $.4.T g l j j j j l l l x G G G G G G G G G G x G x l l x 9 + E &.3.F w p p p p p p p p a h f f ",
"f f h f f p f p f f f p f 7 + E &.<.I l l l l l l l G G H G G G G l G G l x Z l G l Z l x y @ E &.<.F p f p f p p p h h j j h h ",
"a p p p p p p f f f j f j 0 + ~ $.&.K g x x l l x x l j g g j j j l x j x j x x x x G l G s . E #.$.Z e p p a f a f p p r w r p ",
"1 5 1 1 1 7 7 9 q 9 9 9 q < c ~ +. .A h f y i i i y y 9 q q q q y t q y t y y i f y s h h 3 # ~ +.{ B w q 9 9 9 9 9 , 5 7 , , , ",
". + O O O . $ @ + @ o X + & m ^ ..} m % @ + $ @ + @ # X @ @ o + + @ X X @ o # & # @ @ @ % % b { o.} m % % + + + X X # + # + # % ",
"! R W ! ! E ! ! ~ ' M M ! ] ] ] } } ] ~ E ! ! E E M ! ! E ! E W ~ ~ E E ~ W W W ! ~ Q W ! ~ ' ......{ ! E ! E m E E ~ ~ E ~ ! ! ",
"+.o.&.*.&.&.*.-.&.&.+.&.&.$.*.&.&.#.#.*.*.&.#.@.+.*.%.O.#.#. .] ] +.$.=.&.&.&.;.&.$.@.*.&.&.&.*.&.$.*.&.*.#.o.+.%.*.*.&.+. .[ [ ",
"..;.<.1.1.1.1.3.3.3.2.3.3.3.<.<.3.<.,.<.1.<.<.,.;.,.<.,.*...X.~ [ >.<.3.<.<.1.3.1.<.2.2.<.<.,.<.<.<.1.<.<.<.2.<.:.<.4.<.&.{ }  .",
"&.<.( K P P P P K F K Z Z Z l k V Z G K K K P I I K P K F B v ` &.3.Y C Z Z S Z C C k k h h i i i p k k C Z F Z Z Z S Z h u b { ",
"&.1.L r p r r e w 8 8 8 8 w w e p p j j f p g r p w p w p 7 @ ! *.3.Z 8 8 8 7 6 4 4 : : 4 : 4 6 8 w e w e w 0 8 8 7 7 5 7 , $ ' ",
"&.1.H w p p y p p p f h f f j h f p p p p w q w w w p y f 7 $ E %.<.k 7 9 7 7 7 q 8 w w w w w y w q 7 7 7 5 5 5 5 6 7 7 0 ; + W ",
"*.3.K p h h f f p r w w w w w q w w w w w w r p f p f f j 9 O W &.<.Z 8 r w w w 8 7 8 5 5 5 5 5 5 6 5 6 5 7 7 8 9 0 w 0 r , O n ",
"%.,.S p p p p p r p p p p r p p p p p j l l l l l l j l l 9 X E %.,.k 8 0 7 7 7 6 6 7 8 8 7 8 7 8 0 q e p p h p p f p p r , . R ",
"&.<.H p f p p f p h f h j j j j j j l j l j j l g f p f f 2 @ E %.>.C 7 0 0 0 w q w w r y p w y w r p p p p y p w w 0 9 0 > @ ` ",
"&.<.K f l j j Z l l j f f f f p f p r r w p p p f a f j z y + E &.<.Z w p p p p p p p w w 8 w 8 0 9 7 7 5 7 7 7 0 0 w w p 2 + ! ",
"%.,.K p f f f f f f p p w w w w w w r p p p f p h h j h z 9 + R %.,.Z 8 q w w 8 w w 8 5 5 5 5 5 5 5 6 8 0 0 w 0 w w w w p 7 O M ",
"%.<.S w p p p r p y p f f f f f f h f j h h h f j a f p a , O m O.<.k 7 8 7 7 7 7 8 0 q w w w w w w w r w q w w w q w 8 8 - X M ",
"*.<.F p f p f p p f f j j h j h h f h f p f f p h p f p f 7 + E &.2.k 7 8 w q 8 0 0 w w y w w w w 0 w w 8 w 0 0 w 0 w 8 w ; % ! ",
"$.*.l r p p p f f f p p r r r p p p a p a p p f f j f a j q o ! &.&.d 6 8 8 8 w 8 0 8 8 6 5 6 6 8 8 8 8 0 8 8 0 8 w e w e , + W ",
"o.{ B y t 9 9 9 7 9 , , 2 , , , 7 2 , , , 7 7 9 9 9 q q w < & ~ +.{ u 7 , , , , , , - - ; - - > ; - - ; - ; ; , , , , , , = & ~ ",
"..{ M @ @ @ + O + @ % . @ + % @ X + @ + + O % * # + + % + % E [ ..' m % O + + + o + + X $ # % $ @ @ + O @   + # @ o + @ @ # v ^ ",
".. .] R m ! ! E ! ~ ~ E ! ! ! ! ! ! ! ! M R ! W ~ ' ! E M ' [  ...[ ] ! W ! ! E m N W ! ! E N E ! E m W E m ! ~ Q ~ W E Q ~ ^ ..",
"@.$.*.#.#.*.%.+.#.=.&.+.*.#.....+...$.$.+.&.$.$.$.$.&.$.#.&.&.$.#.o.#.*.&.$.&.@.O.*.%.&.$. . .[  ...#.*.$.&.;.=.%.%.&.&.$. .%.=.",
",.<.1.<.<.<.2.,.:.<.2.<.*. . . ...$.:.,.,.4.,.3.4.4.3.1.4.3.:.,.,.>.<.<.>.,.3.,.:.<.3.3.&. .+.o.+.;.<.3.<.1.<.<.<.1.3.1.3.>.<.<.",
"i p h V C Z Z S F Z Z Z k u b ] #.,.( H Y I I P K K H S Z Z Z k C Z G Z F K T P U P K K K B m ] $.,.Y k Z Z S Z Z k k k h h d i ",
"8 w r w e w 0 8 8 7 7 7 8 , & ~ $.4.K r f r w w 8 8 8 9 8 8 8 e r g j j g p p p r p p r p 7 % ! $.,.Z 7 8 8 7 4 4 4 4 4 : 4 4 4 ",
"w q 7 7 7 7 5 5 5 5 7 7 8 , # ~ $.1.K r p p p y p f f f f h f j f p p p p w w w w w p p p 7 $ R $.,.k 7 7 7 7 7 8 0 0 w q w w w ",
"5 6 5 5 5 7 7 8 0 0 w 0 r , + N $.3.K p h f f h p r r q w r w q w w q w w w w p p p f f j q O n %.3.Z 8 w w w w 0 7 7 7 7 7 5 5 ",
"7 0 0 w p p f p p p p p a , o W $.3.F p p p p p r p p p p p p p p f f f j l l l l l j j l 9 X R *.4.k 8 9 8 7 8 7 7 8 9 8 7 7 7 ",
"w p p p p y p p r q 0 8 w ; o E $.2.F p p p p p f f f j j j g h f j j x l l j j h f f h f 7 X E &.<.C 7 w 0 0 q 0 w w w p p w w ",
"w 8 5 7 7 6 7 7 0 0 w w p 1 O ! &.<.P a l j l l l x j f f f f f f p r p w w p p f p f j z y X R #.,.Z w p p p f p p p w w 0 0 0 ",
"5 5 7 7 0 8 e 0 w w w w p 5 @ E &.4.K p f f f f f f p y w 0 w w w r r p p p f p j g j h l q X M *.2.Z 0 0 0 w 0 0 w 0 7 5 5 , 5 ",
"w w w y w w w q w w w 8 8 - O E $.3.K r p p y p p p p f f h f f f h h g f h h f f f f p p , X E &.3.k 6 7 7 8 7 7 7 8 0 w w w w ",
"w 0 w w 0 0 w 8 w q w 8 8 > @ ! +.:.Z p f p p f p p g f j j j f f f j f f f h p f f f f g 2 # ! #.2.k 8 q 0 9 0 9 w w w w w w w ",
"7 6 8 8 8 8 8 8 w e w w e , + E X.$.Z r p f f f f f p p w w r r p p p p a p p f g f g f j 9 X E +.*.i 6 0 8 0 7 8 w 8 7 7 4 7 7 ",
"> - - , ; - , , , ; , 1 5 = & ' +. .d q q 9 2 9 9 7 , , 2 , 2 2 2 2 , 1 , 7 2 7 9 9 9 q w < & ! | { u 5 , , , , ; : - - ; - - ; ",
"+ + + . + + # & + o + @ + @ M [ ..} E $ @ @ . O O + % + @ @ @ @ + @ O O O X + + @ @ # @ @ @ R {  .` m % $ X X + @ # # @ % @ # % ",
"! W W N W E ~ W ~ ^ ! E ! ' [ .. .[ ] ~ W E M R W ! ~ ! E R R W M m R ! W n M W E ! ! E W ~ '  .{ ] ] ` E R W W ! ! ~ ! W ! Q Q "
};
