/* XPM */
static char *f345e7ee2b084da1c06361f22a948d23C1BZjR94tsxcZkQ7[] = {
/* columns rows colors chars-per-pixel */
"100 100 3 1 ",
"  c black",
". c #FDFF00",
"X c #A000FF",
/* pixels */
"....................................................................................................",
"....................................................................................................",
"....................................................................................................",
"XXX                                                                                              XXX",
"XXX                                                                                              XXX",
"XXX                                                                                              XXX",
"XXX                                                                                              XXX",
"XXX                                                                                              XXX",
"XXX                                                                                              XXX",
"XXX                                                                                              XXX",
"XXX                                                                                              XXX",
"XXX                                                                                              XXX",
"XXX                                                                                              XXX",
"XXX                                                                                              XXX",
"XXX                                                                                              XXX",
"XXX                                                                                              XXX",
"XXX                                                                                              XXX",
"XXX                                                                                              XXX",
"XXX                                                                                              XXX",
"XXX                                                                                              XXX",
"XXX                                                                                              XXX",
"XXX                                                                                              XXX",
"XXX                                                                                              XXX",
"XXX                                                                                              XXX",
"XXX                                                                                              XXX",
"XXX                                                                                              XXX",
"XXX                                                                                              XXX",
"XXX                                                                                              XXX",
"XXX                                                                                              XXX",
"XXX                                                                                              XXX",
"XXX                                                                                              XXX",
"XXX                                                                                              XXX",
"XXX                                                                                              XXX",
"XXX                                                                                              XXX",
"XXX                                                                                              XXX",
"XXX                                                                                              XXX",
"XXX                                                                                              XXX",
"XXX                                                                                              XXX",
"XXX                                                                                              XXX",
"XXX                                                                                              XXX",
"XXX                                                                                              XXX",
"XXX                                                                                              XXX",
"XXX                                                                                              XXX",
"XXX                                                                                              XXX",
"XXX                                                                                              XXX",
"XXX                                                                                              XXX",
"XXX                                                                                              XXX",
"XXX                                                                                              XXX",
"XXX                                                                                              XXX",
"XXX                                                                                              XXX",
"XXX                                                                                              XXX",
"XXX                                                                                              XXX",
"XXX                                                                                              XXX",
"XXX                                                                                              XXX",
"XXX                                                                                              XXX",
"XXX                                                                                              XXX",
"XXX                                                                                              XXX",
"XXX                                                                                              XXX",
"XXX                                                                                              XXX",
"XXX                                                                                              XXX",
"XXX                                                                                              XXX",
"XXX                                                                                              XXX",
"XXX                                                                                              XXX",
"XXX                                                                                              XXX",
"XXX                                                                                              XXX",
"XXX                                                                                              XXX",
"XXX                                                                                              XXX",
"XXX                                                                                              XXX",
"XXX                                                                                              XXX",
"XXX                                                                                              XXX",
"XXX                                                                                              XXX",
"XXX                                                                                              XXX",
"XXX                                                                                              XXX",
"XXX                                                                                              XXX",
"XXX                                                                                              XXX",
"XXX                                                                                              XXX",
"XXX                                                                                              XXX",
"XXX                                                                                              XXX",
"XXX                                                                                              XXX",
"XXX                                                                                              XXX",
"XXX                                                                                              XXX",
"XXX                                                                                              XXX",
"XXX                                                                                              XXX",
"XXX                                                                                              XXX",
"XXX                                                                                              XXX",
"XXX                                                                                              XXX",
"XXX                                                                                              XXX",
"XXX                                                                                              XXX",
"XXX                                                                                              XXX",
"XXX                                                                                              XXX",
"XXX                                                                                              XXX",
"XXX                                                                                              XXX",
"XXX                                                                                              XXX",
"XXX                                                                                              XXX",
"XXX                                                                                              XXX",
"XXX                                                                                              XXX",
"XXX                                                                                              XXX",
"....................................................................................................",
"....................................................................................................",
"...................................................................................................."
};
