/* XPM */
static char *NETHER[] = {
/* columns rows colors chars-per-pixel */
"128 128 51 1 ",
"  c #050202",
". c #0C0405",
"X c #0E0709",
"o c #0E0809",
"O c #120405",
"+ c #130709",
"@ c #190609",
"# c #150A0C",
"$ c #190D0F",
"% c #1B0E11",
"& c #1E1013",
"* c #21060A",
"= c #210B0F",
"- c #230E12",
"; c #2A0E13",
": c #300F15",
"> c #241014",
", c #2C1116",
"< c #2D1419",
"1 c #301117",
"2 c #34161C",
"3 c #38171E",
"4 c #37181E",
"5 c #39191F",
"6 c #351C21",
"7 c #3B1A20",
"8 c #3E2126",
"9 c #3F2228",
"0 c #421E24",
"q c #481F27",
"w c #4A1F28",
"e c #442127",
"r c #492027",
"t c #452429",
"y c #4C232A",
"u c #46282D",
"i c #4D282F",
"p c #51262E",
"a c #51282F",
"s c #4E2B31",
"d c #562730",
"f c #532B32",
"g c #592E35",
"h c #5A2F38",
"j c #563037",
"k c #593037",
"l c #5C323A",
"z c #61363D",
"x c #63383F",
"c c #643A42",
"v c #6A3E46",
/* pixels */
"%%%%%#%#$$$$$$$$%$$$$$$$$$$$$$$&%%%%%%%$#$$$$$$$$$$$$$$$$$$$%%%%%%%%$%#%$#$%#$%%$$$&$$$$$$$$$$$$&$$%%#&#$$$#$&$$$#$$$$$$$$$$$$$&",
"%%&&%&&&&&&&&&$&>%&&%=&&&&%%%>&&%%%%%#%&>&&&&$&&&&>$&&&&&&&&&%%&%%%&-%&&&&&&&&&#$&&&&&&$&&&&&&>&&&&&$%&&>$&&&&-$&&&&&>&&&&%%%&$&",
"%%>9ulcxzllzkiyyyyyyyyyyiyrypklu>#@$%>2slkuyyrrqryyyyyafflka9,$&%&6jgayyyyllf,$$,jzlsirqypyagljjklf8<<8sgpyyyyqyyaklgaypyyiye<$&",
"%&tvcllgaaafirrrryyrryryyrrrrifju88sfssifyyyrqqqeryryreeyyyq2$##%%ucgywyryfgju89ijggiyeqyyyyipiyyasiiaiaprqyeeqqrraayyyyyyye4&#$",
"%%ixjue005000777500500000e50500eeeyte00755505550505070507773,#o%%%tge070570eetttie75507700e05ee00500ee7077000777555050007e85,+##",
"%&gg97775555557755055505555555555777553355555555555055535552-#o#%&idt7775557557777555555555555755555775555555555555555555554>oo#",
"%%la7577557755775775555555555555557755455445555555555555555<-+o#%%iy07765577555557545555555505555555755755575544555555555772>.o#",
"%%fy07775577754755755505555555555577557553455535555555555742-#o#%%yw077745755555555555555e8550505577787555575544555555555754> o#",
"%&yy05555557745577777777555555555777577543367435225555555542>oo#$&eye7554477775557755755787577755555777554477544445544775752@ o#",
"#&yy0577555774756757777555555555557337557337744553555555554<>#o#$#>iie554577775557755577777577755555777774777544445544475751O.o#",
"$%aye5774457745557557755855555553777753474477555555554755521>+o#$$$tst55455777557777445577777755552577475447754444554455575>O o+",
"$&gfe5754477745777555855555555853737575774377533555555555522>+o#&$$ti955557777755777445558777975525577454257555434555575575,O o#",
"$&ff95754457745555475775577755557657477574477736554554575551$Oo#$$&it555567777757775425558577776444455455447555424445555455,O o#",
"#&uf0575445774567555557577755575777757755437743455455577552,@.+#$&6je5555777877777754445777777774444774552575454325555554552=.+#",
"&&uf0575445774555447585557575555747777557546754454455577552>O.o#$&8i05575577777557555225777777774444775554575454445555554564>+o#",
"#&jf0555445774555455557555555855755577575535755754555577655,O.o+$&ti75555577777557755244887577575245775544555454555555555574>+o#",
"$&li0775447774475455577457776754577637577557734754457477552<+.+#$&ga55555557777457745445777475554344774442575454554555555742>+o#",
"$&gy07774457755754575754477757545577375543477777544555555552>oo#$&la05555557775447755455787775553347775754575554444555575542>+o#",
"%&gy77554477757774575774577755445475577364777447534554775552>+o#$&ji55555455774447457457777475552235757752575554444555455742-.o#",
"#&gye7754577757754575754777777455455577733477557444555575551$.o#$&it05555445774545575447777765553455765752477554444554455752@ o#",
"&&fy0554457775777557755577775545545547755357745754455577755,O.o#$&yr5555545555453455445777777557424475575255555444447334447;O o#",
"#&yi0754557775777557777577775555434557555355755755455577755,O .#$%pr5555544555453357444777777555434775575355555544445345474;O o#",
"$&ay0754474755577557675577774455734775357447775475455577755,O o#$&fp5355524555422357335778777457434575574457455444447445343;. o#",
"$&gy77545747757755575775677747557357577553777777554577777551@ o#$&kke558534555443376235777477457434575554455455445557455445;+ o#",
"$&ka75557557777677577777777737477334777454777757743455775552@.o#$%ult255552555422477434778575555544557574347454435337555433<@ X#",
"$&ky05554457777777577773777734557347774754677755753457575552$.o#$&uje5257525555234754345777554455445555544554544455375574432-.X#",
"$&iy75553235744474677346333544347623454455777744532244554252=+o#$&aa02555524444244455357775742335424545544444442432233334242%+o#",
"&&ye522222232222222422222,;;;;2242<2222222<222,;;;,222222,;=@.o#$&ie2<252,,<<2222<24<224642422222,=;;;,2<222222<2,-;;;,222<<%+o#",
"#&84<>>>>---$@@-->>>->--@OO..O@->>->>>>>>>$@@@OOOOO@@@$@+OO.  o#$&t4>>>>=@O@$=>>>->>$@@%>>>>%$@$@O.OO.O@@%;>>>>-@O.O.OO@%>>%@.o#",
"&$2&$#++++X     X++##++X       O#o#++#++++OOX          ..     o#$&<&#++#+.....++o+++   .+#+.              X+++..        .#++X.##",
"&$$#+oooXXXX+XoXX#XXXXo+XXXXooXXXXoooooooooooooooXoooooooooooo#$%%$##ooooooooooooooo+oo+oooo+XXXXXooo+.XXXoooX+oXo.XXXXX+Xooo##%",
"&&&$$####%###########%####%######%####%#################$######&&&$$#####################################%#############%#######%",
"$$&$%#&#$$$$#&#&$$$#%$#$$$$$$$$$%%$$%%#%%##&#$$$$$$#$$$$$$$$$$$$%%&$&$$#$$$&$$$$$$$$$$$$#%%%%%%%%%%#%%%%%#&#$$$$$#$&$$$#$$$$$$&$",
"&&&&&>&&$&&&&&&&%%&>&&&&&&&&&&&&%&&&&&&&%%%&&&&&&>&&&&&&&&&&&&>&%&&&&&&&&$$&&&>$&%&&&&&&&%%%%%#%%%--%%%%&&&&&&&%&&&&-$&&&&&$&&&&",
"yyiiglf7<8skgyryyyfjjuufgaie7<$$%&sdffgf7<<<8fljgapfggafttsfapyyyyyyyilg8><ukgyyyyypfklgfyyw7<%%%&apypyff9efjayyyyeryypyagf99fji",
"wyyeyffassffiyrrryygllljiyye2&#$%&ydyydfsysiifiyywywryyyiiiyyyrryrrrrrygjjffiyqqryyyyyayyyyt3-#%%&gpwyyyyyfayyyyqrqeryyryiaiyaay",
"7007000700000500000eeie70775,#+$%%yy00770000070700707007e5050000005005009tte5500005070700007,#o%%&gaq000700070705050050000757700",
"5777755355555555777777777552>+o#%%ew77335557755777555757750555505555555565422333555555777774>+o#%>la7753553537775335550735325755",
"5775775355575555777777777752>+o#%%iy77335577775705557757755555557555555554422245555555778775>#X%%&lf0775553537775555555533325777",
"7777773355555555777777747752>+o#%%id03335577777777557757855555577555555554542445555074777764>oX##&la0777543735735535035755235777",
"5775774455577755777776777732-#X%#&<ye5445777777777477757757736777555557555532245557775777774>#o#%&sje777653776775745777752255577",
"5775775555577755777773777332$ X#&$$9t5445577777777777767777737775557757555532357057755777776>+o#%%>ss077333775775755647755425575",
"577677545555775577777775333;O o#$$$9e5535557777774477777777377475457557457742347575755577774>@X#&##9st75745777773453557755557777",
"577477442555775437777773772;. +#$&,t05355577757674457777777555375555557575743345755755777764-XX#$&#9su77737777773743757555555777",
"577477444777777447763773732*. X#$&si7553447777775347977777765757435755755774444777775577777<@ X#$$>ssu77735777773633557775775777",
"57757744447777753777577773;*. X##&ki0555437777774347777777735757435775755774244777575577777,@ X#$&jls876645775753433557777475777",
"37777744557777747755577373:*. o##&ae7543446777777457797777775757734744775755324575755577745<O X#$&ljt777355777733333557557445477",
"37737754457777744755577773:*O o#$>ar75433477777754477777777757574277477457553247757757777552@ X#$&ls7777535777763644557767444777",
"367574534557777447555555571*. o#$&gy57552347757777577777777777356334457577753334755555777742@ X#$&gr0777574777757534757777347477",
"377577643555777444557555752*. o#$&ky7553347777777733777777777764533545777775335455555577745,@ X#$&gy5757547777775535757575547377",
"557775333357777444755734552;O O#&&gr05552475677777337977777777334344577777754355354477774432%.o#$&ga0555554777535534737574777677",
"5777753223577774475554475552@ o##&ye55553377377773367779736777334355677776754355644457777432>+##%&gp0575743777765544737647473777",
"7777753222357774337344477552$ o#$%pr05553557777754457977737777434455457767744244553347777442>+o##&yy7733344777744545747736365377",
"777753222555777547337347754,@ o#$>gy05555457777755557777777777434355477757774345363346777442>+o#&&ye7753346777434545775773325777",
"377733222557777474374337753;O o#$&gy05555457677744777777737777553344347755774234433345774452>Oo#$%yr7764333777744545774737334574",
"377733222557977747777336753;O o#$&gy05554457777544577777776777572244347755775324232345775452- o#$%ay7734333777444547545533337577",
"777753222555777535634446733;O X#$&ir77555555777744777777737777743332367757774324333335777442% o#$>fy7555444777555544555573437477",
"377732322555777747734347773<O X#$&yr07555557757744577463737777772443377755777444333355775442%.o##&gy0555437776555554555537444777",
"6773223223557555323333365332O o#$$ye77364255347342453376433776334432237753575322;:2244445442-.o#%&ir5255333373355524553333332336",
"32222,221,;;,,23<222222222<;. o#$>r04232222422322222223322232222<222<22222221;=@**=22222222;@.o#$&rq52222;<2322<22222222222<<223",
"->>>--%%@OOOOO@@@@%-;->>>>-O  o%$&92>>>>>%>>>>-$@>>>>>->>>>>>>--$@@=-->>---@OO.   O$->>>-$@O  o#%&74,>>$@OO@%->>-=@@@$$@@@$@@=->",
"#+##+..           ..+++o+++.  o#%&<&#++#++#++.  ..+#+###++++###X    X++###         X+#+#..    o##&2&#+..      ..   .  ...     ++",
"XoX+XXXoXoooXoXoXoXXoooXooooX+##&$$#+#ooooo+oooooooooooooooXXXXoXX+XXXXo+XooXoOXXXoooX+ooo.oooo$&$$##+o.oXX+XXoooooo+oooXXooXoXX",
"###################%###%######%%$&$$#######################%#####%###%###########%##########$$$$&&&$############################",
"$$$$$$#$$$$$#%%%%%%%$$$$$#%%%%%%%%&&&$$$%%%##%%%%%&#$$$$$$$$$#$$%%$#$$$$$$$#&#&%%%%%%%%%%%#%$$&&%%%%%%#%$$$$$$$$&$$$%%%%#%%#%$$%",
"&&&&&&&-&&&%&%%%%%%%&&&%&%%&%&-%&&&&&$&&%%%%%%%%&&&>&&&=&&&&&&&&%%&&=$&&&&%&&%%&&&&%%%%%%%&&&>&&&&-%%%&%&=&&&&$&&&&&&&%%&&&&&&&&",
"yiyyryggfyyy7>%%%%$8yrqpu8<7sdyyyyfs829iyyyq6-%%%&ygyyyyiajtufgywyyyqqyyrqry7<#&%&gytjsdyyaglzzlfffayeyqryyr7<&&%&gllftujllgayyy",
"yyyrryyayywe6%o%%%elarqriiiiywqyyyujjjjaryw02-#%%&lxyyyyyijlkjyyqeqqqqyweqry7>##%>lxlfyewyyyagaaiyqyqqqqqry04>##%>dfdffdfsfyyyrr",
"ee0755007577<+o%%%fge700007070707e7etyee7703>###%&lcue7057tyye77500550057775<###$&yfr00500050007007075575055<@o%%&yyq00700005000",
"777555555554; o#%&fy053355557577775577575552>+X##&ucse5555557575335533555574>+o#$&ye055555555775577733355552>XX#%&yy077335555553",
"787544553551@ o#%%fy055555557737775555455452-+o#%%scst7555556555355523555554>+o#$&rr555557535777555752354532$ X#%&yy777735755735",
"77754555355>. X##%fy055555577777775575475442-#o#%&lxit5555577555555535555552-Xo#$&yy555557755777555533354542@ X##&yy077755755555",
"78555455445;O X#%&sye55555577437755575475552-+o%#&cle77555557575557444453351@ O#$&jy75444574777555554345553,O X#$&yr077555757755",
"75544455445,@ X%#&ei955555577537755575475553>+o#%&lg77755556757557744745355,O o#$&kf05525775777755774347553;. X#$=yy775555755757",
"775545575342@.+#%&9i055557557333545575475552&.+#%&ji77555457757557745545345;O o#$&lf75257774797757775535554,O X#$&yy057555557777",
"785545877442-.X#$&ii055557577336555555555552@ o#%%st07555557557557757545445,@ o#&&lfe55247777775477755467332@ X#$&yy057555755777",
"775445575474>Xo#$&gy077557777535444775575551O o#$>yw755555577555757755455442$.o#$&cj75425754777547777447753<% X%$&yr057577757557",
"775445575476>+o#$&fr77755757773373557445555;O o##=yy057555577557557775453442;+o#$>cle54357747776577774477732;+o#$&yy077577757557",
"777457575374>#o##&ar07555755753654557547555;O o#$&yw077577577555447755243452-#o#$&cl053347746773577744457432-+X#$%yr777777557557",
"777457776472>+o#&&fr07555753773457555547555<O o#$&aq077555575555457444333442-#o#$&zf074357747773457774457732-#X#$&yr757777757755",
"775457775452>#o#$&gy055757555737557775555562@ X#$&ji555555555555377375334452>+o#%&gy777457757773337774337732>#X%$&yr055550555555",
"775447776472>+o#$&si055557357734554774475572- X#$&sje55555505555357555335442>.o#%&yy074457557763236753377632>+X#$&yr055555557875",
"775457775572>+o#%%ei055557577555555777377772$.X#$$<ue55555557555477574235422-.+##&yy053375757773237753733772>#X#$&yr555555555877",
"575477775574>#o##%9i755557557735537775457472@.o#$$$9t55555555555477644335442% X#%&yy752355757772237774377762>+X#$%pr005555505775",
"577457777772>#o#$&sa055575777645537775577773$.+#&$#9t55555557555567774457552% o#$&ay075555557773237536336732>#X#$&yy555577550555",
"477577777762>+o##&ki055577577535447775677776* o#$$>ue55555555555377745345332@ o#$&gr552255545763237773373732>+X#$&ar505555555577",
"457556577472-#o#$&fy755577777735547774477776% X#$&ap0555555e755537744434753,O o#$&ky055355545774277537377332>#+#$&ki055555555557",
"477477777772>#o#$-pq055557577737545774476774= o#$>ay55255855855537745434553;O o#$&ga555254547774257773737632>#o#$&fi055555557557",
"577577377372;+o##%yq055577777736536775577773@ X#%&yr75257555e55545745545744;..X#$&ti054454545775355555547742-.o#$$eie55555555555",
"477557773632-+o#%%wq75556777773453777554777;O o#$&ye55557555555547745444544;O.X#$&ti875454545775354555544554-.o#$$ti555555555575",
"45453537732;$oo#%%wq75543755733333474433776;O X##&ye02357555555544444444522,@ o#$&ii774422523574233443543442@ o#$&ji055554225555",
"2232,;;32,=*O.o#%%00532232,;;;,2<2222223223-. o#%%qe322244221><2222222222<2<$.o#$&ye522<222,;;<2222222,;;;;=O X#$&jy52222222<242",
">>>%OOO@%=@   .##&76>>---$OO.OO@-->-%$=;-->@  X#$%82>>>>>>&@OOO=->>$@@@@@@>-#.o#&&e4<>>>=>@OOOO@%>>;@@OOX..   o$&&u4,>>@@$>>>>>>",
"++#.X.. .X    o#%&<&@#+#.        ...X   .X.  XX%$&<>+#++#+..   .+++  .    .+X.o##&<>##+o+.      .+o+.         o$$&<&##o....+#o##",
"o+XX#XXX.+oooo#%%$%##o+XXX+XoXXXXXoXooXoXXXXX##%$$&#+o#ooo+o+oo.oooooooo+oooX+#%&%##+ooooooooooo+oooooooooooooo$&$&##oooo.ooo+oo",
"##############%%%&%#%############%#############%&&$$$##########$##############%%&&&###%##################$o$##$$&$&$############",
"%%$$$$$$$$$$#&%%%%%%$$%$#&$$$$%%$$$$$$%$$$#%#&$$&$%%%%%#$$$$$$$$$$$$$$#$%#%#%%@%%%%%%%%%#%%%%#%%%%%%%%%#$$$$#$$%%%%%$$$$$$$$$#$$",
"%&&&&$%&&-&&&&%&&&&&&-&%&&%&&&%%$&&&%&%%&&&&&&&&&&&-%%&&&&%&&%&&&&&%&&&>&&&%%&>%-%%%%&#%%%%%%%%%%&%%%%&&>$&&&&%&&&&%%-&&&&&%&&&&",
"yii7<<8jgpwpyyryyfhlgayyyiye7<#&&&>88eyyyykf8<8fjffpyqyyyyqqyyyyyyyyiffafgft8sfpyyyfjf<%%>wy7>%%%%%77illlgapyryyyyyyywyyafi827if",
"qyyysusspyqyrrrryyfyyyqryyyq4%##$&elsyyrryifaaiaiiyayqqyrqqqrryrryrrrryqeysfysaryywyifi77iy76%#%%&9gyifypypprrrrqyyyqqyqyyyiuiiy",
"7070e07000500077007707770e75,+o#$&tgee5e77007005007777700055500e70057700750770707000000eu072<++#%&ya00770050070570070500005e77e0",
"7777777777355755777477355874@.o#$&sy00555575775535555535555255555055555555355477777777767622>++#%&yr7757575555555575535055555555",
"777577777555555577777554577,O o#$&lp05555357777523555335455555585755575523355337737777337322%.+##&qq7535577755545777537755575577",
"757777777555774577777734777,O o#$&za0555355557553545555555554505505555533355735533777633332;@ o#%%yq7353575555545577557755755577",
"777577777747753577737744575,@ X#$&lg7555545777442555544575424578575757542465357573577733272,@ o#$&yq3335555557545575557755575457",
"7575777777547535777377445742$O+#$>lfe5554457775435555545753245855777577432333333335777447721%.o#%%eq0533555557555775557755555577",
"7755777774577537777763445752>#o#$&ly55554455775425555555533255785557777433334475637777637262-++#$%rq5355550555555775527752555477",
"7755677774377557775737435754>+o##>fy05554455775424355555532225875557777423364447333777737262-+o#%%rq5555555555555765557755555558",
"7757777773477777735577733732>+o#$&yy75434445775434455555532235775577777522323375747677737721-#o#$&yq5555557755555557557755775457",
"7755757774477455733777535632-+o#$%yr05434445754434555445532245775557777432333377437777432771>#o##&yr5555557555555657557855575477",
"7775577774457635743777635772-#+#$&yr7753444577442445425554334578745777764344346773777743777<-+o#%&yy0555555555555755557555575477",
"7555577773477755775377337762-oo%$>yy07534445555434454345553245775555577523444477437777237776>+o#$&yr5555555555555755577754575577",
"7775777774557775577473737772-+o#$%yy55535255755444343355744267775575577333555577545777334742>+o#$%yy7555557547747555557555776577",
"757777774455775547773633377<-+o#$>yye5522525754444243354772277777547377344555577545777334732-+o#$-py0557555444555555457447775577",
"5753677773557755377777435752-+o%$%yr0553525554244434445547337777555757744475554754477763553<-++#$>hp7557555345555555457455775557",
"6753577743447755777777735752>#X#$&yy05525525645444344553743347775447367447475547544777534742-Xo#$&ha0557457444555575457455775477",
"3733757774337757767777373332>#X#$&yr0554255555444344553555337777545557745453755754477744754<@ o##&lg0557457445555555455455777367",
"7733457744325755337373733362>+X#$&yr7554555555524447553455447777445557745757754744477544534;O o#&&sje555445545555555455453774357",
"7744477755235755737773333732>+X#$&ty0554555555554344374377447773455557755747775754477754543;O.o#%$6lt757545545557575455437575477",
"7444747774224775377763333562>#o#$%8y0554555555554345644374477777454557777334754744477554573;O.o#$%4je577545344557574475435677777",
"7444447775334774477775534752>+o#%%9y0774477775364455555573237373372777733444774744457555555;o o#%%ia8550555445557557363347774577",
"7544477776335775747775533542-+o#%%iy7754774775723444554576373736333377765747744744457554555<o o#%&ay5555545443577554333335777577",
"532343777442444444474337334<>#o#%%yy07743474733334424444332633332323373334444347424774445251O o##&iy0455444543455444333234545677",
"222<,;;<22<2222222222,;;<22,%+o#%%y0742<22<22222<2222222222222<22<222,222222222222<24222222=. o#%&te4244<2222<222222<222<2222,,2",
";>-@OOOO@->&-->;$@$=%OO@@;-%#.o#%%76>>-$@@%--->>>>>>>>>>----@@$@@---@@@%->>->>>>>>%>>>>>&&@O  o#$%e7<,>>---%-@$;->>>-->%->--@OO@",
"++X      X+++#+.   ..   X#+X.Xo%%%2>%@+    +###+++o#++#++X.      ++X   .#+###+#+++++++++@.    o#$&<>#o#o#++.   X++#+###++@.     ",
"oooXoo.XXXXXooXXXX+XoXooooooo##%%%%#oooXXXX+oooooooooooooooo+XooXXXXooooXXoooooo#ooooooooooooo#$&%$#ooo++XXXXXoooooXooooooooXo.o",
"###########%###################%%%%%##########################################################$$%&$$############################"
};
