/* XPM */
static char *new_4[] = {
/* columns rows colors chars-per-pixel */
"64 64 39 1 ",
"  c #161616",
". c #171717",
"X c #181818",
"o c #191919",
"O c #1A1A1A",
"+ c #1B1B1B",
"@ c #1C1C1C",
"# c #1D1D1D",
"$ c #1E1E1E",
"% c #1F1F1F",
"& c #202020",
"* c #212121",
"= c #222222",
"- c #232323",
"; c gray14",
": c #252525",
"> c #262626",
", c #272727",
"< c #282828",
"1 c #292929",
"2 c #2A2A2A",
"3 c #2B2B2B",
"4 c #2C2C2C",
"5 c #2D2D2D",
"6 c #2E2E2E",
"7 c #2F2F2F",
"8 c #303030",
"9 c #313131",
"0 c #323232",
"q c #333333",
"w c #343434",
"e c #353535",
"r c #363636",
"t c #373737",
"y c #383838",
"u c #393939",
"i c #3A3A3A",
"p c #3B3B3B",
"a c #3C3C3C",
/* pixels */
">-->>->><><555->>>555------@--+@<5<5<>>>><>>>>@+>>----@>---@---+",
">>--->>>>><<55->><<5<------@@-@-<5><5<>->>>>>-@.--@--@>--->--@-+",
">>>>>><<<><5<5><<<5<<>>-------@@<5>>55>--->>->@.@---@---->->@--+",
">>><>5<55<<q<q<<<5<><<<>---@@-@-<<>>5<>>>------.------->---@@@-+",
"<5<55<-q5>>5<5>5<<5>5<5>----@-@@>>--<>>>><<>->@.-----@@-><>@@@-+",
"5555q<-5q>555q>q5<5><<<>>>--@-@@-->>>->>>>>>->-.--------<<>@--@+",
"555q5--q55q55<-<<<<<><<>->>@--+@------->>->----.---@->-<q5>----@",
"555q<><555q55>-55555<<<>>->---+@>>>><>--->>----.--@-@>-<55<@---@",
"5qqtq<5q5<5q5<-<5<5q>>>>-->--5@@<<<<<>>>>>>-><>+->>-><<55q>>>>>@",
"<<><>>><>>>>>-@>->->--++.++.+@++-->--@@@@@@@@-@.+@-@@@>>---@-@@+",
"t5555<<qqqqq55-><->55<>--<><<<-@<<5<><<>->--->-.@@-@--5555q55<>>",
"t5555q5qtyq5<5@<5<<q55<->qq<5q>-5qqq5tq<><>-<<>+->>-->5qqqqqtq5<",
"tqq5555qttqq55+<5<5q5<>--5<<<q>-5qq55q5<<<5<qq<@->>--<55qq55q5q5",
"5qqqq5qqtyqqq5+<5<555<<>><<<>5>-qqqq5qq555t555<+@->->55555qqq<q5",
"5555qqq5qttqq5+><<<5555<--<<<q<>q5qqqtqq5qtq555@-><<5q55555q55q5",
"qqqq5q5q5qqq55+>><5q5qq<->><<q<>qqtqq555qtt5qq5@><55qqt<555q55q<",
"tqqqq55qq5q5tt->><5q<q5<-<5<5q5<qqtq5q55qtq555q@>5555qq<555q55t<",
"5qqqtqqqqq5<qq@<5<q5<qq55qqqqtq<qqtqqq5qt5q5qq5@<555qtt555q5q5q<",
"5qqqqqt555q<qt+<q5qt5tq5555qqq<5tyttqqt5<5qqqqq@<q55ttt55q5q5qq>",
"555q5qtqq55q5q@<q5ttqtq55555tq55ayyqqtyqqtqq5qq-5q55qtqt555q5qt<",
"-><<<<55<><<<>@--@--@-@--@->><>-<<5<<55<>>>><<>-<<--->-@@@@@@@-@",
"@<55555qq555555q->5<<55<5<5<55555>5<5<<5<55<<55<<-><55<<<<5<<55<",
">555555qqqq5ttq5><5q5qq5qqqqqttt5>qqq<5555qqq5qqq->5qqqqq5555qq5",
">555555555qq5qq5>5qq5q555qqqqqqq5>qq5<55<5<5q5q5q@<qqqq5q55<<555",
"-5q5555<55qqtqtq>5q5q5q5qqqqq5tt5<q55<55555qq5qq5@>q5q5q<5q55555",
"-qq555<5<5<qqtq5><qq555qqqqqqqqqq5q5q<<55<<qqq5q5@<55qq55555555<",
"-5555<<5<qqqtq55<5q55qqqqqqqttt55<tqq555<5555qtqq@5tqq5<<5qq5555",
">q55<55555555555<55<55qqqtttyyq5<<ytqqq55q5qttttt-5t5555q5qtqqq5",
">555555555q<555q5555<555qqqqtttt5>tq555q5qqtqtttt@5tq5qqqqqqqqqq",
">5555<qtqq5<5555<5q555<qqtqqqtyy5-tt555q5qtyytqtq+<qqq555<qtqqqq",
"-555qqtyytqqq55q<5qqqqqt5qtqqqtt<-tqq<5qqttqtqq55@<555555<qytqqq",
"->>>>>><<><5<<<<><<<><<<>>>--@@@@@@---------@@-@-@@------><<<<<>",
"qtqq5q55555555><5qqq5qqq55qq5q<>q55q55qqtq5555<@qqtqqqqqqqq555q<",
"5555q555q55<55>55qqqq5qqqqq55q<>tqqtqqqqtt5qqt5-5555q5qtqqtyqqt5",
"555q<55qq555<5-5tttq555qqq55<q>>qqttqqqqttqqqq5-q55qq55qqqyytqq<",
"qqtq<<5qq55555-5qqqqq555qq5555>>q5qtq5q55qqqq5<-55qqq5qq5tttqtt<",
"t5<555qqqq5555@5qqq5555qqq55q5><qttttt5555qq5q5-555qq5q5tttqtqq<",
"qq5qqt5qqqqqq5-5q55<5qqqq5q55q><qqtqqqq5<qtqqqq-555qq55qttttqqq<",
"qtqq55<qtqqqqq-55q55qqtqqqq55q<<qqqttqqqtttttq5>q5q5q5q5qqtyqqq<",
"55q5555qtqqqtq@5qq5q5qqqqqq5<q<<qqttyttq5qqqttq>qqqqqq55tqqqttt<",
"q55qq55qytqqtq-<5q55qtqqqqq5q5<<qqyyyyyqqqqqqqq>qqqqqqqqqtqqqqq<",
"5qq5<555qqqqq5-5ttqq5q5q5q55q5<<tqtyyttq5qq5qqq>qqqqqqqqqttqqqq<",
"-@-@@----@->>>-><<>>>><<>>><>>@-<>-->>-->>->><>-->>>>>>>-><>>>>-",
"5>5tqqtytttyyttqq5>q5qtqq55qt5qqtt-<55q<<5<5555<55<>q5q5q5q55555",
"q>5qqqtttyttyqqq55>qqqq555qqqqqqqq-5tqtqqqqqqqqqqq5<ttqqytqqqqqq",
"q-qttttttyqt55qqq5<qq5<<555qq5qqqt>5ttq5qtqqqqqqqqq5yttqytqqqq5q",
"5-qyayytqytqqq5qq5>qq5555t5qq55qqq-5tqqqqqqq5qqq5tq5tttttytqqqq5",
"5-tyattqtttqq55qt5>qqqq5qtq55qqqqq>qtqqqqqqqqqqqqt5<ttqttyyq5qqq",
"q-5ttyt55q5qqq5tt<<qqty5q55qq5qqqq>qqqqqqqtqqqqq5q<<qqtqqyttqq5q",
"q@5qqqq55<qqt5qqt<<ttyttttqqqqqqq5>ttttqqqqqqqqtq55<5qtttttttttt",
"q>5qqqt555qqtq5qq>-tttqqqqq55qqq5q-qqttqqtyyqqqtqq5<qqqqqttqtyyy",
"q><qq5qq5qtqqt555>@tyttq555q5qqq5q-5qqqqqqyttt55tq<<5qqtqtyttyty",
"5-><<5<55q5<<<5<<--5qqqq55qtqqqqt5@5qqqtqqyyyq5qtq5<q5qq5qttq5q5",
"@@++@@@+@@@++@--@@@---->><<<>->>>-@-@->>->5<<>55q5<>555>>-->-++@",
"qqqqqtqqtq5q-5tqqqqq555tttqq<@555qqq5q5q5<555>qqqqqqqttqttyyt<-5",
"qqqtyattqqqt>55qq555<55555<q<-q55qt55<qqqqq5q>5q5qqqtqtttqqqt>-t",
"qqttayyytytq-5555<5<5<55<5q5>-tyqq5555qt5q55q>5qq5qtttttq5ttq>>q",
"qqqtayayyytq><5<5<<555<5<5q5>-ttq5<qqqqtqqq55>5qq5qqtqttttqtq>-q",
"qqtyyytyytq5>555qqq5<5<5qttt<>ttqq5qq55tqqqqt<5qqqtqqqtqqqqqq--q",
"qttttytttt5q>55ttttq55q5qqqt<>tqqqq5555ttqqqt>qtytyt5555qt5qq--q",
"tttqqttqqqqq<55ttqq5qttq<5qq5>q5q5qq5<5yttqqt>qytyytqq5qttqqq>-t",
"qtqqqqqqqqqq<qqtqq<5tqqqq55q<-5q55qqq55tttttq>55qqyq555qqqttt<<y",
"qqqqqqqq5qqq<qttqqtqqqq5q5qq<-q55qqqqqqqqtttq>5t5qtq5q5qq5qtt>>y",
"qqqqqqqqq5qt<qtqqq55555qqqqq>-qq555qqqt5tyytq-5qqqqtqqqq5qqtt>-t"
};
