/* XPM */
static char *d2fadd3112ec40c6eb887f0ea81742b5v87we7fOnCsDKhOu[] = {
/* columns rows colors chars-per-pixel */
"15 15 24 1 ",
"  c black",
". c #A80000",
"X c #F80000",
"o c #F90000",
"O c #FA0000",
"+ c #FC0000",
"@ c red",
"# c #FF0101",
"$ c #FF0202",
"% c #FF0404",
"& c #FF0505",
"* c #FC0606",
"= c #FF0606",
"- c #FA0808",
"; c #FF0A0A",
": c #FF0D0D",
"> c #FF0E0E",
", c #FF1010",
"< c #FF1212",
"1 c #FF1313",
"2 c #FF1717",
"3 c #FF1B1B",
"4 c #FF1C1C",
"5 c #FF1D1D",
/* pixels */
"               ",
"               ",
"               ",
"    @@@@2OO    ",
"    -  @ .@    ",
"    *  @  @    ",
"    *@@@@@@    ",
"     @@@@@     ",
"    @ @@@ @    ",
"    *@   @@    ",
"    4@@@@OO    ",
"31;1>@*@@@1>444",
"@@@@@@@@@@@@@@@",
"@@@@@@@@@@@@@@@",
"1*@@@@@@@@@@@@*"
};
