/* XPM */
static char *SANDSTONE[] = {
/* columns rows colors chars-per-pixel */
"64 64 80 1 ",
"  c #837A33",
". c #857C38",
"X c #887F3C",
"o c #88803E",
"O c #8B8345",
"+ c #8E864A",
"@ c #8F884D",
"# c #928A4D",
"$ c #8F8850",
"% c #928A53",
"& c #958E5A",
"* c #9B945E",
"= c #A09754",
"- c #A1985B",
"; c #A8A05E",
": c #A79F64",
"> c #ABA263",
", c #ABA46C",
"< c #B0A762",
"1 c #B2A966",
"2 c #B5AC6C",
"3 c #B8AF6F",
"4 c #B6AE72",
"5 c #B8AF71",
"6 c #B9B175",
"7 c #BCB57B",
"8 c #C0B66D",
"9 c #C0B775",
"0 c #C3BB7D",
"q c #BEB780",
"w c #BFB882",
"e c #C2BB85",
"r c #C2BB88",
"t c #C7C086",
"y c #CAC287",
"u c #C7C088",
"i c #CAC48D",
"p c #D7CE83",
"a c #D7CF8B",
"s c #D8CF8C",
"d c #DBD28D",
"f c #CCC693",
"g c #CFC894",
"h c #CDC799",
"j c #CEC99B",
"k c #D0CA96",
"l c #D1CB9A",
"z c #DED594",
"x c #DFD897",
"c c #DED69A",
"v c #DFD89C",
"b c #E0D797",
"n c #E1D896",
"m c #E0D798",
"M c #E2DA9C",
"N c #E7E09F",
"B c #E8E09F",
"V c #D2CDA3",
"C c #E5DDA3",
"Z c #E6DFA8",
"A c #E8DFA9",
"S c #E7E0A7",
"D c #E9E1A4",
"F c #E7E0A9",
"G c #E9E2AC",
"H c #EBE5B2",
"J c #EEE8B3",
"K c #EFE8BA",
"L c #F0EAB4",
"P c #F1EBBC",
"I c #F7F1B5",
"U c #F9F4B4",
"Y c #FBF7BB",
"T c #FCF9BE",
"R c #F1ECC1",
"E c #FDFAC4",
"W c #FEFCCC",
"Q c #FEFDD3",
"! c #FFFEDB",
"~ c #FEFDE1",
/* pixels */
"0ghlllkffllllgfglkllkfffyikkllkiyikllllllllkkiisjjjlkkkffyyfkg0:",
"l~QWETEWQ!QQQQQQEETEEEETTTTTTUTTEWWWWWQ!QQQQWETEEEEUYETEEEEWWEC,",
"lQLGGLLLGDDDDDCMMDCCSGDDDDBDDMDJLJDJJGSDGLLGGDJGDDDGLLLGGGJJLHu*",
"lWGMMCMxzzzzMMCMMMMCSFGHHJGGFCCGFCMMMMCMMmnxMCSSSCCCMnxMCFSDMc7%",
"iUddnnMCCFGHGFFCMCZHJHGASSCCSSMnddMSFCMnnMCFFCCCCCMMMCGHHGMMMvq@",
"0UnzMMSFFFZSGHHJKKKJGMMnMMMCMxddnAGFCnMCCCCMMCCCMnzxMCCCFCCFHC2 ",
"lEDCGGGFCCMMCCGFGGCCMCFHHGGFCCCGGFACMCAAMxxnCCCmxMCZFGHHHGCCMa>O",
"kWJDDMMnzdzcMCMCCMCCZGFACCCCCCMCMMMCACMnzxCCCCMCFHHJKKHFMcxMMc5+",
"sTMmMdddznMCCCSSCMMMMMMMCCZHJGFCCMMmzdxMCGGGGHHGSMxdzddddMCCFC2O",
"fTMnMSFGGFFCMMnznnMMMMMMCCZGGFCCMmzMMZHGGGHHGCCxzzxxzzxMCCFCSv6O",
"uUnnnCCCCFGGGFFAMCMCCAASZFCCCMCMCAHPKRKJHGGCMzdzMCCSFGGGFCMMCc4O",
"yYDCCMMCCMCCCCCMMMMMMCCCGHHHHGGFAFGCMMMMCCZZCSCGHHHGGGFGGGHFMv6O",
"lQJFFCCFCACMnnMCCMMCSCCCFFFFMMACCnnnmMnxcMSFGGGSCCCMCCFFFMcccvq&",
"lEDMCCACAAFFGHHASFGHFMMMMcxMMMnnnMCACnddzMCMCCCcxcCFFFFCczMvCc6@",
"yWLKKGMnxzmMnxxMFGFCMMMMMCMnMMMMCCCCmnCGHHCMMMMMMSFGFSCMMMCCvz2X",
"lWGMnMMCFFCCMMCCFCMMCCCCFGGFACAACCCmMCAGCCCCCCCCCMxMMCSGHJKHHC7$",
"fEDMSFGSCMMMMCCMxzxcMMCCMCCCCMCCMCMSFSCMnMMMCCCmMCGGHGFCMMMMCC4O",
"lWGSFCnxzzMMMCFFSFHHGCMddcCGHGZCMMMMMMcMMMCCCMnMDFFCMnzdzCZAZv7$",
"kWGCMMCCCCCGGHGGFFHGGCCSHKKGFGHFFFCFSCCCCCCMmMmMxddzMMSGGGGCCv7$",
"gEDSFFCCMvCCFCCMMCCSCCSFCczdxmMmMCCGHHGFCAAAACCCMCFHHFCCGJJHHZ7+",
"fWGCGFSMCCMMCCFFFSCMMMCMCCZGFCMxcMMSFHHHGFCCCCCGHJGCCMCCCCxaas4@",
"iTDzdzMMMCCGHHHHHHGFGCCFJJKHSSCSFSFGHHGGFFGGHGZCvxzMCCMMzdzzMv7@",
"fTDCCCCSFGGCCMCZFFMMxMMCCMnMnMMMMSGFMMxMMCCCCnddcCCZCCMCGJKKKv4@",
"V!PHGFGHHCCcMCCvMMMCCMMMMMMMMMcMCMMMmMxxMMCMMCHKJHGFCCCCCMcCZZw&",
"lTMMCZCCMMCMMMxxzMCCMCCSSSMcvMMCMCSFGFSCCCCCGGFCmxmnnzddaadMFGr&",
"yTDFGGGAFFCZZCCCFGHGHKHCvcvDCCFFFFFSFSFGZMcnxxdzzxdzzMZGCCAFGZ4X",
"lWJCCCZZGZGHHHKKKHGFSvczcCFGGGZCCCCCCGGCMczzxMCACMMCFGCMMCACCc2O",
"fEDnzzxzzxMCZCCMMCMMvvCHHHGFCCCCCMMMCCCMvCCZHHGCMAGHAMmmCAACCv4+",
"VQHCMnvCCFZCvcvCCCMCGHKKKHFFGGHCCCCZCZZFAAAZACMmCAJHZCZZSCMCCv7&",
"kIxszcvCvCccvCZvczcvZZZCcxcvvvvvcvvvvvczscCZCvcvCCvvMMczzdkxcz4$",
"8z07wrre777qq742267qqwq7467qq777777467667qq4222544421336765642%.",
">>*%%%$$$$@@@@+@@$+OO$$%%%&&&&&&%@$$$$%%%@ooO+$$@OOoO++Oo..O++O#",
"yyuffffgggffiifgffiigglVVVlkfgi4qjgffifiifgjlfiiiiiiye0etijVVjji",
"EEWWWWEWWETUTEWQQQWEWEEEEEWWQWZ-i!ETEEEEEEETTEEEWWQWQQ!!!!QWEEEE",
"PLGSCDDDDSGJLPPHGGJJGSMnnBCCMn9#iQJGGDDBMBGLLGGJLPPLGGDCDMNDGGLL",
"nzdnCCCCCMCMMMmMDSHGSnmMMMmxda6@hQSCMMMCHJGCMMSSCDMddddMCCZCCCMM",
"xMFGFCCMznMCCCCAGFMMMCCFHJJHACq$iWDMMMMMMzzzMCGGFSMMnCCGGGFMnnnd",
"FGGHFMCCFGHGAAAHFSSCCMMMCMCMMd4@fEDCGSDMnnCCFFFFFCMxxxMCSCCCCMMC",
"nddznnMMMndzdnmMCFFGCMmMmxnmCM9%jQJHHGFCCSSSCCCCSSCMMMMMMCSFCMMM",
"MnzzzdxnMMCCCCCAGSCCCCCCCCCmmd5+iENMMzddMCCFFFSSCCMMxznMCSCCCCCM",
"GSFSSGHKPPJHAGCMMddxMCSCCMxzmc7%fWSxzcCGHHGCxzdxmMMMCCGGFSSFGGHG",
"SFGFFGFCMMCCCCCMnMCFHGCMmMmmmz5+fEGCHJKHGMzzMMSFACCZZCCMMACCMMMC",
"MzddzdzznnMMMCMMMCCCMCCJPJGCCv7@fWJFGHGFCCFJPKGCMMCCCCMCFFMzdnMM",
"zzMSSSCSCACCCCACMCMMCGHHCMMMCZe%gWDCFHHHHKRKGMMMCACMzzzMMMCCASCM",
"JKKKJHGFMCCCCMCMMCCHHGMxxzxMMm7+uEGDGGFFFCzddnSGGCmmCCGHHJPPPKHG",
"SGGFFCFGACASGAMMCGFCzdxMCCCZCm6+iWGMMxxxxzznMMzznMCHKHGGCMMMMMCC",
"CxMCSCCCCCCAMMMMCMMmMCZCZAGAGCq%gWGSFGGSCSMndppadzMCCCCCCCCCCFCC",
"xzzcCCCCAMMdanMMMCZGCxzzmMCCMv6OtEDCSSCMcdadzMDCCCMMCCCMMmMCCCCC",
"cCCCSSFFCMxxMCCCGHHCMCCFCCMMCC7+yESCCCCCCCGJJHHGAFFGGCMxxmZGZCCC",
"DCFFGGFCMMSHHHHJHCCMCCCCCCCGHC7$jQJFCCSFZGGCMMnnMCFFMMMCZGHJHGCC",
"cMCCCCMCSHHHFCFFCCMMMMMCCZGFCz6#fWDMMCMMMMCMMMCCGFGFGHJHGCZFGZCM",
"CCFCCMCFCCxzzxcCCZCCCCCCCCCCCM7+yWJHHGGHKHZCCCCCCMMCCZCMMcnMCCCC",
"MCSSSCSFCMznMCCFCMCCCmnnCCCCCm6#jQJMMCZCMcxmFHGCnxMCACMMCCGFZCCC",
"FFCMMCFFCSGKJHCMCCGGFZCCCMMMCMw%fENMMCCczxCZGFMMMCGGFCCFHHCxzxMC",
"MMCCCCMMCFSMcxccCCACCCCCCMMCCz4OuTMxcMZAGHGJGSMMMMMnxxMCCMMCCCCM",
"GGHHFSCMMMxcCFGJJHFZGFAMMCCCCC7+iENMGKHHGHCCnddddzzMAGZCCZHHHGGH",
"HGCMMMxxnMMCCGGHGGGCCMnxvCCvCCe%j!LGFMxzMMMdddznCHJJKHHAZCMMcMFG",
"cMCMCGGCCCSFGGFFCCCMzxMCCCCZGZr&jQJCMMSFGFCMMCFGHHGCCCmzxxdddznM",
"ZFGHFMxznMCFSCCCMCMMMCFGHKKRKHw%gWDSSFFSMcxMMFFSCCCMzccCCZFHJKHG",
"CCCMnzdzzMMMMMMMmMMMCCFGGFCxzs2XeTDMCMMcMCFFFSCMCCZACCCCCGHGHGFC",
"MCMCCZFZCCMMMMCCCCCMMxMMCMcxxz6OfQJHGGFCMMMSZZAHGGZMCCZZCCMvcMCC",
"GHZCCCvvcvvCCZCcxxzdxCSCvzaszc7&gWGCCvzdzlcvccccccvCZZZvzcvvMvvC",
"rwqqw76677w77767767ww763237706=o9z6<246qqqq76644666642244466447w",
"OO@$##+O++++#%%%&%%#++O+%&&&%#O#;*+@&&&$+OOO+O+$&$OOoOO+OoXXXOOO"
};
