/* XPM */
static char *test_gun[] = {
/* columns rows colors chars-per-pixel */
"64 36 58 1 ",
"  c #1D1B1A",
". c #211F1E",
"X c #24211E",
"o c #2B231E",
"O c #33261D",
"+ c #252321",
"@ c #2B2622",
"# c #2D2925",
"$ c #2D2B29",
"% c #332C26",
"& c #392E24",
"* c #332E29",
"= c #382F29",
"- c #3A3025",
"; c #36312C",
": c #3A332C",
"> c #343332",
", c #3A3532",
"< c #3C3834",
"1 c #373638",
"2 c #3E3A39",
"3 c #4E3425",
"4 c #4C372D",
"5 c #5E3E2D",
"6 c #403730",
"7 c #423A34",
"8 c #443E3A",
"9 c #5A3E31",
"0 c #613F2F",
"q c #41413F",
"w c #5C4135",
"e c #51453A",
"r c #644333",
"t c #6B4532",
"y c #6F4A37",
"u c #704732",
"i c #734934",
"p c #7D4E35",
"a c #754D38",
"s c #7F5037",
"d c #7D5139",
"f c #5C4E42",
"g c #845136",
"h c #8C5637",
"j c #845439",
"k c #8A563A",
"l c #8D593B",
"z c #915737",
"x c #935937",
"c c #995A36",
"v c #935B3B",
"b c #9B5E3C",
"n c #9D603E",
"m c #A2633E",
"M c #9A5F40",
"N c #9E6140",
"B c #A46540",
"V c None",
/* pixels */
"VVVVVVVVVVVVVVVVVVVVVVVVVVVVVVVVVVVVVVVVVVVVVVVVVVVVVVVVVVVVVVVV",
"VVVVVVVVVVVVVVVVVVVVVVVVVVVVVVVVVVVVVVVVVVVVVVVVVVVVVVVVVVVVVVVV",
"VVVVVVVVVVVVVVVVVVVVVVVVVVVVVVVVVVVVVVVVVVVVVVVVVVVVVVVVVVVVVVVV",
"VVVVVVVVVVVVVVVVVVVVVVVVVVVVVVVVVVVVVVVVVVVVVVVVVVVVVVVVVVVVVVVV",
"VVVVVVVVVVVVVVVVVVVVVVVVVVVVVVVVVVVVVVVVVVVVVVVVVVVVVVVVVVVVVVVV",
"VVVVVVVVVVVVVVVVVVVVVVVVVVVVVVVVVVVVVVVVVVVVVVVVVVVVVVVVVVVVVVVV",
"VVVVVVVVVVVVVVVVVVVVVVVVVVVVVVVVVVVVVVVVVVVVVVVVVVVVVVVVVVVVVVVV",
"VVVVVVVVVVVVVVVVVVVVVVVVVVVVVVVVVVVVVVVVVVVVVVVVVVVVVVVVVVVVVVVV",
"VVVVVVVVVVVVVVVVVVVVVVVVVVVVVVVVVVVVVVVVVVVVVVVVVVVVVVVVVVVVVVVV",
"VVVVVVVVVVVVVVVVVVVVVVVVVVVVVVVVVVVVVVVVVVVVVVVVVVVVVVVVVVVVVVVV",
"VVVVVVVVVVVVVVVVVVVVVVVVVVVVVVVVVVVVVVVVVVVVVVVVVVVVVVVVVVVVVVVV",
"VVVVVVVVVVVVVVVVVVVVVVVVVVVVVVVVVVVVVVVVVVVVVVVVVVVVVVVVVVVVVVVV",
"VVVVVVVVVVVVVVVVVVVVVVVVVVVVVVVVVVVVVVVVVVVVVVVVVVVVVVVVVVVVVVVV",
"VVVVVVVVVVVVVVVVVVVVVVVVVVVVVVVVVVVVVVVVVVVVVVVVVVVVVVVVVVVVVVVV",
"VVVVVVVVVVVVVVVVVVVVVVVVVVVVVVVVVVVVVVVVVVVVVVVVVVVVVVVVVVVVVVVV",
"VVVVVVVVVVVVVVVVVVVVVVVVVVVVVVVVVVVVVVVVVVVVVVVVVVVVVVVVVVVVVVVV",
"VVVVVVVVVVVVVVVVVVVVVVVVVVVVVVVVVVVVVVVVVVVVVVVVVVVVVVVVVVVVVVVV",
"VVVVVVVVVVVVVVVVVVVVVVVVVVVVVVVVVVVVVVVVVVVVVVVVVVVVVVVVVVVVVVVV",
"VVVVVVVVVVVVVVVVVVVVVVVVVVVVVVVVVVVVVVVVVVVVVVVVVVVVVVVVVVVVVVVV",
"VVVVVVVVVVVVVVVVVVVVVVVVVVVVVVVVVVVVVVVVVVVVVVVVVVVVVVVVVVVVVVVV",
"VVVVVVVVVVVVVVVVVVVVVVVVVVVVVVVVVVVVVVVVVVVVVVVVVVVVVVVVVVVVVVVV",
"VVVVVVVVVVVVVVVVVVVVVVVVVVVVVVVVVVVVVVVVVVVVVVVVVVVVVVVVVVVVVVVV",
"VVVVVVVVVVVVVVVVVVVVVVVVVVVVVVVVVV:;,:VVVVVVVVVVVVVVVVVVVVVVVVVV",
"VVVVVVVVVVVVVVVVVVVMMlkvjVVVVVVVVV:V;;:VVVVVVVVVVVVVVVVVVVVVVVVV",
"VVVVVVVVVVVVVVVVVVbvvvllaVVVVVVV;;;:$##;;oXVVVVVVVVVVVVVVVVVVVVV",
"VVVVVVVVVVVVVVVVMNnvbvllyVVV8VVV<>;;@+@#%@+#VVVVVVVVVVVVVVVVVVVV",
"VVVVVVVVVVVVVVV5nmmbbxkjr&o11VVVV<;#@%=::;;*;<VVVVVV,,VVVVVVVVVV",
"VVVVVVVVVVVVVVOjBncvvlgsrOo71VVV;;;@%:;;<*$++:q,%*=*====:VVVVVVV",
"VVVVVVVVVVVVVV3nncxhggksr&o%>VVV&oX#:;$$<,+$@o$;*#%%&****:;:VVVV",
"VVVVVVVVVVVVVVlvzzhpisssu5@$;VV*--X$:8$++;,;;#$@#*#o.@#****===VV",
"VVVVVVVVVVVVVNnvclstttuitr4>>VV$,:$+$:$;<-::*::;$;#X.+*$$*%$%#$*",
"VVVVVVVVVVVVNbbbbktrw9wrr9V1>VV$;:,+@%<,--ooo#;,<,@#X+@$1*#+++++",
"VVVVVVVVVVVNbnmnvsrwVwwwVVV1>VV$>,:$$>6&o%oo@#*1<<<:$+.+$*:>@@$@",
"VVVVVVVVVVNmnnbvjywVVVVVVVV1>VV$q81$$;%#@o%@&&&--66<%X X+#;21@$$",
"VVVVVVVVVNmcvzhgirwVVVVVVVV2>VV1e6=+#%##@%&&&&==-:7,:<;+++*7f#$*",
"VVVVVVVVnbcczgpirwVVVVVVVVVq>V*;-%%++$##=O&*=&&*::::<<87$+%=9*$*"
};
