/* XPM */
static char * wall_texture_blue_xpm[] = {
"64 64 176 2",
"  	c #00C6FF",
". 	c #F500FF",
"+ 	c #F412FE",
"@ 	c #DA77E3",
"# 	c #A4B7AB",
"$ 	c #93C39A",
"% 	c #B6A8BE",
"& 	c #E168EA",
"* 	c #F321FD",
"= 	c #21E528",
"- 	c #1CE624",
"; 	c #72D378",
"> 	c #67D76D",
", 	c #AFAEB7",
"' 	c #F31DFD",
") 	c #A6B6AD",
"! 	c #16E61F",
"~ 	c #AEAFB6",
"{ 	c #9BBEA2",
"] 	c #53DD59",
"^ 	c #94C29B",
"/ 	c #C09DC9",
"( 	c #DD72E6",
"_ 	c #F418FE",
": 	c #D481DD",
"< 	c #30E436",
"[ 	c #3BE241",
"} 	c #B5A8BD",
"| 	c #E55EEF",
"1 	c #EC46F6",
"2 	c #4EDE53",
"3 	c #5BDB60",
"4 	c #C893D1",
"5 	c #DF6EE8",
"6 	c #EE3FF8",
"7 	c #F225FC",
"8 	c #E266EB",
"9 	c #CE8CD6",
"0 	c #9DBCA4",
"a 	c #CE8BD7",
"b 	c #F50AFF",
"c 	c #056A08",
"d 	c #ABB1B3",
"e 	c #BE9FC6",
"f 	c #D580DE",
"g 	c #CC8FD4",
"h 	c #90C597",
"i 	c #29E430",
"j 	c #A2B9A9",
"k 	c #0EB115",
"l 	c #056E09",
"m 	c #B6A7BE",
"n 	c #33E339",
"o 	c #89C88F",
"p 	c #8FC596",
"q 	c #DA78E3",
"r 	c #0CA413",
"s 	c #077F0C",
"t 	c #13D41C",
"u 	c #C992D2",
"v 	c #36E33C",
"w 	c #E953F2",
"x 	c #098D0F",
"y 	c #15DD1D",
"z 	c #CF89D8",
"A 	c #38E23E",
"B 	c #EF3DF8",
"C 	c #0CA313",
"D 	c #098E0F",
"E 	c #14D71C",
"F 	c #64D86A",
"G 	c #BDA0C5",
"H 	c #54DD5A",
"I 	c #F034FA",
"J 	c #045F07",
"K 	c #098C0E",
"L 	c #12CA1A",
"M 	c #48DF4E",
"N 	c #CC8ED5",
"O 	c #68D76E",
"P 	c #7BCF82",
"Q 	c #11C519",
"R 	c #0EAD15",
"S 	c #16E51F",
"T 	c #A3B8AA",
"U 	c #B7A7BF",
"V 	c #098B0E",
"W 	c #15DF1E",
"X 	c #76D17C",
"Y 	c #CD8DD5",
"Z 	c #DD71E6",
"` 	c #0194B6",
" .	c #0FB516",
"..	c #11C218",
"+.	c #75D27B",
"@.	c #C39ACB",
"#.	c #59DB5F",
"$.	c #098F0F",
"%.	c #A9B3B0",
"&.	c #2DE433",
"*.	c #0DA914",
"=.	c #42E148",
"-.	c #D77DE0",
";.	c #08870D",
">.	c #0C9F12",
",.	c #15E21E",
"'.	c #A7B5AF",
").	c #BEA0C6",
"!.	c #DC74E5",
"~.	c #0DAA14",
"{.	c #0B9F12",
"].	c #99BFA0",
"^.	c #D482DD",
"/.	c #25E52C",
"(.	c #C19CC9",
"_.	c #CF8AD7",
":.	c #5CDA62",
"<.	c #B1ACB9",
"[.	c #C597CD",
"}.	c #ACB1B4",
"|.	c #14DA1D",
"1.	c #013102",
"2.	c #000000",
"3.	c #9ABEA1",
"4.	c #B3ABBA",
"5.	c #78D07F",
"6.	c #16E41F",
"7.	c #15E11E",
"8.	c #0CA012",
"9.	c #012101",
"0.	c #86CA8D",
"a.	c #66D76C",
"b.	c #077E0C",
"c.	c #DE6FE7",
"d.	c #3DE243",
"e.	c #71D377",
"f.	c #C992D1",
"g.	c #8CC693",
"h.	c #10BF18",
"i.	c #046407",
"j.	c #000A00",
"k.	c #A5B6AD",
"l.	c #D285DB",
"m.	c #CB8FD4",
"n.	c #8BC791",
"o.	c #60D966",
"p.	c #0A9410",
"q.	c #023D03",
"r.	c #83CB8A",
"s.	c #D384DC",
"t.	c #6AD670",
"u.	c #E855F2",
"v.	c #EC48F6",
"w.	c #4FDE55",
"x.	c #E462ED",
"y.	c #4ADF50",
"z.	c #C09DC8",
"A.	c #EA50F3",
"B.	c #E06BE9",
"C.	c #B0ADB8",
"D.	c #D77CE0",
"E.	c #EE41F7",
"F.	c #77D17E",
"G.	c #9FBBA6",
"H.	c #E265EC",
"I.	c #C29BCA",
"J.	c #63D869",
"K.	c #F229FC",
"L.	c #DC73E5",
"M.	c #EF39F9",
"N.	c #AAB2B2",
"O.	c #51DD57",
"P.	c #EC4AF5",
"Q.	c #4CDF51",
"R.	c #B2ABBA",
"S.	c #6BD671",
"                                                                . . . . . . . . . . . . . . . . . . . . . . . . . . . . . . . . ",
"                                                                . . . . . . . . . . . . . . . . . . . . . . . . . . . . . . . . ",
"                                                                . . . . . . . . . . . . . . . . . . . . . . . . . . . . . . . . ",
"                                                                . . . . . . . . . . . . . . . . . . . . . . . . . . . . . . . . ",
"                                                                . . . . . . . . . . . . . . . . . . . . . . . . . . . . . . . . ",
"                                                                . . . . . . . . . . . . . . . . . . . . . . . . . . . . . . . . ",
"                                                                . . . . . . . . . . . . . . . . . . . . . . . . . . . . . . . . ",
"                                                                . . . . . . . . . . . . . . . . . . . . . . . . . . . . . . . . ",
"                                                                . . . . . . . . . . . . . . . . . . . . . . . . . . . . . . . . ",
"                                                                . . . . . . . . . . . . . . . . . . . . . . . . . . . . . . . . ",
"                                                                . . . . . . . . . . . . . . . . . . . . . . . . . . . . . . . . ",
"                                                                . . . . . . . . . . . . . . . . . . . . . . . . . . . . . . . . ",
"                                                                . . . . . . + @ # $ % & + . . . . . . . . . . . . . . . . . . . ",
"                                                                . . . . . * % = - - ; > , ' . . . . . . . . . . . . . . . . . . ",
"                                                                . . . . . ) - - ! - ~ { = ] ^ / ( _ . . . . . . . . . . . . . . ",
"                                                                . . . . : < - - - - - - - - - [ } | . . . . . . . . . . . . . . ",
"                                                                . . . 1 2 - - - - - - - 3 4 5 6 7 . . . . . . . . . . . . . . . ",
"                                                                _ 8 9 0 - - - - - - - [ a b . . . . . . . . . . . . . . . . . . ",
"                                                              c d e f g h i ! ! ! ! ! j b . . . . . . . . . . . . . . . . . . . ",
"                                                            k l m n - - o p ! ! ! ! ! q . . . . . . . . . . . . . . . . . . . . ",
"                                                          r s t - ! ! ! - u v ! ! ! ! w . . . . . . . . . . . . . . . . . . . . ",
"                                                        r x y ! ! ! ! ! = z A ! ! ! ! B . . . . . . . . . . . . . . . . . . . . ",
"                                                      C D E ! ! - - - - F G = - - - H I . . . . . . . . . . . . . . . . . . . . ",
"                                                    J K L ! ! ! - - - M N O - - - - P 7 . . . . . . . . . . . . . . . . . . . . ",
"                                                    Q R S ! ! ! - - - T U = - - - - U . . . . . . . . . . . . . . . . . . . . . ",
"                                                  V c W ! ! ! ! - - - X Y - - - - - Z . . . . . . . . . . . . . . . . . . . . . ",
"                                                `  ...S ! ! ! ! - - - +.@.- - - - #.B . . . . . . . . . . . . . . . . . . . . . ",
"                                                $.K S ! ! ! ! ! - - = %.$ - - - &.4 b . . . . . . . . . . . . . . . . . . . . . ",
"                                                *.k S ! ! ! ! ! - - =.-.v - - - X ' . . . . . . . . . . . . . . . . . . . . . . ",
"                                              ;.>.,.! ! ! ! ! ! - - '.).= - - M !.. . . . . . . . . . . . . . . . . . . . . . . ",
"                                              ~.{.! ! ! ! ! ! ! - ].^.n - - /.(.b . . . . . . . . . . . . . . . . . . . . . . . ",
"                                              >.L ! ! ! ! ! ! ! 0 _.:.- - /.<.7 . . . . . . . . . . . . . . . . . . . . . . . . ",
". . . . . . . . . . . . . . . . . . . . . . [.[.&.- - - - - =.}.K |.! ! S R 1.2.2.2.2.2.2.2.2.2.2.2.2.2.2.2.2.2.2.2.2.2.2.2.2.2.",
". . . . . . . . . . . . . . . . . . . . . . 3.4.! ! ! ! i 5.-.(.6.! ! 7.8.9.2.2.2.2.2.2.2.2.2.2.2.2.2.2.2.2.2.2.2.2.2.2.2.2.2.2.",
". . . . . . . . . . . . . . . . . . . . . . G 0.! ! ! A [.( a.- ! ! 7.b.2.2.2.2.2.2.2.2.2.2.2.2.2.2.2.2.2.2.2.2.2.2.2.2.2.2.2.2.",
". . . . . . . . . . . . . . . . . . . . . @ c.d.! e.f.-.g.v ! ! ! h.i.j.2.2.2.2.2.2.2.2.2.2.2.2.2.2.2.2.2.2.2.2.2.2.2.2.2.2.2.2.",
". . . . . . . . . . . . . . . . . . . . . k.l.].m.(.n.d.! ! ! o.p.q.2.2.2.2.2.2.2.2.2.2.2.2.2.2.2.2.2.2.2.2.2.2.2.2.2.2.2.2.2.2.",
". . . . . . . . . . . . . . . . . . . . ' r.s.~ t.- ! ! - #.~ u.j.2.2.2.2.2.2.2.2.2.2.2.2.2.2.2.2.2.2.2.2.2.2.2.2.2.2.2.2.2.2.2.",
". . . . . . . . . . . . . . . . . . . . v.i ! ! ! ! ! w.'.x.. . 2.2.2.2.2.2.2.2.2.2.2.2.2.2.2.2.2.2.2.2.2.2.2.2.2.2.2.2.2.2.2.2.",
". . . . . . . . . . . . . . . . . . . . f y.! ! ! #.z.A.+ . . . 2.2.2.2.2.2.2.2.2.2.2.2.2.2.2.2.2.2.2.2.2.2.2.2.2.2.2.2.2.2.2.2.",
". . . . . . . . . . . . . . . . . . . B.M - d.C.D.E._ . . . . . 2.2.2.2.2.2.2.2.2.2.2.2.2.2.2.2.2.2.2.2.2.2.2.2.2.2.2.2.2.2.2.2.",
". . . . . . . . . . . . . . . . . . B F.! ! T b . . . . . . . . 2.2.2.2.2.2.2.2.2.2.2.2.2.2.2.2.2.2.2.2.2.2.2.2.2.2.2.2.2.2.2.2.",
". . . . . . . . . . . . . . . . . . G.! ! - H.. . . . . . . . . 2.2.2.2.2.2.2.2.2.2.2.2.2.2.2.2.2.2.2.2.2.2.2.2.2.2.2.2.2.2.2.2.",
". . . . . . . . . . . . . . . . . I.i ! ! J.K.. . . . . . . . . 2.2.2.2.2.2.2.2.2.2.2.2.2.2.2.2.2.2.2.2.2.2.2.2.2.2.2.2.2.2.2.2.",
". . . . . . . . . . . . . . . . v.=.! ! - L.. . . . . . . . . . 2.2.2.2.2.2.2.2.2.2.2.2.2.2.2.2.2.2.2.2.2.2.2.2.2.2.2.2.2.2.2.2.",
". . . . . . . . . . . . . . . M.a.- ! ! o.b . . . . . . . . . . 2.2.2.2.2.2.2.2.2.2.2.2.2.2.2.2.2.2.2.2.2.2.2.2.2.2.2.2.2.2.2.2.",
". . . . . . . . . . . . . . _ N.- ! ! - 4.. . . . . . . . . . . 2.2.2.2.2.2.2.2.2.2.2.2.2.2.2.2.2.2.2.2.2.2.2.2.2.2.2.2.2.2.2.2.",
". . . . . . . . . . . . . . f /.! ! ! O.P.. . . . . . . . . . . 2.2.2.2.2.2.2.2.2.2.2.2.2.2.2.2.2.2.2.2.2.2.2.2.2.2.2.2.2.2.2.2.",
". . . . . . . . . . . . . . +.! ! ! - G.. . . . . . . . . . . . 2.2.2.2.2.2.2.2.2.2.2.2.2.2.2.2.2.2.2.2.2.2.2.2.2.2.2.2.2.2.2.2.",
". . . . . . . . . . . . . . Q.! ! ! &.L.. . . . . . . . . . . . 2.2.2.2.2.2.2.2.2.2.2.2.2.2.2.2.2.2.2.2.2.2.2.2.2.2.2.2.2.2.2.2.",
". . . . . . . . . . . . . . x.o.- ! { . . . . . . . . . . . . . 2.2.2.2.2.2.2.2.2.2.2.2.2.2.2.2.2.2.2.2.2.2.2.2.2.2.2.2.2.2.2.2.",
". . . . . . . . . . . . . . . P.R.S.5 . . . . . . . . . . . . . 2.2.2.2.2.2.2.2.2.2.2.2.2.2.2.2.2.2.2.2.2.2.2.2.2.2.2.2.2.2.2.2.",
". . . . . . . . . . . . . . . . . . . . . . . . . . . . . . . . 2.2.2.2.2.2.2.2.2.2.2.2.2.2.2.2.2.2.2.2.2.2.2.2.2.2.2.2.2.2.2.2.",
". . . . . . . . . . . . . . . . . . . . . . . . . . . . . . . . 2.2.2.2.2.2.2.2.2.2.2.2.2.2.2.2.2.2.2.2.2.2.2.2.2.2.2.2.2.2.2.2.",
". . . . . . . . . . . . . . . . . . . . . . . . . . . . . . . . 2.2.2.2.2.2.2.2.2.2.2.2.2.2.2.2.2.2.2.2.2.2.2.2.2.2.2.2.2.2.2.2.",
". . . . . . . . . . . . . . . . . . . . . . . . . . . . . . . . 2.2.2.2.2.2.2.2.2.2.2.2.2.2.2.2.2.2.2.2.2.2.2.2.2.2.2.2.2.2.2.2.",
". . . . . . . . . . . . . . . . . . . . . . . . . . . . . . . . 2.2.2.2.2.2.2.2.2.2.2.2.2.2.2.2.2.2.2.2.2.2.2.2.2.2.2.2.2.2.2.2.",
". . . . . . . . . . . . . . . . . . . . . . . . . . . . . . . . 2.2.2.2.2.2.2.2.2.2.2.2.2.2.2.2.2.2.2.2.2.2.2.2.2.2.2.2.2.2.2.2.",
". . . . . . . . . . . . . . . . . . . . . . . . . . . . . . . . 2.2.2.2.2.2.2.2.2.2.2.2.2.2.2.2.2.2.2.2.2.2.2.2.2.2.2.2.2.2.2.2.",
". . . . . . . . . . . . . . . . . . . . . . . . . . . . . . . . 2.2.2.2.2.2.2.2.2.2.2.2.2.2.2.2.2.2.2.2.2.2.2.2.2.2.2.2.2.2.2.2.",
". . . . . . . . . . . . . . . . . . . . . . . . . . . . . . . . 2.2.2.2.2.2.2.2.2.2.2.2.2.2.2.2.2.2.2.2.2.2.2.2.2.2.2.2.2.2.2.2.",
". . . . . . . . . . . . . . . . . . . . . . . . . . . . . . . . 2.2.2.2.2.2.2.2.2.2.2.2.2.2.2.2.2.2.2.2.2.2.2.2.2.2.2.2.2.2.2.2.",
". . . . . . . . . . . . . . . . . . . . . . . . . . . . . . . . 2.2.2.2.2.2.2.2.2.2.2.2.2.2.2.2.2.2.2.2.2.2.2.2.2.2.2.2.2.2.2.2.",
". . . . . . . . . . . . . . . . . . . . . . . . . . . . . . . . 2.2.2.2.2.2.2.2.2.2.2.2.2.2.2.2.2.2.2.2.2.2.2.2.2.2.2.2.2.2.2.2."};
