/* XPM */
static char * wall_text_xpm[] = {
"64 64 179 2",
"  	c #000000",
". 	c #FF00FF",
"+ 	c #F412FE",
"@ 	c #DA77E3",
"# 	c #A4B7AB",
"$ 	c #93C39A",
"% 	c #B6A8BE",
"& 	c #E168EA",
"* 	c #F321FD",
"= 	c #21E528",
"- 	c #1CE624",
"; 	c #72D378",
"> 	c #67D76D",
", 	c #AFAEB7",
"' 	c #F31DFD",
") 	c #A6B6AD",
"! 	c #16E61F",
"~ 	c #AEAFB6",
"{ 	c #9BBEA2",
"] 	c #53DD59",
"^ 	c #94C29B",
"/ 	c #C09DC9",
"( 	c #DD72E6",
"_ 	c #F418FE",
": 	c #D481DD",
"< 	c #30E436",
"[ 	c #3BE241",
"} 	c #B5A8BD",
"| 	c #E55EEF",
"1 	c #EC46F6",
"2 	c #4EDE53",
"3 	c #5BDB60",
"4 	c #C893D1",
"5 	c #DF6EE8",
"6 	c #EE3FF8",
"7 	c #F225FC",
"8 	c #E266EB",
"9 	c #CE8CD6",
"0 	c #9DBCA4",
"a 	c #CE8BD7",
"b 	c #F50AFF",
"c 	c #001801",
"d 	c #056A08",
"e 	c #ABB1B3",
"f 	c #BE9FC6",
"g 	c #D580DE",
"h 	c #CC8FD4",
"i 	c #90C597",
"j 	c #29E430",
"k 	c #A2B9A9",
"l 	c #0EB115",
"m 	c #056E09",
"n 	c #B6A7BE",
"o 	c #33E339",
"p 	c #89C88F",
"q 	c #8FC596",
"r 	c #DA78E3",
"s 	c #013602",
"t 	c #0CA413",
"u 	c #077F0C",
"v 	c #13D41C",
"w 	c #C992D2",
"x 	c #36E33C",
"y 	c #E953F2",
"z 	c #098D0F",
"A 	c #15DD1D",
"B 	c #CF89D8",
"C 	c #38E23E",
"D 	c #EF3DF8",
"E 	c #0CA313",
"F 	c #098E0F",
"G 	c #14D71C",
"H 	c #64D86A",
"I 	c #BDA0C5",
"J 	c #54DD5A",
"K 	c #F034FA",
"L 	c #045F07",
"M 	c #098C0E",
"N 	c #12CA1A",
"O 	c #48DF4E",
"P 	c #CC8ED5",
"Q 	c #68D76E",
"R 	c #7BCF82",
"S 	c #012C01",
"T 	c #11C519",
"U 	c #0EAD15",
"V 	c #16E51F",
"W 	c #A3B8AA",
"X 	c #B7A7BF",
"Y 	c #098B0E",
"Z 	c #15DF1E",
"` 	c #76D17C",
" .	c #CD8DD5",
"..	c #DD71E6",
"+.	c #024503",
"@.	c #0FB516",
"#.	c #11C218",
"$.	c #75D27B",
"%.	c #C39ACB",
"&.	c #59DB5F",
"*.	c #098F0F",
"=.	c #A9B3B0",
"-.	c #2DE433",
";.	c #0DA914",
">.	c #42E148",
",.	c #D77DE0",
"'.	c #08870D",
").	c #0C9F12",
"!.	c #15E21E",
"~.	c #A7B5AF",
"{.	c #BEA0C6",
"].	c #DC74E5",
"^.	c #0DAA14",
"/.	c #0B9F12",
"(.	c #99BFA0",
"_.	c #D482DD",
":.	c #25E52C",
"<.	c #C19CC9",
"[.	c #012501",
"}.	c #CF8AD7",
"|.	c #5CDA62",
"1.	c #B1ACB9",
"2.	c #C597CD",
"3.	c #ACB1B4",
"4.	c #14DA1D",
"5.	c #013102",
"6.	c #9ABEA1",
"7.	c #B3ABBA",
"8.	c #78D07F",
"9.	c #16E41F",
"0.	c #15E11E",
"a.	c #0CA012",
"b.	c #012101",
"c.	c #86CA8D",
"d.	c #66D76C",
"e.	c #077E0C",
"f.	c #DE6FE7",
"g.	c #3DE243",
"h.	c #71D377",
"i.	c #C992D1",
"j.	c #8CC693",
"k.	c #10BF18",
"l.	c #046407",
"m.	c #000A00",
"n.	c #A5B6AD",
"o.	c #D285DB",
"p.	c #CB8FD4",
"q.	c #8BC791",
"r.	c #60D966",
"s.	c #0A9410",
"t.	c #023D03",
"u.	c #83CB8A",
"v.	c #D384DC",
"w.	c #6AD670",
"x.	c #E855F2",
"y.	c #EC48F6",
"z.	c #4FDE55",
"A.	c #E462ED",
"B.	c #4ADF50",
"C.	c #C09DC8",
"D.	c #EA50F3",
"E.	c #E06BE9",
"F.	c #B0ADB8",
"G.	c #D77CE0",
"H.	c #EE41F7",
"I.	c #77D17E",
"J.	c #9FBBA6",
"K.	c #E265EC",
"L.	c #C29BCA",
"M.	c #63D869",
"N.	c #F229FC",
"O.	c #DC73E5",
"P.	c #EF39F9",
"Q.	c #AAB2B2",
"R.	c #51DD57",
"S.	c #EC4AF5",
"T.	c #4CDF51",
"U.	c #B2ABBA",
"V.	c #6BD671",
"                                                                . . . . . . . . . . . . . . . . . . . . . . . . . . . . . . . . ",
"                                                                . . . . . . . . . . . . . . . . . . . . . . . . . . . . . . . . ",
"                                                                . . . . . . . . . . . . . . . . . . . . . . . . . . . . . . . . ",
"                                                                . . . . . . . . . . . . . . . . . . . . . . . . . . . . . . . . ",
"                                                                . . . . . . . . . . . . . . . . . . . . . . . . . . . . . . . . ",
"                                                                . . . . . . . . . . . . . . . . . . . . . . . . . . . . . . . . ",
"                                                                . . . . . . . . . . . . . . . . . . . . . . . . . . . . . . . . ",
"                                                                . . . . . . . . . . . . . . . . . . . . . . . . . . . . . . . . ",
"                                                                . . . . . . . . . . . . . . . . . . . . . . . . . . . . . . . . ",
"                                                                . . . . . . . . . . . . . . . . . . . . . . . . . . . . . . . . ",
"                                                                . . . . . . . . . . . . . . . . . . . . . . . . . . . . . . . . ",
"                                                                . . . . . . . . . . . . . . . . . . . . . . . . . . . . . . . . ",
"                                                                . . . . . . + @ # $ % & + . . . . . . . . . . . . . . . . . . . ",
"                                                                . . . . . * % = - - ; > , ' . . . . . . . . . . . . . . . . . . ",
"                                                                . . . . . ) - - ! - ~ { = ] ^ / ( _ . . . . . . . . . . . . . . ",
"                                                                . . . . : < - - - - - - - - - [ } | . . . . . . . . . . . . . . ",
"                                                                . . . 1 2 - - - - - - - 3 4 5 6 7 . . . . . . . . . . . . . . . ",
"                                                                _ 8 9 0 - - - - - - - [ a b . . . . . . . . . . . . . . . . . . ",
"                                                            c d e f g h i j ! ! ! ! ! k b . . . . . . . . . . . . . . . . . . . ",
"                                                            l m n o - - p q ! ! ! ! ! r . . . . . . . . . . . . . . . . . . . . ",
"                                                        s t u v - ! ! ! - w x ! ! ! ! y . . . . . . . . . . . . . . . . . . . . ",
"                                                      c t z A ! ! ! ! ! = B C ! ! ! ! D . . . . . . . . . . . . . . . . . . . . ",
"                                                      E F G ! ! - - - - H I = - - - J K . . . . . . . . . . . . . . . . . . . . ",
"                                                    L M N ! ! ! - - - O P Q - - - - R 7 . . . . . . . . . . . . . . . . . . . . ",
"                                                  S T U V ! ! ! - - - W X = - - - - X . . . . . . . . . . . . . . . . . . . . . ",
"                                                  Y d Z ! ! ! ! - - - `  .- - - - - ... . . . . . . . . . . . . . . . . . . . . ",
"                                                +.@.#.V ! ! ! ! - - - $.%.- - - - &.D . . . . . . . . . . . . . . . . . . . . . ",
"                                                *.M V ! ! ! ! ! - - = =.$ - - - -.4 b . . . . . . . . . . . . . . . . . . . . . ",
"                                              S ;.l V ! ! ! ! ! - - >.,.x - - - ` ' . . . . . . . . . . . . . . . . . . . . . . ",
"                                              '.).!.! ! ! ! ! ! - - ~.{.= - - O ].. . . . . . . . . . . . . . . . . . . . . . . ",
"                                              ^./.! ! ! ! ! ! ! - (._.o - - :.<.b . . . . . . . . . . . . . . . . . . . . . . . ",
"                                            [.).N ! ! ! ! ! ! ! 0 }.|.- - :.1.7 . . . . . . . . . . . . . . . . . . . . . . . . ",
". . . . . . . . . . . . . . . . . . . . . . 2.2.-.- - - - - >.3.M 4.! ! V U 5.                                                  ",
". . . . . . . . . . . . . . . . . . . . . . 6.7.! ! ! ! j 8.,.<.9.! ! 0.a.b.                                                    ",
". . . . . . . . . . . . . . . . . . . . . . I c.! ! ! C 2.( d.- ! ! 0.e.                                                        ",
". . . . . . . . . . . . . . . . . . . . . @ f.g.! h.i.,.j.x ! ! ! k.l.m.                                                        ",
". . . . . . . . . . . . . . . . . . . . . n.o.(.p.<.q.g.! ! ! r.s.t.                                                            ",
". . . . . . . . . . . . . . . . . . . . ' u.v.~ w.- ! ! - &.~ x.m.                                                              ",
". . . . . . . . . . . . . . . . . . . . y.j ! ! ! ! ! z.~.A.. .                                                                 ",
". . . . . . . . . . . . . . . . . . . . g B.! ! ! &.C.D.+ . . .                                                                 ",
". . . . . . . . . . . . . . . . . . . E.O - g.F.G.H._ . . . . .                                                                 ",
". . . . . . . . . . . . . . . . . . D I.! ! W b . . . . . . . .                                                                 ",
". . . . . . . . . . . . . . . . . . J.! ! - K.. . . . . . . . .                                                                 ",
". . . . . . . . . . . . . . . . . L.j ! ! M.N.. . . . . . . . .                                                                 ",
". . . . . . . . . . . . . . . . y.>.! ! - O.. . . . . . . . . .                                                                 ",
". . . . . . . . . . . . . . . P.d.- ! ! r.b . . . . . . . . . .                                                                 ",
". . . . . . . . . . . . . . _ Q.- ! ! - 7.. . . . . . . . . . .                                                                 ",
". . . . . . . . . . . . . . g :.! ! ! R.S.. . . . . . . . . . .                                                                 ",
". . . . . . . . . . . . . . $.! ! ! - J.. . . . . . . . . . . .                                                                 ",
". . . . . . . . . . . . . . T.! ! ! -.O.. . . . . . . . . . . .                                                                 ",
". . . . . . . . . . . . . . A.r.- ! { . . . . . . . . . . . . .                                                                 ",
". . . . . . . . . . . . . . . S.U.V.5 . . . . . . . . . . . . .                                                                 ",
". . . . . . . . . . . . . . . . . . . . . . . . . . . . . . . .                                                                 ",
". . . . . . . . . . . . . . . . . . . . . . . . . . . . . . . .                                                                 ",
". . . . . . . . . . . . . . . . . . . . . . . . . . . . . . . .                                                                 ",
". . . . . . . . . . . . . . . . . . . . . . . . . . . . . . . .                                                                 ",
". . . . . . . . . . . . . . . . . . . . . . . . . . . . . . . .                                                                 ",
". . . . . . . . . . . . . . . . . . . . . . . . . . . . . . . .                                                                 ",
". . . . . . . . . . . . . . . . . . . . . . . . . . . . . . . .                                                                 ",
". . . . . . . . . . . . . . . . . . . . . . . . . . . . . . . .                                                                 ",
". . . . . . . . . . . . . . . . . . . . . . . . . . . . . . . .                                                                 ",
". . . . . . . . . . . . . . . . . . . . . . . . . . . . . . . .                                                                 ",
". . . . . . . . . . . . . . . . . . . . . . . . . . . . . . . .                                                                 ",
". . . . . . . . . . . . . . . . . . . . . . . . . . . . . . . .                                                                 "};
