/* XPM */
static char *ed9d5f8b60a145f5807d45d829ccf78dphWc5o94KFP7O0qM[] = {
/* columns rows colors chars-per-pixel */
"64 64 134 2 ",
"   c red",
".  c #000A00",
"X  c #001801",
"o  c #012101",
"O  c #012501",
"+  c #012C01",
"@  c #013102",
"#  c #013602",
"$  c #023D03",
"%  c #024503",
"&  c #045F07",
"*  c #046407",
"=  c #056A08",
"-  c #056E09",
";  c #077F0C",
":  c #08870D",
">  c #098B0E",
",  c #098D0F",
"<  c #0A9410",
"1  c #0B9F12",
"2  c #0C9F12",
"3  c #0CA313",
"4  c #0CA413",
"5  c #0DA914",
"6  c #0EAD15",
"7  c #0EB115",
"8  c #0FB516",
"9  c #10BF18",
"0  c #11C218",
"q  c #11C519",
"w  c #12CA1A",
"e  c #13D41C",
"r  c #14D71C",
"t  c #14DA1D",
"y  c #15DD1D",
"u  c #15E21E",
"i  c #16E61F",
"p  c #1CE624",
"a  c #21E528",
"s  c #25E52C",
"d  c #29E430",
"f  c #2DE433",
"g  c #30E436",
"h  c #33E339",
"j  c #36E33C",
"k  c #38E23E",
"l  c #3BE241",
"z  c #3DE243",
"x  c #48DF4E",
"c  c #4ADF50",
"v  c #4CDF51",
"b  c #4FDE55",
"n  c #51DD57",
"m  c #53DD59",
"M  c #54DD5A",
"N  c #59DB5F",
"B  c #42E148",
"V  c #5BDB60",
"C  c #5CDA62",
"Z  c #60D966",
"A  c #66D76C",
"S  c #68D76E",
"D  c #63D869",
"F  c #64D86A",
"G  c #6BD671",
"H  c #71D377",
"J  c #72D378",
"K  c #75D27B",
"L  c #77D17E",
"P  c #78D07F",
"I  c black",
"U  c #F50AFF",
"Y  c #F412FE",
"T  c #F418FE",
"R  c #F31DFD",
"E  c #F321FD",
"W  c #F225FC",
"Q  c #F229FC",
"!  c #EF39F9",
"~  c #EF3DF8",
"^  c #F034FA",
"/  c #E55EEF",
"(  c #EE41F7",
")  c #EC46F6",
"_  c #EC4AF5",
"`  c #EA50F3",
"'  c #E855F2",
"]  c #DE6FE7",
"[  c #DF6EE8",
"{  c #DA77E3",
"}  c #DC73E5",
"|  c #DC74E5",
" . c #D77CE0",
".. c #DA78E3",
"X. c #E266EB",
"o. c #E462ED",
"O. c #E265EC",
"+. c #E06BE9",
"@. c #7BCF82",
"#. c #9BBEA2",
"$. c #9FBBA6",
"%. c #9DBCA4",
"&. c #A4B7AB",
"*. c #A5B6AD",
"=. c #A3B8AA",
"-. c #AEAFB6",
";. c #B7A7BF",
":. c #B2ABBA",
">. c #B0ADB8",
",. c #B6A8BE",
"<. c #AAB2B2",
"1. c #ACB1B4",
"2. c #83CB8A",
"3. c #86CA8D",
"4. c #89C88F",
"5. c #8BC791",
"6. c #8CC693",
"7. c #8FC596",
"8. c #90C597",
"9. c #93C39A",
"0. c #94C29B",
"q. c #BE9FC6",
"w. c #BDA0C5",
"e. c #C597CD",
"r. c #C29BCA",
"t. c #C19CC9",
"y. c #CF8AD7",
"u. c #CB8FD4",
"i. c #CD8DD5",
"p. c #CF89D8",
"a. c #D285DB",
"s. c #D580DE",
"d. c #D384DC",
"f. c #C992D1",
/* pixels */
"                                                                I I I I I I I I I I I I I I I I I I I I I I I I I I I I I I I I ",
"                                                                I I I I I I I I I I I I I I I I I I I I I I I I I I I I I I I I ",
"                                                                I I I I I I I I I I I I I I I I I I I I I I I I I I I I I I I I ",
"                                                                I I I I I I I I I I I I I I I I I I I I I I I I I I I I I I I I ",
"                                                                I I I I I I I I I I I I I I I I I I I I I I I I I I I I I I I I ",
"                                                                I I I I I I I I I I I I I I I I I I I I I I I I I I I I I I I I ",
"                                                                I I I I I I I I I I I I I I I I I I I I I I I I I I I I I I I I ",
"                                                                I I I I I I I I I I I I I I I I I I I I I I I I I I I I I I I I ",
"                                                                I I I I I I I I I I I I I I I I I I I I I I I I I I I I I I I I ",
"                                                                I I I I I I I I I I I I I I I I I I I I I I I I I I I I I I I I ",
"                                                                I I I I I I I I I I I I I I I I I I I I I I I I I I I I I I I I ",
"                                                                I I I I I I I I I I I I I I I I I I I I I I I I I I I I I I I I ",
"                                                                I I I I I I Y { &.9.,.+.Y I I I I I I I I I I I I I I I I I I I ",
"                                                                I I I I I E ,.a p p J A -.R I I I I I I I I I I I I I I I I I I ",
"                                                                I I I I I *.p p i p -.#.a m 0.t.} T I I I I I I I I I I I I I I ",
"                                                                I I I I s.g p p p p p p p p p l ,./ I I I I I I I I I I I I I I ",
"                                                                I I I ) v p p p p p p p V f.[ ~ W I I I I I I I I I I I I I I I ",
"                                                                T X.i.%.p p p p p p p l y.U I I I I I I I I I I I I I I I I I I ",
"                                                            X = <.q.s.i.8.d i i i i i =.U I I I I I I I I I I I I I I I I I I I ",
"                                                            7 - ;.h p p 4.7.i i i i i ..I I I I I I I I I I I I I I I I I I I I ",
"                                                        # 4 ; e p i i i p f.j i i i i ` I I I I I I I I I I I I I I I I I I I I ",
"                                                      X 4 , y i i i i i a p.k i i i i ~ I I I I I I I I I I I I I I I I I I I I ",
"                                                      3 , r i i p p p p F w.a p p p M ^ I I I I I I I I I I I I I I I I I I I I ",
"                                                    & , w i i i p p p x i.S p p p p @.W I I I I I I I I I I I I I I I I I I I I ",
"                                                  + q 6 i i i i p p p =.;.a p p p p ;.I I I I I I I I I I I I I I I I I I I I I ",
"                                                  > = y i i i i p p p L i.p p p p p } I I I I I I I I I I I I I I I I I I I I I ",
"                                                % 8 0 i i i i i p p p K r.p p p p N ~ I I I I I I I I I I I I I I I I I I I I I ",
"                                                , , i i i i i i p p a <.9.p p p f f.U I I I I I I I I I I I I I I I I I I I I I ",
"                                              + 5 7 i i i i i i p p B  .j p p p L R I I I I I I I I I I I I I I I I I I I I I I ",
"                                              : 2 u i i i i i i p p *.w.a p p x | I I I I I I I I I I I I I I I I I I I I I I I ",
"                                              5 1 i i i i i i i p #.s.h p p s t.U I I I I I I I I I I I I I I I I I I I I I I I ",
"                                            O 2 w i i i i i i i %.y.C p p s >.W I I I I I I I I I I I I I I I I I I I I I I I I ",
"I I I I I I I I I I I I I I I I I I I I I I e.e.f p p p p p B 1., t i i i 6 @                                                   ",
"I I I I I I I I I I I I I I I I I I I I I I #.:.i i i i d P  .t.i i i u 3 o                                                     ",
"I I I I I I I I I I I I I I I I I I I I I I w.3.i i i k e.} A p i i u ;                                                         ",
"I I I I I I I I I I I I I I I I I I I I I { ] z i H f. .6.j i i i 9 * .                                                         ",
"I I I I I I I I I I I I I I I I I I I I I *.a.#.u.t.5.z i i i Z < $                                                             ",
"I I I I I I I I I I I I I I I I I I I I R 2.d.-.G p i i p N -.' .                                                               ",
"I I I I I I I I I I I I I I I I I I I I _ d i i i i i b *.o.I I                                                                 ",
"I I I I I I I I I I I I I I I I I I I I s.c i i i N t.` Y I I I                                                                 ",
"I I I I I I I I I I I I I I I I I I I +.x p z >. .( T I I I I I                                                                 ",
"I I I I I I I I I I I I I I I I I I ~ L i i =.U I I I I I I I I                                                                 ",
"I I I I I I I I I I I I I I I I I I $.i i p O.I I I I I I I I I                                                                 ",
"I I I I I I I I I I I I I I I I I r.d i i D Q I I I I I I I I I                                                                 ",
"I I I I I I I I I I I I I I I I _ B i i p } I I I I I I I I I I                                                                 ",
"I I I I I I I I I I I I I I I ! A p i i Z U I I I I I I I I I I                                                                 ",
"I I I I I I I I I I I I I I T <.p i i p :.I I I I I I I I I I I                                                                 ",
"I I I I I I I I I I I I I I s.s i i i n _ I I I I I I I I I I I                                                                 ",
"I I I I I I I I I I I I I I K i i i p $.I I I I I I I I I I I I                                                                 ",
"I I I I I I I I I I I I I I v i i i f } I I I I I I I I I I I I                                                                 ",
"I I I I I I I I I I I I I I o.Z p i #.I I I I I I I I I I I I I                                                                 ",
"I I I I I I I I I I I I I I I _ :.G [ I I I I I I I I I I I I I                                                                 ",
"I I I I I I I I I I I I I I I I I I I I I I I I I I I I I I I I                                                                 ",
"I I I I I I I I I I I I I I I I I I I I I I I I I I I I I I I I                                                                 ",
"I I I I I I I I I I I I I I I I I I I I I I I I I I I I I I I I                                                                 ",
"I I I I I I I I I I I I I I I I I I I I I I I I I I I I I I I I                                                                 ",
"I I I I I I I I I I I I I I I I I I I I I I I I I I I I I I I I                                                                 ",
"I I I I I I I I I I I I I I I I I I I I I I I I I I I I I I I I                                                                 ",
"I I I I I I I I I I I I I I I I I I I I I I I I I I I I I I I I                                                                 ",
"I I I I I I I I I I I I I I I I I I I I I I I I I I I I I I I I                                                                 ",
"I I I I I I I I I I I I I I I I I I I I I I I I I I I I I I I I                                                                 ",
"I I I I I I I I I I I I I I I I I I I I I I I I I I I I I I I I                                                                 ",
"I I I I I I I I I I I I I I I I I I I I I I I I I I I I I I I I                                                                 ",
"I I I I I I I I I I I I I I I I I I I I I I I I I I I I I I I I                                                                 "
};
